<!-- Generated by IcoMoon.io -->
<svg version="1.1" xmlns="http://www.w3.org/2000/svg" width="2141" height="1024" viewBox="0 0 2141 1024">
<title>logo_dk</title>
<g id="icomoon-ignore">
</g>
<path d="M1745.278 109.699c-40.79 0-75.916 14.083-103.864 41.509s-42.301 61.892-42.301 101.918c0 40.027 14.352 74.864 42.301 103.031 28.328 28.537 63.074 42.619 104.241 42.619 40.79 0 76.293-14.455 104.997-42.619 28.702-28.167 43.434-63.004 43.434-103.031 0-40.397-14.732-74.493-43.434-101.918-29.082-27.796-64.584-41.509-105.374-41.509zM1781.534 287.963c-10.196 10.377-21.904 15.567-36.257 15.567-13.219 0-24.55-5.19-34.369-15.197-9.821-10.377-14.729-21.865-14.729-35.207 0-13.712 4.908-25.202 14.729-34.467 9.819-9.265 21.15-13.713 34.369-13.713 13.973 0 26.061 4.447 36.257 14.083 10.198 9.265 15.109 20.384 15.109 34.096 0 12.972-4.911 24.46-15.109 34.837z"></path>
<path d="M1218.788 628.557h169.956v149.355h104.241v-251.646h-274.197v102.291z"></path>
<path d="M1387.611 251.646h104.241v-251.646h-271.553v102.289h167.312v149.357z"></path>
<path d="M1171.2 289.818v98.953h134.454v107.848h100.843v-107.848h134.077v-98.953h-369.373z"></path>
<path d="M2040.627 34.835v168.999h-120.86v98.583h120.86v167.515h100.464v-435.097h-100.464z"></path>
<path d="M871.696 312.799c-28.705-27.427-64.207-41.509-104.997-41.509s-75.913 14.082-103.864 41.509c-27.948 27.425-42.301 61.891-42.301 101.916 0 40.027 14.352 74.864 42.301 103.031 28.328 28.537 63.074 42.622 103.864 42.622s76.293-14.455 104.997-42.622c28.702-28.167 43.434-63.004 43.434-103.031 0-40.024-14.732-74.491-43.434-101.916zM802.579 449.925c-10.196 10.377-22.284 15.565-36.257 15.565-13.219 0-24.55-5.187-34.369-15.195-9.821-10.377-14.729-21.865-14.729-35.207 0-13.712 4.908-25.202 14.729-34.097 9.819-9.265 21.15-14.082 34.369-14.082 13.973 0 26.061 4.447 36.257 14.082 10.198 9.265 15.109 20.385 15.109 34.097 0.377 12.97-4.534 24.46-15.109 34.837z"></path>
<path d="M1113.034 862.045v-250.533h-240.207v96.358h139.366v57.444h-139.366v258.688h240.207v-96.358h-140.874v-65.599h140.874z"></path>
<path d="M1113.034 289.45h-100.841v271.288h100.841v-271.288z"></path>
<path d="M0 560.738h276.464v-271.288h-276.464v271.288zM176.756 387.291v75.976h-77.048v-75.976h77.048z"></path>
<path d="M461.531 206.801v169h-42.301v-169h-100.843v435.098h100.843v-167.145h42.301v167.145h100.464v-435.098h-100.464z"></path>
</svg>
