<svg width="264" height="88" viewBox="0 0 264 88" fill="none" xmlns="http://www.w3.org/2000/svg">
<g clip-path="url(#clip0_2004_5442)">
<path d="M242.742 88C245.911 86.3638 248.079 83.063 248.079 79.251C248.079 73.8142 243.671 69.4056 238.234 69.4056C237.934 69.4056 237.637 69.4241 237.343 69.4511C234.804 61.1949 227.117 55.1914 218.028 55.1914C210.319 55.1914 203.621 59.5104 200.214 65.8585C199 64.2337 197.215 63.0589 195.152 62.6474C192.931 59.882 189.527 58.1077 185.705 58.1077C185.241 58.1077 184.787 58.139 184.337 58.1903C182.59 53.464 178.056 50.0877 172.721 50.0877C165.876 50.0877 160.327 55.6371 160.327 62.4821C160.327 64.9826 161.073 67.3052 162.346 69.2518C161.687 69.1507 161.016 69.0823 160.327 69.0823C157.122 69.0823 154.183 70.2201 151.89 72.1125C149.293 69.8598 146.066 68.3162 142.506 67.7893C142.52 67.4803 142.53 67.1699 142.53 66.8566C142.53 55.9845 133.717 47.1714 122.845 47.1714C113.555 47.1714 105.773 53.6078 103.704 62.2642C100.753 59.6783 96.8914 58.1076 92.6593 58.1076C83.8078 58.1076 76.5639 64.9669 75.9388 73.6589C72.4772 69.9252 67.5317 67.5856 62.0379 67.5856C60.2108 67.5856 58.4465 67.8491 56.7747 68.3318C55.5245 58.0521 46.7727 50.0877 36.1555 50.0877C24.6796 50.0877 15.3766 59.3906 15.3766 70.8665C15.3766 71.6867 15.4294 72.4942 15.5219 73.2887C10.3657 74.9263 6.62769 79.7493 6.62769 85.4481C6.62769 86.3225 6.7167 87.1755 6.88403 87.9999L242.742 88Z" fill="#E7E7FF"/>
<path d="M106.255 55.4876C105.582 55.4876 105.036 54.9416 105.036 54.2683V38.0122C105.036 37.3389 105.582 36.793 106.255 36.793C106.928 36.793 107.474 37.3389 107.474 38.0122V54.2683C107.474 54.9416 106.928 55.4876 106.255 55.4876Z" fill="#88888F"/>
<path d="M106.255 60.3643C104.687 60.3643 103.41 59.088 103.41 57.5195C103.41 55.9511 104.687 54.6748 106.255 54.6748C106.928 54.6748 107.474 55.2207 107.474 55.894C107.474 56.5674 106.928 57.1133 106.255 57.1133C106.031 57.1133 105.849 57.2956 105.849 57.5198C105.849 57.7439 106.031 57.9262 106.255 57.9262C106.928 57.9262 107.474 58.4721 107.474 59.1454C107.474 59.8186 106.928 60.3643 106.255 60.3643Z" fill="white"/>
<path d="M166.403 38.0121H99.7527C99.7527 33.5231 103.392 29.884 107.881 29.884H166.403V38.0121Z" fill="#F6E27D"/>
<path d="M166.403 29.8845H138.767V38.0126H166.403V29.8845Z" fill="#EFC27B"/>
<path d="M157.868 59.1446V39.6382C157.868 38.9649 157.323 38.4189 156.649 38.4189H146.896C146.222 38.4189 145.676 38.9649 145.676 39.6382V78.6525C145.676 79.3258 146.222 79.8717 146.896 79.8717H156.649C157.323 79.8717 157.868 79.3258 157.868 78.6525V59.1446ZM153.496 54.2684L155.43 52.3351V56.2017L153.496 54.2684ZM154.925 59.1454L151.772 62.2981L148.62 59.1454L151.772 55.9927L154.925 59.1454ZM151.772 52.5444L148.62 49.3918L151.772 46.239L154.925 49.3916L151.772 52.5444ZM155.43 46.4481L153.496 44.5148L155.43 42.5814V46.4481ZM151.772 42.7908L149.839 40.8572H153.705L151.772 42.7908ZM150.048 44.5149L148.114 46.4485V42.5817L150.048 44.5149ZM150.048 54.2684L148.114 56.2019V52.3352L150.048 54.2684ZM150.048 64.0221L148.114 65.9556V62.0888L150.048 64.0221ZM151.772 65.7465L154.925 68.8991L151.772 72.0518L148.62 68.8991L151.772 65.7465ZM150.048 73.7758L148.114 75.7093V71.8425L150.048 73.7758ZM151.772 75.5001L153.706 77.4334H149.839L151.772 75.5001ZM153.496 73.7758L155.43 71.8424V75.709L153.496 73.7758ZM153.496 64.0221L155.43 62.0887V65.9553L153.496 64.0221Z" fill="#EFC27B"/>
<path d="M138.767 86.7797H164.777L161.526 78.6519H142.018L138.767 86.7797Z" fill="#F6E27D"/>
<path d="M159.9 34.7605H143.644V41.2629H159.9V34.7605Z" fill="#F6E27D"/>
<path d="M177.782 26.6331H164.777V42.8892H177.782V26.6331Z" fill="#DBDBDB"/>
<path d="M177.782 39.2314H164.777C164.103 39.2314 163.558 38.6855 163.558 38.0122C163.558 37.3389 164.103 36.793 164.777 36.793H177.782C178.455 36.793 179.001 37.3389 179.001 38.0122C179.001 38.6855 178.455 39.2314 177.782 39.2314Z" fill="#CCCCCE"/>
<path d="M146.895 28.2586L150.146 18.5051H156.649V31.5099H146.895V28.2586Z" fill="#F6E27D"/>
<path d="M135.516 35.1675H111.132C110.459 35.1675 109.913 34.6215 109.913 33.9482C109.913 33.275 110.459 32.729 111.132 32.729H135.516C136.189 32.729 136.735 33.2749 136.735 33.9482C136.735 34.6216 136.189 35.1675 135.516 35.1675Z" fill="#F8E99B"/>
<path d="M168.028 87.9998H135.516C134.843 87.9998 134.297 87.4538 134.297 86.7805C134.297 86.1072 134.843 85.5613 135.516 85.5613H168.028C168.702 85.5613 169.247 86.1072 169.247 86.7805C169.247 87.4539 168.702 87.9998 168.028 87.9998Z" fill="#88888F"/>
<path d="M168.028 85.5613H138.767V87.9998H168.028C168.702 87.9998 169.247 87.4538 169.247 86.7805C169.247 86.1072 168.702 85.5613 168.028 85.5613Z" fill="#797781"/>
<path d="M113.077 58.133C112.923 57.6897 112.297 57.6871 112.14 58.1291L108.647 67.9221H116.475L113.077 58.133Z" fill="#FFDC00"/>
<path d="M122.81 86.1715L119.95 77.9329H105.078L102.141 86.1676C102.026 86.4913 102.266 86.8315 102.609 86.8315H122.34C122.682 86.8315 122.922 86.4944 122.81 86.1715Z" fill="#FFDC00"/>
<path d="M116.475 67.9221H108.647L105.078 77.9332H119.95L116.475 67.9221Z" fill="white"/>
<path d="M125.234 85.1526H99.8097C99.4496 85.1526 99.1577 85.4445 99.1577 85.8045V87.2924C99.1577 87.6525 99.4496 87.9443 99.8097 87.9443H125.234C125.594 87.9443 125.886 87.6525 125.886 87.2924V85.8045C125.886 85.4445 125.594 85.1526 125.234 85.1526Z" fill="#FFAA00"/>
<path opacity="0.1" d="M125.097 85.2192H122.284L119.783 77.989L116.32 67.9779L112.934 58.1889C112.781 57.7466 112.157 57.744 112 58.185L111.547 59.4598L118.876 81.9463C119.134 82.7379 118.544 83.5507 117.711 83.5507H102.987L102.394 85.2192H99.5689C99.2381 85.2192 98.97 85.4874 98.97 85.8182V87.399C98.97 87.7309 99.239 87.9999 99.571 87.9999H125.099C125.43 87.9999 125.698 87.7318 125.698 87.4011V85.8201C125.698 85.4882 125.429 85.2192 125.097 85.2192Z" fill="#606060"/>
<path d="M113.506 82.4562H116.092C116.803 82.4562 117.385 81.8744 117.385 81.1632C117.385 80.4522 116.803 79.8704 116.092 79.8704H113.506C112.795 79.8704 112.213 80.4521 112.213 81.1632C112.213 81.8744 112.795 82.4562 113.506 82.4562Z" fill="#FFC200"/>
<path opacity="0.1" d="M109.095 76.7759H108.2C107.708 76.7759 107.305 76.3732 107.305 75.881C107.305 75.3889 107.708 74.9861 108.2 74.9861H109.095C109.587 74.9861 109.99 75.3888 109.99 75.881C109.99 76.3731 109.587 76.7759 109.095 76.7759Z" fill="#606060"/>
<path d="M54.8146 54.0457C51.1577 54.0457 48.1888 51.0768 48.1888 47.4199V35.5481C48.1888 35.1262 48.5314 34.7836 48.9533 34.7836H60.6759C61.0978 34.7836 61.4403 35.1262 61.4403 35.5481V47.4199C61.4403 51.0768 58.4714 54.0457 54.8146 54.0457Z" fill="#FFC200"/>
<path d="M57.1157 65.8923C51.7059 65.8923 47.7266 63.7443 46.7456 62.5721C45.3272 60.8766 45.5515 58.3522 47.247 56.9334C48.7041 55.7131 50.7747 55.7075 52.2292 56.8088C52.9824 57.2165 58.7467 60.0116 66.0595 54.6728C67.8458 53.3691 70.3496 53.7601 71.6528 55.5455C72.9565 57.3313 72.5654 59.8355 70.7801 61.1387C65.8679 64.7249 61.1032 65.8923 57.1157 65.8923Z" fill="#8E67EF"/>
<path d="M47.7244 88.0002C47.2672 88.0002 46.8027 87.9366 46.3417 87.803C43.7099 87.0403 42.1943 84.2886 42.9566 81.6567C45.9 71.4972 42.8797 59.9459 42.8487 59.8303C42.1419 57.183 43.7146 54.4635 46.3619 53.7563C49.0109 53.0524 51.7291 54.6225 52.4359 57.2694C52.591 57.8499 56.191 71.6347 52.4879 84.4179C51.8589 86.5887 49.8767 88.0002 47.7244 88.0002Z" fill="#A678FF"/>
<path d="M27.2042 88C25.0519 88 23.0697 86.5885 22.4406 84.4177C18.7376 71.6345 22.3375 57.8497 22.4926 57.2692C23.1995 54.6219 25.9164 53.0501 28.5667 53.756C31.2119 54.4629 32.7841 57.1777 32.0816 59.8232C32.033 60.0089 29.0604 71.6057 31.972 81.6565C32.7343 84.2883 31.2188 87.0401 28.5869 87.8028C28.1258 87.9364 27.6609 88 27.2042 88Z" fill="#A678FF"/>
<path d="M36.0438 81.2617H38.8848C47.4143 81.2617 54.1232 73.9736 53.4184 65.4732L52.974 60.1138C52.3471 52.5527 46.0275 46.7354 38.4405 46.7354H36.4882C28.9011 46.7354 22.5815 52.5527 21.9546 60.1138L21.5102 65.4732C20.8054 73.9736 27.5143 81.2617 36.0438 81.2617Z" fill="#A678FF"/>
<path d="M33.9173 74.8748H45.8437C46.5645 74.8748 47.1488 74.2905 47.1488 73.5697V66.5825C47.1488 65.8617 46.5645 65.2774 45.8437 65.2774H33.9173C33.1965 65.2774 32.6122 65.8617 32.6122 66.5825V73.5697C32.6122 74.2905 33.1965 74.8748 33.9173 74.8748Z" fill="#8E67EF"/>
<path d="M18.577 77.8404C16.5484 77.8404 14.8095 76.3043 14.5994 74.243C13.1462 59.983 22.8752 53.2137 25.4928 52.7711C27.6709 52.4012 29.7381 53.8703 30.1072 56.0501C30.4243 57.9239 29.3836 59.714 27.7006 60.4135C26.9688 60.8582 21.6462 64.4242 22.5641 73.4309C22.7884 75.6305 21.1869 77.5951 18.9878 77.8193C18.8499 77.8335 18.7123 77.8404 18.577 77.8404Z" fill="#8E67EF"/>
<path d="M14.5587 41.9899C14.5587 54.4312 24.6444 61.3985 37.0857 61.3985C49.5271 61.3985 59.6128 54.4313 59.6128 41.9899C59.6128 29.5486 49.5271 19.4629 37.0857 19.4629C24.6444 19.4629 14.5587 29.5486 14.5587 41.9899Z" fill="#A678FF"/>
<path d="M18.9176 54.0457C15.2608 54.0457 12.2919 51.0768 12.2919 47.4199L12.2919 35.5481C12.2919 35.1262 12.6344 34.7836 13.0563 34.7836H24.7789C25.2008 34.7836 25.5433 35.1262 25.5433 35.5481L25.5433 47.4199C25.5433 51.0768 22.5744 54.0457 18.9176 54.0457Z" fill="#FFC200"/>
<path d="M56.1881 24.7239L50.2245 18.7603L51.4022 17.5826C51.9732 17.0116 52.9004 17.0116 53.4714 17.5826L57.3658 21.477C57.9368 22.048 57.9368 22.9752 57.3658 23.5462L56.1881 24.7239Z" fill="#FFC200"/>
<path d="M16.8056 21.4769L20.7 17.5825C21.271 17.0115 22.1982 17.0115 22.7692 17.5825L23.9469 18.7602L17.9833 24.7238L16.8056 23.5461C16.2346 22.9751 16.2346 22.0479 16.8056 21.4769Z" fill="#FFC200"/>
<path d="M12.9023 36.6828C13.6792 23.9858 24.1932 13.9207 37.0856 13.9207C49.9782 13.9207 60.4923 23.9859 61.269 36.6828H12.9023Z" fill="#FFDC00"/>
<path d="M41.8428 32.0031C41.8428 31.776 43.1587 16.1122 28.8892 15.3428L28.9545 15.1196C29.1219 14.5472 29.6877 14.1876 30.2771 14.2791L42.2338 16.1347L45.4764 31.7476L41.8428 32.0031Z" fill="#FFB600"/>
<path d="M36.0732 13.7432C36.0732 13.7432 50.6264 15.1696 52.2364 31.4922H43.0432C43.0432 31.4922 46.3723 16.8711 30.0214 14.2595L36.0732 13.7432Z" fill="#FFC200"/>
<path d="M64.1454 37.6523L10.0259 37.6523C9.76003 37.6523 9.54417 37.4365 9.54417 37.1706C9.54417 33.7327 12.3353 30.9416 15.7732 30.9416L58.3982 30.9416C61.8361 30.9416 64.6272 33.7327 64.6272 37.1706C64.6272 37.4365 64.4113 37.6523 64.1454 37.6523Z" fill="#FFAA00"/>
<path d="M31.3976 49.1536H54.5863C56.5535 49.1536 58.1482 47.5589 58.1482 45.5917V37.5592C58.1482 35.592 56.5535 33.9973 54.5863 33.9973H31.3976C29.4304 33.9973 27.8357 35.592 27.8357 37.5592V45.5917C27.8357 47.5589 29.4304 49.1536 31.3976 49.1536Z" fill="#F1F1FF"/>
<path d="M54.5864 50.1484H31.3975C28.8847 50.1484 26.8407 48.1043 26.8407 45.5919V37.5593C26.8407 35.0469 28.8847 33.0029 31.3975 33.0029H54.5864C57.0988 33.0029 59.1429 35.0469 59.1429 37.5593V45.5919C59.1429 48.1043 57.0988 50.1484 54.5864 50.1484ZM31.3975 34.9924C29.9817 34.9924 28.8301 36.144 28.8301 37.5594V45.592C28.8301 47.0074 29.9817 48.159 31.3975 48.159H54.5864C56.0018 48.159 57.1534 47.0074 57.1534 45.592V37.5594C57.1534 36.144 56.0018 34.9924 54.5864 34.9924H31.3975Z" fill="white"/>
<path d="M58.2046 46.5749L59.8556 46.2041C60.7446 46.0044 61.3764 45.215 61.3764 44.3039V39.2357C61.3764 38.3245 60.7447 37.5351 59.8556 37.3355L58.2046 36.9646V46.5749Z" fill="white"/>
<path d="M27.7792 36.9646L26.1281 37.3355C25.2392 37.5351 24.6074 38.3245 24.6074 39.2357V44.3039C24.6074 45.215 25.2391 46.0044 26.1281 46.2041L27.7792 46.5749V36.9646Z" fill="white"/>
<path d="M51.3493 45.9933C53.7889 45.9933 55.7665 44.0157 55.7665 41.5761C55.7665 39.1366 53.7889 37.1589 51.3493 37.1589C48.9098 37.1589 46.9321 39.1366 46.9321 41.5761C46.9321 44.0157 48.9098 45.9933 51.3493 45.9933Z" fill="white"/>
<path d="M51.3493 44.4543C52.9392 44.4543 54.2281 43.1654 54.2281 41.5755C54.2281 39.9856 52.9392 38.6968 51.3493 38.6968C49.7594 38.6968 48.4706 39.9856 48.4706 41.5755C48.4706 43.1654 49.7594 44.4543 51.3493 44.4543Z" fill="black"/>
<path opacity="0.13" d="M51.3493 41.4938C52.0019 41.4938 52.531 41.0795 52.531 40.5684C52.531 40.0574 52.0019 39.6431 51.3493 39.6431C50.6968 39.6431 50.1677 40.0574 50.1677 40.5684C50.1677 41.0795 50.6968 41.4938 51.3493 41.4938Z" fill="white"/>
<path d="M37.8167 45.9933C40.2563 45.9933 42.2339 44.0157 42.2339 41.5761C42.2339 39.1366 40.2563 37.1589 37.8167 37.1589C35.3772 37.1589 33.3995 39.1366 33.3995 41.5761C33.3995 44.0157 35.3772 45.9933 37.8167 45.9933Z" fill="white"/>
<path d="M37.8169 44.4543C39.4067 44.4543 40.6956 43.1654 40.6956 41.5755C40.6956 39.9856 39.4067 38.6968 37.8169 38.6968C36.227 38.6968 34.9381 39.9856 34.9381 41.5755C34.9381 43.1654 36.227 44.4543 37.8169 44.4543Z" fill="black"/>
<path opacity="0.13" d="M37.8169 41.4938C38.4695 41.4938 38.9985 41.0795 38.9985 40.5684C38.9985 40.0574 38.4695 39.6431 37.8169 39.6431C37.1643 39.6431 36.6353 40.0574 36.6353 40.5684C36.6353 41.0795 37.1643 41.4938 37.8169 41.4938Z" fill="white"/>
<path d="M56.5012 52.9279C58.1753 52.9279 59.5324 51.5708 59.5324 49.8967C59.5324 48.2226 58.1753 46.8655 56.5012 46.8655C54.8271 46.8655 53.47 48.2226 53.47 49.8967C53.47 51.5708 54.8271 52.9279 56.5012 52.9279Z" fill="#253238"/>
<path d="M82.9875 47.5326C85.4357 47.5326 87.4204 45.5479 87.4204 43.0997C87.4204 40.6514 85.4357 38.6667 82.9875 38.6667C80.5392 38.6667 78.5546 40.6514 78.5546 43.0997C78.5546 45.5479 80.5392 47.5326 82.9875 47.5326Z" fill="#253238"/>
<path d="M71.682 64.6797L68.5431 65.4852C68.0178 65.62 67.4671 65.3871 67.1979 64.9162L60.8662 53.8403C60.4715 53.1499 60.8423 52.2732 61.6126 52.0756L64.7514 51.2701C65.2768 51.1353 65.8275 51.3682 66.0967 51.8391L72.4283 62.915C72.823 63.6054 72.4522 64.482 71.682 64.6797Z" fill="#253238"/>
<path d="M78.2312 32.0393L69.1414 40.9386L57.2355 45.3147C56.2442 45.679 55.6898 46.7346 55.9523 47.7576L57.1436 52.3996C57.4061 53.4226 58.4004 54.0807 59.4446 53.9227L71.9864 52.0248L84.2383 55.4471L78.2312 32.0393Z" fill="#3D4077"/>
<path d="M72.0451 52.0411L83.5142 55.2449L84.145 55.083L78.2312 32.0393L69.1849 40.896L72.0451 52.0411Z" fill="#565C9B"/>
<path d="M81.0641 32.7717C80.7311 31.4745 79.4096 30.6927 78.1124 31.0256C76.8152 31.3585 76.0334 32.68 76.3663 33.9773L81.6708 54.6472C82.0038 55.9444 83.3253 56.7262 84.6225 56.3932C85.9197 56.0603 86.7015 54.7388 86.3686 53.4416L81.0641 32.7717Z" fill="#3D4077"/>
<path d="M83.1963 19.2534L81.3676 28.2261L85.3777 27.9245L84.9995 34.7839L88.5865 25.8783L84.3778 25.39L83.1963 19.2534Z" fill="#FFC200"/>
<path d="M93.543 28.2739L89.074 32.5896L91.4325 33.9611L88.5864 37.652L94.013 34.0492L91.8468 32.1597L93.543 28.2739Z" fill="#FFC200"/>
<path d="M242.064 15.7472L251.396 17.557L252.92 26.9477C252.935 27.0375 253.064 27.0375 253.079 26.9477L254.603 17.557L263.935 15.7472C264.021 15.7305 264.022 15.6069 263.935 15.5898L254.603 13.7426L253.079 4.79597C253.064 4.70701 252.936 4.70701 252.921 4.79597L251.396 13.7426L242.064 15.5898C241.978 15.6069 241.978 15.7305 242.064 15.7472Z" fill="white"/>
<path d="M232.549 26.9346L238.563 28.101L239.545 34.1531C239.555 34.2109 239.638 34.2109 239.647 34.1531L240.63 28.101L246.644 26.9346C246.7 26.9238 246.7 26.8441 246.644 26.8331L240.63 25.6427L239.647 19.8767C239.637 19.8194 239.555 19.8194 239.545 19.8767L238.563 25.6427L232.548 26.8331C232.493 26.8441 232.493 26.9238 232.549 26.9346Z" fill="white"/>
<path d="M237.358 4.67621L241.319 5.44427L241.966 9.42984C241.972 9.46794 242.027 9.46794 242.033 9.42984L242.68 5.44427L246.64 4.67621C246.677 4.66908 246.677 4.61663 246.641 4.60937L242.68 3.82543L242.033 0.028314C242.026 -0.009438 241.972 -0.009438 241.966 0.028314L241.319 3.82543L237.358 4.60937C237.321 4.61663 237.321 4.66908 237.358 4.67621Z" fill="white"/>
</g>
<defs>
<clipPath id="clip0_2004_5442">
<rect width="264" height="88" fill="white"/>
</clipPath>
</defs>
</svg>
