<svg width="264" height="89" viewBox="0 0 264 89" fill="none" xmlns="http://www.w3.org/2000/svg">
<g clip-path="url(#clip0_3628_22961)">
<path d="M242.353 71.4903C242.346 71.4903 242.339 71.4908 242.332 71.4908V71.093C241.539 71.2094 240.77 71.4924 240.081 71.9347C239.533 71.6617 238.915 71.5074 238.261 71.5074C238.248 71.5074 238.235 71.5083 238.223 71.5084C237.159 71.3168 236.026 71.699 235.308 72.6003C235.149 72.7999 235.021 73.014 234.921 73.2361C234.448 73.9032 234.169 74.7174 234.169 75.5972C234.169 75.6203 234.17 75.6431 234.17 75.6661C233.647 75.7388 233.142 75.8686 232.662 76.0498C231.981 76.2801 231.368 76.6297 230.843 77.0697C229.832 77.853 229.042 78.9049 228.578 80.119C228.078 80.176 227.576 80.2628 227.074 80.3839C227.001 80.4015 226.928 80.4202 226.856 80.4392C226.558 80.4613 226.264 80.4947 225.973 80.5393C225.544 79.5818 224.73 78.7981 223.652 78.437C223.349 78.3358 223.043 78.2737 222.739 78.2474C220.689 75.306 217.281 73.3807 213.423 73.3807C210.634 73.3807 208.081 74.387 206.105 76.0553C205.825 75.9716 205.541 75.8984 205.253 75.8362C204.184 75.3964 203.012 75.3309 201.922 75.6178C201.125 75.6822 200.351 75.8292 199.609 76.0497C199.3 75.748 198.974 75.4583 198.627 75.185C193.327 71.0145 185.63 71.9028 181.433 77.1691C180.968 77.7522 180.568 78.3651 180.227 78.9986C179.979 79.2532 179.742 79.5193 179.518 79.7962C179.511 79.794 179.505 79.7915 179.499 79.7894C177.734 79.1984 175.915 79.171 174.239 79.6086C173.854 78.5177 172.985 77.6082 171.798 77.2104C170.845 76.8912 169.854 76.9579 168.999 77.3255C168.931 77.2032 168.86 77.0818 168.785 76.9616C166.44 73.1712 161.758 71.6843 157.719 73.203C155.647 71.2866 152.876 70.1139 149.83 70.1139C145.069 70.1139 140.979 72.977 139.184 77.0735C139.003 77.1891 138.826 77.3094 138.657 77.4393C134.323 71.5201 133.711 58.9573 133.625 55.5281C133.612 55.0381 133.211 54.6475 132.721 54.6475H130.5C130.009 54.6475 129.608 55.0381 129.596 55.5281C129.529 58.1715 129.148 66.2401 126.993 72.5113C124.472 70.0297 121.013 68.4968 117.195 68.4968C112.97 68.4968 109.185 70.375 106.624 73.3385C102.511 71.5998 97.627 73.0633 95.2147 76.9616C95.1403 77.0819 95.0695 77.2033 95.0013 77.3255C94.1456 76.958 93.1555 76.8913 92.2025 77.2104C91.0147 77.6082 90.1459 78.5178 89.7607 79.6086C88.0849 79.1711 86.2662 79.1984 84.5014 79.7894C84.495 79.7916 84.4886 79.7941 84.4822 79.7963C84.2581 79.5193 84.0214 79.2532 83.7727 78.9986C83.4322 78.3651 83.0318 77.7522 82.5672 77.1692C78.3706 71.9028 70.6727 71.0145 65.3734 75.185C65.0261 75.4583 64.7001 75.748 64.3911 76.0497C63.6489 75.8292 62.8751 75.6822 62.0778 75.6179C60.9886 75.331 59.8159 75.3965 58.7476 75.8362C58.4591 75.8985 58.1747 75.9716 57.8948 76.0553C55.9192 74.387 53.3659 73.3807 50.577 73.3807C46.7186 73.3807 43.3108 75.306 41.2609 78.2474C40.9567 78.2737 40.6507 78.3358 40.3485 78.437C39.2701 78.7982 38.4566 79.5819 38.0273 80.5393C37.7365 80.4947 37.4419 80.4613 37.1442 80.4392C37.0718 80.4203 36.9992 80.4016 36.926 80.3839C36.4243 80.2628 35.9224 80.176 35.4224 80.119C34.9586 78.9049 34.168 77.8531 33.1576 77.0698C32.6321 76.6298 32.0193 76.2801 31.3377 76.0499C30.8578 75.8687 30.353 75.7388 29.8297 75.6662C29.8301 75.6431 29.8314 75.6203 29.8314 75.5972C29.8314 74.7174 29.5525 73.9032 29.0796 73.2361C28.9791 73.014 28.8514 72.8 28.6923 72.6003C27.9741 71.6991 26.8412 71.3168 25.7772 71.5084C25.7646 71.5083 25.7521 71.5075 25.7395 71.5075C25.0851 71.5075 24.4671 71.6618 23.9186 71.9347C23.2305 71.4924 22.4614 71.2094 21.6682 71.093V71.4909C21.6613 71.4909 21.6545 71.4903 21.6476 71.4903C19.3877 71.4903 17.5557 73.3214 17.5557 75.5801C17.5557 77.8388 19.3877 79.6698 21.6476 79.6698C21.6545 79.6698 21.6613 79.6693 21.6682 79.6693V82.2408C21.7244 82.2326 21.7801 82.2209 21.8361 82.2111C21.8282 82.3478 21.8231 82.4853 21.8231 82.6239C21.8231 85.2317 23.2455 87.506 25.3562 88.7186C25.0894 89.6828 24.9462 90.6984 24.9462 91.7476C24.9462 98.0105 30.0261 103.088 36.2924 103.088C41.2475 103.088 45.46 99.9126 47.0062 95.4872C48.1291 95.859 49.3294 96.0609 50.577 96.0609C51.7094 96.0609 52.8026 95.8943 53.8345 95.5857C55.8101 97.254 58.3635 98.2603 61.1524 98.2603C63.9099 98.2603 66.4374 97.2768 68.4037 95.642C70.3699 97.2767 72.8974 98.2603 75.6549 98.2603C79.7676 98.2603 83.3691 96.0733 85.359 92.7995C86.6202 93.9993 88.3254 94.7372 90.204 94.7372C92.7102 94.7372 94.9087 93.4254 96.1536 91.4524C97.3735 92.4711 98.9437 93.0849 100.658 93.0849C102.758 93.0849 104.64 92.1617 105.929 90.7022C108.47 94.1649 112.569 96.4144 117.195 96.4144C120.53 96.4144 123.59 95.2445 125.992 93.2953C126.759 98.9674 131.619 103.341 137.504 103.341C143.384 103.341 148.241 98.9758 149.015 93.3117C149.284 93.3304 149.556 93.3434 149.83 93.3434C152.873 93.3434 155.64 92.1738 157.712 90.2617C158.994 91.9746 161.037 93.0849 163.342 93.0849C165.056 93.0849 166.627 92.4711 167.847 91.4524C169.091 93.4254 171.29 94.7372 173.796 94.7372C175.675 94.7372 177.38 93.9993 178.641 92.7995C180.631 96.0734 184.233 98.2603 188.345 98.2603C191.103 98.2603 193.63 97.2768 195.596 95.642C197.563 97.2768 200.09 98.2603 202.848 98.2603C205.637 98.2603 208.19 97.254 210.166 95.5857C211.197 95.8944 212.291 96.0609 213.423 96.0609C214.671 96.0609 215.871 95.859 216.994 95.4873C218.54 99.9126 222.753 103.088 227.708 103.088C233.974 103.088 239.054 98.0106 239.054 91.7476C239.054 90.6985 238.911 89.6829 238.644 88.7186C240.755 87.5061 242.177 85.2317 242.177 82.624C242.177 82.4853 242.172 82.3478 242.164 82.2111C242.22 82.221 242.276 82.2327 242.332 82.2409V79.6693C242.339 79.6694 242.346 79.6699 242.353 79.6699C244.612 79.6699 246.444 77.8388 246.444 75.5801C246.444 73.3214 244.612 71.4903 242.353 71.4903Z" fill="white"/>
<path d="M133.193 0.679341C132.928 0.444874 132.531 0.43974 132.26 0.667297C130.738 1.94689 126.043 6.43094 125.957 13.1289C125.853 21.1253 125.432 53.682 125.432 53.682L132.039 53.7675L138.647 53.8529C138.647 53.8529 139.068 21.2962 139.172 13.2998C139.259 6.60183 134.681 1.99789 133.193 0.679341Z" fill="#C0C2C6"/>
<path d="M135.181 2.74971C134.379 1.7803 133.644 1.07877 133.193 0.679341C132.928 0.444874 132.531 0.43974 132.261 0.667297C131.799 1.05498 131.047 1.73726 130.22 2.68559C131.036 2.76896 131.863 2.81689 132.699 2.8277C133.535 2.83851 134.363 2.81196 135.181 2.74971Z" fill="#718ED8"/>
<path d="M125.803 25.0557L125.784 26.5078L139 26.6787L139.018 25.2266L125.803 25.0557Z" fill="#718ED8"/>
<path d="M125.95 13.5547L125.932 15.0068L139.147 15.1777L139.166 13.7256L125.95 13.5547Z" fill="#718ED8"/>
<path d="M123.384 14.0724C123.23 13.6909 122.692 13.6839 122.528 14.0613L120.6 18.492C120.421 18.9052 120.325 19.3501 120.319 19.8006L120.233 26.4362L125.358 26.5024L125.444 19.8669C125.45 19.4163 125.366 18.9692 125.197 18.5515L123.384 14.0724Z" fill="#C0C2C6"/>
<path d="M144.391 18.8005L142.579 14.3214C142.424 13.9399 141.887 13.933 141.722 14.3103L139.795 18.741C139.615 19.1542 139.519 19.5991 139.514 20.0496L139.428 26.6852L144.552 26.7514L144.638 20.1159C144.644 19.6653 144.56 19.2182 144.391 18.8005Z" fill="#C0C2C6"/>
<path d="M119.854 22.7149L119.28 67.041L125.259 67.1183L125.833 22.7922L119.854 22.7149Z" fill="white"/>
<path d="M139.048 22.964L138.475 67.29L144.453 67.3673L145.027 23.0413L139.048 22.964Z" fill="white"/>
<g opacity="0.3">
<path d="M122.044 24.171C121.613 24.1654 121.259 24.5101 121.254 24.9408L120.737 64.8512C120.732 65.2819 121.077 65.6356 121.508 65.6412C121.939 65.6468 122.292 65.3021 122.298 64.8713L122.815 24.961C122.82 24.5303 122.475 24.1765 122.044 24.171Z" fill="white"/>
</g>
<g opacity="0.3">
<path d="M141.239 24.42C140.808 24.4144 140.454 24.7591 140.448 25.1898L139.932 65.1002C139.926 65.5309 140.271 65.8846 140.702 65.8902C141.133 65.8958 141.487 65.5511 141.492 65.1204L142.009 25.21C142.015 24.7793 141.67 24.4256 141.239 24.42Z" fill="white"/>
</g>
<path d="M119.773 28.6912L119.764 29.4141L125.742 29.4914L125.752 28.7685L119.773 28.6912Z" fill="#87A0E8"/>
<path d="M119.697 34.6697L119.688 35.3926L125.666 35.4699L125.676 34.747L119.697 34.6697Z" fill="#87A0E8"/>
<path d="M119.62 40.6463L119.61 41.3691L125.589 41.4464L125.598 40.7236L119.62 40.6463Z" fill="#87A0E8"/>
<path d="M138.968 28.9403L138.959 29.6631L144.938 29.7404L144.947 29.0176L138.968 28.9403Z" fill="#87A0E8"/>
<path d="M138.891 34.9178L138.882 35.6406L144.861 35.7179L144.87 34.9951L138.891 34.9178Z" fill="#87A0E8"/>
<path d="M138.814 40.8944L138.805 41.6172L144.783 41.6945L144.793 40.9717L138.814 40.8944Z" fill="#87A0E8"/>
<path d="M139.568 42.1915L135.17 26.0056C134.41 23.2104 130.462 23.1594 129.63 25.934L124.814 42.0008C124.337 43.5928 123.45 45.0317 122.243 46.174L114.183 53.7957C113.742 54.2129 113.489 54.7908 113.481 55.3978L113.448 57.9009C113.439 58.6304 114.023 59.2294 114.753 59.2388L131.967 59.4614L149.18 59.6839C149.91 59.6934 150.509 59.1097 150.519 58.3802L150.551 55.8771C150.559 55.2701 150.321 54.6859 149.891 54.2574L142.031 46.4298C140.853 45.2567 140.004 43.7953 139.568 42.1915Z" fill="#718ED8"/>
<path d="M115.306 57.8194C115.069 57.8163 114.88 57.6221 114.883 57.3855L114.908 55.4179C114.911 55.1982 115.004 54.9856 115.164 54.8346L123.224 47.2128C124.611 45.9008 125.634 44.2408 126.182 42.4122L130.998 26.3454C131.289 25.3721 132.15 25.3074 132.407 25.3107C132.664 25.314 133.524 25.401 133.79 26.3816L138.188 42.5674C138.689 44.4096 139.668 46.0955 141.021 47.443L148.881 55.2705C149.038 55.4265 149.124 55.6392 149.121 55.8602L149.096 57.8278C149.093 58.0644 148.899 58.2537 148.662 58.2506L115.306 57.8194Z" fill="white"/>
<path d="M118.333 55.7153C117.98 55.7107 117.812 55.2797 118.068 55.0373L124.698 48.7678C126.357 47.1986 127.581 45.213 128.236 43.0259L132.357 29.2764L136.121 43.1278C136.72 45.3312 137.891 47.3477 139.51 48.9593L145.975 55.3982C146.225 55.6471 146.045 56.0736 145.692 56.069L118.333 55.7153Z" fill="#C0C2C6"/>
<path d="M132.967 19.3085C132.698 19.0569 132.282 19.0516 132.006 19.2961C130.915 20.2641 128.361 22.94 128.31 26.819C128.246 31.7545 127.915 57.357 127.915 57.357L131.993 57.4097L136.072 57.4625C136.072 57.4625 136.403 31.86 136.467 26.9244C136.517 23.0455 134.033 20.3044 132.967 19.3085Z" fill="white"/>
<g opacity="0.5">
<path d="M129.177 56.1222C128.98 56.1196 128.822 55.9577 128.824 55.7605L129.199 26.8289C129.201 26.6318 129.363 26.474 129.561 26.4766C129.758 26.4792 129.916 26.641 129.913 26.8382L129.539 55.7698C129.536 55.9669 129.374 56.1247 129.177 56.1222Z" fill="white"/>
</g>
<path d="M129.013 34.7879L129.004 35.5107L135.546 35.5953L135.556 34.8724L129.013 34.7879Z" fill="#87A0E8"/>
<path d="M128.866 46.2908L128.856 47.0137L135.399 47.0983L135.408 46.3754L128.866 46.2908Z" fill="#87A0E8"/>
<path d="M125.3 63.7501L119.322 63.6729L118.161 67.028L118.147 68.0672L126.361 68.1733L126.374 67.1341L125.3 63.7501Z" fill="#718ED8"/>
<path d="M144.495 63.9992L138.516 63.9219L137.355 67.2769L137.342 68.3161L145.555 68.4223L145.568 67.3832L144.495 63.9992Z" fill="#718ED8"/>
<path d="M118.161 67.0262L118.147 68.0654L126.361 68.1716L126.374 67.1324L118.161 67.0262Z" fill="#87A0E8"/>
<path d="M137.355 67.2752L137.342 68.3145L145.555 68.4206L145.568 67.3814L137.355 67.2752Z" fill="#87A0E8"/>
<path d="M130.682 53.7489L127.906 53.713C127.156 53.7033 126.54 54.3028 126.531 55.052L126.457 60.7479L131.948 60.8188L132.021 55.123C132.031 54.3738 131.431 53.7586 130.682 53.7489Z" fill="#718ED8"/>
<path d="M136.172 53.8202L133.396 53.7843C132.646 53.7746 132.031 54.3741 132.021 55.1233L131.947 60.8191L137.438 60.8901L137.512 55.1943C137.521 54.445 136.921 53.8299 136.172 53.8202Z" fill="#718ED8"/>
<g opacity="0.1">
<path d="M128.131 54.8594C127.815 54.8553 127.555 55.1082 127.551 55.4242L127.504 59.0476C127.5 59.3636 127.753 59.6231 128.069 59.6271C128.385 59.6312 128.645 59.3783 128.649 59.0624L128.696 55.439C128.7 55.123 128.447 54.8635 128.131 54.8594Z" fill="white"/>
<path d="M133.621 54.9307C133.305 54.9266 133.045 55.1795 133.041 55.4955L132.994 59.1188C132.99 59.4349 133.243 59.6943 133.559 59.6984C133.875 59.7025 134.135 59.4496 134.139 59.1336L134.186 55.5102C134.19 55.1942 133.937 54.9348 133.621 54.9307Z" fill="white"/>
</g>
<path d="M135.839 23.5039C135.042 21.4383 133.683 19.9778 132.966 19.3077C132.696 19.0559 132.28 19.0505 132.004 19.2953C131.27 19.9466 129.874 21.3715 129.023 23.4157C128.814 23.918 129.288 24.4354 129.808 24.2749C129.967 24.2257 130.122 24.1791 130.27 24.1348C131.677 23.7164 133.178 23.7358 134.574 24.1905C134.722 24.2385 134.875 24.2892 135.033 24.3424C135.548 24.5163 136.035 24.0115 135.839 23.5039Z" fill="#718ED8"/>
<path d="M132.404 25.5598L131.257 25.545C131.1 25.5429 130.948 25.6035 130.835 25.7134L130.283 26.2506C130.236 26.2969 130.209 26.3601 130.208 26.4264L130.202 26.8556C130.2 27.0414 130.394 27.1647 130.561 27.0838L130.941 26.9002C130.976 26.8834 131.014 26.8748 131.053 26.8753L132.387 26.8925L133.721 26.9098C133.76 26.9103 133.798 26.9198 133.832 26.9376L134.207 27.131C134.372 27.2162 134.569 27.0979 134.572 26.9121L134.577 26.4829C134.578 26.4166 134.552 26.3527 134.506 26.3052L133.969 25.754C133.859 25.6412 133.708 25.5767 133.551 25.5746L132.404 25.5598Z" fill="#718ED8"/>
<g opacity="0.2">
<path d="M119.191 66.4554L121.184 66.4812L121.418 64.4847L119.88 64.4648L119.191 66.4554Z" fill="white"/>
<path d="M139.074 64.7119L138.386 66.7025L140.378 66.7282L140.612 64.7318L139.074 64.7119Z" fill="white"/>
</g>
<path d="M170.144 55.1879L176.446 56.4101L177.476 62.752C177.486 62.8127 177.573 62.8127 177.583 62.752L178.613 56.4101L184.915 55.1879C184.973 55.1766 184.973 55.0932 184.915 55.0816L178.613 53.8341L177.583 47.7921C177.573 47.732 177.486 47.732 177.476 47.7921L176.446 53.8341L170.144 55.0816C170.086 55.0932 170.086 55.1766 170.144 55.1879Z" fill="white"/>
<path d="M93.3534 44.6692L99.3675 45.8356L100.35 51.8877C100.359 51.9455 100.443 51.9455 100.452 51.8877L101.435 45.8356L107.449 44.6692C107.504 44.6584 107.505 44.5788 107.449 44.5678L101.435 43.3773L100.452 37.6114C100.442 37.554 100.36 37.554 100.35 37.6114L99.3675 43.3773L93.3532 44.5678C93.2975 44.5788 93.2977 44.6584 93.3534 44.6692Z" fill="white"/>
<path d="M79.5608 58.5239L83.5213 59.2919L84.1683 63.2775C84.1745 63.3156 84.2293 63.3156 84.2355 63.2775L84.8825 59.2919L88.8431 58.5239C88.8797 58.5167 88.8798 58.4643 88.8432 58.457L84.8825 57.6731L84.2355 53.876C84.229 53.8382 84.1748 53.8382 84.1684 53.876L83.5213 57.6731L79.5606 58.457C79.524 58.4643 79.5241 58.5167 79.5608 58.5239Z" fill="white"/>
<path d="M151.697 42.9653L155.657 43.7333L156.304 47.7189C156.31 47.757 156.365 47.757 156.371 47.7189L157.018 43.7333L160.979 42.9653C161.015 42.9581 161.016 42.9057 160.979 42.8984L157.018 42.1145L156.371 38.3174C156.365 38.2796 156.311 38.2796 156.304 38.3174L155.657 42.1145L151.696 42.8984C151.66 42.9057 151.66 42.9581 151.697 42.9653Z" fill="white"/>
<g opacity="0.3">
<path d="M192.712 19.0691C192.637 19.051 192.558 19.0656 192.495 19.1094L186.169 23.4967C186.048 23.5812 186.018 23.7475 186.103 23.8686C186.187 23.9895 186.354 24.0195 186.476 23.9354L192.69 19.6254L201.763 22.6895L208.826 31.2988L205.781 45.475L202.44 40.7042C202.4 40.6468 202.339 40.6073 202.27 40.5945C202.257 40.5921 202.244 40.5906 202.231 40.59L194.234 40.2659C194.186 40.2639 194.137 40.2751 194.095 40.2984L192.397 41.2263C192.35 41.2522 192.311 41.2921 192.286 41.3404L189.618 46.6178C189.551 46.7497 189.604 46.9105 189.737 46.977C189.869 47.0435 190.03 46.9907 190.097 46.8588L192.728 41.655L194.287 40.8029L202.077 41.1191L205.546 46.0745L200.07 50.2025C200.056 50.2134 200.042 50.2258 200.03 50.2395L195.642 55.2442C195.544 55.3552 195.555 55.5241 195.667 55.6214C195.667 55.6215 195.667 55.6215 195.667 55.6217C195.779 55.7189 195.948 55.7079 196.046 55.5967C196.046 55.5966 196.046 55.5965 196.046 55.5964L200.416 50.612L205.979 46.419L227.855 50.9267C227.999 50.9566 228.14 50.8649 228.171 50.7213L231.168 36.8346C231.199 36.6941 231.112 36.5548 230.972 36.5194L209.267 30.992L202.129 22.2919C202.097 22.2531 202.055 22.2239 202.008 22.2077L192.734 19.0759C192.727 19.0729 192.719 19.0703 192.712 19.068L192.712 19.0691ZM209.319 31.5572L230.59 36.9739L227.703 50.3496L206.233 45.925L209.319 31.5572Z" fill="#3D63B7"/>
<path d="M210.751 31.9519C210.568 32.7717 209.753 33.2884 208.93 33.1061C208.108 32.9237 207.589 32.1112 207.772 31.2914C207.955 30.4715 208.77 29.9548 209.593 30.1372C210.415 30.3196 210.934 31.132 210.751 31.9519Z" fill="#3D63B7"/>
<path d="M232.464 37.2731C232.281 38.0929 231.465 38.6096 230.643 38.4272C229.82 38.2449 229.302 37.4324 229.485 36.6126C229.668 35.7928 230.483 35.2761 231.306 35.4585C232.128 35.6409 232.647 36.4533 232.464 37.2731Z" fill="#3D63B7"/>
<path d="M229.212 51.1891C229.029 52.0089 228.214 52.5257 227.391 52.3433C226.568 52.1608 226.05 51.3484 226.233 50.5286C226.416 49.7088 227.231 49.1921 228.054 49.3745C228.876 49.5569 229.395 50.3693 229.212 51.1891Z" fill="#3D63B7"/>
<path d="M207.415 46.5729C207.232 47.3927 206.417 47.9094 205.594 47.727C204.772 47.5447 204.253 46.7322 204.436 45.9124C204.619 45.0926 205.434 44.5759 206.257 44.7583C207.079 44.9407 207.598 45.7531 207.415 46.5729Z" fill="#3D63B7"/>
<path d="M201.887 50.4918C201.704 51.3116 200.889 51.8285 200.067 51.6461C199.244 51.4637 198.726 50.6513 198.909 49.8314C199.092 49.0116 199.907 48.4949 200.729 48.6772C201.552 48.8596 202.07 49.6721 201.887 50.4918Z" fill="#3D63B7"/>
<path d="M203.367 41.2556C203.184 42.0754 202.369 42.5922 201.546 42.4098C200.724 42.2274 200.205 41.415 200.388 40.5952C200.571 39.7754 201.386 39.2585 202.209 39.4409C203.031 39.6233 203.55 40.4357 203.367 41.2556Z" fill="#3D63B7"/>
<path d="M194.708 41.2917C194.525 42.1114 193.71 42.6282 192.887 42.4458C192.065 42.2634 191.546 41.451 191.729 40.6312C191.912 39.8114 192.727 39.2947 193.55 39.477C194.372 39.6594 194.891 40.4719 194.708 41.2917Z" fill="#3D63B7"/>
<path d="M191.158 47.0993C190.975 47.9191 190.16 48.4358 189.337 48.2534C188.515 48.071 187.996 47.2586 188.179 46.4388C188.362 45.619 189.177 45.1023 190 45.2847C190.822 45.467 191.341 46.2795 191.158 47.0993Z" fill="#3D63B7"/>
<path d="M187.515 24.3356C187.332 25.1554 186.517 25.6721 185.695 25.4897C184.872 25.3074 184.354 24.4949 184.537 23.6751C184.72 22.8553 185.535 22.3386 186.357 22.521C187.18 22.7034 187.698 23.5158 187.515 24.3356Z" fill="#3D63B7"/>
<path d="M194.136 20.0798C193.953 20.8996 193.137 21.4163 192.315 21.2339C191.492 21.0515 190.974 20.2391 191.157 19.4193C191.34 18.5995 192.155 18.0827 192.977 18.2651C193.8 18.4475 194.319 19.26 194.136 20.0798Z" fill="#3D63B7"/>
<path d="M203.318 22.9127C203.135 23.7325 202.32 24.2493 201.497 24.0669C200.675 23.8845 200.156 23.0721 200.339 22.2523C200.522 21.4325 201.338 20.9158 202.16 21.0981C202.983 21.2805 203.501 22.093 203.318 22.9127Z" fill="#3D63B7"/>
<path d="M197.16 56.0377C196.977 56.8575 196.162 57.3743 195.339 57.1919C194.517 57.0095 193.998 56.1971 194.181 55.3773C194.364 54.5575 195.179 54.0408 196.002 54.2231C196.824 54.4055 197.343 55.2179 197.16 56.0377Z" fill="#3D63B7"/>
</g>
<g opacity="0.3" clip-path="url(#clip1_3628_22961)">
<path d="M73.0384 15.7432C73.0249 15.7432 73.0115 15.7443 72.9983 15.7465L48.198 19.7941C48.1341 19.8043 48.0762 19.8376 48.0349 19.8876L40.4638 29.0479C40.4606 29.0518 40.4575 29.0559 40.4544 29.0601L28.638 45.1437C28.5504 45.2629 28.576 45.431 28.6949 45.5188C28.7581 45.5656 28.8388 45.5821 28.9152 45.5639L41.3903 42.5849L57.7744 40.451L61.8761 55.2629C61.8828 55.2867 61.8926 55.3096 61.9054 55.3308L65.2078 60.7537C65.2848 60.88 65.4494 60.92 65.5754 60.8427C65.7015 60.7653 65.7411 60.6001 65.6641 60.4738L62.3814 55.0829L58.259 40.1972L73.2678 16.154C73.3461 16.0283 73.3081 15.8627 73.1829 15.7839C73.1397 15.7567 73.0895 15.7426 73.0384 15.7432ZM72.5008 16.3715L57.8104 39.9048L41.3074 42.0542C41.2982 42.0554 41.2891 42.0572 41.28 42.0594L29.502 44.8721L40.8804 29.3845L48.3826 20.3078L72.5008 16.3715Z" fill="#4463B2"/>
<path d="M30.3228 45.3756C30.3228 46.2707 29.5998 46.9964 28.7078 46.9964C27.8159 46.9964 27.0928 46.2707 27.0928 45.3756C27.0928 44.4805 27.8158 43.7549 28.7078 43.7549C29.5998 43.7549 30.3228 44.4805 30.3228 45.3756Z" fill="#4463B2"/>
<path d="M43.1812 42.4635C43.1812 43.3586 42.4582 44.0842 41.5662 44.0842C40.6743 44.0842 39.9512 43.3586 39.9512 42.4635C39.9512 41.5684 40.6742 40.8428 41.5662 40.8428C42.4582 40.8428 43.1812 41.5684 43.1812 42.4635Z" fill="#4463B2"/>
<path d="M59.3561 39.8219C59.3561 40.717 58.633 41.4426 57.741 41.4426C56.8489 41.4426 56.126 40.717 56.126 39.8219C56.126 38.9268 56.849 38.2012 57.741 38.2012C58.633 38.2012 59.3561 38.9268 59.3561 39.8219Z" fill="#4463B2"/>
<path d="M63.9096 55.2877C63.9096 56.1829 63.1866 56.9085 62.2947 56.9085C61.4027 56.9085 60.6797 56.1829 60.6797 55.2877C60.6797 54.3926 61.4027 53.667 62.2947 53.667C63.1866 53.667 63.9096 54.3926 63.9096 55.2877Z" fill="#4463B2"/>
<path d="M67.3121 60.6686C67.3121 61.5637 66.5891 62.2893 65.6972 62.2893C64.8052 62.2893 64.082 61.5637 64.082 60.6686C64.082 59.7735 64.8051 59.0479 65.6972 59.0479C66.5891 59.0479 67.3121 59.7735 67.3121 60.6686Z" fill="#4463B2"/>
<path d="M75.0924 15.9099C75.0924 16.8051 74.3694 17.5307 73.4774 17.5307C72.5855 17.5307 71.8623 16.8051 71.8623 15.9099C71.8623 15.0147 72.5855 14.2891 73.4774 14.2891C74.3694 14.2891 75.0924 15.0148 75.0924 15.9099Z" fill="#4463B2"/>
<path d="M49.5514 20.318C49.5514 21.2131 48.8284 21.9387 47.9364 21.9387C47.0445 21.9389 46.3213 21.2131 46.3213 20.318C46.3213 19.4229 47.0443 18.6973 47.9364 18.6973C48.8284 18.6973 49.5514 19.4229 49.5514 20.318Z" fill="#4463B2"/>
<path d="M42.3686 29.3219C42.3686 30.217 41.6456 30.9426 40.7536 30.9426C39.8617 30.9426 39.1387 30.217 39.1387 29.3219C39.1387 28.4268 39.8617 27.7012 40.7536 27.7012C41.6456 27.7012 42.3686 28.4268 42.3686 29.3219Z" fill="#4463B2"/>
</g>
</g>
<defs>
<clipPath id="clip0_3628_22961">
<rect width="264" height="88" fill="white" transform="translate(0 0.5)"/>
</clipPath>
<clipPath id="clip1_3628_22961">
<rect width="48" height="48" fill="white" transform="translate(27.0928 14.2891)"/>
</clipPath>
</defs>
</svg>
