<svg width="264" height="88" viewBox="0 0 264 88" fill="none" xmlns="http://www.w3.org/2000/svg">
<g clip-path="url(#clip0_2004_5518)">
<path d="M242.064 15.748L251.396 17.5577L252.921 26.9484C252.935 27.0382 253.064 27.0382 253.079 26.9484L254.603 17.5577L263.935 15.748C264.022 15.7312 264.022 15.6076 263.935 15.5905L254.603 13.7434L253.079 4.79671C253.064 4.70774 252.936 4.70774 252.921 4.79671L251.396 13.7434L242.064 15.5905C241.978 15.6076 241.978 15.7312 242.064 15.748Z" fill="white"/>
<path d="M232.549 26.9353L238.563 28.1017L239.545 34.1538C239.555 34.2117 239.638 34.2117 239.647 34.1538L240.63 28.1017L246.644 26.9353C246.7 26.9245 246.7 26.8449 246.644 26.8339L240.63 25.6434L239.647 19.8775C239.638 19.8201 239.555 19.8201 239.545 19.8775L238.563 25.6434L232.549 26.8339C232.493 26.8449 232.493 26.9245 232.549 26.9353Z" fill="white"/>
<path d="M237.358 4.67694L241.319 5.44501L241.966 9.43057C241.972 9.46867 242.027 9.46867 242.033 9.43057L242.68 5.44501L246.641 4.67694C246.677 4.66981 246.677 4.61737 246.641 4.61011L242.68 3.82616L242.033 0.0290464C242.027 -0.00870558 241.972 -0.00870558 241.966 0.0290464L241.319 3.82616L237.358 4.61011C237.321 4.61737 237.322 4.66981 237.358 4.67694Z" fill="white"/>
<path d="M242.742 88.0004C245.911 86.3643 248.079 83.0635 248.079 79.2515C248.079 73.8147 243.671 69.406 238.234 69.406C237.934 69.406 237.637 69.4246 237.343 69.4516C234.804 61.1954 227.117 55.1918 218.028 55.1918C210.319 55.1918 203.621 59.5108 200.214 65.8589C199 64.2342 197.215 63.0593 195.152 62.6479C192.931 59.8825 189.527 58.1082 185.705 58.1082C185.241 58.1082 184.787 58.1395 184.337 58.1908C182.59 53.4645 178.056 50.0882 172.721 50.0882C165.876 50.0882 160.327 55.6376 160.327 62.4826C160.327 64.9831 161.073 67.3057 162.346 69.2523C161.687 69.1512 161.016 69.0828 160.327 69.0828C157.122 69.0828 154.183 70.2206 151.89 72.113C149.293 69.8603 146.066 68.3167 142.506 67.7898C142.52 67.4808 142.53 67.1704 142.53 66.8571C142.53 55.9849 133.717 47.1719 122.845 47.1719C113.555 47.1719 105.773 53.6083 103.704 62.2647C100.753 59.6787 96.8914 58.1081 92.6593 58.1081C83.8078 58.1081 76.5639 64.9674 75.9388 73.6594C72.4772 69.9257 67.5317 67.5861 62.0379 67.5861C60.2108 67.5861 58.4465 67.8496 56.7747 68.3323C55.5245 58.0525 46.7727 50.0882 36.1555 50.0882C24.6796 50.0882 15.3766 59.3911 15.3766 70.867C15.3766 71.6872 15.4294 72.4947 15.5219 73.2892C10.3657 74.9268 6.62769 79.7498 6.62769 85.4486C6.62769 86.323 6.7167 87.176 6.88403 88.0004L242.742 88.0004Z" fill="#DCF4C9"/>
<path d="M50.8303 54.4724C51.2904 54.5505 59.6539 59.3779 58.4094 71.5919" stroke="#49A50E" stroke-width="8.00584" stroke-linecap="round" stroke-linejoin="round"/>
<path d="M39.4748 80.8594H42.3158C50.8453 80.8594 57.5542 73.5712 56.8494 65.0709L56.4051 59.7115C55.7782 52.1504 49.4585 46.333 41.8715 46.333H39.9192C32.3322 46.333 26.0125 52.1504 25.3856 59.7115L24.9412 65.0709C24.2365 73.5712 30.9453 80.8594 39.4748 80.8594Z" fill="#63C928"/>
<path d="M51.0735 58.1472C51.0735 58.1472 54.5146 71.0312 51.1535 82.6348" stroke="#63C928" stroke-width="9.9231" stroke-miterlimit="10" stroke-linecap="round"/>
<path d="M30.7172 58.1472C30.7172 58.1472 27.2761 71.0312 30.6371 82.6348" stroke="#63C928" stroke-width="9.9231" stroke-miterlimit="10" stroke-linecap="round"/>
<path d="M58.6865 41.5228H60.7757L59.3512 23.8975H58.6865V41.5228Z" fill="#4EAF0E"/>
<path d="M50.4373 52.9221C57.2764 52.9221 62.8206 47.378 62.8206 40.5388C62.8206 33.6997 57.2764 28.1555 50.4373 28.1555C43.5982 28.1555 38.054 33.6997 38.054 40.5388C38.054 47.378 43.5982 52.9221 50.4373 52.9221Z" fill="#4EAF0E"/>
<path d="M30.9603 54.4724C30.5002 54.5505 22.1367 59.3779 23.3813 71.5919" stroke="#49A50E" stroke-width="8.00584" stroke-linecap="round" stroke-linejoin="round"/>
<path d="M59.0378 25.6348C59.9975 25.6348 60.7756 24.8568 60.7756 23.897C60.7756 22.9372 59.9975 22.1592 59.0378 22.1592C58.078 22.1592 57.2999 22.9372 57.2999 23.897C57.2999 24.8568 58.078 25.6348 59.0378 25.6348Z" fill="#4EAF0E"/>
<path d="M25.5111 49.1282C30.5369 49.1282 34.6111 45.054 34.6111 40.0282C34.6111 35.0024 30.5369 30.9282 25.5111 30.9282C20.4853 30.9282 16.4111 35.0024 16.4111 40.0282C16.4111 45.054 20.4853 49.1282 25.5111 49.1282Z" fill="#4EAF0E"/>
<path d="M21.6351 33.0241C21.6351 32.1349 21.8296 31.2517 22.2359 30.4607C25.7131 23.6921 32.7622 19.0603 40.8953 19.0603C49.0284 19.0603 56.0777 23.6921 59.5548 30.4607C59.9611 31.2517 60.1555 32.1348 60.1555 33.0241V47.032C60.1555 47.9212 59.9611 48.8043 59.5548 49.5953C56.0777 56.364 49.0284 60.9959 40.8953 60.9959C32.7622 60.9959 25.7131 56.3641 22.2359 49.5953C21.8296 48.8044 21.6351 47.9212 21.6351 47.032V33.0241Z" fill="#63C928"/>
<path d="M29.2787 22.5725C32.6037 20.3542 36.5979 19.0603 40.8953 19.0603C43.1871 19.0603 45.3929 19.4283 47.4571 20.1081C54.8815 25.9542 54.3367 33.301 53.8918 40.8151L36.3227 39.7753C36.6184 34.7749 35.7889 26.744 29.2787 22.5725Z" fill="#4EAF0E"/>
<path d="M29.5536 40.0277C29.5536 47.8245 35.8742 54.1451 43.671 54.1451C51.4678 54.1451 57.7884 47.8245 57.7884 40.0277C57.7884 32.2308 51.4678 29.8984 43.671 29.8984C35.8741 29.8984 29.5536 32.2308 29.5536 40.0277Z" fill="#D8F4C6" stroke="white" stroke-width="1.98942" stroke-miterlimit="10"/>
<path d="M51.4629 45.0615C53.9024 45.0615 55.8801 43.0838 55.8801 40.6443C55.8801 38.2047 53.9024 36.2271 51.4629 36.2271C49.0233 36.2271 47.0457 38.2047 47.0457 40.6443C47.0457 43.0838 49.0233 45.0615 51.4629 45.0615Z" fill="white"/>
<path d="M51.4627 43.5226C53.0526 43.5226 54.3415 42.2338 54.3415 40.6439C54.3415 39.054 53.0526 37.7651 51.4627 37.7651C49.8728 37.7651 48.584 39.054 48.584 40.6439C48.584 42.2338 49.8728 43.5226 51.4627 43.5226Z" fill="#133000"/>
<path opacity="0.13" d="M51.4627 40.5622C52.1153 40.5622 52.6444 40.1479 52.6444 39.6368C52.6444 39.1257 52.1153 38.7114 51.4627 38.7114C50.8102 38.7114 50.2811 39.1257 50.2811 39.6368C50.2811 40.1479 50.8102 40.5622 51.4627 40.5622Z" fill="white"/>
<path d="M37.9301 45.0615C40.3697 45.0615 42.3473 43.0838 42.3473 40.6443C42.3473 38.2047 40.3697 36.2271 37.9301 36.2271C35.4906 36.2271 33.5129 38.2047 33.5129 40.6443C33.5129 43.0838 35.4906 45.0615 37.9301 45.0615Z" fill="white"/>
<path d="M37.9301 43.5226C39.52 43.5226 40.8089 42.2338 40.8089 40.6439C40.8089 39.054 39.52 37.7651 37.9301 37.7651C36.3403 37.7651 35.0514 39.054 35.0514 40.6439C35.0514 42.2338 36.3403 43.5226 37.9301 43.5226Z" fill="#133000"/>
<path opacity="0.13" d="M37.9302 40.5622C38.5827 40.5622 39.1118 40.1479 39.1118 39.6368C39.1118 39.1257 38.5827 38.7114 37.9302 38.7114C37.2776 38.7114 36.7485 39.1257 36.7485 39.6368C36.7485 40.1479 37.2776 40.5622 37.9302 40.5622Z" fill="white"/>
<path d="M46.5108 44.6226C45.5871 45.7896 43.8167 45.7906 42.8916 44.6246L42.89 44.6226L42.8822 44.6324" stroke="#232323" stroke-width="1.62276" stroke-linecap="round" stroke-linejoin="round"/>
<path d="M45.9173 50.2002H43.077C42.4352 50.2002 41.8828 50.6539 41.7582 51.2835L41.4106 53.0389C41.246 53.8701 41.882 54.6445 42.7294 54.6445H46.2649C47.1122 54.6445 47.7483 53.8701 47.5837 53.0389L47.2361 51.2835C47.1114 50.6539 46.5591 50.2002 45.9173 50.2002Z" fill="white"/>
<path d="M21.8182 48.2758C23.1399 48.2758 24.2113 44.5832 24.2113 40.0281C24.2113 35.4731 23.1399 31.7805 21.8182 31.7805C20.4966 31.7805 19.4252 35.4731 19.4252 40.0281C19.4252 44.5832 20.4966 48.2758 21.8182 48.2758Z" fill="#4EAF0E"/>
<path d="M140.645 38.282H119.003V57.6859H140.645V38.282Z" fill="#FFA146"/>
<path d="M140.93 38.282H118.718V41.5128H140.93V38.282Z" fill="#FFA146"/>
<path fill-rule="evenodd" clip-rule="evenodd" d="M140.645 57.6858H132.519L119.003 41.5137H140.645V57.6858Z" fill="#ED7425"/>
<path fill-rule="evenodd" clip-rule="evenodd" d="M138.786 38.282H136.407V42.7482L136.921 42.5091L137.386 42.7299L138.027 42.3512L138.786 42.7482V38.282Z" fill="#DD3E13"/>
<path fill-rule="evenodd" clip-rule="evenodd" d="M123.24 38.282H120.862V42.7482L121.375 42.5091L121.839 42.7299L122.481 42.3512L123.24 42.7482V38.282Z" fill="#DD3E13"/>
<path d="M118.15 38.282H96.5068V57.6859H118.15V38.282Z" fill="#FFA146"/>
<path d="M118.434 38.282H96.2229V41.5128H118.434V38.282Z" fill="#FFA146"/>
<path fill-rule="evenodd" clip-rule="evenodd" d="M118.149 57.6858H110.023L96.5068 41.5137H118.149V57.6858Z" fill="#ED7425"/>
<path fill-rule="evenodd" clip-rule="evenodd" d="M116.29 38.282H113.911V42.7482L114.426 42.5091L114.889 42.7299L115.532 42.3512L116.29 42.7482V38.282Z" fill="#DD3E13"/>
<path fill-rule="evenodd" clip-rule="evenodd" d="M100.744 38.282H98.3665V42.7482L98.8799 42.5091L99.3436 42.7299L99.9853 42.3512L100.744 42.7482V38.282Z" fill="#DD3E13"/>
<path d="M111.645 58.4346H81.0145V88.0004H111.645V58.4346Z" fill="#FFA146"/>
<path d="M87.4695 60.9395H83.6239V85.2531H87.4695V60.9395Z" fill="#DD3E13"/>
<path d="M91.3151 60.9395H87.4696V85.2531H91.3151V60.9395Z" fill="#DD3E13"/>
<path d="M95.1596 60.9395H91.314V85.2531H95.1596V60.9395Z" fill="#DD3E13"/>
<path d="M99.0052 60.9395H95.1595V85.2531H99.0052V60.9395Z" fill="#DD3E13"/>
<path d="M102.851 60.9395H99.0052V85.2531H102.851V60.9395Z" fill="#DD3E13"/>
<path d="M106.696 60.9395H102.851V85.2531H106.696V60.9395Z" fill="#DD3E13"/>
<path d="M108.919 60.9395H106.695V85.2531H108.919V60.9395Z" fill="#DD3E13"/>
<path d="M85.8468 62.8481H84.316V84.7763H85.8468V62.8481Z" fill="#ED7425"/>
<path d="M89.6913 62.8481H88.1616V84.7763H89.6913V62.8481Z" fill="#ED7425"/>
<path d="M93.5371 62.8481H92.0082V84.7763H93.5371V62.8481Z" fill="#ED7425"/>
<path d="M97.3827 62.8481H95.8528V84.7763H97.3827V62.8481Z" fill="#ED7425"/>
<path d="M101.228 62.8481H99.6985V84.7763H101.228V62.8481Z" fill="#ED7425"/>
<path d="M105.074 62.8481H103.544V84.7763H105.074V62.8481Z" fill="#ED7425"/>
<path d="M108.918 62.8481H107.389V84.7763H108.918V62.8481Z" fill="#ED7425"/>
<path d="M87.4694 60.9395H85.8467V85.2531H87.4694V60.9395Z" fill="#FFA146"/>
<path d="M91.3141 60.9395H89.6915V85.2531H91.3141V60.9395Z" fill="#FFA146"/>
<path d="M95.1596 60.9395H93.5371V85.2531H95.1596V60.9395Z" fill="#FFA146"/>
<path d="M99.0052 60.9395H97.3827V85.2531H99.0052V60.9395Z" fill="#FFA146"/>
<path d="M102.851 60.9395H101.228V85.2531H102.851V60.9395Z" fill="#FFA146"/>
<path d="M106.695 60.9395H105.073V85.2531H106.695V60.9395Z" fill="#FFA146"/>
<path d="M143.025 58.4346H112.394V88.0004H143.025V58.4346Z" fill="#FFA146"/>
<path d="M118.85 60.9395H115.003V85.2531H118.85V60.9395Z" fill="#DD3E13"/>
<path d="M122.694 60.9395H118.849V85.2531H122.694V60.9395Z" fill="#DD3E13"/>
<path d="M126.539 60.9395H122.694V85.2531H126.539V60.9395Z" fill="#DD3E13"/>
<path d="M130.386 60.9395H126.54V85.2531H130.386V60.9395Z" fill="#DD3E13"/>
<path d="M134.231 60.9395H130.386V85.2531H134.231V60.9395Z" fill="#DD3E13"/>
<path d="M138.077 60.9395H134.23V85.2531H138.077V60.9395Z" fill="#DD3E13"/>
<path d="M140.299 60.9395H138.076V85.2531H140.299V60.9395Z" fill="#DD3E13"/>
<path d="M117.227 62.8481H115.698V84.7763H117.227V62.8481Z" fill="#ED7425"/>
<path d="M121.072 62.8481H119.542V84.7763H121.072V62.8481Z" fill="#ED7425"/>
<path d="M124.918 62.8481H123.388V84.7763H124.918V62.8481Z" fill="#ED7425"/>
<path d="M128.763 62.8481H127.232V84.7763H128.763V62.8481Z" fill="#ED7425"/>
<path d="M132.609 62.8481H131.079V84.7763H132.609V62.8481Z" fill="#ED7425"/>
<path d="M136.453 62.8481H134.923V84.7763H136.453V62.8481Z" fill="#ED7425"/>
<path d="M140.299 62.8481H138.769V84.7763H140.299V62.8481Z" fill="#ED7425"/>
<path d="M118.849 60.9395H117.226V85.2531H118.849V60.9395Z" fill="#FFA146"/>
<path d="M122.694 60.9395H121.072V85.2531H122.694V60.9395Z" fill="#FFA146"/>
<path d="M126.539 60.9395H124.917V85.2531H126.539V60.9395Z" fill="#FFA146"/>
<path d="M130.386 60.9395H128.763V85.2531H130.386V60.9395Z" fill="#FFA146"/>
<path d="M134.23 60.9395H132.608V85.2531H134.23V60.9395Z" fill="#FFA146"/>
<path d="M138.076 60.9395H136.453V85.2531H138.076V60.9395Z" fill="#FFA146"/>
<path d="M140.608 57.6858H96.5068V58.4344H140.608V57.6858Z" fill="#DD3E13"/>
<path d="M112.394 58.4355H111.645V88.0004H112.394V58.4355Z" fill="#DD3E13"/>
<path d="M165.349 68.5964H143.707V88.0003H165.349V68.5964Z" fill="#FFA146"/>
<path d="M165.634 68.5964H143.423V71.8272H165.634V68.5964Z" fill="#FFA146"/>
<path fill-rule="evenodd" clip-rule="evenodd" d="M165.349 88.0003H157.222L143.707 71.8281H165.349V88.0003Z" fill="#ED7425"/>
<path fill-rule="evenodd" clip-rule="evenodd" d="M163.49 68.5964H161.111V73.0624L161.626 72.8236L162.088 73.0444L162.731 72.6657L163.49 73.0624V68.5964Z" fill="#DD3E13"/>
<path fill-rule="evenodd" clip-rule="evenodd" d="M147.944 68.5964H145.565V73.0624L146.079 72.8236L146.542 73.0444L147.186 72.6657L147.944 73.0624V68.5964Z" fill="#DD3E13"/>
<path d="M176.869 50.8447H136.441C135.983 50.8447 135.612 51.2159 135.612 51.6738V77.5497C135.612 78.0075 135.983 78.3787 136.441 78.3787H176.869C177.327 78.3787 177.698 78.0075 177.698 77.5497V51.6738C177.698 51.2159 177.327 50.8447 176.869 50.8447Z" fill="#9EB134"/>
<path fill-rule="evenodd" clip-rule="evenodd" d="M141.151 50.8447H144.999L161.749 70.3533C161.996 70.6432 162.432 70.6765 162.721 70.4294C163.01 70.1822 163.045 69.7463 162.797 69.4573L146.816 50.8448H176.868C177.266 50.8448 177.601 51.1273 177.68 51.5029V77.7218H163.613L141.151 50.8447Z" fill="#85972D"/>
<path fill-rule="evenodd" clip-rule="evenodd" d="M167.536 74.4719L167.606 74.4741L167.713 74.4761L167.792 74.4783C167.839 74.4803 167.885 74.4824 167.933 74.4866L167.974 74.4886L168.091 74.497L168.17 74.5033L168.254 74.5116L168.35 74.522L168.444 74.5335H168.446L168.542 74.5461L168.619 74.5575L168.719 74.5732L168.809 74.5888L168.861 74.5982C168.91 74.6065 168.959 74.6159 169.007 74.6264L169.026 74.6306C170.384 74.909 171.682 75.5609 172.76 76.5882C173.128 76.9406 173.454 77.3203 173.737 77.7219H163.613L162.459 76.341C163.63 75.3261 165.111 74.6608 166.741 74.5065L166.757 74.5054C166.812 74.5002 166.866 74.4949 166.922 74.4919L166.961 74.4886L167.096 74.4814C167.134 74.4794 167.174 74.4783 167.213 74.4762L167.282 74.4741C167.367 74.472 167.451 74.4719 167.536 74.4719Z" fill="#DD3E13"/>
<path fill-rule="evenodd" clip-rule="evenodd" d="M171.912 77.6895L171.944 77.7218H163.613L163.342 77.3974C165.809 75.2427 169.561 75.3397 171.912 77.6895Z" fill="#DD3E13"/>
<path fill-rule="evenodd" clip-rule="evenodd" d="M171.354 77.7218C169.144 75.7704 165.818 75.7663 163.603 77.7093L163.613 77.7218H171.354Z" fill="#DD3E13"/>
<path d="M196.796 71.7537L193.532 82.4165L205.426 86.0575L208.69 75.3948L196.796 71.7537Z" fill="#FFA146"/>
<path d="M196.64 71.7059L196.097 73.4819L208.303 77.2188L208.847 75.4428L196.64 71.7059Z" fill="#FFA146"/>
<path fill-rule="evenodd" clip-rule="evenodd" d="M205.426 86.0584L200.96 84.691L196.254 73.5293L208.146 77.1714L205.426 86.0584Z" fill="#ED7425"/>
<path fill-rule="evenodd" clip-rule="evenodd" d="M207.669 75.0821L206.361 74.6826L205.61 77.1357L205.933 77.0908L206.15 77.2911L206.567 77.1909L206.917 77.5372L207.669 75.0821Z" fill="#DD3E13"/>
<path fill-rule="evenodd" clip-rule="evenodd" d="M199.126 72.4673L197.818 72.0657L197.067 74.5197L197.39 74.4759L197.607 74.6752L198.024 74.575L198.374 74.9202L199.126 72.4673Z" fill="#DD3E13"/>
<path d="M184.435 67.9689L181.17 78.6318L193.064 82.2728L196.328 71.6099L184.435 67.9689Z" fill="#FFA146"/>
<path d="M184.278 67.921L183.735 69.6965L195.941 73.4336L196.485 71.6581L184.278 67.921Z" fill="#FFA146"/>
<path fill-rule="evenodd" clip-rule="evenodd" d="M193.064 82.2731L188.598 80.9058L183.891 69.7441L195.785 73.3861L193.064 82.2731Z" fill="#ED7425"/>
<path fill-rule="evenodd" clip-rule="evenodd" d="M195.306 71.2972L193.999 70.8967L193.248 73.3507L193.571 73.3059L193.788 73.5052L194.205 73.4061L194.555 73.7512L195.306 71.2972Z" fill="#DD3E13"/>
<path fill-rule="evenodd" clip-rule="evenodd" d="M186.764 68.6814L185.457 68.282L184.705 70.7361L185.028 70.6902L185.245 70.8904L185.662 70.7903L186.013 71.1355L186.764 68.6814Z" fill="#DD3E13"/>
<path d="M179.752 78.7209H178.575V81.1458H179.752V78.7209Z" fill="#344453"/>
<path d="M129.678 77.7217H178.376C178.574 77.7217 178.735 77.8827 178.735 78.081V81.5874C178.735 81.7857 178.574 81.9466 178.376 81.9466H129.678C129.48 81.9466 129.319 81.7859 129.319 81.5879V78.0804C129.319 77.8824 129.48 77.7217 129.678 77.7217Z" fill="#20354A"/>
<path fill-rule="evenodd" clip-rule="evenodd" d="M179.422 81.9593L199.052 87.9313H209.319C209.555 87.8707 209.57 87.3231 209.319 87.2137L180.505 78.4267C180.13 78.312 179.73 78.5237 179.615 78.8982L178.95 81.0696C178.835 81.444 179.047 81.8455 179.422 81.9593Z" fill="#20354A"/>
<path fill-rule="evenodd" clip-rule="evenodd" d="M133.072 57.6523L122.237 57.5063L116.356 68.0381L116.649 75.2814H132.085L133.072 57.6523Z" fill="#AAD3EF"/>
<path fill-rule="evenodd" clip-rule="evenodd" d="M132.28 71.8063L132.176 71.8783L122.298 57.5063L133.072 57.6523L132.28 71.8063Z" fill="#85BFE9"/>
<path fill-rule="evenodd" clip-rule="evenodd" d="M129.678 81.9469H178.376C178.574 81.9469 178.735 81.7864 178.735 81.5882V79.835H129.319V81.5882C129.319 81.7864 129.481 81.9469 129.678 81.9469Z" fill="#1A2A3A"/>
<path d="M135.612 59.7014H134.099V78.9503H135.612V59.7014Z" fill="#1A2A3A"/>
<path fill-rule="evenodd" clip-rule="evenodd" d="M134.079 57.1399C133.992 56.511 133.593 56.1846 132.87 56.1721H122.915C121.74 56.2159 121.688 56.4943 121.375 57.0189L115.099 68.6385V81.6067C115.099 81.7945 115.252 81.9477 115.44 81.9477H123.401L134.181 81.9383L134.079 57.1399ZM120.423 73.7178L116.916 73.7438V68.528L122.325 58.4665C122.674 57.7824 122.856 57.7386 123.381 57.7448H131.838C132.079 57.7678 132.152 57.9691 132.152 58.2903L132.068 70.3208C127.887 69.2736 123.4 70.569 120.423 73.7178Z" fill="#9EB134"/>
<path fill-rule="evenodd" clip-rule="evenodd" d="M115.099 76.6152V81.6068C115.099 81.7946 115.252 81.9478 115.44 81.9478L115.452 81.9468H123.401L134.181 81.9384L134.161 76.6153L115.099 76.6152Z" fill="#85972D"/>
<path fill-rule="evenodd" clip-rule="evenodd" d="M129.212 74.4719L129.141 74.4741L129.034 74.4761L128.956 74.4783C128.909 74.4803 128.862 74.4824 128.815 74.4866L128.773 74.4886L128.656 74.497L128.577 74.5033L128.494 74.5116L128.398 74.522L128.304 74.5335H128.302L128.206 74.5461L128.128 74.5575L128.028 74.5732L127.939 74.5888L127.887 74.5982C127.838 74.6065 127.79 74.6159 127.741 74.6264L127.721 74.6306C126.363 74.909 125.065 75.5609 123.988 76.5882C122.458 78.0473 121.665 79.9892 121.619 81.9468L129.097 81.9426L129.101 81.9468H136.93C136.84 78.0473 133.833 74.8694 130.006 74.5065L129.99 74.5054C129.935 74.5002 129.88 74.4949 129.825 74.4919L129.786 74.4886L129.652 74.4814C129.613 74.4794 129.574 74.4783 129.535 74.4762L129.465 74.4741C129.381 74.472 129.296 74.4719 129.212 74.4719Z" fill="#D0DF6A"/>
<path fill-rule="evenodd" clip-rule="evenodd" d="M133.718 77.6864C134.898 78.8671 135.51 80.4012 135.554 81.9468H122.999C123.042 80.4012 123.655 78.8671 124.835 77.6864C127.288 75.2344 131.265 75.2344 133.718 77.6864Z" fill="#85972D"/>
<path fill-rule="evenodd" clip-rule="evenodd" d="M133.432 77.9753C135.725 80.2688 135.725 83.9868 133.432 86.2803C131.138 88.5738 127.42 88.5738 125.127 86.2803C122.833 83.9868 122.833 80.2688 125.127 77.9753C127.42 75.6818 131.138 75.6818 133.432 77.9753Z" fill="#344453"/>
<path fill-rule="evenodd" clip-rule="evenodd" d="M127.354 84.0535C126.29 82.9897 126.29 81.2658 127.354 80.2019C128.417 79.1381 130.141 79.1381 131.205 80.2019L127.354 84.0535Z" fill="#1A2A3A"/>
<path fill-rule="evenodd" clip-rule="evenodd" d="M133.432 77.9751C135.725 80.2686 135.725 83.9867 133.432 86.2802C131.138 88.5736 127.42 88.5736 125.127 86.2802L133.432 77.9751Z" fill="#1A2A3A"/>
<path fill-rule="evenodd" clip-rule="evenodd" d="M131.205 80.2019C132.268 81.2657 132.268 82.9897 131.205 84.0535C130.141 85.1173 128.417 85.1173 127.354 84.0535L131.205 80.2019Z" fill="#344453"/>
<path fill-rule="evenodd" clip-rule="evenodd" d="M130.505 80.9058C131.182 81.5827 131.182 82.6799 130.505 83.3568C129.828 84.0335 128.731 84.0335 128.054 83.3568L130.505 80.9058Z" fill="#AAD3EF"/>
<path fill-rule="evenodd" clip-rule="evenodd" d="M128.054 83.3569C127.377 82.68 127.377 81.5828 128.054 80.9059C128.731 80.228 129.828 80.228 130.505 80.9059L128.054 83.3569Z" fill="#E1EFFA"/>
<path fill-rule="evenodd" clip-rule="evenodd" d="M129.994 81.417C130.389 81.8112 130.389 82.4505 129.994 82.8458C129.599 83.24 128.96 83.24 128.565 82.8458L129.994 81.417Z" fill="#1A2A3A"/>
<path fill-rule="evenodd" clip-rule="evenodd" d="M128.565 82.8458C128.17 82.4506 128.17 81.8112 128.565 81.4171C128.96 81.0228 129.599 81.0228 129.994 81.4171L128.565 82.8458Z" fill="#344453"/>
<path fill-rule="evenodd" clip-rule="evenodd" d="M167.535 74.4719L167.606 74.4741L167.713 74.4761L167.792 74.4783C167.839 74.4803 167.885 74.4824 167.933 74.4866L167.974 74.4886L168.091 74.497L168.17 74.5033L168.254 74.5116L168.35 74.522L168.443 74.5335H168.446L168.542 74.5461L168.619 74.5575L168.719 74.5732L168.809 74.5888L168.861 74.5982C168.91 74.6065 168.959 74.6159 169.007 74.6264L169.026 74.6306C170.384 74.909 171.682 75.5609 172.76 76.5882C174.289 78.0473 175.082 79.9892 175.128 81.9468L167.65 81.9426L167.646 81.9468H159.817C159.907 78.0473 162.914 74.8694 166.741 74.5065L166.757 74.5054C166.812 74.5002 166.866 74.4949 166.922 74.4919L166.961 74.4886L167.096 74.4814C167.134 74.4794 167.174 74.4783 167.213 74.4762L167.282 74.4741C167.366 74.472 167.451 74.4719 167.535 74.4719Z" fill="#D0DF6A"/>
<path fill-rule="evenodd" clip-rule="evenodd" d="M171.912 77.6896C173.091 78.8702 173.704 80.4013 173.749 81.9469H161.193C161.238 80.4013 161.85 78.8702 163.029 77.6896C165.482 75.2376 169.459 75.2376 171.912 77.6896Z" fill="#85972D"/>
<path fill-rule="evenodd" clip-rule="evenodd" d="M163.319 86.2803C165.612 88.5737 169.331 88.5737 171.624 86.2803C173.918 83.9868 173.918 80.2687 171.624 77.9752C169.331 75.6808 165.612 75.6808 163.319 77.9752C161.025 80.2687 161.025 83.9868 163.319 86.2803Z" fill="#344453"/>
<path fill-rule="evenodd" clip-rule="evenodd" d="M163.319 86.2802C165.612 88.5736 169.331 88.5736 171.625 86.2802C173.918 83.9867 173.918 80.2686 171.625 77.9751L163.319 86.2802Z" fill="#1A2A3A"/>
<path fill-rule="evenodd" clip-rule="evenodd" d="M169.397 80.2019C168.334 79.1381 166.609 79.1381 165.546 80.2019C164.482 81.2647 164.482 82.9897 165.546 84.0535L169.397 80.2019Z" fill="#1A2A3A"/>
<path fill-rule="evenodd" clip-rule="evenodd" d="M165.546 84.0535C166.609 85.1163 168.334 85.1163 169.397 84.0535C170.461 82.9897 170.461 81.2657 169.397 80.2019L165.546 84.0535Z" fill="#344453"/>
<path fill-rule="evenodd" clip-rule="evenodd" d="M168.696 80.9058C169.373 81.5827 169.373 82.6799 168.696 83.3568C168.019 84.0335 166.922 84.0335 166.245 83.3568L168.696 80.9058Z" fill="#AAD3EF"/>
<path fill-rule="evenodd" clip-rule="evenodd" d="M166.245 83.3569C165.569 82.68 165.569 81.5828 166.245 80.9059C166.922 80.228 168.02 80.228 168.696 80.9059L166.245 83.3569Z" fill="#E1EFFA"/>
<path fill-rule="evenodd" clip-rule="evenodd" d="M168.185 81.417C168.58 81.8112 168.58 82.4505 168.185 82.8458C167.791 83.24 167.151 83.24 166.756 82.8458L168.185 81.417Z" fill="#1A2A3A"/>
<path fill-rule="evenodd" clip-rule="evenodd" d="M166.756 82.8458C166.362 82.4506 166.362 81.8112 166.756 81.4171C167.151 81.0228 167.791 81.0228 168.185 81.4171L166.756 82.8458Z" fill="#344453"/>
<path fill-rule="evenodd" clip-rule="evenodd" d="M179.422 81.9595L199.052 87.9315H204.476L179.293 79.9497L178.95 81.0699C178.835 81.4443 179.047 81.8458 179.422 81.9595Z" fill="#1A2A3A"/>
<path d="M71.8043 12.1797L71.4775 14.5477C71.4212 14.956 71.7066 15.3327 72.1149 15.389L77.5801 16.143" stroke="#171421" stroke-width="0.630828" stroke-miterlimit="10"/>
<path d="M73.2451 14.0512L69.9106 13.5912C69.6338 13.553 69.4401 13.2973 69.4783 13.0205L69.6276 11.9384C69.7475 11.0692 70.5505 10.4609 71.4197 10.5808L72.6074 10.7447C73.4766 10.8646 74.0849 11.6676 73.9649 12.5368L73.8156 13.6189C73.7775 13.8957 73.5218 14.0894 73.2451 14.0512Z" fill="#171421"/>
<path d="M71.423 9.32522L65.3701 8.49015C65.1153 8.455 64.8803 8.63302 64.8452 8.88775C64.81 9.14249 64.988 9.37748 65.2428 9.41263L71.2957 10.2477C71.5504 10.2828 71.7854 10.1048 71.8206 9.8501C71.8557 9.59536 71.6777 9.36037 71.423 9.32522Z" fill="#40BFFF"/>
<path d="M78.9971 10.3701L72.9441 9.53507C72.6894 9.49993 72.4544 9.67794 72.4193 9.93267C72.3841 10.1874 72.5621 10.4224 72.8169 10.4575L78.8698 11.2926C79.1245 11.3278 79.3595 11.1498 79.3947 10.895C79.4298 10.6403 79.2518 10.4053 78.9971 10.3701Z" fill="#40BFFF"/>
<path d="M72.0943 9.18508L72.3371 9.21857C72.6184 9.25739 72.8153 9.51735 72.7765 9.7987L72.6453 10.7499L71.3829 10.5757L71.5141 9.62454C71.553 9.34319 71.8129 9.14626 72.0943 9.18508Z" fill="#40BFFF"/>
<path d="M94.8121 15.354L94.4853 17.722C94.429 18.1304 94.0523 18.4157 93.644 18.3594L88.1788 17.6054" stroke="#171421" stroke-width="0.630828" stroke-miterlimit="10"/>
<path d="M94.4274 13.7549L95.6151 13.9187C96.4843 14.0386 97.0925 14.8416 96.9726 15.7108L96.8233 16.793C96.7852 17.0697 96.5295 17.2634 96.2527 17.2252L92.9182 16.7652C92.6415 16.727 92.4478 16.4713 92.486 16.1946L92.6353 15.1124C92.7552 14.2432 93.5582 13.635 94.4274 13.7549Z" fill="#171421"/>
<path d="M95.952 12.7093C95.6973 12.6741 95.4623 12.8521 95.4272 13.1069C95.392 13.3616 95.57 13.5966 95.8248 13.6317L101.878 14.4668C102.132 14.502 102.367 14.324 102.403 14.0692C102.438 13.8145 102.26 13.5795 102.005 13.5443L95.952 12.7093Z" fill="#40BFFF"/>
<path d="M88.3778 11.6643C88.1231 11.6292 87.8881 11.8072 87.8529 12.062C87.8178 12.3167 87.9958 12.5517 88.2505 12.5868L94.3034 13.4219C94.5582 13.457 94.7932 13.279 94.8283 13.0243C94.8635 12.7696 94.6855 12.5346 94.4307 12.4994L88.3778 11.6643Z" fill="#40BFFF"/>
<path d="M94.3895 13.7498L95.6519 13.924L95.7831 12.9728C95.8219 12.6912 95.6252 12.4315 95.3436 12.3926L95.1009 12.3591C94.8193 12.3203 94.5596 12.5171 94.5207 12.7986L94.3895 13.7498Z" fill="#40BFFF"/>
<path d="M78.3137 23.7926L71.8929 26.7229L72.3826 27.7959L78.8034 24.8657L78.3137 23.7926Z" fill="#171421"/>
<path d="M72.0862 29.3961C73.2532 29.3961 74.1992 28.4501 74.1992 27.2831C74.1992 26.1162 73.2532 25.1702 72.0862 25.1702C70.9193 25.1702 69.9733 26.1162 69.9733 27.2831C69.9733 28.4501 70.9193 29.3961 72.0862 29.3961Z" fill="#171421"/>
<path d="M72.0862 28.1877C72.5857 28.1877 72.9906 27.7828 72.9906 27.2833C72.9906 26.7838 72.5857 26.3789 72.0862 26.3789C71.5867 26.3789 71.1818 26.7838 71.1818 27.2833C71.1818 27.7828 71.5867 28.1877 72.0862 28.1877Z" fill="#FE8C36"/>
<path d="M84.6395 25.6709L90.027 30.2302L90.7889 29.3299L85.4015 24.7706L84.6395 25.6709Z" fill="#171421"/>
<path d="M90.4511 31.9295C91.6181 31.9295 92.5641 30.9835 92.5641 29.8166C92.5641 28.6496 91.6181 27.7036 90.4511 27.7036C89.2841 27.7036 88.3381 28.6496 88.3381 29.8166C88.3381 30.9835 89.2841 31.9295 90.4511 31.9295Z" fill="#171421"/>
<path d="M90.4512 30.7212C90.9507 30.7212 91.3556 30.3163 91.3556 29.8168C91.3556 29.3173 90.9507 28.9124 90.4512 28.9124C89.9517 28.9124 89.5468 29.3173 89.5468 29.8168C89.5468 30.3163 89.9517 30.7212 90.4512 30.7212Z" fill="#FE8C36"/>
<path d="M80.4069 12.9575L86.32 13.7733C87.9648 14.0002 89.116 15.5199 88.889 17.1647L77.0156 15.5266C77.2425 13.8818 78.7621 12.7306 80.4069 12.9575Z" fill="#4DC150"/>
<path d="M77.0155 15.5266L88.8889 17.1647L87.6095 26.4383C87.5379 26.9574 87.0583 27.3207 86.5392 27.2491L76.5469 25.8705C76.0278 25.7989 75.6645 25.3193 75.7361 24.8002L77.0155 15.5266Z" fill="#72D679"/>
<path d="M77.025 25.9563L86.0558 27.2022L86.031 27.3819C85.9537 27.9422 85.436 28.3344 84.8757 28.2571L77.8754 27.2913C77.3151 27.214 76.9229 26.6963 77.0002 26.136L77.025 25.9563Z" fill="#4DC150"/>
<path d="M82.0338 15.8308L83.9758 16.0987C84.3792 16.1544 84.7817 15.9911 85.0324 15.6701L86.4912 13.8022C86.4347 13.7912 86.3778 13.7812 86.32 13.7732L80.4069 12.9574C80.3491 12.9494 80.2916 12.9436 80.2341 12.939L81.1327 15.1321C81.2871 15.5089 81.6304 15.7751 82.0338 15.8308Z" fill="#72D679"/>
<path d="M80.9543 13.0332L81.5787 14.5571C81.7331 14.934 82.0764 15.2001 82.4798 15.2558L83.7023 15.4244C84.1057 15.4801 84.5082 15.3168 84.7588 14.9959L85.7726 13.698L80.9543 13.0332Z" fill="#4DC150"/>
<path d="M86.5986 18.1676L78.9489 17.1122C78.5995 17.064 78.2772 17.3081 78.229 17.6575L77.3514 24.0184C77.3032 24.3677 77.5474 24.69 77.8968 24.7382L85.5465 25.7936C85.8959 25.8418 86.2182 25.5977 86.2664 25.2483L87.1439 18.8874C87.1921 18.538 86.948 18.2158 86.5986 18.1676Z" fill="#4DC150"/>
<path d="M76.6163 18.4201L76.0055 22.847C75.2433 22.7418 74.7099 22.0376 74.815 21.2754L75.0447 19.6106C75.1499 18.8483 75.854 18.3149 76.6163 18.4201Z" fill="#BFBFC0"/>
<path d="M75.4611 22.6494C75.6221 22.7495 75.8056 22.8191 76.0056 22.8466L76.6163 18.4198C76.4164 18.3922 76.2209 18.4094 76.0387 18.4622L75.4611 22.6494Z" fill="#9C999C"/>
<path d="M87.8791 24.4854L88.4898 20.0586C89.252 20.1637 89.7855 20.8679 89.6803 21.6302L89.4507 23.295C89.3455 24.0572 88.6413 24.5906 87.8791 24.4854Z" fill="#BFBFC0"/>
<path d="M89.0343 20.2558C88.8733 20.1557 88.6897 20.0862 88.4898 20.0586L87.879 24.4855C88.079 24.5131 88.2745 24.4958 88.4566 24.4431L89.0343 20.2558Z" fill="#9C999C"/>
<path d="M80.6992 22.5955C80.9386 23.07 81.3988 23.4232 81.9651 23.5013C82.5314 23.5795 83.07 23.364 83.4289 22.9721" stroke="#262734" stroke-width="0.805332" stroke-miterlimit="10" stroke-linecap="round"/>
<path d="M80.3109 18.9339L80.3108 18.9339C79.9041 18.8778 79.529 19.162 79.4729 19.5686L79.2954 20.8553C79.2392 21.262 79.5234 21.6372 79.9301 21.6933L79.9302 21.6933C80.3369 21.7494 80.712 21.4652 80.7681 21.0585L80.9456 19.7718C81.0017 19.3651 80.7175 18.99 80.3109 18.9339Z" fill="#262734"/>
<path d="M84.7941 19.5523L84.7941 19.5523C84.3874 19.4962 84.0123 19.7804 83.9561 20.187L83.7786 21.4737C83.7225 21.8804 84.0067 22.2556 84.4134 22.3117L84.4134 22.3117C84.8201 22.3678 85.1953 22.0836 85.2514 21.6769L85.4289 20.3902C85.485 19.9836 85.2008 19.6084 84.7941 19.5523Z" fill="#262734"/>
</g>
<defs>
<clipPath id="clip0_2004_5518">
<rect width="264" height="88" fill="white"/>
</clipPath>
</defs>
</svg>
