<svg width="264" height="88" viewBox="0 0 264 88" fill="none" xmlns="http://www.w3.org/2000/svg">
<g clip-path="url(#clip0_2004_5328)">
<path d="M242.064 15.7465L251.396 17.5563L252.921 26.947C252.935 27.0368 253.064 27.0368 253.079 26.947L254.603 17.5563L263.935 15.7465C264.022 15.7297 264.022 15.6062 263.935 15.5891L254.603 13.7419L253.079 4.79524C253.064 4.70627 252.936 4.70627 252.921 4.79524L251.396 13.7419L242.064 15.5891C241.978 15.6062 241.978 15.7297 242.064 15.7465Z" fill="white"/>
<path d="M232.549 26.9336L238.563 28.1L239.545 34.1521C239.555 34.21 239.638 34.21 239.647 34.1521L240.63 28.1L246.644 26.9336C246.7 26.9228 246.7 26.8432 246.644 26.8322L240.63 25.6417L239.647 19.8758C239.638 19.8184 239.555 19.8184 239.545 19.8758L238.563 25.6417L232.549 26.8322C232.493 26.8432 232.493 26.9228 232.549 26.9336Z" fill="white"/>
<path d="M237.358 4.67548L241.319 5.44354L241.966 9.42911C241.972 9.46721 242.027 9.46721 242.033 9.42911L242.68 5.44354L246.641 4.67548C246.677 4.66835 246.677 4.6159 246.641 4.60864L242.68 3.82469L242.033 0.0275816C242.027 -0.0101704 241.972 -0.0101704 241.966 0.0275816L241.319 3.82469L237.358 4.60864C237.321 4.6159 237.322 4.66835 237.358 4.67548Z" fill="white"/>
<path d="M242.742 87.9997C245.911 86.3636 248.079 83.0627 248.079 79.2507C248.079 73.814 243.671 69.4053 238.234 69.4053C237.934 69.4053 237.637 69.4238 237.343 69.4509C234.804 61.1946 227.117 55.1911 218.028 55.1911C210.319 55.1911 203.621 59.5101 200.214 65.8582C199 64.2335 197.215 63.0586 195.152 62.6471C192.931 59.8817 189.527 58.1074 185.705 58.1074C185.241 58.1074 184.787 58.1388 184.337 58.19C182.59 53.4638 178.056 50.0875 172.721 50.0875C165.876 50.0875 160.327 55.6368 160.327 62.4819C160.327 64.9824 161.073 67.305 162.346 69.2515C161.687 69.1504 161.016 69.0821 160.327 69.0821C157.122 69.0821 154.183 70.2198 151.89 72.1123C149.293 69.8596 146.066 68.316 142.506 67.7891C142.52 67.4801 142.53 67.1696 142.53 66.8563C142.53 55.9842 133.717 47.1711 122.845 47.1711C113.555 47.1711 105.773 53.6076 103.704 62.264C100.753 59.678 96.8914 58.1073 92.6593 58.1073C83.8078 58.1073 76.5639 64.9667 75.9388 73.6587C72.4772 69.925 67.5317 67.5854 62.0379 67.5854C60.2108 67.5854 58.4465 67.8489 56.7747 68.3316C55.5245 58.0518 46.7727 50.0874 36.1555 50.0874C24.6796 50.0874 15.3766 59.3903 15.3766 70.8662C15.3766 71.6864 15.4294 72.4939 15.5219 73.2885C10.3657 74.9261 6.62769 79.7491 6.62769 85.4479C6.62769 86.3223 6.7167 87.1752 6.88403 87.9997L242.742 87.9997Z" fill="#C5E8FF"/>
<path d="M43.9989 41.2896H40.5043V79.9589H43.9989V41.2896Z" fill="#97DAFF"/>
<path d="M6.39307 12.1194H78.1099V59.2595C78.1099 61.0835 76.6291 62.5643 74.8052 62.5643H9.69782C7.87389 62.5643 6.39307 61.0835 6.39307 59.2595V12.1194Z" fill="#0063A0"/>
<path d="M79.1356 6.04175H5.36753C4.67523 6.04175 4.11401 6.60297 4.11401 7.29526V12.5373C4.11401 13.2296 4.67523 13.7908 5.36753 13.7908H79.1356C79.8279 13.7908 80.3891 13.2296 80.3891 12.5373V7.29526C80.3891 6.60297 79.8279 6.04175 79.1356 6.04175Z" fill="#002C47"/>
<path d="M18.854 82.1994V87.9996H24.6247V82.5478C24.6247 81.8002 25.2307 81.1942 25.9783 81.1942H58.5248C59.2724 81.1942 59.8784 81.8002 59.8784 82.5478V87.9996H65.6491V82.1994C65.6491 78.985 63.0432 76.3792 59.8288 76.3792H24.6743C21.4599 76.3792 18.854 78.985 18.854 82.1994Z" fill="#97DAFF"/>
<path d="M13.4849 18.0598V56.9728H71.0183V18.0598H13.4849ZM70.5783 21.7981H65.719V18.4998H70.5783V21.7981ZM42.0316 37.7365V45.0455H34.7226V37.7365H42.0316ZM34.7226 37.2965V29.9875H42.0316V37.2965H34.7226ZM42.4716 37.7365H49.7805V45.0455H42.4716V37.7365ZM42.4716 37.2965V29.9875H49.7805V37.2965H42.4716ZM50.2205 29.9875H57.53V37.2965H50.2205V29.9875ZM50.2205 29.5475V22.2381H57.53V29.5475H50.2205ZM49.7805 29.5475H42.4716V22.2381H49.7805V29.5475ZM42.0316 29.5475H34.7226V22.2381H42.0316V29.5475ZM34.2826 29.5475H26.9736V22.2381H34.2826V29.5475ZM34.2826 29.9875V37.2965H26.9736V29.9875H34.2826ZM26.5336 37.2965H19.2247V29.9875H26.5336V37.2965ZM26.5336 37.7365V45.0455H19.2247V37.7365H26.5336ZM26.9736 37.7365H34.2826V45.0455H26.9736V37.7365ZM34.2826 45.4855V52.7945H26.9736V45.4855H34.2826ZM34.7226 45.4855H42.0316V52.7945H34.7226V45.4855ZM42.4716 45.4855H49.7805V52.7945H42.4716V45.4855ZM50.2205 45.4855H57.53V52.7945H50.2205V45.4855ZM50.2205 45.0455V37.7365H57.53V45.0455H50.2205ZM57.97 37.7365H65.2789V45.0455H57.97V37.7365ZM57.97 37.2965V29.9875H65.2789V37.2965H57.97ZM57.97 29.5475V22.2381H65.2789V29.5475H57.97ZM57.97 21.7981V18.4998H65.2789V21.7981H57.97ZM57.53 21.7981H50.2205V18.4998H57.53V21.7981ZM49.7805 21.7981H42.4716V18.4998H49.7805V21.7981ZM42.0316 21.7981H34.7226V18.4998H42.0316V21.7981ZM34.2826 21.7981H26.9736V18.4998H34.2826V21.7981ZM26.5336 21.7981H19.2247V18.4998H26.5336V21.7981ZM26.5336 22.2381V29.5475H19.2247V22.2381H26.5336ZM18.7846 29.5475H13.9249V22.2381H18.7846V29.5475ZM18.7846 29.9875V37.2965H13.9249V29.9875H18.7846ZM18.7846 37.7365V45.0455H13.9249V37.7365H18.7846ZM18.7846 45.4855V52.7945H13.9249V45.4855H18.7846ZM19.2246 45.4855H26.5336V52.7945H19.2246V45.4855ZM26.5336 53.2345V56.5328H19.2247V53.2345H26.5336ZM26.9736 53.2345H34.2826V56.5328H26.9736V53.2345ZM34.7226 53.2345H42.0316V56.5328H34.7226V53.2345ZM42.4716 53.2345H49.7805V56.5328H42.4716V53.2345ZM50.2205 53.2345H57.53V56.5328H50.2205V53.2345ZM57.97 53.2345H65.2789V56.5328H57.97V53.2345ZM57.97 52.7945V45.4855H65.2789V52.7945H57.97ZM65.719 45.4855H70.5783V52.7945H65.719V45.4855ZM65.719 45.0455V37.7365H70.5783V45.0455H65.719ZM65.719 37.2965V29.9875H70.5783V37.2965H65.719ZM65.719 29.5475V22.2381H70.5783V29.5475H65.719ZM18.7846 18.4998V21.7981H13.9249V18.4998H18.7846ZM13.9249 53.2345H18.7846V56.5328H13.9249V53.2345ZM65.719 56.5328V53.2345H70.5783V56.5328H65.719Z" fill="#008DD3"/>
<g opacity="0.24">
<g opacity="0.8">
<path d="M17.3276 17.7972C16.9244 21.2825 16.5211 24.7677 16.1179 28.253C16.0595 28.7578 16.7192 29.0662 17.111 28.8229C18.6586 27.8616 20.4333 27.2877 22.1201 26.6222C23.9222 25.911 25.7244 25.1999 27.5265 24.4888C27.9498 24.3218 28.2275 23.7453 27.8178 23.3857C26.3814 22.125 24.9108 20.8978 23.3355 19.8128C21.7623 18.7291 20.0902 17.7863 18.5814 16.6101C17.9192 16.0939 16.9785 17.0216 17.648 17.5435C19.1408 18.7072 20.7645 19.669 22.3326 20.7236C23.9409 21.8053 25.4292 23.0418 26.8844 24.3191L27.1756 23.2159C25.3055 23.9539 23.4353 24.6918 21.5652 25.4298C19.8419 26.1097 18.0259 26.7009 16.4448 27.683L17.4379 28.2529C17.8411 24.7676 18.2444 21.2824 18.6476 17.7972C18.7451 16.9548 17.4242 16.9619 17.3276 17.7972Z" fill="white"/>
<path d="M16.8495 28.5249C17.6669 29.6701 18.1706 30.9616 18.5886 32.2962C19.0605 33.803 19.487 35.3252 19.9158 36.8448C20.7884 39.9374 21.617 43.0421 22.4456 46.1466C22.5604 46.5768 23.0419 46.7323 23.4152 46.5411C25.2468 45.6029 27.2435 45.0902 29.2323 44.6032C30.2298 44.3589 31.2292 44.1209 32.2167 43.8379C32.9094 43.6393 34.4304 43.4486 34.3931 42.4735C34.3758 42.0215 34.117 41.533 33.9725 41.1091C33.7817 40.5494 33.5893 39.9902 33.393 39.4324C33.0235 38.3829 32.6398 37.3383 32.2264 36.3053C31.416 34.2806 30.3962 32.3533 29.5589 30.3418C29.1074 29.2572 28.7625 28.1471 28.502 27.0021C28.2306 25.8093 27.9944 24.6101 27.5468 23.4672C27.2405 22.685 25.9636 23.0254 26.274 23.8181C26.8794 25.3643 27.0876 27.0146 27.5435 28.6038C27.9957 30.1801 28.6942 31.6739 29.3938 33.1523C30.1205 34.6876 30.8061 36.233 31.4068 37.8225C31.702 38.6032 31.9833 39.3891 32.2581 40.1772C32.3955 40.5713 32.5311 40.9661 32.666 41.3612C32.7714 41.67 33.086 42.247 33.0673 42.5756L33.2606 42.1089C33.1456 42.2438 32.7653 42.293 32.6018 42.3444C32.388 42.4116 32.1733 42.4759 31.9581 42.5382C31.496 42.6721 31.031 42.7958 30.5649 42.9146C29.6939 43.1366 28.8185 43.3409 27.9473 43.5622C26.1597 44.0162 24.3956 44.5577 22.749 45.4012L23.7185 45.7957C22.8713 42.6213 22.0241 39.4469 21.1298 36.2854C20.7026 34.7749 20.2814 33.2597 19.8043 31.7641C19.3664 30.3915 18.8309 29.0376 17.9894 27.8585C17.5001 27.1729 16.3547 27.8315 16.8495 28.5249Z" fill="white"/>
<path d="M19.6458 35.4103C18.8467 36.0264 18.5166 37.3629 18.2622 38.3007C17.9559 39.4298 17.7983 40.6062 17.7624 41.7749C17.6861 44.2581 18.1808 46.7282 18.8681 49.1028C19.0182 49.6215 19.8091 49.7821 20.0744 49.2604C20.4788 48.4653 21.122 47.9016 21.8848 47.4562C22.6144 47.0302 23.5788 46.8368 24.0521 46.0891C24.5078 45.3692 23.366 44.7062 22.9123 45.4228C22.7233 45.7215 22.1128 45.852 21.8052 46.0032C21.4084 46.1982 21.0223 46.4173 20.6619 46.6742C19.9466 47.1842 19.3355 47.8058 18.9346 48.5941L20.1409 48.7518C19.5295 46.6394 19.0743 44.4743 19.075 42.2662C19.0754 41.2426 19.1703 40.2221 19.3938 39.2225C19.5078 38.7125 19.6519 38.2092 19.8289 37.7176C19.9203 37.464 20.0206 37.2143 20.1328 36.9691C20.1875 36.8503 20.2443 36.7325 20.3032 36.6157C20.3905 36.4849 20.3934 36.4629 20.312 36.5499C20.5963 36.3307 20.7411 35.985 20.5487 35.6469C20.3897 35.3674 19.9275 35.193 19.6458 35.4103Z" fill="white"/>
<path d="M30.2399 33.3098C33.6818 35.7717 37.9754 38.2505 38.8455 42.766L39.4819 41.9305C37.2851 41.6425 35.0722 41.546 32.8587 41.6418C32.0125 41.6784 32.008 42.9987 32.8587 42.9618C35.0722 42.866 37.2851 42.9625 39.4819 43.2505C39.9421 43.3108 40.1892 42.7829 40.1183 42.415C39.1785 37.5376 34.6279 34.832 30.9061 32.17C30.214 31.6749 29.5542 32.8193 30.2399 33.3098Z" fill="white"/>
<path d="M35.0674 56.8556C34.2428 55.514 32.8063 54.73 31.728 53.6174C30.6613 52.5167 29.3635 51.1673 29.0946 49.5968C28.9552 48.7821 29.3445 48.3351 30.0285 47.9687C30.832 47.5384 31.5876 47.3071 32.4265 47.7819C33.0499 48.1347 33.8217 48.5882 34.0931 49.2872C34.3521 49.9543 34.2844 50.7145 34.2673 51.4146C34.217 53.4815 34.4242 55.5479 34.5742 57.6072C34.6356 58.4494 35.9561 58.4561 35.8942 57.6072C35.7379 55.4611 35.5436 53.3177 35.594 51.1639C35.6147 50.2791 35.6008 49.3636 35.2073 48.5503C34.8028 47.7144 33.949 47.1508 33.1735 46.6904C32.2791 46.1595 31.3267 46.0263 30.3411 46.3873C29.5369 46.6819 28.6726 47.1042 28.1614 47.8175C27.0217 49.4077 28.3131 51.5728 29.3244 52.8626C30.0197 53.7494 30.7792 54.6085 31.6322 55.347C32.4271 56.0353 33.3664 56.6087 33.9277 57.5218C34.3717 58.2443 35.5139 57.582 35.0674 56.8556Z" fill="white"/>
<path d="M23.1416 29.2876C23.0903 29.443 23.0979 29.365 23.1237 29.3311C23.1973 29.2343 23.0951 29.3643 23.0944 29.3644C23.0859 29.3658 23.1559 29.3083 23.155 29.3069L23.089 29.3608L23.1249 29.3395L23.1666 29.3183L23.0954 29.3509C23.0984 29.3539 23.1797 29.3201 23.1852 29.3275C23.1908 29.3352 23.0095 29.3311 23.1486 29.3344C23.1874 29.3354 23.2275 29.3373 23.2662 29.3363C23.3572 29.3342 23.1434 29.3068 23.2311 29.3314C23.2612 29.3398 23.2926 29.3446 23.3229 29.3528C23.3546 29.3615 23.3858 29.3714 23.4167 29.3822C23.4387 29.3898 23.5354 29.434 23.4537 29.3947C23.3714 29.3552 23.4682 29.4039 23.4881 29.4138C23.5179 29.4287 23.5474 29.4443 23.5767 29.4602C23.6428 29.4962 23.7075 29.5345 23.7719 29.5734C23.8242 29.605 23.8766 29.6366 23.9282 29.6695C23.9518 29.6846 23.9749 29.7005 23.9985 29.7157C24.082 29.7696 23.9587 29.7044 23.9658 29.6876C23.9667 29.6856 24.0723 29.7947 24.0831 29.8022C24.0674 29.7913 23.9982 29.6752 24.0474 29.7687L24.013 29.6858C24.0272 29.7454 24.03 29.7473 24.0213 29.6914C23.9876 29.6154 24.0186 29.6823 24.0187 29.723C24.0187 29.7553 24.017 29.7875 24.015 29.8198C24.0108 29.8861 24.0046 29.9524 23.9987 30.0186C23.9934 30.0777 23.9872 30.1368 23.981 30.1959C23.966 30.3392 23.9839 30.1715 23.9847 30.1717C23.9887 30.1732 23.9598 30.3145 23.9584 30.3214C23.945 30.3873 23.9289 30.4527 23.9096 30.5171C23.8999 30.5492 23.8886 30.5807 23.8779 30.6126C23.8485 30.7009 23.8953 30.6231 23.8863 30.5945C23.8946 30.6207 23.8202 30.7138 23.8057 30.7382C23.7573 30.8201 23.8036 30.7002 23.8359 30.7053C23.8267 30.7039 23.7747 30.7753 23.7674 30.7828C23.7485 30.8025 23.726 30.8196 23.7082 30.8401C23.6649 30.8897 23.7577 30.8036 23.7624 30.8015C23.7466 30.8083 23.6262 30.8766 23.6244 30.8857C23.6319 30.8479 23.7611 30.8402 23.6708 30.8645C23.6726 30.8641 23.596 30.8809 23.5933 30.8853C23.6208 30.8416 23.7421 30.8796 23.6484 30.877C23.6238 30.8783 23.5993 30.878 23.5747 30.8762C23.524 30.8729 23.5419 30.8758 23.6283 30.8849C23.6158 30.8913 23.4378 30.8357 23.4386 30.83C23.4391 30.8266 23.574 30.8963 23.4672 30.8415C23.4426 30.8289 23.4176 30.8173 23.3931 30.8043C23.3504 30.7817 23.3087 30.7573 23.2679 30.7314C23.2446 30.7166 23.2216 30.7013 23.199 30.6855C23.1137 30.626 23.1835 30.6578 23.2169 30.7015C23.153 30.6177 23.0496 30.5524 22.9788 30.4714C22.9815 30.4746 22.929 30.4076 22.9255 30.408C22.9503 30.4053 23.0071 30.5217 22.9538 30.4423C22.9153 30.3848 22.8772 30.3276 22.8434 30.2671C22.8283 30.2401 22.791 30.127 22.7689 30.1192C22.8003 30.1302 22.8188 30.2503 22.7881 30.1621C22.7744 30.1229 22.7604 30.0842 22.7484 30.0443C22.7288 29.9793 22.7166 29.9136 22.7017 29.8475C22.6815 29.7574 22.7047 29.9722 22.708 29.8802C22.7094 29.8413 22.7073 29.8001 22.7059 29.761C22.7016 29.6347 22.714 29.7846 22.6979 29.7955C22.6984 29.7951 22.7364 29.6617 22.7359 29.6594C22.7385 29.6735 22.6758 29.7645 22.7152 29.7204C22.7999 29.6255 22.7134 29.7355 22.6943 29.7409C22.6881 29.7427 22.7519 29.6891 22.7517 29.6852C22.6744 29.7417 22.6567 29.7568 22.6985 29.7304C22.7151 29.7197 22.7324 29.7103 22.7503 29.702C22.7389 29.7128 22.5997 29.7558 22.7029 29.7305L22.6043 29.7437C22.6305 29.7425 22.6566 29.7435 22.6826 29.7469C23.0275 29.7761 23.3576 29.4224 23.3426 29.0869C23.3254 28.7043 23.0521 28.4581 22.6826 28.4269C22.1828 28.3845 21.7029 28.7395 21.5145 29.1859C21.3391 29.6014 21.3555 30.0716 21.5082 30.4935C21.781 31.2477 22.365 31.8649 23.1343 32.1195C23.5641 32.2616 24.0562 32.2033 24.4287 31.9413C24.8025 31.6783 25.0506 31.304 25.1825 30.8679C25.246 30.658 25.272 30.438 25.298 30.2211C25.3203 30.0346 25.3474 29.839 25.3365 29.6508C25.3061 29.125 24.9857 28.7743 24.559 28.5075C24.1461 28.2494 23.6955 28.0133 23.1956 28.0134C22.5921 28.0136 22.0599 28.3586 21.8689 28.9367C21.7605 29.2647 21.9944 29.6721 22.3299 29.7486C22.6934 29.8314 23.0255 29.6389 23.1416 29.2876Z" fill="white"/>
<path d="M24.2938 35.025C24.2997 35.0218 24.4518 34.9562 24.3573 34.9897C24.2744 35.019 24.3822 34.9849 24.4023 34.9791C24.4363 34.9694 24.4962 34.943 24.5306 34.9492C24.5172 34.9468 24.3779 34.9575 24.5127 34.9541C24.5631 34.9527 24.6817 34.9298 24.7248 34.9564L24.6549 34.9452C24.6811 34.949 24.7072 34.9538 24.7331 34.9593C24.7849 34.9699 24.836 34.9831 24.8866 34.9985C24.9202 35.0087 24.9529 35.0227 24.9866 35.0321C25.0836 35.0591 24.8525 34.9599 24.9991 35.0373C25.0616 35.0703 25.1248 35.1012 25.1855 35.1375C25.2541 35.1785 25.3177 35.2259 25.3845 35.2693C25.4707 35.3252 25.2752 35.1726 25.3949 35.2774C25.4261 35.3047 25.4583 35.3309 25.4891 35.3587C25.5446 35.4088 25.5981 35.4612 25.6487 35.5164C25.6592 35.5279 25.7075 35.5716 25.7142 35.5912C25.6839 35.5023 25.67 35.5268 25.7017 35.5754C25.747 35.6449 25.7873 35.7141 25.8284 35.7861C25.8626 35.8461 25.8761 35.817 25.8206 35.7636C25.8461 35.7881 25.8553 35.8688 25.8632 35.9006C25.8694 35.9254 25.8713 35.9668 25.8815 35.9879C25.8373 35.897 25.8717 35.8748 25.8735 35.9444C25.8752 36.0112 25.8725 36.0763 25.8708 36.143C25.8685 36.2369 25.9108 35.979 25.8725 36.1209C25.8648 36.1495 25.8599 36.1789 25.8524 36.2075C25.8448 36.2362 25.8363 36.2648 25.8271 36.293C25.8202 36.3143 25.8127 36.3353 25.8046 36.3562C25.7869 36.4024 25.7946 36.3844 25.8279 36.302C25.7924 36.3368 25.7699 36.4173 25.7436 36.461C25.7242 36.4932 25.7013 36.5234 25.6819 36.5555C25.6337 36.6354 25.7898 36.4396 25.6884 36.5471C25.647 36.591 25.6079 36.6364 25.5637 36.6778C25.5631 36.6784 25.5055 36.738 25.4962 36.7377C25.5713 36.6818 25.5801 36.6748 25.5225 36.7167L25.4853 36.742C25.4509 36.7646 25.4155 36.7856 25.3794 36.8052C25.3607 36.8153 25.2592 36.8634 25.3395 36.8285C25.4327 36.788 25.275 36.8472 25.2702 36.8486C25.2545 36.8529 25.1759 36.8774 25.1687 36.8715C25.1614 36.8654 25.2996 36.8758 25.1903 36.8611C25.0601 36.8435 25.1984 36.8754 25.2129 36.8685C25.1951 36.877 25.0589 36.8061 25.1462 36.8523C25.2303 36.8967 25.084 36.8099 25.0681 36.7994C25.0506 36.7879 24.9585 36.7264 25.0301 36.7756C25.1127 36.8323 24.9811 36.7361 24.9766 36.7325C24.9245 36.6902 24.873 36.6472 24.8225 36.6032C24.7018 36.4981 24.5857 36.3875 24.4798 36.2675C24.4532 36.2374 24.4199 36.2063 24.3991 36.1719C24.4092 36.1886 24.479 36.2866 24.4131 36.1864C24.3771 36.1315 24.3409 36.0773 24.3092 36.0198C24.3053 36.0127 24.2259 35.8737 24.2783 35.9672C24.3283 36.0565 24.2631 35.9231 24.2588 35.9098C24.2487 35.8788 24.2397 35.8473 24.2318 35.8157L24.2209 35.7676C24.2077 35.694 24.2082 35.7027 24.2223 35.7936C24.2121 35.7776 24.2157 35.5409 24.2255 35.5402C24.2373 35.5394 24.1874 35.7062 24.2274 35.5655C24.2414 35.5163 24.2541 35.468 24.2698 35.4193C24.314 35.2826 24.2635 35.4382 24.2623 35.4366C24.2557 35.4281 24.3323 35.3127 24.3373 35.3041C24.4029 35.1928 24.3277 35.3048 24.3231 35.317C24.3371 35.2798 24.3929 35.2393 24.4226 35.2111C24.4383 35.1962 24.4728 35.1577 24.4954 35.1471C24.354 35.2136 24.4841 35.1609 24.5205 35.1392C24.5553 35.1184 24.5923 35.102 24.6274 35.0821C24.6932 35.045 24.5096 35.1136 24.627 35.0853C24.6662 35.0758 24.7042 35.0621 24.7437 35.0531C24.7672 35.0474 24.791 35.0427 24.8149 35.0388C24.7262 35.0494 24.709 35.0525 24.7634 35.0482C24.8651 35.0514 24.9675 35.0453 25.0697 35.0494C25.4151 35.0631 25.7452 34.736 25.7297 34.3894C25.7131 34.02 25.4397 33.7441 25.0697 33.7294C24.5204 33.7075 24.0321 33.8373 23.6001 34.1838C23.1966 34.5076 22.9718 34.9834 22.9122 35.4899C22.8022 36.4244 23.4358 37.186 24.1225 37.7293C24.3486 37.9082 24.5757 38.0728 24.8621 38.1413C25.1435 38.2086 25.4496 38.1862 25.721 38.0887C26.1851 37.9222 26.5591 37.6085 26.8348 37.2032C27.0709 36.8563 27.2084 36.4088 27.1958 35.9886C27.1806 35.4829 26.9696 35.0397 26.6478 34.6579C25.9292 33.8054 24.6616 33.3163 23.6278 33.8853C23.325 34.052 23.2013 34.4941 23.391 34.7884C23.5888 35.0952 23.97 35.2033 24.2938 35.025Z" fill="white"/>
</g>
<path d="M31.8784 29.0377C32.1879 27.978 32.5751 26.9428 33.0478 25.9448C33.1642 25.6989 33.2855 25.4553 33.4115 25.2141C33.4744 25.0936 33.5382 24.9733 33.6039 24.8542C33.6794 24.7178 33.6896 24.696 33.8483 24.6939C34.1296 24.6901 34.427 24.7526 34.7077 24.7783C34.9943 24.8044 35.2812 24.8286 35.5682 24.8509C37.8645 25.029 40.1694 25.0799 42.4714 25.0091C42.7539 25.0004 42.7551 24.5604 42.4714 24.5691C40.5291 24.6288 38.5847 24.6024 36.645 24.4852C35.701 24.4281 34.7566 24.2928 33.813 24.2508C33.4158 24.2332 33.2949 24.4975 33.1269 24.8116C32.9104 25.2165 32.7072 25.6285 32.5178 26.0468C32.0957 26.9786 31.7409 27.9388 31.4541 28.9207C31.3745 29.193 31.799 29.3094 31.8784 29.0377Z" fill="white"/>
<path d="M44.5991 23.3447C49.2455 23.5015 53.8929 23.6292 58.5409 23.7278C58.8242 23.7339 58.8241 23.2939 58.5409 23.2878C53.8929 23.1892 49.2455 23.0616 44.5991 22.9047C44.3159 22.8951 44.3163 23.3351 44.5991 23.3447Z" fill="white"/>
<path d="M43.9157 24.8114C45.8168 24.9077 47.7169 25.0237 49.6156 25.1596C49.8981 25.1798 49.8969 24.7397 49.6156 24.7196C47.7169 24.5837 45.8168 24.4677 43.9157 24.3714C43.6327 24.3571 43.6335 24.7971 43.9157 24.8114Z" fill="white"/>
<path d="M44.9039 26.6573C49.0952 26.6594 53.2865 26.6616 57.4777 26.6638C58.6804 26.6644 59.8831 26.665 61.0858 26.6657C61.3689 26.6658 61.3694 26.2258 61.0858 26.2257C56.8945 26.2235 52.7033 26.2213 48.5121 26.2192C47.3094 26.2186 46.1066 26.2179 44.9039 26.2173C44.6208 26.2172 44.6203 26.6572 44.9039 26.6573Z" fill="white"/>
<path d="M45.5118 28.1334C47.7022 28.163 49.8927 28.1925 52.0831 28.2221C52.3664 28.2259 52.3665 27.7859 52.0831 27.7821C49.8927 27.7525 47.7022 27.723 45.5118 27.6934C45.2286 27.6896 45.2284 28.1296 45.5118 28.1334Z" fill="white"/>
<path d="M45.9834 29.4729C47.9141 29.7921 49.8622 29.9924 51.8177 30.0689C52.1008 30.08 52.1003 29.6399 51.8177 29.6289C49.9014 29.554 47.9924 29.3615 46.1004 29.0486C45.8234 29.0028 45.7042 29.4268 45.9834 29.4729Z" fill="white"/>
<path d="M36.7178 48.9203C37.1344 49.1171 37.5041 49.3966 37.881 49.6586C38.2668 49.9269 38.6527 50.1953 39.0385 50.4635C39.4321 50.7373 39.8227 51.0161 40.2201 51.2844C40.5561 51.5112 40.896 51.6557 41.3055 51.6651C41.7538 51.6754 42.207 51.6246 42.6555 51.6136C43.1628 51.6011 43.6704 51.601 44.1778 51.613C45.1565 51.6363 46.1332 51.7067 47.1056 51.8192C47.3864 51.8516 47.3841 51.4114 47.1056 51.3792C45.2305 51.1623 43.3745 51.159 41.4917 51.2223C41.0252 51.2379 40.7053 51.0865 40.3291 50.8266C39.9425 50.5595 39.5574 50.29 39.1716 50.0217C38.7858 49.7535 38.3999 49.4851 38.0141 49.2168C37.6662 48.9749 37.3245 48.7221 36.94 48.5404C36.6853 48.42 36.4617 48.7992 36.7178 48.9203Z" fill="white"/>
<path d="M49.2711 48.4176L49.2336 48.4769L49.1225 48.507C49.0901 48.492 49.0844 48.4935 49.1055 48.5116C49.1226 48.5297 49.1394 48.548 49.1559 48.5667C49.1876 48.6015 49.2191 48.6364 49.2506 48.6713C49.3201 48.748 49.3896 48.8247 49.4591 48.9014C49.598 49.0548 49.737 49.2082 49.876 49.3617C49.9419 49.4344 50.0604 49.4421 50.1426 49.3961C50.3023 49.3065 50.3298 49.145 50.3475 48.9778C50.37 48.7661 50.3799 48.5529 50.383 48.3401C50.389 47.923 50.3645 47.506 50.3326 47.0902C50.3171 46.8869 50.299 46.6837 50.283 46.4804C50.2805 46.4548 50.2786 46.4292 50.2772 46.4036C50.2789 46.353 50.2545 46.3704 50.2039 46.4556C50.2087 46.4662 50.2669 46.4731 50.2794 46.4765C50.3766 46.5037 50.4741 46.5295 50.5727 46.5515C50.968 46.6397 51.3738 46.6806 51.7786 46.6762C52.0616 46.6732 52.0623 46.2332 51.7786 46.2362C51.356 46.2407 50.9386 46.1942 50.5291 46.0886C50.366 46.0466 50.1883 45.9716 50.0246 46.0528C49.8413 46.1436 49.8306 46.3288 49.8454 46.5094C49.8812 46.9449 49.9199 47.3804 49.9361 47.8172C49.944 48.0301 49.9466 48.2433 49.9406 48.4563C49.9373 48.5723 49.9316 48.6884 49.9229 48.8041C49.9185 48.8619 49.9153 48.9204 49.9075 48.9778L49.9043 49.0116C49.8892 49.0565 49.8946 49.058 49.9205 49.0162L50.1871 49.0506C49.9597 48.7995 49.7323 48.5485 49.5049 48.2974C49.4153 48.1986 49.3275 48.0917 49.1879 48.0703C49.0333 48.0467 48.878 48.1456 48.8467 48.3006C48.7909 48.5771 49.215 48.6954 49.2711 48.4176Z" fill="white"/>
<path d="M50.9672 48.167C50.9899 48.1624 51.0127 48.158 51.0355 48.1542C51.0482 48.152 51.1011 48.1418 51.0458 48.1519C51.0852 48.1447 51.1269 48.1431 51.1668 48.1408C51.242 48.1366 51.3174 48.137 51.3925 48.1424C51.4098 48.1436 51.4271 48.1451 51.4444 48.1468C51.4559 48.1479 51.4674 48.1492 51.4789 48.1505C51.452 48.1467 51.4469 48.146 51.4635 48.1484C51.5007 48.1542 51.5377 48.1603 51.5746 48.1681C51.654 48.1847 51.7319 48.2072 51.8083 48.2344C51.9169 48.273 52.0539 48.1908 52.079 48.0808C52.1071 47.9574 52.0416 47.8515 51.9253 47.8101C51.5808 47.6877 51.2074 47.6699 50.8503 47.7427C50.7374 47.7657 50.6618 47.9056 50.6967 48.0134C50.7355 48.1331 50.8462 48.1917 50.9672 48.167Z" fill="white"/>
<path d="M54.4396 46.6902C54.1332 47.284 53.8268 47.8778 53.5204 48.4716C53.4659 48.5771 53.493 48.7104 53.5993 48.7726C53.6979 48.8302 53.8457 48.7997 53.9004 48.6937C54.2068 48.0998 54.5131 47.5061 54.8196 46.9122C54.874 46.8067 54.8469 46.6734 54.7406 46.6112C54.6421 46.5536 54.4943 46.5842 54.4396 46.6902Z" fill="white"/>
<path d="M53.5069 47.4274C53.8673 47.7762 54.2098 48.1431 54.533 48.5267C54.6075 48.615 54.7685 48.6091 54.8441 48.5267C54.9304 48.4327 54.9236 48.3098 54.8441 48.2156C54.5209 47.832 54.1784 47.4651 53.818 47.1163C53.7352 47.0361 53.5881 47.0277 53.5069 47.1163C53.4273 47.2029 53.4185 47.3419 53.5069 47.4274Z" fill="white"/>
<path d="M52.4709 45.8508V46.6865C52.4709 46.8016 52.5721 46.9118 52.6909 46.9065C52.8101 46.9012 52.9109 46.8098 52.9109 46.6865V45.8508C52.9109 45.7357 52.8097 45.6255 52.6909 45.6308C52.5718 45.6361 52.4709 45.7275 52.4709 45.8508Z" fill="white"/>
<path d="M55.9572 48.0088C56.0357 47.9008 56.5702 47.9986 56.6908 48.0041C56.9444 48.0157 57.198 48.0287 57.4515 48.0432C57.9766 48.0731 58.5013 48.1094 59.0255 48.1519C60.0921 48.2384 61.1562 48.3517 62.2175 48.489C62.4975 48.5253 62.4949 48.0849 62.2175 48.049C61.0304 47.8954 59.8395 47.7721 58.6458 47.6822C58.0671 47.6387 57.4878 47.6027 56.9082 47.5744C56.4898 47.554 55.8638 47.3924 55.5774 47.7867C55.4107 48.0162 55.7922 48.236 55.9572 48.0088Z" fill="white"/>
<path d="M63.5168 48.0461L64.6977 48.0457L65.2766 48.0455L65.5545 48.0454C65.6008 48.0454 65.6471 48.045 65.6934 48.0454C65.787 48.0461 65.7156 48.0556 65.6998 48.0187L65.6697 47.9076L65.6689 47.9271L65.699 47.816L65.6878 47.8357C65.5482 48.0825 65.9282 48.3045 66.0678 48.0578C66.1962 47.8306 65.9905 47.6267 65.7666 47.6075C65.5219 47.5866 65.2676 47.6055 65.0219 47.6055L63.5168 47.606C63.2337 47.6061 63.2332 48.0462 63.5168 48.0461Z" fill="white"/>
<path d="M64.2366 49.3153C64.5995 49.3613 64.962 49.3492 65.323 49.2933C65.437 49.2756 65.5103 49.1267 65.4766 49.0226C65.4364 48.8985 65.3282 48.85 65.206 48.869C65.1929 48.871 65.1798 48.873 65.1667 48.875C65.1439 48.8782 65.1406 48.8787 65.1567 48.8765C65.1836 48.8728 65.1237 48.8805 65.1171 48.8812C65.0744 48.8862 65.0316 48.8904 64.9888 48.8938C64.9064 48.9003 64.8238 48.9041 64.7411 48.905C64.5724 48.9069 64.404 48.8966 64.2366 48.8753C64.122 48.8608 64.0118 48.9869 64.0166 49.0953C64.0225 49.227 64.1138 49.2998 64.2366 49.3153Z" fill="white"/>
<path d="M63.9727 46.982C64.4284 47.0341 64.884 47.0863 65.3397 47.1384C65.4544 47.1516 65.5645 47.0279 65.5597 46.9184C65.5538 46.788 65.4626 46.7125 65.3397 46.6984C64.884 46.6463 64.4283 46.5941 63.9727 46.542C63.858 46.5288 63.7478 46.6526 63.7527 46.762C63.7586 46.8924 63.8498 46.9679 63.9727 46.982Z" fill="white"/>
<path d="M49.9181 51.4C53.7338 51.4088 57.5479 51.5801 61.349 51.9134C61.6311 51.9381 61.6294 51.498 61.349 51.4734C57.5479 51.1401 53.7338 50.9688 49.9181 50.96C49.6349 50.9593 49.6345 51.3993 49.9181 51.4Z" fill="white"/>
<path d="M50.2217 53.2902C52.0643 53.5255 53.9143 53.6953 55.769 53.7992C56.0519 53.815 56.051 53.375 55.769 53.3592C53.9143 53.2553 52.0643 53.0855 50.2217 52.8502C49.9416 52.8144 49.9442 53.2548 50.2217 53.2902Z" fill="white"/>
<path d="M49.9149 55.5935C51.088 55.7354 52.2703 55.7739 53.4501 55.7085C53.7317 55.6929 53.7335 55.2528 53.4501 55.2685C52.2703 55.3339 51.088 55.2954 49.9149 55.1535C49.6344 55.1196 49.6369 55.5598 49.9149 55.5935Z" fill="white"/>
</g>
<path d="M79.3191 63.1159C74.9896 63.1159 71.7428 61.7134 70.7945 60.7973C69.2038 59.2621 69.1591 56.7278 70.6948 55.1375C72.0153 53.7694 74.0743 53.5455 75.6371 54.4857C76.429 54.8122 82.4571 56.983 89.1658 50.9029C90.8042 49.4188 93.3355 49.5434 94.8201 51.1809C96.3046 52.8189 96.18 55.3506 94.5421 56.8352C89.2002 61.6765 83.7041 63.1159 79.3191 63.1159Z" fill="#3BA8FA"/>
<path d="M77.6849 87.9997C77.2282 87.9997 76.7633 87.9361 76.3022 87.8025C73.6704 87.0403 72.1548 84.2885 72.9171 81.6562C75.8372 71.5749 72.8376 59.9377 72.8071 59.8212C72.1101 57.1748 73.6866 54.4592 76.3322 53.7579C78.9778 53.0562 81.6909 54.625 82.3964 57.2693C82.5515 57.8498 86.151 71.6346 82.4484 84.4174C81.8193 86.5882 79.8372 87.9997 77.6849 87.9997Z" fill="#57CBF4"/>
<path d="M57.1644 88.0001C55.0121 88.0001 53.03 86.5885 52.4009 84.4178C48.6983 71.635 52.2978 57.8502 52.4529 57.2697C53.1602 54.6224 55.8775 53.0463 58.5265 53.7561C61.1717 54.4625 62.7443 57.1777 62.0418 59.8229C61.9941 60.0059 59.0207 71.6049 61.9323 81.6566C62.6945 84.2888 61.179 87.0406 58.5472 87.8029C58.0861 87.9365 57.6212 88.0001 57.1644 88.0001Z" fill="#57CBF4"/>
<path d="M66.0042 81.2617H68.8453C77.3747 81.2617 84.0836 73.9735 83.3789 65.4732L82.9345 60.1138C82.3076 52.5527 75.988 46.7354 68.4009 46.7354H66.4486C58.8616 46.7354 52.5419 52.5527 51.915 60.1138L51.4707 65.4732C50.7659 73.9735 57.4747 81.2617 66.0042 81.2617Z" fill="#57CBF4"/>
<path d="M65.2627 74.8748H77.1892C77.91 74.8748 78.4943 74.2905 78.4943 73.5697V66.5825C78.4943 65.8617 77.91 65.2774 77.1892 65.2774H65.2627C64.5419 65.2774 63.9576 65.8617 63.9576 66.5825V73.5697C63.9576 74.2905 64.5419 74.8748 65.2627 74.8748Z" fill="#37BEE2"/>
<path d="M72.374 75.7032C59.5075 75.7032 53.6302 66.6084 53.2817 64.1085C52.9766 61.9188 54.5042 59.8967 56.6939 59.5912C58.5785 59.3312 60.3363 60.4218 60.986 62.1255C61.4088 62.8697 64.824 68.2975 73.8475 67.6431C76.0543 67.4914 77.9695 69.1423 78.1284 71.3474C78.2874 73.5526 76.6293 75.469 74.4241 75.6284C73.7228 75.6791 73.0383 75.7032 72.374 75.7032Z" fill="#3BA8FA"/>
<path d="M55.0761 20.22C57.2939 20.22 59.0917 18.4222 59.0917 16.2044C59.0917 13.9866 57.2939 12.1887 55.0761 12.1887C52.8583 12.1887 51.0604 13.9866 51.0604 16.2044C51.0604 18.4222 52.8583 20.22 55.0761 20.22Z" fill="#3192D9"/>
<path d="M56.6138 17.368L54.7458 18.1042L57.6466 25.464L59.5145 24.7278L56.6138 17.368Z" fill="#3192D9"/>
<path d="M78.7389 20.22C80.9567 20.22 82.7546 18.4222 82.7546 16.2044C82.7546 13.9866 80.9567 12.1887 78.7389 12.1887C76.5211 12.1887 74.7233 13.9866 74.7233 16.2044C74.7233 18.4222 76.5211 20.22 78.7389 20.22Z" fill="#3192D9"/>
<path d="M77.2013 17.368L74.3005 24.7278L76.1685 25.464L79.0692 18.1042L77.2013 17.368Z" fill="#3192D9"/>
<path d="M44.8977 41.9897C44.8977 54.431 54.9834 61.3983 67.4247 61.3983C79.8661 61.3983 89.9518 54.431 89.9518 41.9897C89.9518 29.5483 79.8661 19.4626 67.4247 19.4626C54.9834 19.4626 44.8977 29.5483 44.8977 41.9897Z" fill="#57CBF4"/>
<path d="M54.3549 43.95C54.3549 52.9882 61.6818 55.3941 70.72 55.3941C79.7581 55.3941 87.0851 52.9882 87.0851 43.95C87.0851 34.9118 79.7581 31.7859 70.72 31.7859C61.6818 31.7859 54.3549 34.9118 54.3549 43.95Z" fill="#CCECFF"/>
<path d="M70.7198 56.389C59.0383 56.389 53.36 52.3203 53.36 43.95C53.36 35.4645 59.5251 30.7913 70.7198 30.7913C81.9145 30.7913 88.08 35.4645 88.08 43.95C88.08 52.3203 82.4013 56.389 70.7198 56.389ZM70.7198 32.7807C63.7077 32.7807 55.3494 34.7186 55.3494 43.95C55.3494 51.0794 60.2333 54.3996 70.7198 54.3996C81.2063 54.3996 86.0906 51.0794 86.0906 43.95C86.0906 34.7186 77.7319 32.7807 70.7198 32.7807Z" fill="white"/>
<path d="M79.8357 48.0065C82.2752 48.0065 84.2529 46.0289 84.2529 43.5893C84.2529 41.1498 82.2752 39.1721 79.8357 39.1721C77.3961 39.1721 75.4185 41.1498 75.4185 43.5893C75.4185 46.0289 77.3961 48.0065 79.8357 48.0065Z" fill="white"/>
<path d="M79.8357 46.4679C81.4255 46.4679 82.7144 45.1791 82.7144 43.5892C82.7144 41.9993 81.4255 40.7104 79.8357 40.7104C78.2458 40.7104 76.9569 41.9993 76.9569 43.5892C76.9569 45.1791 78.2458 46.4679 79.8357 46.4679Z" fill="#003A7F"/>
<path opacity="0.13" d="M79.8357 43.5072C80.4883 43.5072 81.0173 43.0929 81.0173 42.5819C81.0173 42.0708 80.4883 41.6565 79.8357 41.6565C79.1831 41.6565 78.6541 42.0708 78.6541 42.5819C78.6541 43.0929 79.1831 43.5072 79.8357 43.5072Z" fill="white"/>
<path d="M66.3028 48.0065C68.7424 48.0065 70.72 46.0289 70.72 43.5893C70.72 41.1498 68.7424 39.1721 66.3028 39.1721C63.8633 39.1721 61.8856 41.1498 61.8856 43.5893C61.8856 46.0289 63.8633 48.0065 66.3028 48.0065Z" fill="white"/>
<path d="M66.3028 46.4679C67.8927 46.4679 69.1816 45.1791 69.1816 43.5892C69.1816 41.9993 67.8927 40.7104 66.3028 40.7104C64.7129 40.7104 63.4241 41.9993 63.4241 43.5892C63.4241 45.1791 64.7129 46.4679 66.3028 46.4679Z" fill="#003A7F"/>
<path opacity="0.13" d="M66.3028 43.5072C66.9554 43.5072 67.4845 43.0929 67.4845 42.5819C67.4845 42.0708 66.9554 41.6565 66.3028 41.6565C65.6502 41.6565 65.1212 42.0708 65.1212 42.5819C65.1212 43.0929 65.6502 43.5072 66.3028 43.5072Z" fill="white"/>
<path d="M73.0733 49.2564C72.1533 49.2564 71.2952 48.8598 70.7014 48.1637C70.3993 47.8801 70.3555 47.4118 70.6159 47.0788C70.7689 46.8837 71.0065 46.7638 71.2544 46.7625C71.5019 46.7574 71.7412 46.8682 71.8964 47.062C72.1856 47.4268 72.6135 47.6335 73.0733 47.6335H73.0742C73.5344 47.633 73.9619 47.4264 74.2472 47.0654C74.5257 46.7135 75.0361 46.6551 75.3872 46.9326C75.7386 47.2111 75.798 47.7211 75.52 48.0726C74.9249 48.8241 74.0337 49.2555 73.0751 49.2564L73.0733 49.2564Z" fill="#232323"/>
<g opacity="0.3">
<path d="M158.139 10.0286H114.159C113.035 10.0286 112.123 10.9402 112.123 12.0647V48.4209C112.123 49.5454 113.035 50.457 114.159 50.457H158.139C159.263 50.457 160.175 49.5454 160.175 48.4209V12.0647C160.175 10.9402 159.263 10.0286 158.139 10.0286Z" fill="#3C83EF"/>
<path d="M144.957 19.2119H95.6898C94.2212 19.2119 93.0308 20.4024 93.0308 21.8709V67.9094C93.0308 69.378 94.2212 70.5684 95.6898 70.5684H144.957C146.426 70.5684 147.616 69.378 147.616 67.9094V21.8709C147.616 20.4024 146.426 19.2119 144.957 19.2119Z" fill="#3C83EF"/>
<path d="M158.139 7.77686H114.159C113.035 7.77686 112.123 8.68845 112.123 9.81296V46.1692C112.123 47.2937 113.035 48.2053 114.159 48.2053H158.139C159.263 48.2053 160.175 47.2937 160.175 46.1692V9.81296C160.175 8.68845 159.263 7.77686 158.139 7.77686Z" fill="#41BFFA"/>
<path d="M144.957 16.2712H95.6899C94.2214 16.2712 93.0309 17.4617 93.0309 18.9302V64.9688C93.0309 66.4373 94.2214 67.6278 95.6899 67.6278H144.957C146.426 67.6278 147.616 66.4373 147.616 64.9688V18.9302C147.616 17.4617 146.426 16.2712 144.957 16.2712Z" fill="#41BFFA"/>
<path d="M144.957 16.271H112.123V46.1689C112.123 47.2934 113.035 48.2049 114.159 48.2049H147.616V18.93C147.616 17.4615 146.426 16.271 144.957 16.271Z" fill="#3285FB"/>
<path d="M112.478 21.4155H100.817C99.9572 21.4155 99.2605 22.1122 99.2605 22.9715C99.2605 23.8309 99.9572 24.5276 100.817 24.5276H112.478C113.338 24.5276 114.034 23.8309 114.034 22.9715C114.034 22.1122 113.338 21.4155 112.478 21.4155Z" fill="white"/>
<path d="M117.647 30.8716H100.817C99.9572 30.8716 99.2605 31.5682 99.2605 32.4276C99.2605 33.287 99.9572 33.9836 100.817 33.9836H117.647C118.506 33.9836 119.203 33.287 119.203 32.4276C119.203 31.5682 118.506 30.8716 117.647 30.8716Z" fill="white"/>
<path d="M107.67 26.1433H100.816C99.957 26.1433 99.2604 26.84 99.2604 27.6993C99.2604 28.5587 99.957 29.2553 100.816 29.2553H107.67C108.529 29.2553 109.226 28.5587 109.226 27.6993C109.226 26.84 108.529 26.1433 107.67 26.1433Z" fill="white"/>
<path d="M103.465 35.5996H100.817C99.9572 35.5996 99.2605 36.2963 99.2605 37.1556C99.2605 38.015 99.9572 38.7116 100.817 38.7116H103.465C104.325 38.7116 105.021 38.015 105.021 37.1556C105.021 36.2963 104.325 35.5996 103.465 35.5996Z" fill="white"/>
<path d="M107.327 64.4245C112.285 64.4245 116.305 60.405 116.305 55.4466C116.305 50.4883 112.285 46.4688 107.327 46.4688C102.368 46.4688 98.3489 50.4883 98.3489 55.4466C98.3489 60.405 102.368 64.4245 107.327 64.4245Z" fill="#3087FA"/>
<path d="M113.817 54.4337C113.381 51.6175 111.156 49.3924 108.34 48.9565C107.809 48.8743 107.327 49.2771 107.327 49.8138V54.5799C107.327 55.0585 107.715 55.4466 108.194 55.4466H112.96C113.496 55.4466 113.899 54.9642 113.817 54.4337Z" fill="#41BFFA"/>
<path d="M133.978 37.1357C138.937 37.1357 142.956 33.1162 142.956 28.1578C142.956 23.1995 138.937 19.1799 133.978 19.1799C129.02 19.1799 125 23.1995 125 28.1578C125 33.1162 129.02 37.1357 133.978 37.1357Z" fill="#41BFFA"/>
<path d="M132.965 21.6676C130.149 22.1036 127.924 24.3288 127.488 27.145C127.406 27.6754 127.809 28.1579 128.345 28.1579H133.111C133.59 28.1579 133.978 27.7699 133.978 27.2912V22.525C133.978 21.9883 133.496 21.5855 132.965 21.6676Z" fill="#3285FB"/>
<path d="M118.163 45.7547C119.257 45.7547 120.143 44.8682 120.143 43.7747C120.143 42.6812 119.257 41.7947 118.163 41.7947C117.07 41.7947 116.183 42.6812 116.183 43.7747C116.183 44.8682 117.07 45.7547 118.163 45.7547Z" fill="#41BFFA"/>
<path d="M123.69 45.7547C124.784 45.7547 125.67 44.8682 125.67 43.7747C125.67 42.6812 124.784 41.7947 123.69 41.7947C122.597 41.7947 121.71 42.6812 121.71 43.7747C121.71 44.8682 122.597 45.7547 123.69 45.7547Z" fill="#41BFFA"/>
<path d="M119.203 18.6046C118.164 18.6046 117.323 17.7628 117.323 16.7243V14.1603C117.323 13.1219 118.164 12.28 119.203 12.28C120.241 12.28 121.083 13.1219 121.083 14.1603V16.7243C121.083 17.7628 120.241 18.6046 119.203 18.6046ZM126.401 16.7243V14.1603C126.401 13.1219 125.559 12.28 124.521 12.28C123.482 12.28 122.641 13.1219 122.641 14.1603V16.7243C122.641 17.7628 123.482 18.6046 124.521 18.6046C125.559 18.6046 126.401 17.7628 126.401 16.7243ZM131.719 16.7243V14.1603C131.719 13.1219 130.877 12.28 129.839 12.28C128.8 12.28 127.959 13.1219 127.959 14.1603V16.7243C127.959 17.7628 128.8 18.6046 129.839 18.6046C130.877 18.6046 131.719 17.7628 131.719 16.7243Z" fill="#FFF6F6"/>
<path d="M128.267 58.3992H128.267C127.55 58.3992 126.969 58.9806 126.969 59.6977V61.4686C126.969 62.1858 127.55 62.7671 128.267 62.7671H128.267C128.984 62.7671 129.566 62.1858 129.566 61.4686V59.6977C129.566 58.9806 128.984 58.3992 128.267 58.3992Z" fill="#FFF6F6"/>
<path d="M133.239 61.4686V59.6977C133.239 58.9806 132.657 58.3992 131.94 58.3992H131.94C131.223 58.3992 130.641 58.9806 130.641 59.6977V61.4686C130.641 62.1857 131.223 62.7671 131.94 62.7671H131.94C132.657 62.7671 133.239 62.1857 133.239 61.4686Z" fill="#FFF6F6"/>
<path d="M136.911 61.4686V59.6977C136.911 58.9806 136.33 58.3992 135.613 58.3992H135.613C134.896 58.3992 134.314 58.9806 134.314 59.6977V61.4686C134.314 62.1857 134.896 62.7671 135.613 62.7671H135.613C136.33 62.7671 136.911 62.1857 136.911 61.4686Z" fill="#3681FF"/>
<path d="M128.267 52.196H128.267C127.55 52.196 126.969 52.7774 126.969 53.4946V55.2654C126.969 55.9826 127.55 56.564 128.267 56.564H128.267C128.984 56.564 129.566 55.9826 129.566 55.2654V53.4946C129.566 52.7774 128.984 52.196 128.267 52.196Z" fill="#FFF6F6"/>
<path d="M133.239 55.2659V53.4951C133.239 52.7779 132.657 52.1965 131.94 52.1965H131.94C131.223 52.1965 130.641 52.7779 130.641 53.4951V55.2659C130.641 55.9831 131.223 56.5645 131.94 56.5645H131.94C132.657 56.5645 133.239 55.9831 133.239 55.2659Z" fill="#FFF6F6"/>
<path d="M119.203 18.6049C120.242 18.6049 121.083 17.7631 121.083 16.7246V16.2717H117.323V16.7246C117.323 17.7631 118.165 18.6049 119.203 18.6049Z" fill="#4BBBFF"/>
<path d="M129.839 18.6049C130.878 18.6049 131.719 17.7631 131.719 16.7246V16.2717H127.959V16.7246C127.959 17.7631 128.801 18.6049 129.839 18.6049Z" fill="#4BBBFF"/>
<path d="M124.521 18.6049C125.559 18.6049 126.401 17.7631 126.401 16.7246V16.2717H122.641V16.7246C122.641 17.7631 123.483 18.6049 124.521 18.6049Z" fill="#4BBBFF"/>
</g>
<g opacity="0.3">
<path d="M190.548 22.3782C190.461 22.3572 190.37 22.3741 190.297 22.4249L182.992 27.5085C182.852 27.6064 182.817 27.7992 182.915 27.9395C183.013 28.0796 183.205 28.1143 183.346 28.0168L190.523 23.0227L201.001 26.5732L209.158 36.549L205.641 52.9753L201.783 47.4474C201.737 47.3807 201.666 47.335 201.586 47.3202C201.571 47.3174 201.557 47.3157 201.542 47.315L192.306 46.9394C192.25 46.9371 192.194 46.9501 192.145 46.9771L190.184 48.0522C190.129 48.0823 190.085 48.1285 190.056 48.1844L186.975 54.2996C186.898 54.4523 186.959 54.6387 187.112 54.7158C187.264 54.7928 187.451 54.7316 187.528 54.5788L190.566 48.5491L192.367 47.5617L201.364 47.9281L205.37 53.6701L199.046 58.4532C199.029 58.4659 199.014 58.4802 199 58.4961L193.932 64.2951C193.819 64.4237 193.832 64.6195 193.96 64.7322C193.961 64.7324 193.961 64.7324 193.961 64.7326C194.09 64.8453 194.285 64.8324 194.398 64.7037C194.398 64.7035 194.398 64.7034 194.398 64.7033L199.446 58.9277L205.87 54.0691L231.134 59.2924C231.301 59.327 231.464 59.2208 231.5 59.0544L234.961 42.9635C234.996 42.8007 234.896 42.6393 234.735 42.5983L209.667 36.1936L201.424 26.1125C201.387 26.0676 201.339 26.0337 201.284 26.015L190.574 22.386C190.565 22.3826 190.556 22.3796 190.548 22.3769L190.548 22.3782ZM209.727 36.8484L234.293 43.125L230.959 58.6237L206.163 53.4967L209.727 36.8484Z" fill="#3D63B7"/>
<path d="M211.381 37.3063C211.17 38.2562 210.229 38.855 209.279 38.6437C208.329 38.4323 207.73 37.4909 207.941 36.541C208.153 35.5909 209.094 34.9922 210.044 35.2036C210.994 35.4149 211.593 36.3563 211.381 37.3063Z" fill="#3D63B7"/>
<path d="M236.457 43.4724C236.246 44.4224 235.304 45.0211 234.354 44.8098C233.404 44.5985 232.806 43.6571 233.017 42.7072C233.228 41.7572 234.17 41.1585 235.12 41.3698C236.07 41.5812 236.668 42.5225 236.457 43.4724Z" fill="#3D63B7"/>
<path d="M232.702 59.597C232.49 60.5469 231.549 61.1456 230.599 60.9343C229.649 60.7229 229.05 59.7816 229.262 58.8316C229.473 57.8817 230.414 57.283 231.364 57.4943C232.314 57.7057 232.913 58.6471 232.702 59.597Z" fill="#3D63B7"/>
<path d="M207.528 54.2486C207.317 55.1985 206.375 55.7972 205.426 55.5859C204.476 55.3746 203.877 54.4332 204.088 53.4833C204.3 52.5334 205.241 51.9346 206.191 52.1459C207.141 52.3573 207.739 53.2987 207.528 54.2486Z" fill="#3D63B7"/>
<path d="M201.144 58.7891C200.933 59.739 199.992 60.3379 199.042 60.1266C198.092 59.9152 197.493 58.9739 197.704 58.0238C197.916 57.0739 198.857 56.4751 199.807 56.6865C200.757 56.8978 201.356 57.8392 201.144 58.7891Z" fill="#3D63B7"/>
<path d="M202.854 48.0871C202.643 49.037 201.701 49.6357 200.751 49.4244C199.801 49.2131 199.203 48.2717 199.414 47.3218C199.625 46.3719 200.567 45.773 201.517 45.9843C202.466 46.1956 203.065 47.137 202.854 48.0871Z" fill="#3D63B7"/>
<path d="M192.853 48.1289C192.642 49.0789 191.701 49.6776 190.751 49.4663C189.801 49.2549 189.202 48.3136 189.413 47.3637C189.625 46.4137 190.566 45.815 191.516 46.0263C192.466 46.2376 193.065 47.179 192.853 48.1289Z" fill="#3D63B7"/>
<path d="M188.754 54.8573C188.542 55.8072 187.601 56.4059 186.651 56.1946C185.701 55.9832 185.102 55.0418 185.314 54.0919C185.525 53.142 186.466 52.5433 187.416 52.7546C188.366 52.9659 188.965 53.9073 188.754 54.8573Z" fill="#3D63B7"/>
<path d="M184.546 28.4815C184.335 29.4314 183.394 30.0302 182.444 29.8188C181.494 29.6075 180.895 28.6661 181.107 27.7162C181.318 26.7663 182.259 26.1675 183.209 26.3789C184.159 26.5902 184.758 27.5316 184.546 28.4815Z" fill="#3D63B7"/>
<path d="M192.193 23.5496C191.981 24.4996 191.04 25.0983 190.09 24.8869C189.14 24.6756 188.541 23.7342 188.753 22.7843C188.964 21.8344 189.905 21.2356 190.855 21.447C191.805 21.6583 192.404 22.5997 192.193 23.5496Z" fill="#3D63B7"/>
<path d="M202.797 26.8323C202.586 27.7822 201.644 28.381 200.694 28.1696C199.744 27.9583 199.146 27.0169 199.357 26.067C199.568 25.1171 200.51 24.5184 201.46 24.7297C202.409 24.941 203.008 25.8824 202.797 26.8323Z" fill="#3D63B7"/>
<path d="M195.685 65.2151C195.474 66.165 194.532 66.7638 193.582 66.5525C192.632 66.3411 192.034 65.3997 192.245 64.4498C192.456 63.4999 193.398 62.9012 194.348 63.1125C195.297 63.3238 195.896 64.2652 195.685 65.2151Z" fill="#3D63B7"/>
</g>
</g>
<defs>
<clipPath id="clip0_2004_5328">
<rect width="264" height="88" fill="white"/>
</clipPath>
</defs>
</svg>
