<svg width="1920" height="761" viewBox="0 0 1920 761" fill="none" xmlns="http://www.w3.org/2000/svg">
<g clip-path="url(#clip0_2276_25758)">
<rect y="0.497559" width="1920" height="760" fill="#021A38"/>
<g style="mix-blend-mode:luminosity" opacity="0.1">
<path d="M1930.06 0.497559H-10.0642V665.498H1930.06V0.497559Z" fill="#3A56A0"/>
<path d="M1930.06 0.497559H-10.0642V95.4976H1930.06V0.497559Z" fill="#616CBC"/>
<path d="M1930.06 665.498H-10.0642V760.498H1930.06V665.498Z" fill="#616CBC"/>
<path d="M1930.06 665.498H-10.0642V682.77H1930.06V665.498Z" fill="#7A96E0"/>
<path d="M1930.06 95.4976H-10.0642V117.481H1930.06V95.4976Z" fill="#2D4293"/>
<path d="M84.7812 106.489H578.997V305.877C578.997 346.05 546.382 378.666 506.209 378.666H157.57C117.397 378.666 84.7812 346.05 84.7812 305.877V106.489Z" stroke="#2D4293" stroke-width="6" stroke-miterlimit="10"/>
<path d="M1267.68 106.489H1761.9V305.877C1761.9 346.05 1729.28 378.666 1689.11 378.666H1340.47C1300.29 378.666 1267.68 346.05 1267.68 305.877V106.489Z" stroke="#2D4293" stroke-width="6" stroke-miterlimit="10"/>
<path d="M392.176 141.406H272.737C260.111 141.406 249.14 132.728 246.232 120.441L217.854 0.497559H445.925L418.736 120.202C415.919 132.604 404.894 141.406 392.176 141.406Z" fill="#566ED1"/>
<path d="M377.892 141.406H286.752C277.118 141.406 268.746 132.728 266.528 120.441L244.873 0.497559H418.906L398.159 120.202C396.009 132.604 387.597 141.406 377.892 141.406Z" fill="#6475D1"/>
<path d="M418.736 120.202L418.906 119.454C416.44 120.535 413.29 121.291 409.651 121.291H255.59C251.764 121.291 248.478 120.443 245.954 119.264L246.232 120.44C249.14 132.728 260.111 141.406 272.737 141.406H392.176C404.894 141.406 415.919 132.605 418.736 120.202Z" fill="#7085E0"/>
<path d="M388.692 141.406H275.087V665.498H388.692V141.406Z" fill="#566AC1"/>
<path d="M369.848 141.406H293.93V665.498H369.848V141.406Z" fill="#5060BF"/>
<path d="M1575.07 141.406H1455.63C1443.01 141.406 1432.04 132.728 1429.13 120.441L1400.75 0.497559H1628.82L1601.63 120.202C1598.82 132.604 1587.79 141.406 1575.07 141.406Z" fill="#566ED1"/>
<path d="M1560.79 141.406H1469.65C1460.02 141.406 1451.64 132.728 1449.43 120.441L1427.77 0.497559H1601.8L1581.06 120.202C1578.91 132.604 1570.49 141.406 1560.79 141.406Z" fill="#6475D1"/>
<path d="M1601.63 120.202L1601.8 119.454C1599.34 120.535 1596.19 121.291 1592.55 121.291H1438.49C1434.66 121.291 1431.38 120.443 1428.85 119.264L1429.13 120.44C1432.04 132.728 1443.01 141.406 1455.63 141.406H1575.07C1587.79 141.406 1598.82 132.605 1601.63 120.202Z" fill="#7085E0"/>
<path d="M1571.59 141.406H1457.98V665.498H1571.59V141.406Z" fill="#566AC1"/>
<path d="M1552.75 141.406H1476.83V665.498H1552.75V141.406Z" fill="#5060BF"/>
</g>
</g>
<defs>
<clipPath id="clip0_2276_25758">
<rect width="1920" height="760" fill="white" transform="translate(0 0.497559)"/>
</clipPath>
</defs>
</svg>
