<svg width="111" height="61" viewBox="0 0 111 61" fill="none" xmlns="http://www.w3.org/2000/svg">
<g clip-path="url(#clip0_2353_901)">
<path d="M98.1263 60.2353C96.0407 38.2562 77.5376 21.0608 55.0124 21.0608C32.4871 21.0608 13.984 38.2562 11.8984 60.2353H98.1263Z" fill="#F3FFFF"/>
<path d="M94.1818 10.1439V20.8665C93.8177 20.8425 93.4714 20.7578 93.1012 20.7578C91.2112 20.7578 89.3975 21.08 87.7068 21.6658L103.76 49.7933C107.317 46.7709 109.577 42.2674 109.577 37.2337C109.577 29.833 104.664 23.6455 97.9466 21.5659V10.1439C99.625 9.41441 100.803 7.74933 100.803 5.80279C100.803 3.18518 98.6814 1.0636 96.0641 1.0636C93.4469 1.0636 91.3249 3.18518 91.3249 5.80279C91.3249 7.74933 92.5034 9.41435 94.1818 10.1439Z" fill="#DAEFEE"/>
<path d="M20.5639 21.1663C19.3922 20.9018 18.1749 20.7578 16.9233 20.7578C7.82412 20.7578 0.447266 28.1345 0.447266 37.2338C0.447266 42.4801 2.9022 47.1498 6.72263 50.1671L20.5639 21.1663Z" fill="#DAEFEE"/>
<path opacity="0.2" d="M62.4454 9.16125H47.579C28.0702 12.3092 12.6627 27.5778 9.31836 47.0201L11.9333 55.0679C13.796 56.5469 16.1213 57.467 18.6845 57.467H35.1013C37.6645 57.467 40.1457 56.5652 42.1107 54.9192L48.0028 49.984C52.0586 46.5875 57.9658 46.5875 62.0216 49.984L67.9137 54.9192C69.8786 56.5652 72.3599 57.467 74.9231 57.467H91.3399C93.9031 57.467 96.2284 56.5469 98.0911 55.0679L100.706 47.0201C97.3617 27.5778 81.9541 12.3093 62.4454 9.16125Z" fill="#52A5FF"/>
<g opacity="0.1">
<path d="M62.4454 9.16125H49.9524L9.33569 47.0735L11.9332 55.0679C13.796 56.5469 16.1213 57.467 18.6845 57.467H32.3291L78.0316 14.8072C73.2821 12.0777 68.0663 10.0684 62.4454 9.16125Z" fill="#52A5FF"/>
<path d="M93.1913 28.7848C92.2865 27.4658 91.2982 26.2257 90.2655 25.0103L62.8062 50.6412L66.4798 53.7181L93.1913 28.7848Z" fill="#52A5FF"/>
</g>
<path d="M55.012 3.13782C28.1533 3.13782 6.02994 23.413 3.11261 49.493C2.76384 52.6107 5.20215 55.3634 8.33923 55.3634H13.4574C15.5403 55.3634 17.4685 54.0302 17.9919 52.0141C22.268 35.5425 37.2026 23.3713 55.012 23.3713C72.8215 23.3713 87.7564 35.5425 92.0325 52.0141C92.5558 54.0302 94.4841 55.3634 96.567 55.3634H101.685C104.822 55.3634 107.26 52.6108 106.911 49.4934C103.994 23.4132 81.8709 3.13782 55.012 3.13782Z" fill="white"/>
</g>
<defs>
<clipPath id="clip0_2353_901">
<rect width="110" height="60" fill="white" transform="translate(0.012207 0.235352)"/>
</clipPath>
</defs>
</svg>
