<svg width="102" height="70" viewBox="0 0 102 70" fill="none" xmlns="http://www.w3.org/2000/svg">
<g id="brand-logo">
<g id="Group 2">
<path id="Vector" d="M47.9562 70L46.0933 68.1368C37.4768 59.5209 12.093 61.284 3.03885 62.6903L0 63.1626V1.5882L2.22991 1.24174C3.59909 1.02849 34.4549 -3.61679 47.9562 6.55617C61.4575 -3.61619 92.3124 1.02849 93.6828 1.24174L95.9127 1.5882V15.0963H90.644V6.13966C80.2009 4.84447 57.7965 3.91664 49.8191 11.8946L47.9563 13.7572L46.0934 11.8946C38.116 3.91725 15.7115 4.84424 5.26868 6.13966V57.0844C13.6157 56.1194 36.7567 54.3609 47.9562 62.7984C59.1564 54.3602 82.2985 56.1182 90.6439 57.0844V46.8217H95.9126V63.1614L92.8744 62.6909C83.8159 61.2874 58.4238 59.5312 49.819 68.1368L47.9562 70Z" fill="#002775"/>
<path id="Vector_2" d="M32.7226 29.0157H26.1805V22.4736H20.4393V29.0157H13.8972V34.757H20.4393V41.2991H26.1805V34.757H32.7226V29.0157Z" fill="#4BC8DC"/>
<g id="Group">
<path id="Vector_3" d="M101.146 34.4564V29.3164H83.3769V34.4564H101.146Z" fill="#64C947"/>
<path id="Vector_4" d="M94.8318 41.5599V36.4199H89.6918V41.5599H94.8318Z" fill="#64C947"/>
<path id="Vector_5" d="M94.8318 27.3519V22.2119H89.6918V27.3519H94.8318Z" fill="#64C947"/>
</g>
<path id="Vector_6" d="M78.9548 27.2599L74.8951 23.2002L70.2691 27.8262L65.6432 23.2002L61.5835 27.2599L66.2095 31.8858L61.5835 36.5118L65.6432 40.5715L70.2691 35.9455L74.8951 40.5715L78.9548 36.5118L74.3289 31.8858L78.9548 27.2599Z" fill="#FF9B4E"/>
<path id="Vector_7" d="M56.5657 34.7569V29.0156H37.7402V34.7569H56.5657Z" fill="#F7417A"/>
</g>
</g>
</svg>
