<svg width="1024" height="178" viewBox="0 0 1024 178" fill="none" xmlns="http://www.w3.org/2000/svg">
<path d="M159.86 97.3129L144.519 33.9383C142.874 27.1444 136.295 27.2514 134.753 34.097L120.519 97.3129H159.86Z" fill="#11B4ED"/>
<path d="M257.712 118.174C247.503 107.107 231.757 100.628 215.071 100.628C206.882 100.628 198.952 98.2198 192.663 93.8222C180.876 85.5794 166.012 81.0647 150.663 81.0647H139.915C131.373 81.0647 123.459 77.3049 119.068 71.1618L92.2981 33.7022C85.5952 24.323 70.9865 21.4239 59.9799 27.2887L52.8929 10.7366C50.7653 5.76752 45.146 2.45312 38.8488 2.45312H0V138H276L257.712 118.174Z" fill="#36CBFF"/>
<path d="M93.8778 64.9351H70.4298C69.0803 64.9351 67.9863 65.8523 67.9863 66.9837C67.9863 68.1151 69.0803 69.0323 70.4298 69.0323H93.8778C95.2273 69.0323 96.3212 68.1151 96.3212 66.9837C96.3212 65.8522 95.2272 64.9351 93.8778 64.9351Z" fill="#2CC3FF"/>
<path d="M107.071 64.9351H104.461C103.111 64.9351 102.017 65.8523 102.017 66.9837C102.017 68.1151 103.111 69.0323 104.461 69.0323H107.071C108.421 69.0323 109.514 68.1151 109.514 66.9837C109.514 65.8522 108.42 64.9351 107.071 64.9351Z" fill="#2CC3FF"/>
<path d="M18.3238 4.46826L20.5214 19.2208C20.9161 21.8706 23.6027 23.8592 26.7878 23.8592C32.9182 23.8592 38.2275 27.4262 39.5635 32.4424L46.2603 57.5882H0V4.46826H18.3238Z" fill="#4DD5FF"/>
<path d="M71.6154 40.6353H77.3939C78.7434 40.6353 79.8373 39.7181 79.8373 38.5867C79.8373 37.4553 78.7433 36.5381 77.3939 36.5381H71.6154C70.2659 36.5381 69.1719 37.4553 69.1719 38.5867C69.1719 39.7182 70.2659 40.6353 71.6154 40.6353Z" fill="#2CC3FF"/>
<path d="M0 8.9367H48.9066C51.1889 8.9367 52.2561 6.5679 50.5438 5.3029C45.918 1.8855 39.9642 0 33.7987 0H0V8.9367Z" fill="#85EEFF"/>
<path d="M67.7321 55.834L87.7753 100.628H59.9798L53.5926 85.0978C52.5999 82.6842 49.89 81.0644 46.8448 81.0644C42.5674 81.0644 38.4219 79.8233 35.1119 77.5519L25.4312 70.9085C22.7609 69.076 21.2124 66.3356 21.2124 63.4425V55.834H67.7321Z" fill="#4DD5FF"/>
<path d="M0 52.6821H51.3639C57.034 52.6821 62.6302 53.7598 67.7319 55.8342C71.7267 57.4585 70.3471 62.4942 65.9073 62.4942H0V52.6821Z" fill="#85EEFF"/>
<path d="M24.382 92.7479H31.8778C33.6283 92.7479 35.0474 91.5581 35.0474 90.0905C35.0474 88.6229 33.6283 87.4331 31.8778 87.4331H24.382C22.6315 87.4331 21.2124 88.6229 21.2124 90.0905C21.2124 91.5581 22.6315 92.7479 24.382 92.7479Z" fill="#2CC3FF"/>
<path d="M0 83.1389H12.3703C15.6031 83.1389 18.2238 80.9417 18.2238 78.2313C18.2238 75.5209 15.6031 73.3237 12.3703 73.3237H0V83.1389Z" fill="#2CC3FF"/>
<path d="M70.0949 78.2314L58.0293 118.096H193.016L174.532 99.8368C172.141 97.4751 168.633 96.1137 164.938 96.1137C158.76 96.1137 152.962 93.6115 149.371 89.3957L139.864 78.233L70.0949 78.2314Z" fill="#4DD5FF"/>
<path d="M58.0293 118.096L70.0949 78.2314L81.436 78.233V78.808C81.436 85.0393 87.4612 90.0909 94.8936 90.0909C98.035 90.0909 100.94 91.4892 102.524 93.7636L119.472 118.096L58.0293 118.096Z" fill="#36CBFF"/>
<path d="M73.563 73.3267H121.459C127.129 73.3267 132.725 74.4044 137.827 76.4788C141.821 78.1031 140.442 83.1388 136.002 83.1388H78.3298C73.7817 83.1388 70.0947 80.0476 70.0947 76.2345C70.0947 74.6286 71.6475 73.3267 73.563 73.3267Z" fill="#85EEFF"/>
<path d="M131.136 91.5303H136.914C138.264 91.5303 139.358 90.6131 139.358 89.4817C139.358 88.3503 138.264 87.4331 136.914 87.4331H131.136C129.786 87.4331 128.692 88.3503 128.692 89.4817C128.692 90.6132 129.786 91.5303 131.136 91.5303Z" fill="#2CC3FF"/>
<path d="M140.367 102.677H157.769C159.119 102.677 160.213 101.76 160.213 100.628C160.213 99.4968 159.119 98.5796 157.769 98.5796H140.367C139.018 98.5796 137.924 99.4968 137.924 100.628C137.924 101.76 139.018 102.677 140.367 102.677Z" fill="#2CC3FF"/>
<path d="M864.14 97.3129L879.481 33.9383C881.126 27.1444 887.705 27.2514 889.247 34.097L903.481 97.3129H864.14Z" fill="#11B4ED"/>
<path d="M766.288 118.174C776.497 107.107 792.243 100.628 808.929 100.628C817.118 100.628 825.048 98.2198 831.337 93.8222C843.124 85.5794 857.988 81.0647 873.337 81.0647H884.085C892.627 81.0647 900.541 77.3049 904.932 71.1618L931.702 33.7022C938.405 24.323 953.013 21.4239 964.02 27.2887L971.107 10.7366C973.235 5.76752 978.854 2.45312 985.151 2.45312H1024V138H748L766.288 118.174Z" fill="#36CBFF"/>
<path d="M930.122 64.9351H953.57C954.92 64.9351 956.014 65.8523 956.014 66.9837C956.014 68.1151 954.92 69.0323 953.57 69.0323H930.122C928.773 69.0323 927.679 68.1151 927.679 66.9837C927.679 65.8522 928.773 64.9351 930.122 64.9351Z" fill="#2CC3FF"/>
<path d="M916.929 64.9351H919.539C920.889 64.9351 921.983 65.8523 921.983 66.9837C921.983 68.1151 920.889 69.0323 919.539 69.0323H916.929C915.579 69.0323 914.486 68.1151 914.486 66.9837C914.486 65.8522 915.58 64.9351 916.929 64.9351Z" fill="#2CC3FF"/>
<path d="M1005.68 4.46826L1003.48 19.2208C1003.08 21.8706 1000.4 23.8592 997.212 23.8592C991.082 23.8592 985.772 27.4262 984.437 32.4424L977.74 57.5882H1024V4.46826H1005.68Z" fill="#4DD5FF"/>
<path d="M952.385 40.6353H946.606C945.257 40.6353 944.163 39.7181 944.163 38.5867C944.163 37.4553 945.257 36.5381 946.606 36.5381H952.385C953.734 36.5381 954.828 37.4553 954.828 38.5867C954.828 39.7182 953.734 40.6353 952.385 40.6353Z" fill="#2CC3FF"/>
<path d="M1024 8.9367H975.093C972.811 8.9367 971.744 6.5679 973.456 5.3029C978.082 1.8855 984.036 0 990.201 0H1024V8.9367Z" fill="#85EEFF"/>
<path d="M956.268 55.834L936.225 100.628H964.02L970.407 85.0978C971.4 82.6842 974.11 81.0644 977.155 81.0644C981.433 81.0644 985.578 79.8233 988.888 77.5519L998.569 70.9085C1001.24 69.076 1002.79 66.3356 1002.79 63.4425V55.834H956.268Z" fill="#4DD5FF"/>
<path d="M1024 52.6821H972.636C966.966 52.6821 961.37 53.7598 956.268 55.8342C952.273 57.4585 953.653 62.4942 958.093 62.4942H1024V52.6821Z" fill="#85EEFF"/>
<path d="M999.618 92.7479H992.122C990.372 92.7479 988.953 91.5581 988.953 90.0905C988.953 88.6229 990.372 87.4331 992.122 87.4331H999.618C1001.37 87.4331 1002.79 88.6229 1002.79 90.0905C1002.79 91.5581 1001.37 92.7479 999.618 92.7479Z" fill="#2CC3FF"/>
<path d="M1024 83.1389H1011.63C1008.4 83.1389 1005.78 80.9417 1005.78 78.2313C1005.78 75.5209 1008.4 73.3237 1011.63 73.3237H1024V83.1389Z" fill="#2CC3FF"/>
<path d="M953.905 78.2314L965.971 118.096H830.984L849.468 99.8368C851.859 97.4751 855.367 96.1137 859.062 96.1137C865.24 96.1137 871.038 93.6115 874.629 89.3957L884.136 78.233L953.905 78.2314Z" fill="#4DD5FF"/>
<path d="M965.971 118.096L953.905 78.2314L942.564 78.233V78.808C942.564 85.0393 936.539 90.0909 929.106 90.0909C925.965 90.0909 923.06 91.4892 921.476 93.7636L904.528 118.096L965.971 118.096Z" fill="#36CBFF"/>
<path d="M950.437 73.3267H902.541C896.871 73.3267 891.275 74.4044 886.173 76.4788C882.179 78.1031 883.558 83.1388 887.998 83.1388H945.67C950.218 83.1388 953.905 80.0476 953.905 76.2345C953.905 74.6286 952.352 73.3267 950.437 73.3267Z" fill="#85EEFF"/>
<path d="M892.864 91.5303H887.086C885.736 91.5303 884.642 90.6131 884.642 89.4817C884.642 88.3503 885.736 87.4331 887.086 87.4331H892.864C894.214 87.4331 895.308 88.3503 895.308 89.4817C895.308 90.6132 894.214 91.5303 892.864 91.5303Z" fill="#2CC3FF"/>
<path d="M883.633 102.677H866.231C864.881 102.677 863.787 101.76 863.787 100.628C863.787 99.4968 864.881 98.5796 866.231 98.5796H883.633C884.982 98.5796 886.076 99.4968 886.076 100.628C886.076 101.76 884.982 102.677 883.633 102.677Z" fill="#2CC3FF"/>
<path d="M1024 138H0V178H1024V138Z" fill="#36CBFF"/>
</svg>
