<svg width="32" height="24" viewBox="0 0 32 24" fill="none" xmlns="http://www.w3.org/2000/svg">
<g id="logo">
<g id="group">
<path id="Vector" d="M15.172 23.1461L14.5827 22.5567C11.8567 19.8308 3.82589 20.3886 0.961409 20.8335L0 20.9829V1.50246L0.705484 1.39285C1.13865 1.32539 10.9006 -0.144256 15.172 3.07419C19.4435 -0.144064 29.2051 1.32539 29.6387 1.39285L30.3442 1.50246V5.77607H28.6773V2.94242C25.3734 2.53266 18.2852 2.23912 15.7614 4.76313L15.1721 5.35239L14.5827 4.76313C12.0589 2.23931 4.97068 2.53259 1.66687 2.94242V19.06C4.30763 18.7546 11.6288 18.1983 15.172 20.8677C18.7155 18.1981 26.037 18.7543 28.6773 19.06V15.8131H30.3442V20.9826L29.3829 20.8337C26.5171 20.3897 18.4837 19.8341 15.7614 22.5566L15.172 23.1461Z" fill="#002775"/>
<path id="Vector_2" d="M10.3526 10.1797H8.28283V8.10999H6.46646V10.1797H4.39673V11.9961H6.46646V14.0658H8.28283V11.9961H10.3526V10.1797Z" fill="#4BC8DC"/>
<g id="Group">
<path id="Vector_3" d="M32.0001 11.901V10.2748H26.3783V11.901H32.0001Z" fill="#64C947"/>
<path id="Vector_4" d="M30.0023 14.1485V12.5224H28.3762V14.1485H30.0023Z" fill="#64C947"/>
<path id="Vector_5" d="M30.0023 9.65336V8.02722H28.3762V9.65336H30.0023Z" fill="#64C947"/>
</g>
<path id="Vector_6" d="M24.9791 9.62431L23.6947 8.33994L22.2312 9.80347L20.7677 8.33994L19.4833 9.62431L20.9468 11.0878L19.4833 12.5514L20.7677 13.8357L22.2312 12.3722L23.6947 13.8357L24.9791 12.5514L23.5156 11.0878L24.9791 9.62431Z" fill="#FF9B4E"/>
<path id="Vector_7" d="M17.8959 11.9961V10.1797H11.94V11.9961H17.8959Z" fill="#F7417A"/>
</g>
</g>
</svg>
