<svg width="9" height="11" viewBox="0 0 9 11" fill="none" xmlns="http://www.w3.org/2000/svg">
<path d="M7.5625 0.5C8.27344 0.5 8.875 1.10156 8.875 1.8125V9.6875C8.875 10.4258 8.27344 11 7.5625 11L6.6875 10.9727C5.94922 10.9727 5.375 10.3711 5.375 9.66016V1.78516C5.375 1.07422 5.94922 0.5 6.6875 0.5H7.5625ZM2.3125 0.5C3.02344 0.5 3.625 1.10156 3.625 1.8125V9.6875C3.625 10.4258 3.02344 11 2.3125 11H1.4375C0.699219 11 0.125 10.4258 0.125 9.6875V1.8125C0.125 1.07422 0.699219 0.5 1.4375 0.5H2.3125Z" fill="#5C6373"/>
</svg>
