<svg width="96" height="432" viewBox="0 0 96 432" fill="none" xmlns="http://www.w3.org/2000/svg">
<path d="M94.4197 33.8422L62.0462 33.8422L62.0462 1.57812L33.6353 1.57812L33.6353 33.8422L1.26184 33.8422L1.26184 62.1565L33.6353 62.1565L33.6353 94.4202L62.0462 94.4202L62.0462 62.1565L94.4197 62.1565L94.4197 33.8422Z" fill="#EDF0FB"/>
<path d="M94.4175 174.209V145.788H1.25962V174.209H94.4175Z" fill="#EDF0FB"/>
<path d="M90.9494 249.125L70.8754 229.051L48.0021 251.924L25.1283 229.051L5.05469 249.125L27.9281 271.998L5.05469 294.872L25.1283 314.946L48.0021 292.072L70.8754 314.946L90.9494 294.872L68.0756 271.998L90.9494 249.125Z" fill="#EDF0FB"/>
<path d="M91.8943 396.314V371.051H4.10484V396.314H91.8943Z" fill="#EDF0FB"/>
<path d="M60.6287 431.684V406.105H35.3655V431.684H60.6287Z" fill="#EDF0FB"/>
<path d="M60.6287 361.263V336H35.3655V361.263H60.6287Z" fill="#EDF0FB"/>
</svg>
