<svg width="24" height="16" viewBox="0 0 24 16" fill="none" xmlns="http://www.w3.org/2000/svg">
<g id="brand-logo">
<g id="group">
<path id="Vector" d="M10.9614 16L10.5356 15.5741C8.56613 13.6048 2.76411 14.0078 0.694594 14.3292L0 14.4372V0.363018L0.509694 0.283827C0.822649 0.235084 7.8754 -0.826696 10.9614 1.49855C14.0474 -0.826557 21.1 0.235084 21.4132 0.283827L21.9229 0.363018V3.45059H20.7186V1.40335C18.3316 1.10731 13.2106 0.895232 11.3872 2.71877L10.9614 3.14449L10.5356 2.71877C8.71223 0.89537 3.59119 1.10726 1.20427 1.40335V13.0479C3.11215 12.8273 8.40154 12.4253 10.9614 14.3539C13.5215 12.4252 18.8111 12.827 20.7186 13.0479V10.7021H21.9229V14.4369L21.2284 14.3293C19.1579 14.0085 13.354 13.6071 11.3872 15.5741L10.9614 16Z" fill="#002775"/>
<path id="Vector_2" d="M7.4797 6.63205H5.98437V5.13672H4.67209V6.63205H3.17676V7.94435H4.67209V9.43968H5.98437V7.94435H7.4797V6.63205Z" fill="#4BC8DC"/>
<g id="Group">
<path id="Vector_3" d="M23.1191 7.87602V6.70117H19.0575V7.87602H23.1191Z" fill="#64C947"/>
<path id="Vector_4" d="M21.6758 9.50004V8.3252H20.5009V9.50004H21.6758Z" fill="#64C947"/>
<path id="Vector_5" d="M21.6758 6.25199V5.07715H20.5009V6.25199H21.6758Z" fill="#64C947"/>
</g>
<path id="Vector_6" d="M18.0468 6.23066L17.1188 5.30273L16.0615 6.3601L15.0041 5.30273L14.0762 6.23066L15.1335 7.28803L14.0762 8.34539L15.0041 9.27332L16.0615 8.21595L17.1188 9.27332L18.0468 8.34539L16.9894 7.28803L18.0468 6.23066Z" fill="#FF9B4E"/>
<path id="Vector_7" d="M12.9297 7.94413V6.63184H8.62673V7.94413H12.9297Z" fill="#F7417A"/>
</g>
</g>
</svg>
