<svg width="240" height="240" viewBox="0 0 240 240" fill="none" xmlns="http://www.w3.org/2000/svg">
<g clip-path="url(#clip0_2202_24688)">
<path d="M46.4834 76.1663V91.2985C46.4834 93.9054 48.5992 96.0212 51.2061 96.0212H86.1308" stroke="#171421" stroke-width="3.99063" stroke-miterlimit="10"/>
<path d="M57.1413 86.6033H35.8312C34.0635 86.6033 32.6262 85.1659 32.6262 83.3983V76.4794C32.6262 70.9264 37.1346 66.418 42.6876 66.418H50.276C55.829 66.418 60.3374 70.9264 60.3374 76.4794V83.3983C60.3374 85.1659 58.9001 86.6033 57.1324 86.6033H57.1413Z" fill="#171421"/>
<path d="M41.6298 58.5952H2.94659C1.3195 58.5952 0.000488281 59.9142 0.000488281 61.5413C0.000488281 63.1684 1.3195 64.4874 2.94659 64.4874H41.6298C43.2569 64.4874 44.5759 63.1684 44.5759 61.5413C44.5759 59.9142 43.2569 58.5952 41.6298 58.5952Z" fill="#FBFBFB"/>
<path d="M90.035 58.5952H51.3519C49.7248 58.5952 48.4058 59.9142 48.4058 61.5413C48.4058 63.1684 49.7248 64.4874 51.3519 64.4874H90.035C91.6621 64.4874 92.9811 63.1684 92.9811 61.5413C92.9811 59.9142 91.6621 58.5952 90.035 58.5952Z" fill="#FBFBFB"/>
<path d="M45.7157 57.1785H47.2691C49.0636 57.1785 50.5188 58.6426 50.5188 60.437V66.5167H42.4482V60.437C42.4572 58.6426 43.9124 57.1785 45.7157 57.1785Z" fill="#FBFBFB"/>
<path d="M193.521 76.1658V91.298C193.521 93.9049 191.405 96.0207 188.798 96.0207H153.874" stroke="#171421" stroke-width="3.99063" stroke-miterlimit="10"/>
<path d="M189.733 66.4473H197.322C202.875 66.4473 207.383 70.9557 207.383 76.5086V83.4275C207.383 85.1952 205.946 86.6325 204.178 86.6325H182.868C181.1 86.6325 179.663 85.1952 179.663 83.4275V76.5086C179.663 70.9557 184.172 66.4473 189.724 66.4473H189.733Z" fill="#171421"/>
<path d="M198.385 64.4536H237.069C238.696 64.4536 240.015 63.1346 240.015 61.5075C240.015 59.8804 238.696 58.5614 237.069 58.5614L198.385 58.5614C196.758 58.5614 195.439 59.8804 195.439 61.5075C195.439 63.1346 196.758 64.4536 198.385 64.4536Z" fill="#FBFBFB"/>
<path d="M149.987 64.4536H188.67C190.297 64.4536 191.616 63.1346 191.616 61.5075C191.616 59.8804 190.297 58.5614 188.67 58.5614L149.987 58.5614C148.36 58.5614 147.041 59.8804 147.041 61.5075C147.041 63.1346 148.36 64.4536 149.987 64.4536Z" fill="#FBFBFB"/>
<path d="M197.563 66.564H189.493V60.4843C189.493 58.6898 190.957 57.2257 192.752 57.2257H194.305C196.099 57.2257 197.563 58.6898 197.563 60.4843V66.564Z" fill="#FBFBFB"/>
<path d="M97.3571 143.178L59.6338 167.109L63.6318 173.411L101.355 149.481L97.3571 143.178Z" fill="#171421"/>
<path d="M61.3325 183.895C68.7185 183.895 74.706 177.908 74.706 170.522C74.706 163.136 68.7185 157.148 61.3325 157.148C53.9465 157.148 47.959 163.136 47.959 170.522C47.959 177.908 53.9465 183.895 61.3325 183.895Z" fill="#171421"/>
<path d="M61.3324 176.213C64.4929 176.213 67.055 173.651 67.055 170.491C67.055 167.33 64.4929 164.768 61.3324 164.768C58.172 164.768 55.6099 167.33 55.6099 170.491C55.6099 173.651 58.172 176.213 61.3324 176.213Z" fill="#FE8C36"/>
<path d="M138.662 149.505L176.385 173.436L180.383 167.134L142.66 143.203L138.662 149.505Z" fill="#171421"/>
<path d="M178.681 183.896C186.067 183.896 192.055 177.908 192.055 170.522C192.055 163.136 186.067 157.149 178.681 157.149C171.295 157.149 165.308 163.136 165.308 170.522C165.308 177.908 171.295 183.896 178.681 183.896Z" fill="#171421"/>
<path d="M178.68 176.207C181.84 176.207 184.402 173.645 184.402 170.484C184.402 167.324 181.84 164.761 178.68 164.761C175.519 164.761 172.957 167.324 172.957 170.484C172.957 173.645 175.519 176.207 178.68 176.207Z" fill="#FE8C36"/>
<path d="M101.103 73.478H138.893C149.401 73.478 157.936 82.0128 157.936 92.5205H82.0605C82.0605 82.0128 90.5953 73.478 101.103 73.478Z" fill="#FBFBFB"/>
<path d="M82.0605 92.5806H157.936V151.842C157.936 155.163 155.24 157.85 151.928 157.85H88.0777C84.7567 157.85 82.0695 155.154 82.0695 151.842V92.5806H82.0605Z" fill="#72D679"/>
<path d="M91.1515 157.97H148.859V159.121C148.859 162.701 145.949 165.612 142.369 165.612H97.6329C94.053 165.612 91.1426 162.701 91.1426 159.121V157.97H91.1515Z" fill="#4DC150"/>
<path d="M113.789 90.0833H126.198C128.778 90.0833 131.162 88.7085 132.457 86.4855L139.991 73.5137C139.625 73.4959 139.259 73.478 138.893 73.478H101.103C100.737 73.478 100.371 73.487 100.005 73.5137L107.54 86.4855C108.834 88.7174 111.218 90.0833 113.798 90.0833H113.789Z" fill="#72D679"/>
<path d="M104.604 73.478L109.836 82.4949C111.131 84.7268 113.514 86.0927 116.094 86.0927H123.906C126.486 86.0927 128.87 84.7178 130.164 82.4949L135.396 73.478H104.604Z" fill="#4DC150"/>
<path d="M144.446 100.784H95.5676C93.3341 100.784 91.5234 102.594 91.5234 104.828V145.475C91.5234 147.709 93.3341 149.519 95.5676 149.519H144.446C146.68 149.519 148.49 147.709 148.49 145.475V104.828C148.49 102.594 146.68 100.784 144.446 100.784Z" fill="#4DC150"/>
<path d="M82.0716 111.104V139.396C77.1971 139.396 73.2422 135.441 73.2422 130.567V119.925C73.2422 115.05 77.1971 111.095 82.0716 111.095V111.104Z" fill="#BFBFC0"/>
<path d="M78.4912 138.628C79.5893 139.119 80.7945 139.396 82.0801 139.396V111.105C80.8035 111.105 79.5893 111.381 78.4912 111.873V138.628Z" fill="#9C999C"/>
<path d="M157.943 139.328V111.037C162.818 111.037 166.772 114.991 166.772 119.866V130.508C166.772 135.382 162.818 139.337 157.943 139.337V139.328Z" fill="#BFBFC0"/>
<path d="M161.528 111.865C160.43 111.374 159.225 111.097 157.939 111.097V139.389C159.216 139.389 160.43 139.112 161.528 138.621V111.865Z" fill="#9C999C"/>
<path d="M111.284 133.713C113.195 136.48 116.391 138.302 120.006 138.302C123.622 138.302 126.818 136.48 128.729 133.713" stroke="#262734" stroke-width="5.09764" stroke-miterlimit="10" stroke-linecap="round"/>
<path d="M110.396 115.8C110.396 113.202 108.29 111.095 105.692 111.095C103.093 111.095 100.987 113.202 100.987 115.8V124.023C100.987 126.621 103.093 128.727 105.692 128.727C108.29 128.727 110.396 126.621 110.396 124.023V115.8Z" fill="#262734"/>
<path d="M139.045 115.8C139.045 113.202 136.938 111.095 134.34 111.095C131.742 111.095 129.635 113.202 129.635 115.8V124.023C129.635 126.621 131.742 128.727 134.34 128.727C136.938 128.727 139.045 126.621 139.045 124.023V115.8Z" fill="#262734"/>
</g>
<defs>
<clipPath id="clip0_2202_24688">
<rect width="240" height="240" fill="white"/>
</clipPath>
</defs>
</svg>
