<svg width="240" height="240" viewBox="0 0 240 240" fill="none" xmlns="http://www.w3.org/2000/svg">
<g clip-path="url(#clip0_2202_24652)">
<g opacity="0.2">
<path d="M174.911 109.261C175.643 109.205 176.374 109.438 176.917 109.905C177.46 110.371 177.769 111.029 177.769 111.728V112.089C177.769 113.369 176.721 114.436 175.364 114.549C169.618 115.023 164.015 117.306 159.627 121.421C155.147 125.62 152.697 131.007 152.267 136.507C152.199 137.411 151.392 138.118 150.42 138.118H149.319C148.572 138.118 147.863 137.821 147.366 137.305C146.868 136.789 146.627 136.096 146.702 135.404C147.381 128.928 150.352 122.629 155.638 117.674C161.014 112.64 167.876 109.834 174.911 109.268V109.261Z" fill="white"/>
<path d="M174.987 95.9993C175.711 95.9569 176.42 96.2043 176.947 96.6709C177.475 97.1375 177.777 97.7879 177.777 98.4665V98.827C177.777 100.135 176.691 101.216 175.296 101.287C165.953 101.796 156.769 105.387 149.65 112.061C142.434 118.833 138.588 127.585 138.136 136.471C138.091 137.397 137.276 138.126 136.288 138.126H135.172C134.441 138.126 133.747 137.843 133.25 137.341C132.752 136.839 132.496 136.174 132.548 135.489C133.235 125.585 137.608 115.871 145.661 108.314C153.805 100.679 164.309 96.5719 174.994 95.9993H174.987Z" fill="white"/>
<path d="M175.025 82.74C175.741 82.7117 176.442 82.9591 176.963 83.4257C177.483 83.8923 177.777 84.5356 177.777 85.2142C177.777 86.7342 176.51 87.9784 174.896 88.0491C162.07 88.6499 149.439 93.5349 139.659 102.697C129.872 111.873 124.669 123.735 124.035 135.774C123.967 137.089 122.814 138.121 121.411 138.121H120.951C120.25 138.121 119.579 137.853 119.104 137.379C118.629 136.905 118.372 136.269 118.402 135.612C119.081 122.272 124.834 109.116 135.678 98.95C146.582 88.7277 160.72 83.3197 175.04 82.74H175.025Z" fill="white"/>
</g>
<path d="M207.517 221.918C209.598 221.918 223.254 221.918 225.32 221.918C225.275 221.183 222.349 174.299 222.349 174.271C216.626 174.271 215.329 174.271 210.48 174.271C209.191 195.019 209.643 187.66 207.509 221.918H207.517Z" fill="#3A5266"/>
<path d="M200.037 222.152H232.785C232.725 221.791 229.731 204.45 228.208 195.585C227.703 192.637 224.988 190.474 221.806 190.474H211.023C207.841 190.474 205.127 192.644 204.621 195.585C203.272 203.418 203.377 202.796 200.044 222.145L200.037 222.152Z" fill="#42BA42"/>
<path d="M200.036 222.155C203.369 202.806 203.264 203.422 204.614 195.596C205.119 192.648 207.833 190.485 211.015 190.485H216.407V222.162H200.029L200.036 222.155Z" fill="#4DC150"/>
<path d="M183.84 225.083H240.439C240.439 220.438 236.42 216.67 231.466 216.67H192.805C187.851 216.67 183.832 220.438 183.832 225.083H183.84Z" fill="#72D679"/>
<path d="M172.612 129.4L169.755 132.081L183.172 144.646L186.029 141.965L172.612 129.4Z" fill="#3A5266"/>
<path d="M199.493 128.823H171.178V132.612H199.493V128.823Z" fill="#3A5266"/>
<path d="M173.207 130.718H169.157V157.27H173.207V130.718Z" fill="#3A5266"/>
<path d="M202.389 171.516C202.389 177.999 207.992 183.251 214.907 183.251C221.821 183.251 227.424 177.999 227.424 171.516C227.424 165.034 221.821 159.781 214.907 159.781C207.992 159.781 202.389 165.034 202.389 171.516Z" fill="#2C3F4C"/>
<path d="M214.907 171.518C200.248 185.253 177.596 186.929 160.999 176.537C157.311 174.225 156.844 169.305 159.981 166.364L209.409 120.025C212.546 117.084 217.795 117.522 220.26 120.979C231.345 136.546 229.565 157.782 214.907 171.518Z" fill="white"/>
<path d="M166.014 135.558C168.864 138.237 173.494 138.237 176.344 135.558C179.195 132.886 179.195 128.545 176.344 125.873C173.494 123.193 168.864 123.193 166.014 125.873C163.163 128.552 163.163 132.886 166.014 135.558Z" fill="#42BA42"/>
<path d="M226.105 153.044C224.28 159.81 220.555 166.221 214.907 171.516C200.248 185.252 177.596 186.928 160.999 176.536C157.312 174.224 156.844 169.304 159.981 166.363L164.747 161.895C187.67 177.349 206.499 167.798 226.112 153.044H226.105Z" fill="#F2F2F2"/>
<g opacity="0.2">
<path d="M95.651 71.5853C96.7218 71.5005 97.7774 71.8398 98.5692 72.5185C99.361 73.1971 99.8134 74.1586 99.8134 75.1695V75.6926C99.8134 77.5589 98.2978 79.1071 96.3146 79.2697C87.9596 79.9554 79.8082 83.278 73.4288 89.2657C66.9138 95.3666 63.3546 103.199 62.7287 111.202C62.6232 112.524 61.4544 113.542 60.0443 113.549H58.4457C57.3598 113.549 56.3268 113.118 55.6029 112.368C54.879 111.619 54.5246 110.615 54.6301 109.604C55.6104 100.181 59.9387 91.026 67.6226 83.8224C75.4346 76.4985 85.4184 72.4266 95.651 71.5995V71.5853Z" fill="white"/>
<path d="M95.7636 52.2822C96.8193 52.2257 97.8524 52.5792 98.614 53.2578C99.3831 53.9365 99.8204 54.8838 99.8204 55.8735V56.3966C99.8204 58.2983 98.2369 59.8677 96.2085 59.9808C82.6203 60.723 69.2659 65.9402 58.9127 75.6464C48.4162 85.494 42.8286 98.2259 42.165 111.142C42.0972 112.485 40.9133 113.545 39.4806 113.545H37.8593C36.7961 113.545 35.7857 113.135 35.0618 112.407C34.3379 111.679 33.9684 110.71 34.0363 109.714C35.0316 95.3133 41.3883 81.1817 53.1064 70.196C64.9527 59.09 80.23 53.1235 95.7636 52.2893V52.2822Z" fill="white"/>
<path d="M95.8165 33.0063C96.8571 32.9639 97.8751 33.3244 98.6291 34.0031C99.3832 34.6817 99.813 35.6149 99.813 36.5975C99.813 38.8032 97.9731 40.6129 95.6204 40.726C76.965 41.6026 58.5961 48.7002 44.3745 62.0259C30.1454 75.3658 22.5746 92.615 21.6471 110.126C21.5491 112.034 19.8675 113.54 17.824 113.54H17.1529C16.1349 113.54 15.1622 113.151 14.4609 112.459C13.7596 111.766 13.3902 110.84 13.443 109.892C14.4232 90.4871 22.7933 71.3575 38.5682 56.5825C54.4337 41.7086 74.9893 33.8546 95.8165 33.0063Z" fill="white"/>
</g>
<path d="M143.066 235.411C146.09 235.411 165.952 235.411 168.953 235.411C168.885 234.343 164.64 166.166 164.64 166.124C156.315 166.124 154.43 166.124 147.387 166.124C145.509 196.296 146.173 185.593 143.073 235.411H143.066Z" fill="#3A5266"/>
<path d="M132.192 235.756H179.819C179.728 235.226 175.377 210.017 173.16 197.123C172.421 192.838 168.478 189.693 163.848 189.693H148.171C143.541 189.693 139.597 192.846 138.858 197.13C136.898 208.518 137.049 207.62 132.2 235.756H132.192Z" fill="#42BA42"/>
<path d="M132.192 235.756C137.041 207.62 136.89 208.518 138.851 197.13C139.59 192.846 143.533 189.693 148.163 189.693H156.006V235.756H132.192Z" fill="#4DC150"/>
<path d="M108.636 240.01H190.949C190.949 233.259 185.105 227.78 177.904 227.78H121.681C114.48 227.78 108.636 233.259 108.636 240.01Z" fill="#72D679"/>
<path d="M92.3067 100.848L88.1499 104.749L107.659 123.02L111.816 119.119L92.3067 100.848Z" fill="#3A5266"/>
<path d="M131.4 100.028H90.2285V105.542H131.4V100.028Z" fill="#3A5266"/>
<path d="M93.1773 102.787H87.2881V141.399H93.1773V102.787Z" fill="#3A5266"/>
<path d="M135.615 162.116C135.615 171.54 143.767 179.175 153.818 179.175C163.87 179.175 172.021 171.54 172.021 162.116C172.021 152.693 163.87 145.058 153.818 145.058C143.767 145.058 135.615 152.693 135.615 162.116Z" fill="#2C3F4C"/>
<path d="M153.819 162.116C132.509 182.094 99.5644 184.526 75.4194 169.412C70.0581 166.054 69.3795 158.893 73.934 154.616L145.818 87.2236C150.381 82.9467 158.019 83.5829 161.601 88.6163C177.723 111.252 175.136 142.131 153.819 162.116Z" fill="white"/>
<path d="M82.7111 109.824C86.8584 113.712 93.5922 113.712 97.7395 109.824C101.887 105.935 101.887 99.6296 97.7395 95.7344C93.5922 91.8392 86.8584 91.8392 82.7111 95.7344C78.5638 99.6225 78.5638 105.935 82.7111 109.824Z" fill="#42BA42"/>
<path d="M170.107 135.252C167.452 145.092 162.031 154.417 153.819 162.115C132.509 182.093 99.5644 184.525 75.4194 169.411C70.0581 166.053 69.3795 158.892 73.934 154.615L80.8638 148.118C114.208 170.584 141.581 156.7 170.107 135.245V135.252Z" fill="#F2F2F2"/>
</g>
<defs>
<clipPath id="clip0_2202_24652">
<rect width="240" height="240" fill="white"/>
</clipPath>
</defs>
</svg>
