<svg width="244" height="240" viewBox="0 0 244 240" fill="none" xmlns="http://www.w3.org/2000/svg">
<path d="M197.177 62.0525C196.833 91.7614 186.795 115.733 174.75 115.596C162.705 115.46 153.225 91.2566 153.564 61.5476C153.908 31.8386 163.952 7.86715 175.991 8.00375C188.036 8.14036 197.516 32.3435 197.177 62.0525Z" fill="#6FC755"/>
<path d="M199.278 62.0756L151.469 61.5249L149.932 194.998L197.741 195.549L199.278 62.0756Z" fill="#519F3A"/>
<path d="M156.789 74.4036L135.973 74.1638L134.265 222.408L155.082 222.648L156.789 74.4036Z" fill="#D9D8DB"/>
<path d="M156.896 65.1837C156.962 59.4344 152.359 54.7244 146.609 54.6532C140.86 54.5819 136.15 59.1909 136.079 64.9402L135.972 74.1582L156.789 74.3958L156.896 65.1778V65.1837Z" fill="#E1E1E3"/>
<path d="M156.72 88.1236L135.815 87.8828L135.763 92.349L156.669 92.5898L156.72 88.1236Z" fill="#C6C5CA"/>
<path d="M156.501 107.174L135.596 106.934L135.544 111.4L156.45 111.641L156.501 107.174Z" fill="#C6C5CA"/>
<path d="M156.281 126.223L135.376 125.983L135.325 130.449L156.23 130.69L156.281 126.223Z" fill="#C6C5CA"/>
<path d="M156.062 145.268L135.157 145.027L135.105 149.493L156.011 149.734L156.062 145.268Z" fill="#C6C5CA"/>
<path d="M155.842 164.318L134.937 164.078L134.886 168.544L155.791 168.785L155.842 164.318Z" fill="#C6C5CA"/>
<path d="M155.623 183.366L134.718 183.125L134.666 187.591L155.572 187.832L155.623 183.366Z" fill="#C6C5CA"/>
<path d="M155.404 202.411L134.499 202.17L134.447 206.636L155.352 206.877L155.404 202.411Z" fill="#C6C5CA"/>
<path d="M214.438 75.0672L193.622 74.8274L191.914 223.077L212.73 223.317L214.438 75.0672Z" fill="#D9D8DB"/>
<path d="M155.073 222.65L134.261 222.406L130.127 238.811L158.827 239.143L155.073 222.65Z" fill="#245416"/>
<path d="M212.721 223.313L191.909 223.07L187.775 239.474L216.475 239.807L212.721 223.313Z" fill="#245416"/>
<path d="M212.945 203.08L192.04 202.84L191.989 207.306L212.894 207.547L212.945 203.08Z" fill="#C6C5CA"/>
<path d="M214.538 65.8489C214.604 60.0995 210.001 55.3896 204.251 55.3183C198.502 55.253 193.792 59.856 193.721 65.6054L193.614 74.8234L214.431 75.0609L214.538 65.843V65.8489Z" fill="#E1E1E3"/>
<path d="M114.192 193.004L114.156 195.89L173.687 207.621L234.008 197.179L234.043 194.388L114.192 193.004Z" fill="#519F3A"/>
<path d="M214.262 88.7877L193.356 88.5469L193.305 93.013L214.21 93.2538L214.262 88.7877Z" fill="#C6C5CA"/>
<path d="M214.043 107.832L193.137 107.591L193.086 112.057L213.991 112.298L214.043 107.832Z" fill="#C6C5CA"/>
<path d="M213.823 126.889L192.917 126.648L192.866 131.114L213.771 131.355L213.823 126.889Z" fill="#C6C5CA"/>
<path d="M213.604 145.933L192.698 145.692L192.647 150.159L213.552 150.399L213.604 145.933Z" fill="#C6C5CA"/>
<path d="M213.384 164.981L192.479 164.74L192.428 169.206L213.333 169.447L213.384 164.981Z" fill="#C6C5CA"/>
<path d="M193.364 93.0155C193.246 103.148 184.936 111.267 174.804 111.154C164.671 111.036 156.552 102.726 156.665 92.5938C156.784 82.4611 165.093 74.3419 175.225 74.4548C185.358 74.5736 193.477 82.8828 193.364 93.0155Z" fill="#E1E1E3"/>
<path d="M186.225 92.9309C186.154 99.1198 181.076 104.085 174.887 104.014C168.698 103.943 163.733 98.8644 163.804 92.6755C163.875 86.4866 168.953 81.5213 175.142 81.5926C181.331 81.6638 186.297 86.742 186.225 92.9309Z" fill="#6FC755"/>
<path d="M222.241 176.606C203.93 164.365 193.043 143.702 193.299 121.673L193.631 93.0209L156.403 92.5933L156.07 121.245C155.815 143.268 144.453 163.676 125.868 175.496L114.304 182.837L114.186 193.005L234.037 194.389L234.15 184.571L222.235 176.606H222.241Z" fill="#ECEBED"/>
<path d="M173.681 185.815C169.547 185.767 166.233 182.376 166.281 178.242L167.1 107.302C167.148 103.168 170.539 99.8536 174.673 99.9011C178.807 99.9487 182.121 103.34 182.074 107.474L181.254 178.414C181.207 182.548 177.815 185.862 173.681 185.815Z" fill="#C6C5CA"/>
<path d="M155.159 215.973L134.342 215.733L134.265 222.409L155.082 222.648L155.159 215.973Z" fill="#519F3A"/>
<path d="M212.807 216.635L191.991 216.396L191.914 223.071L212.73 223.311L212.807 216.635Z" fill="#519F3A"/>
<path d="M186.059 198.096L161.422 197.811L161.523 189.264C161.601 182.457 167.184 177.011 173.984 177.088C180.791 177.165 186.237 182.748 186.16 189.549L186.059 198.096Z" fill="#C6C5CA"/>
<path d="M155.756 171.415L155.94 155.253L146.087 155.141C142.303 161.169 137.528 166.586 131.903 171.135L155.756 171.409V171.415Z" fill="white"/>
<path d="M215.791 171.684C210.493 167.093 206.021 161.718 202.493 155.796L191.131 155.666L190.947 171.827L215.791 172.112V171.69V171.684Z" fill="white"/>
<path d="M173.057 33.1976C170.741 41.5484 166.31 47.6126 163.168 46.7395C160.026 45.8664 159.355 38.3887 161.677 30.0378C163.994 21.687 168.425 15.6229 171.566 16.496C174.708 17.3691 175.38 24.8468 173.057 33.1976Z" fill="white" fill-opacity="0.2"/>
<path d="M145.635 64.3608C144.887 67.0573 142.784 68.8272 140.937 68.3105C139.09 67.7997 138.199 65.1983 138.948 62.5018C139.696 59.8053 141.799 58.0353 143.646 58.552C145.493 59.0628 146.384 61.6643 145.635 64.3608Z" fill="#ECEBED"/>
<path d="M203.39 65.0336C202.641 67.7301 200.539 69.5001 198.692 68.9834C196.845 68.4666 195.954 65.8711 196.702 63.1746C197.45 60.4781 199.553 58.7082 201.4 59.2249C203.247 59.7357 204.138 62.3372 203.39 65.0336Z" fill="#ECEBED"/>
<path d="M79.6094 239.638C87.4129 239.638 93.7388 233.708 93.7388 226.392C93.7388 219.076 87.4129 213.146 79.6094 213.146C71.8059 213.146 65.48 219.076 65.48 226.392C65.48 233.708 71.8059 239.638 79.6094 239.638Z" fill="#20243C"/>
<path d="M79.603 235.466H73.7085V239.632H79.603V235.466Z" fill="#20243C"/>
<path d="M73.7085 239.638C81.512 239.638 87.8379 233.708 87.8379 226.392C87.8379 219.076 81.512 213.146 73.7085 213.146C65.9051 213.146 59.5791 219.076 59.5791 226.392C59.5791 233.708 65.9051 239.638 73.7085 239.638Z" fill="#2C3054"/>
<path d="M58.3223 155.86H158.909C163.975 155.86 168.084 159.717 168.084 164.461V216.986C168.084 221.736 163.969 225.587 158.909 225.587H58.3223V155.86Z" fill="#66B54D"/>
<path d="M197.313 239.638C205.116 239.638 211.442 233.708 211.442 226.392C211.442 219.076 205.116 213.146 197.313 213.146C189.51 213.146 183.184 219.076 183.184 226.392C183.184 233.708 189.51 239.638 197.313 239.638Z" fill="#20243C"/>
<path d="M197.307 235.466H191.413V239.632H197.307V235.466Z" fill="#20243C"/>
<path d="M191.413 239.638C199.216 239.638 205.542 233.708 205.542 226.392C205.542 219.076 199.216 213.146 191.413 213.146C183.609 213.146 177.283 219.076 177.283 226.392C177.283 233.708 183.609 239.638 191.413 239.638Z" fill="#2C3054"/>
<path d="M175.845 167.032V225.59H217.399C220.642 225.59 223.269 223.128 223.269 220.088V180.004L207.745 169.343C205.554 167.837 202.909 167.026 200.195 167.026H175.851L175.845 167.032Z" fill="#AFB5D9"/>
<path d="M118.649 155.86H27.2373C22.1702 155.86 18.0625 159.711 18.0625 164.461V216.986C18.0625 221.736 22.1702 225.587 27.2373 225.587H118.649C123.716 225.587 127.824 221.736 127.824 216.986V164.461C127.824 159.711 123.716 155.86 118.649 155.86Z" fill="#6FC755"/>
<path d="M141.182 172.307V220.315C141.182 223.227 143.702 225.59 146.808 225.59H188.599V180.004L169.702 167.026H146.802C143.696 167.026 141.175 169.39 141.175 172.302L141.182 172.307Z" fill="#FBFBFC"/>
<path d="M169.708 167.03L188.605 180.007H223.269L207.745 169.346C205.554 167.841 202.909 167.03 200.195 167.03H169.714H169.708Z" fill="#E3E7F7"/>
<path d="M223.263 186.549H188.599V207.871H223.263V186.549Z" fill="#666AA1"/>
<path d="M188.599 186.549H156.518C154.035 186.549 152.317 188.877 153.194 191.059L159.089 205.718C159.612 207.013 160.937 207.877 162.413 207.877H188.599V186.554V186.549Z" fill="#9DA1CD"/>
<path d="M169.061 239.638C176.864 239.638 183.19 233.708 183.19 226.392C183.19 219.076 176.864 213.146 169.061 213.146C161.257 213.146 154.931 219.076 154.931 226.392C154.931 233.708 161.257 239.638 169.061 239.638Z" fill="#20243C"/>
<path d="M169.055 235.466H163.16V239.632H169.055V235.466Z" fill="#20243C"/>
<path d="M169.055 213.146H163.16V217.312H169.055V213.146Z" fill="#20243C"/>
<path d="M163.16 239.638C170.963 239.638 177.289 233.708 177.289 226.392C177.289 219.076 170.963 213.146 163.16 213.146C155.356 213.146 149.03 219.076 149.03 226.392C149.03 233.708 155.356 239.638 163.16 239.638Z" fill="#2C3054"/>
<path d="M163.16 232.864C166.972 232.864 170.063 229.967 170.063 226.393C170.063 222.819 166.972 219.921 163.16 219.921C159.347 219.921 156.257 222.819 156.257 226.393C156.257 229.967 159.347 232.864 163.16 232.864Z" fill="#272C4C"/>
<path d="M163.159 231.001C165.875 231.001 168.077 228.937 168.077 226.391C168.077 223.845 165.875 221.781 163.159 221.781C160.444 221.781 158.242 223.845 158.242 226.391C158.242 228.937 160.444 231.001 163.159 231.001Z" fill="#20243C"/>
<path d="M40.5762 169.118C40.5762 167.591 39.2566 166.352 37.6289 166.352C36.0012 166.352 34.6816 167.591 34.6816 169.118V212.329C34.6816 213.857 36.0012 215.095 37.6289 215.095C39.2566 215.095 40.5762 213.857 40.5762 212.329V169.118Z" fill="#66B54D"/>
<path d="M54.6992 169.118C54.6992 167.59 53.3797 166.352 51.7519 166.352C50.1242 166.352 48.8047 167.59 48.8047 169.118V212.329C48.8047 213.857 50.1242 215.095 51.7519 215.095C53.3797 215.095 54.6992 213.857 54.6992 212.329V169.118Z" fill="#66B54D"/>
<path d="M68.8286 169.118C68.8286 167.59 67.5091 166.352 65.8813 166.352C64.2536 166.352 62.9341 167.59 62.9341 169.118V212.329C62.9341 213.857 64.2536 215.095 65.8813 215.095C67.5091 215.095 68.8286 213.857 68.8286 212.329V169.118Z" fill="#66B54D"/>
<path d="M82.9517 169.118C82.9517 167.59 81.6321 166.352 80.0044 166.352C78.3767 166.352 77.0571 167.59 77.0571 169.118V212.329C77.0571 213.857 78.3767 215.095 80.0044 215.095C81.6321 215.095 82.9517 213.857 82.9517 212.329V169.118Z" fill="#66B54D"/>
<path d="M97.081 169.118C97.081 167.59 95.7615 166.352 94.1338 166.352C92.5061 166.352 91.1865 167.59 91.1865 169.118V212.329C91.1865 213.857 92.5061 215.095 94.1338 215.095C95.7615 215.095 97.081 213.857 97.081 212.329V169.118Z" fill="#66B54D"/>
<path d="M111.205 169.118C111.205 167.59 109.885 166.352 108.257 166.352C106.63 166.352 105.31 167.59 105.31 169.118V212.329C105.31 213.857 106.63 215.095 108.257 215.095C109.885 215.095 111.205 213.857 111.205 212.329V169.118Z" fill="#66B54D"/>
<path d="M51.3565 239.638C59.1599 239.638 65.4859 233.708 65.4859 226.392C65.4859 219.076 59.1599 213.146 51.3565 213.146C43.553 213.146 37.2271 219.076 37.2271 226.392C37.2271 233.708 43.553 239.638 51.3565 239.638Z" fill="#20243C"/>
<path d="M51.3506 235.466H45.4561V239.632H51.3506V235.466Z" fill="#20243C"/>
<path d="M51.3506 213.146H45.4561V217.312H51.3506V213.146Z" fill="#20243C"/>
<path d="M45.4561 239.638C53.2595 239.638 59.5855 233.708 59.5855 226.392C59.5855 219.076 53.2595 213.146 45.4561 213.146C37.6526 213.146 31.3267 219.076 31.3267 226.392C31.3267 233.708 37.6526 239.638 45.4561 239.638Z" fill="#2C3054"/>
<path d="M45.4556 232.864C49.268 232.864 52.3585 229.967 52.3585 226.393C52.3585 222.819 49.268 219.921 45.4556 219.921C41.6433 219.921 38.5527 222.819 38.5527 226.393C38.5527 229.967 41.6433 232.864 45.4556 232.864Z" fill="#272C4C"/>
<path d="M45.4554 231.001C48.1711 231.001 50.3727 228.937 50.3727 226.391C50.3727 223.845 48.1711 221.781 45.4554 221.781C42.7396 221.781 40.5381 223.845 40.5381 226.391C40.5381 228.937 42.7396 231.001 45.4554 231.001Z" fill="#20243C"/>
<path opacity="0.49" d="M74.7918 173.909L78.6696 181.273C78.9684 181.845 79.5472 182.236 80.2195 182.33L88.8901 183.508C90.5769 183.736 91.2554 185.685 90.0292 186.8L83.7549 192.536C83.2694 192.979 83.0454 193.615 83.1636 194.245L84.645 202.339C84.9314 203.915 83.1698 205.117 81.6573 204.376L73.9017 200.554C73.3041 200.256 72.5883 200.256 71.9846 200.554L64.2289 204.376C62.7164 205.123 60.9549 203.921 61.2412 202.339L62.7226 194.245C62.8347 193.621 62.6168 192.979 62.1313 192.536L55.8571 186.8C54.6371 185.685 55.3094 183.736 56.9962 183.508L65.6668 182.33C66.339 182.236 66.9179 181.845 67.2167 181.273L71.0945 173.909C71.8476 172.474 74.0324 172.474 74.7856 173.909H74.7918Z" fill="#57A53A"/>
</svg>
