<svg width="240" height="240" viewBox="0 0 240 240" fill="none" xmlns="http://www.w3.org/2000/svg">
<path d="M95.7158 95.7202L114.32 114.324" stroke="#BFE2E4" stroke-width="12.0389" stroke-miterlimit="10"/>
<path d="M44.8299 68.9878L83.2388 107.397C85.3541 109.512 88.7836 109.512 90.8989 107.397L107.397 90.899C109.512 88.7837 109.512 85.3542 107.397 83.2389L68.9877 44.83C66.8724 42.7147 63.4428 42.7147 61.3276 44.83L44.8298 61.3277C42.7146 63.443 42.7146 66.8725 44.8299 68.9878Z" fill="#69C4D2" stroke="#E4F3F6" stroke-width="4.84234" stroke-miterlimit="10"/>
<path d="M97.6677 97.6692L55.0532 55.0547" stroke="#E4F3F6" stroke-width="4.84234" stroke-miterlimit="10"/>
<path d="M96.3467 72.1934L72.1924 96.3476" stroke="#E4F3F6" stroke-width="4.84234" stroke-miterlimit="10"/>
<path d="M80.4614 56.3066L56.3071 80.4609" stroke="#E4F3F6" stroke-width="4.84234" stroke-miterlimit="10"/>
<path d="M144.655 144.658L126.051 126.054" stroke="#BFE2E4" stroke-width="12.0389" stroke-miterlimit="10"/>
<path d="M140.205 90.2866L176.819 60.4861L180.217 63.893L150.416 100.498L140.205 90.2866Z" fill="#E4F3F6"/>
<path d="M132.043 69.0393C121.487 80.0159 121.611 97.4617 132.425 108.276C143.239 119.09 160.685 119.214 171.662 108.658L132.043 69.0393Z" fill="#A2482A"/>
<path d="M48.9858 171.626C43.6362 177.187 43.6937 186.039 49.1772 191.522C54.6607 197.006 63.5032 197.063 69.0729 191.714L48.9858 171.626Z" fill="#A2482A"/>
<path d="M195.547 171.396L157.138 132.988C155.023 130.872 151.593 130.872 149.478 132.988L132.98 149.485C130.865 151.601 130.865 155.03 132.98 157.145L171.389 195.554C173.505 197.67 176.934 197.67 179.049 195.554L195.547 179.057C197.662 176.941 197.662 173.512 195.547 171.396Z" fill="#69C4D2" stroke="#E4F3F6" stroke-width="4.84234" stroke-miterlimit="10"/>
<path d="M140.699 118.729L121.975 100.005L53.1219 168.858L71.8459 187.582L140.699 118.729Z" fill="#E4F3F6"/>
<path d="M121.975 100.005L140.694 118.724" stroke="#E25F3F" stroke-width="10.4311" stroke-miterlimit="10" stroke-linecap="round"/>
<path d="M52.1919 169.791L70.9201 188.51" stroke="#E25F3F" stroke-width="10.4311" stroke-miterlimit="10" stroke-linecap="round"/>
<path d="M75.4561 146.525L94.1747 165.244" stroke="#E25F3F" stroke-width="10.4311" stroke-miterlimit="10" stroke-linecap="round"/>
<path d="M98.7109 123.271L117.439 141.989" stroke="#E25F3F" stroke-width="10.4311" stroke-miterlimit="10" stroke-linecap="round"/>
<path d="M184.351 64.7498C182.035 67.0657 178.275 67.0657 175.959 64.7498C173.643 62.4339 173.643 58.6729 175.959 56.357C178.275 54.0411 182.035 54.0411 184.351 56.357C186.667 58.6729 186.667 62.4339 184.351 64.7498Z" fill="#E25F3F"/>
<path d="M142.704 142.707L185.319 185.322" stroke="#E4F3F6" stroke-width="4.84234" stroke-miterlimit="10"/>
<path d="M168.178 144.026L144.024 168.18" stroke="#E4F3F6" stroke-width="4.84234" stroke-miterlimit="10"/>
<path d="M184.064 159.915L159.91 184.069" stroke="#E4F3F6" stroke-width="4.84234" stroke-miterlimit="10"/>
</svg>
