<svg width="240" height="240" viewBox="0 0 240 240" fill="none" xmlns="http://www.w3.org/2000/svg">
<g clip-path="url(#clip0_2203_29837)">
<path d="M169.829 118.879L156.425 154.556L161.521 156.471L174.925 120.794L169.829 118.879Z" fill="#172437"/>
<path d="M78.0887 84.4117L64.6836 120.088L69.7802 122.003L83.1853 86.3268L78.0887 84.4117Z" fill="#0F1723"/>
<path d="M75.4178 109.581L70.5371 101.931L79.2475 99.3875L191.375 141.514L187.545 151.708L75.4178 109.581Z" fill="#1A631C"/>
<path d="M52.0651 89.1749L48.2354 99.3682L75.4178 109.581L79.2475 99.3875L52.0651 89.1749Z" fill="#0E3E0F"/>
<path d="M193.614 127.815L180.208 163.492L185.305 165.407L198.71 129.73L193.614 127.815Z" fill="#0F1723"/>
<path d="M54.3045 75.4757L40.8994 111.152L45.996 113.067L59.4011 77.3907L54.3045 75.4757Z" fill="#172437"/>
<path d="M118.96 112.369L127.896 88.5847L140.211 97.0887L132.551 117.475L118.96 112.369Z" fill="#74A9FF"/>
<path d="M112.165 109.816L119.824 89.4292L131.294 89.8611L122.358 113.646L112.165 109.816Z" fill="#A3C6FF"/>
<path d="M130.018 93.259L131.726 78.3911L140.643 85.6187L140.211 97.0887L130.018 93.259Z" fill="#669BFF"/>
<path d="M119.824 89.4292L127.052 80.5123L135.124 79.6677L130.018 93.2589L119.824 89.4292Z" fill="#74A9FF"/>
<path d="M111.733 121.286L101.52 148.468L115.111 153.574L125.324 126.392L111.733 121.286Z" fill="#A3C6FF"/>
<path d="M143.157 140.847L132.964 137.017L140.623 116.631L150.817 120.46C153.62 121.514 155.052 124.669 153.999 127.472L150.169 137.665C149.116 140.468 145.96 141.9 143.157 140.847Z" fill="#A3C6FF"/>
<path d="M153.748 86.8589L155.152 83.1212C155.822 81.3385 154.92 79.3504 153.137 78.6806L147.247 76.4679C146.549 76.2055 145.784 76.1767 145.068 76.3858L141.874 77.3184C139.668 77.9627 138.697 80.545 139.934 82.4829L141.723 85.2879C142.125 85.9169 142.719 86.3987 143.418 86.6611L149.307 88.8739C151.09 89.5437 153.078 88.6416 153.748 86.8589Z" fill="#1A631C"/>
<path d="M125.663 161.61L127.068 157.872C127.737 156.09 126.835 154.102 125.052 153.432L119.163 151.219C118.465 150.957 117.7 150.928 116.984 151.137L113.79 152.07C111.583 152.714 110.613 155.296 111.849 157.234L113.639 160.039C114.04 160.668 114.635 161.15 115.333 161.413L121.223 163.625C123.006 164.295 124.994 163.393 125.663 161.61Z" fill="#29892B"/>
<path d="M117.776 69.079L116.372 72.8169C115.702 74.5995 116.604 76.5876 118.387 77.2573L139.114 85.0442C140.897 85.7139 142.885 84.8117 143.554 83.029L144.959 79.2912C145.628 77.5085 144.726 75.5204 142.943 74.8507L122.217 67.0639C120.434 66.3941 118.446 67.2964 117.776 69.079Z" fill="#0E3E0F"/>
<path d="M89.6917 143.83L88.2874 147.568C87.6177 149.351 88.5198 151.339 90.3025 152.008L111.029 159.796C112.812 160.465 114.8 159.563 115.47 157.78L116.874 154.043C117.544 152.26 116.642 150.272 114.859 149.602L94.1323 141.815C92.3496 141.145 90.3615 142.047 89.6917 143.83Z" fill="#4DC150"/>
<path d="M36.9514 108.762L19.1202 156.222C18.7564 157.19 19.2465 158.27 20.2149 158.634L30.299 162.423C31.2674 162.786 32.3475 162.296 32.7113 161.328L50.5425 113.868C50.9064 112.9 50.4163 111.82 49.4478 111.456L39.3638 107.667C38.3953 107.303 37.3153 107.793 36.9514 108.762Z" fill="#4DC150"/>
<path d="M67.5891 27.215L49.7579 74.6747C49.3941 75.6431 49.8842 76.7232 50.8526 77.087L60.9367 80.8757C61.9051 81.2396 62.9852 80.7495 63.349 79.781L81.1802 32.3213C81.5441 31.3529 81.054 30.2728 80.0855 29.909L70.0015 26.1203C69.033 25.7564 67.953 26.2465 67.5891 27.215Z" fill="#4DC150"/>
<path d="M183.114 70.6185L165.283 118.078C164.919 119.047 165.409 120.127 166.378 120.491L176.462 124.279C177.43 124.643 178.51 124.153 178.874 123.185L196.705 75.7248C197.069 74.7564 196.579 73.6764 195.61 73.3125L185.526 69.5238C184.558 69.16 183.478 69.6501 183.114 70.6185Z" fill="#4DC150"/>
<path d="M152.476 152.166L134.645 199.625C134.281 200.594 134.771 201.674 135.74 202.038L145.824 205.826C146.792 206.19 147.872 205.7 148.236 204.732L166.067 157.272C166.431 156.304 165.941 155.223 164.973 154.86L154.889 151.071C153.92 150.707 152.84 151.197 152.476 152.166Z" fill="#4DC150"/>
<path d="M91.3738 36.151L73.5426 83.6107C73.1788 84.5792 73.6689 85.6592 74.6373 86.0231L84.7214 89.8118C85.6898 90.1756 86.7699 89.6855 87.1337 88.7171L104.965 41.2573C105.329 40.2889 104.839 39.2088 103.87 38.845L93.7861 35.0563C92.8177 34.6924 91.7377 35.1825 91.3738 36.151Z" fill="#172437"/>
<path d="M60.7356 117.698L42.9044 165.158C42.5406 166.126 43.0307 167.206 43.9991 167.57L54.0832 171.359C55.0516 171.723 56.1317 171.232 56.4955 170.264L74.3267 122.804C74.6906 121.836 74.2005 120.756 73.232 120.392L63.148 116.603C62.1795 116.239 61.0995 116.729 60.7356 117.698Z" fill="#172437"/>
<path d="M206.898 79.5543L189.067 127.014C188.703 127.983 189.193 129.063 190.162 129.426L200.246 133.215C201.214 133.579 202.294 133.089 202.658 132.12L220.489 84.6606C220.853 83.6922 220.363 82.6121 219.395 82.2483L209.31 78.4596C208.342 78.0957 207.262 78.5858 206.898 79.5543Z" fill="#172437"/>
<path d="M176.261 161.102L158.429 208.561C158.065 209.53 158.556 210.61 159.524 210.974L169.608 214.762C170.577 215.126 171.657 214.636 172.02 213.668L189.852 166.208C190.215 165.24 189.725 164.16 188.757 163.796L178.673 160.007C177.704 159.643 176.624 160.133 176.261 161.102Z" fill="#172437"/>
<path d="M85.6108 113.41L89.4405 103.217C90.4973 100.404 93.6391 98.9784 96.452 100.035L140.623 116.631C143.436 117.688 144.862 120.829 143.805 123.642L139.975 133.836C138.918 136.649 135.777 138.074 132.964 137.017L88.7926 120.422C85.9796 119.365 84.5539 116.223 85.6108 113.41Z" fill="#D7DFEE"/>
<path d="M144.439 129.696C144.968 128.289 144.256 126.719 142.848 126.191C141.441 125.662 139.871 126.374 139.342 127.782C138.813 129.189 139.526 130.759 140.933 131.287C142.34 131.816 143.91 131.104 144.439 129.696Z" fill="#0F1723"/>
</g>
<defs>
<clipPath id="clip0_2203_29837">
<rect width="201.61" height="188.882" fill="white" transform="translate(19 26)"/>
</clipPath>
</defs>
</svg>
