<svg width="240" height="240" viewBox="0 0 240 240" fill="none" xmlns="http://www.w3.org/2000/svg">
<g clip-path="url(#clip0_2202_24454)">
<path d="M135.797 91.1997H105.936C101.035 91.1997 96.1443 91.6749 91.3347 92.6253L37.4259 103.243C32.2467 104.261 28.5171 108.801 28.5171 114.077V133.224H211.061V114.014C211.061 108.768 207.365 104.241 202.224 103.195L150.898 92.7261C145.93 91.7133 140.871 91.1997 135.797 91.1997Z" fill="#F6F5FB"/>
<path d="M212.847 138.677H26.7314V226.598H212.847V138.677Z" fill="#6FC755"/>
<path d="M120.312 139.932H119.261V226.86H120.312V139.932Z" fill="#B5EDAD"/>
<path d="M23.0928 221.485H216.49C217.738 221.485 218.75 222.498 218.75 223.746V230.768H20.832V223.746C20.832 222.498 21.8448 221.485 23.0928 221.485Z" fill="#201F25"/>
<path d="M80.41 221.485H159.173C160.508 221.485 161.588 222.565 161.588 223.899V230.768H77.9956V223.899C77.9956 222.565 79.0756 221.485 80.41 221.485Z" fill="#161619"/>
<path d="M9.46098 230.767H230.122C231.37 230.767 232.383 231.78 232.383 233.028V240.051H7.2002V233.028C7.2002 231.78 8.21298 230.767 9.46098 230.767Z" fill="#201F25"/>
<path d="M73.6752 230.767H165.898C167.232 230.767 168.312 231.847 168.312 233.182V240.051H71.2607V233.182C71.2607 231.847 72.3408 230.767 73.6752 230.767Z" fill="#161619"/>
<path d="M26.7314 221.485L212.847 221.485V138.675L26.7314 138.675V221.485Z" fill="url(#paint0_linear_2202_24454)"/>
<path opacity="0.2" d="M144.542 140.77C144.542 154.886 155.985 166.33 170.102 166.33C184.219 166.33 195.662 154.886 195.662 140.77C195.662 140.064 195.624 139.368 195.571 138.677H144.633C144.576 139.368 144.542 140.064 144.542 140.77Z" fill="#63AC65"/>
<path opacity="0.2" d="M46.7041 140.77C46.7041 154.886 58.1473 166.33 72.2641 166.33C86.3809 166.33 97.8241 154.886 97.8241 140.77C97.8241 140.064 97.7857 139.368 97.7329 138.677H46.7953C46.7377 139.368 46.7041 140.064 46.7041 140.77Z" fill="#63AC65"/>
<path d="M216.062 127.09H23.52C22.0355 127.09 20.832 128.293 20.832 129.778V138.077C20.832 139.561 22.0355 140.765 23.52 140.765H216.062C217.547 140.765 218.75 139.561 218.75 138.077V129.778C218.75 128.293 217.547 127.09 216.062 127.09Z" fill="#201F25"/>
<g filter="url(#filter0_d_2202_24454)">
<path d="M72.2645 144.742C74.4595 144.742 76.2388 142.962 76.2388 140.767C76.2388 138.572 74.4595 136.793 72.2645 136.793C70.0695 136.793 68.29 138.572 68.29 140.767C68.29 142.962 70.0695 144.742 72.2645 144.742Z" fill="#E1A73B"/>
</g>
<path d="M72.3078 142.552C73.3179 142.552 74.1366 141.733 74.1366 140.723C74.1366 139.713 73.3179 138.894 72.3078 138.894C71.2978 138.894 70.479 139.713 70.479 140.723C70.479 141.733 71.2978 142.552 72.3078 142.552Z" fill="#F6F5FB"/>
<g filter="url(#filter1_d_2202_24454)">
<path d="M170.103 144.742C172.298 144.742 174.077 142.962 174.077 140.767C174.077 138.572 172.298 136.793 170.103 136.793C167.908 136.793 166.128 138.572 166.128 140.767C166.128 142.962 167.908 144.742 170.103 144.742Z" fill="#E1A73B"/>
</g>
<path d="M170.146 142.552C171.156 142.552 171.974 141.733 171.974 140.723C171.974 139.713 171.156 138.894 170.146 138.894C169.136 138.894 168.317 139.713 168.317 140.723C168.317 141.733 169.136 142.552 170.146 142.552Z" fill="#F6F5FB"/>
<path d="M92.5153 174.523H147.063C149.775 174.523 151.973 176.726 151.973 179.433V240.053H87.6001V179.433C87.6001 176.721 89.8033 174.523 92.5105 174.523H92.5153Z" fill="#145B4D"/>
<path d="M113.266 183.396H94.9347C94.2057 183.396 93.6147 183.987 93.6147 184.716V193.294C93.6147 194.023 94.2057 194.614 94.9347 194.614H113.266C113.995 194.614 114.586 194.023 114.586 193.294V184.716C114.586 183.987 113.995 183.396 113.266 183.396Z" fill="#125145" stroke="#114C41" stroke-width="1.0032" stroke-miterlimit="10"/>
<path d="M144.643 183.396H126.312C125.583 183.396 124.992 183.987 124.992 184.716V193.294C124.992 194.023 125.583 194.614 126.312 194.614H144.643C145.372 194.614 145.963 194.023 145.963 193.294V184.716C145.963 183.987 145.372 183.396 144.643 183.396Z" fill="#125145" stroke="#114C41" stroke-width="1.0032" stroke-miterlimit="10"/>
<path d="M120.312 174.523H119.261V240.053H120.312V174.523Z" fill="#125145"/>
<path d="M145.483 110.467H94.0992C93.3357 110.467 92.7168 111.086 92.7168 111.849V122.51C92.7168 123.274 93.3357 123.893 94.0992 123.893H145.483C146.247 123.893 146.866 123.274 146.866 122.51V111.849C146.866 111.086 146.247 110.467 145.483 110.467Z" fill="#4B913A"/>
<path d="M145.483 109.33H94.0992C93.3357 109.33 92.7168 109.949 92.7168 110.712V121.373C92.7168 122.136 93.3357 122.755 94.0992 122.755H145.483C146.247 122.755 146.866 122.136 146.866 121.373V110.712C146.866 109.949 146.247 109.33 145.483 109.33Z" fill="#4E9A3F"/>
<path d="M139.776 110.823H99.8018C99.2079 110.823 98.7266 111.304 98.7266 111.898V120.193C98.7266 120.786 99.2079 121.268 99.8018 121.268H139.776C140.37 121.268 140.851 120.786 140.851 120.193V111.898C140.851 111.304 140.37 110.823 139.776 110.823Z" fill="#6BAA5C"/>
<path d="M94.7806 113.473C95.2392 113.473 95.611 113.102 95.611 112.643C95.611 112.184 95.2392 111.812 94.7806 111.812C94.322 111.812 93.9502 112.184 93.9502 112.643C93.9502 113.102 94.322 113.473 94.7806 113.473Z" fill="#6BAA5C"/>
<path d="M94.7806 120.265C95.2392 120.265 95.611 119.894 95.611 119.435C95.611 118.976 95.2392 118.604 94.7806 118.604C94.322 118.604 93.9502 118.976 93.9502 119.435C93.9502 119.894 94.322 120.265 94.7806 120.265Z" fill="#6BAA5C"/>
<path d="M144.801 113.473C145.26 113.473 145.632 113.102 145.632 112.643C145.632 112.184 145.26 111.812 144.801 111.812C144.343 111.812 143.971 112.184 143.971 112.643C143.971 113.102 144.343 113.473 144.801 113.473Z" fill="#6BAA5C"/>
<path d="M144.802 120.265C145.26 120.265 145.632 119.894 145.632 119.435C145.632 118.976 145.26 118.604 144.802 118.604C144.343 118.604 143.971 118.976 143.971 119.435C143.971 119.894 144.343 120.265 144.802 120.265Z" fill="#6BAA5C"/>
<path d="M86.8322 167.517H55.3154V195.774H86.8322V167.517Z" fill="#FFA146"/>
<path d="M87.2452 167.517H54.9028V172.221H87.2452V167.517Z" fill="#FFA146"/>
<path fill-rule="evenodd" clip-rule="evenodd" d="M86.8322 195.769H75.0002L55.3154 172.22H86.8322V195.769Z" fill="#ED7425"/>
<path fill-rule="evenodd" clip-rule="evenodd" d="M84.1253 167.517H80.6597V174.021L81.4084 173.67L82.0853 173.992L83.0212 173.44L84.1253 174.021V167.517Z" fill="#DD3E13"/>
<path fill-rule="evenodd" clip-rule="evenodd" d="M61.4885 167.517H58.0229V174.021L58.7717 173.67L59.4485 173.992L60.3798 173.44L61.4885 174.021V167.517Z" fill="#DD3E13"/>
<path d="M54.0774 167.517H22.5605V195.774H54.0774V167.517Z" fill="#FFA146"/>
<path d="M54.485 167.517H22.1426V172.221H54.485V167.517Z" fill="#FFA146"/>
<path fill-rule="evenodd" clip-rule="evenodd" d="M54.0721 195.769H42.2401L22.5601 172.22H54.0721V195.769Z" fill="#ED7425"/>
<path fill-rule="evenodd" clip-rule="evenodd" d="M51.3651 167.517H47.9043V174.021L48.6531 173.67L49.3251 173.992L50.2611 173.44L51.3651 174.021V167.517Z" fill="#DD3E13"/>
<path fill-rule="evenodd" clip-rule="evenodd" d="M28.7284 167.517H25.2676V174.021L26.0163 173.67L26.6884 173.992L27.6243 173.44L28.7284 174.021V167.517Z" fill="#DD3E13"/>
<path d="M44.6016 196.86H0V239.911H44.6016V196.86Z" fill="#FFA146"/>
<path d="M9.39847 200.509H3.79688V235.913H9.39847V200.509Z" fill="#DD3E13"/>
<path d="M15.0001 200.509H9.39844V235.913H15.0001V200.509Z" fill="#DD3E13"/>
<path d="M20.5967 200.509H14.9951V235.913H20.5967V200.509Z" fill="#DD3E13"/>
<path d="M26.1982 200.509H20.5967V235.913H26.1982V200.509Z" fill="#DD3E13"/>
<path d="M31.7999 200.509H26.1982V235.913H31.7999V200.509Z" fill="#DD3E13"/>
<path d="M37.397 200.509H31.7954V235.913H37.397V200.509Z" fill="#DD3E13"/>
<path d="M40.6322 200.509H37.397V235.913H40.6322V200.509Z" fill="#DD3E13"/>
<path d="M7.03189 203.289H4.80469V235.219H7.03189V203.289Z" fill="#ED7425"/>
<path d="M12.6335 203.289H10.4062V235.219H12.6335V203.289Z" fill="#ED7425"/>
<path d="M18.2355 203.289H16.0083V235.219H18.2355V203.289Z" fill="#ED7425"/>
<path d="M23.8317 203.289H21.6045V235.219H23.8317V203.289Z" fill="#ED7425"/>
<path d="M29.4333 203.289H27.2061V235.219H29.4333V203.289Z" fill="#ED7425"/>
<path d="M35.0304 203.289H32.8032V235.219H35.0304V203.289Z" fill="#ED7425"/>
<path d="M40.632 203.289H38.4048V235.219H40.632V203.289Z" fill="#ED7425"/>
<path d="M9.39867 200.509H7.03711V235.913H9.39867V200.509Z" fill="#FFA146"/>
<path d="M14.9954 200.509H12.6338V235.913H14.9954V200.509Z" fill="#FFA146"/>
<path d="M20.597 200.509H18.2354V235.913H20.597V200.509Z" fill="#FFA146"/>
<path d="M26.1936 200.509H23.832V235.913H26.1936V200.509Z" fill="#FFA146"/>
<path d="M31.7952 200.509H29.4336V235.913H31.7952V200.509Z" fill="#FFA146"/>
<path d="M37.3919 200.509H35.0303V235.913H37.3919V200.509Z" fill="#FFA146"/>
<path d="M90.2925 196.86H45.6909V239.911H90.2925V196.86Z" fill="#FFA146"/>
<path d="M55.0943 200.509H49.4927V235.913H55.0943V200.509Z" fill="#DD3E13"/>
<path d="M60.6958 200.509H55.0942V235.913H60.6958V200.509Z" fill="#DD3E13"/>
<path d="M66.2877 200.509H60.6909V235.913H66.2877V200.509Z" fill="#DD3E13"/>
<path d="M71.8941 200.509H66.2925V235.913H71.8941V200.509Z" fill="#DD3E13"/>
<path d="M77.4907 200.509H71.8892V235.913H77.4907V200.509Z" fill="#DD3E13"/>
<path d="M83.0928 200.509H77.4912V235.913H83.0928V200.509Z" fill="#DD3E13"/>
<path d="M86.3231 200.509H83.0879V235.913H86.3231V200.509Z" fill="#DD3E13"/>
<path d="M52.7277 203.289H50.5005V235.219H52.7277V203.289Z" fill="#ED7425"/>
<path d="M58.3293 203.289H56.1021V235.219H58.3293V203.289Z" fill="#ED7425"/>
<path d="M63.9264 203.289H61.6992V235.219H63.9264V203.289Z" fill="#ED7425"/>
<path d="M69.528 203.289H67.3008V235.219H69.528V203.289Z" fill="#ED7425"/>
<path d="M75.1296 203.289H72.9023V235.219H75.1296V203.289Z" fill="#ED7425"/>
<path d="M80.7262 203.289H78.499V235.219H80.7262V203.289Z" fill="#ED7425"/>
<path d="M86.3278 203.289H84.1006V235.219H86.3278V203.289Z" fill="#ED7425"/>
<path d="M55.0896 200.509H52.728V235.913H55.0896V200.509Z" fill="#FFA146"/>
<path d="M60.6912 200.509H58.3296V235.913H60.6912V200.509Z" fill="#FFA146"/>
<path d="M66.2928 200.509H63.9312V235.913H66.2928V200.509Z" fill="#FFA146"/>
<path d="M71.8895 200.509H69.5278V235.913H71.8895V200.509Z" fill="#FFA146"/>
<path d="M77.4861 200.509H75.1245V235.913H77.4861V200.509Z" fill="#FFA146"/>
<path d="M83.0877 200.509H80.7261V235.913H83.0877V200.509Z" fill="#FFA146"/>
<path d="M86.7793 195.773H22.5601V196.863H86.7793V195.773Z" fill="#DD3E13"/>
<path d="M45.6912 196.867H44.6016V239.918H45.6912V196.867Z" fill="#DD3E13"/>
<path d="M122.807 211.658H91.2905V239.916H122.807V211.658Z" fill="#FFA146"/>
<path d="M123.215 211.658H90.873V216.362H123.215V211.658Z" fill="#FFA146"/>
<path fill-rule="evenodd" clip-rule="evenodd" d="M122.803 239.915H110.971L91.2905 216.366H122.803V239.915Z" fill="#ED7425"/>
<path fill-rule="evenodd" clip-rule="evenodd" d="M120.095 211.658H116.634V218.162L117.383 217.812L118.055 218.133L118.991 217.586L120.095 218.162V211.658Z" fill="#DD3E13"/>
<path fill-rule="evenodd" clip-rule="evenodd" d="M97.4588 211.658H93.9932V218.162L94.742 217.812L95.4188 218.133L96.3548 217.586L97.4588 218.162V211.658Z" fill="#DD3E13"/>
<path d="M212.597 208.799H185.76V240.004H212.597V208.799Z" fill="#ED7425"/>
<path d="M199.181 208.799H185.76V240.004H199.181V208.799Z" fill="#FFA146"/>
<path fill-rule="evenodd" clip-rule="evenodd" d="M190.267 233.426V237.42H188.818V233.426H187.81L188.678 231.837L189.542 230.249L190.411 231.837L191.275 233.426H190.267Z" fill="#435D76"/>
<path fill-rule="evenodd" clip-rule="evenodd" d="M194.198 233.426V237.42H192.744V233.426H191.736L192.605 231.837L193.469 230.249L194.337 231.837L195.201 233.426H194.198Z" fill="#435D76"/>
<path d="M194.712 237.421H188.294V237.992H194.712V237.421Z" fill="#435D76"/>
<path fill-rule="evenodd" clip-rule="evenodd" d="M188.083 208.799H191.241V214.727L190.56 214.405L189.941 214.703L189.091 214.199L188.083 214.727V208.799Z" fill="#DD3E13"/>
<path fill-rule="evenodd" clip-rule="evenodd" d="M207.12 208.799H210.279V214.727L209.597 214.405L208.983 214.703L208.128 214.199L207.12 214.727V208.799Z" fill="#DD3E13"/>
<path d="M239.995 215.943H213.158V240.005H239.995V215.943Z" fill="#ED7425"/>
<path d="M226.574 215.943H213.158V240.005H226.574V215.943Z" fill="#FFA146"/>
<path fill-rule="evenodd" clip-rule="evenodd" d="M217.666 233.426V237.419H216.216V233.426H215.208L216.077 231.837L216.941 230.248L217.81 231.837L218.674 233.426H217.666Z" fill="#435D76"/>
<path fill-rule="evenodd" clip-rule="evenodd" d="M221.597 233.426V237.419H220.142V233.426H219.134L220.003 231.837L220.867 230.248L221.736 231.837L222.6 233.426H221.597Z" fill="#435D76"/>
<path d="M222.115 237.419H215.692V237.99H222.115V237.419Z" fill="#435D76"/>
<path fill-rule="evenodd" clip-rule="evenodd" d="M215.481 215.943H218.64V221.871L217.953 221.549L217.339 221.847L216.489 221.343L215.481 221.871V215.943Z" fill="#DD3E13"/>
<path fill-rule="evenodd" clip-rule="evenodd" d="M234.519 215.943H237.677V221.871L236.995 221.549L236.376 221.847L235.527 221.343L234.519 221.871V215.943Z" fill="#DD3E13"/>
<path d="M213.159 215.943H212.597V240.005H213.159V215.943Z" fill="#DD3E13"/>
</g>
<defs>
<filter id="filter0_d_2202_24454" x="57.3268" y="125.83" width="29.8751" height="29.8751" filterUnits="userSpaceOnUse" color-interpolation-filters="sRGB">
<feFlood flood-opacity="0" result="BackgroundImageFix"/>
<feColorMatrix in="SourceAlpha" type="matrix" values="0 0 0 0 0 0 0 0 0 0 0 0 0 0 0 0 0 0 127 0" result="hardAlpha"/>
<feOffset/>
<feGaussianBlur stdDeviation="5.4816"/>
<feColorMatrix type="matrix" values="0 0 0 0 0.882353 0 0 0 0 0.654902 0 0 0 0 0.231373 0 0 0 0.75 0"/>
<feBlend mode="normal" in2="BackgroundImageFix" result="effect1_dropShadow_2202_24454"/>
<feBlend mode="normal" in="SourceGraphic" in2="effect1_dropShadow_2202_24454" result="shape"/>
</filter>
<filter id="filter1_d_2202_24454" x="155.165" y="125.83" width="29.8751" height="29.8751" filterUnits="userSpaceOnUse" color-interpolation-filters="sRGB">
<feFlood flood-opacity="0" result="BackgroundImageFix"/>
<feColorMatrix in="SourceAlpha" type="matrix" values="0 0 0 0 0 0 0 0 0 0 0 0 0 0 0 0 0 0 127 0" result="hardAlpha"/>
<feOffset/>
<feGaussianBlur stdDeviation="5.4816"/>
<feColorMatrix type="matrix" values="0 0 0 0 0.882353 0 0 0 0 0.654902 0 0 0 0 0.231373 0 0 0 0.75 0"/>
<feBlend mode="normal" in2="BackgroundImageFix" result="effect1_dropShadow_2202_24454"/>
<feBlend mode="normal" in="SourceGraphic" in2="effect1_dropShadow_2202_24454" result="shape"/>
</filter>
<linearGradient id="paint0_linear_2202_24454" x1="119.789" y1="101.662" x2="119.789" y2="237.67" gradientUnits="userSpaceOnUse">
<stop stop-color="#08332B"/>
<stop offset="1" stop-color="#288849" stop-opacity="0"/>
</linearGradient>
<clipPath id="clip0_2202_24454">
<rect width="240" height="240" fill="white"/>
</clipPath>
</defs>
</svg>
