<svg width="61" height="48" viewBox="0 0 61 48" fill="none" xmlns="http://www.w3.org/2000/svg">
<g opacity="0.5">
<path d="M36.7927 24.0001L47.2825 13.5105C49.0011 11.7923 49.0011 9.00684 47.2825 7.28865C45.5654 5.57082 42.7785 5.57082 41.0613 7.28865L30.5714 17.7787L20.0815 7.28865C18.3651 5.57082 15.5782 5.57008 13.8603 7.28865C12.1418 9.00684 12.1418 11.7923 13.8603 13.5105L24.3501 24.0001L13.8603 34.49C12.1418 36.2079 12.1418 38.9933 13.8603 40.7111C14.7189 41.5704 15.8452 42 16.9709 42C18.0966 42 19.2229 41.5704 20.0815 40.7111L30.5714 30.2213L41.0613 40.7111C41.9199 41.5704 43.0456 42 44.1719 42C45.2976 42 46.4239 41.5704 47.2825 40.7111C49.0011 38.9933 49.0011 36.2079 47.2825 34.49L36.7927 24.0001Z" fill="#9FA4A9"/>
</g>
</svg>
