<svg width="80" height="80" viewBox="0 0 80 80" fill="none" xmlns="http://www.w3.org/2000/svg">
<g clip-path="url(#clip0_2879_30650)">
<rect width="80" height="80" rx="40" fill="#62CEF5"/>
<path d="M68.1693 46.7694C68.1693 37.746 63.8156 29.3182 56.6181 24.0648C58.4281 23.3756 59.9269 21.9522 60.674 20.057C62.1017 16.4337 60.3161 12.3241 56.6925 10.8956C54.9376 10.2039 53.0177 10.2371 51.2875 10.9891C49.5572 11.741 48.2233 13.1219 47.5314 14.8773C46.9152 16.441 46.8922 18.1187 47.382 19.6346C45.0109 18.9937 42.5651 18.6705 40.0705 18.6705C38.0231 18.6705 36.0026 18.8902 34.026 19.326C34.4179 17.8934 34.3593 16.3355 33.7846 14.877C33.0929 13.1219 31.7589 11.741 30.0285 10.9891C28.298 10.2369 26.3786 10.2039 24.623 10.8958C20.9997 12.3243 19.214 16.4339 20.642 20.0567C21.2863 21.6915 22.4894 22.9749 23.9694 23.7393C16.4833 28.9534 11.9716 37.4633 11.9716 46.7694C11.9716 52.9476 13.9724 58.36 17.7856 62.5712C14.6403 66.3773 11.5588 72.3416 11.6003 81.0777C11.6183 84.9464 14.7795 88.0931 18.6806 88.0931H18.682C18.8087 88.0926 18.9352 88.0885 19.0612 88.0814C19.3935 90.7543 19.9074 93.2992 20.5968 95.6783C21.5988 99.138 24.8122 101.554 28.4108 101.554C29.1754 101.554 29.9381 101.445 30.6779 101.231C32.7658 100.626 34.4931 99.2446 35.5419 97.3405C36.1515 96.2336 36.4894 95.0275 36.5465 93.8012C37.1801 93.8647 37.817 93.8966 38.4562 93.8966H41.6847C42.3236 93.8966 42.961 93.8646 43.5943 93.8012C43.6515 95.0272 43.9893 96.2336 44.599 97.3405C45.6478 99.2446 47.3751 100.626 49.464 101.231C50.2032 101.445 50.9657 101.554 51.7301 101.554C55.329 101.554 58.5421 99.1376 59.544 95.6783C60.2354 93.2916 60.7513 90.7391 61.0841 88.0631C64.649 87.7328 67.4625 84.7259 67.4796 81.078C67.5191 72.7398 64.691 66.9381 61.7823 63.1828C65.9708 58.8944 68.1693 53.2709 68.1693 46.7694Z" fill="white"/>
<path d="M54.1028 22.0308C56.623 22.0308 58.666 19.9878 58.666 17.4675C58.666 14.9473 56.623 12.9043 54.1028 12.9043C51.5826 12.9043 49.5396 14.9473 49.5396 17.4675C49.5396 19.9878 51.5826 22.0308 54.1028 22.0308Z" fill="#3192D9"/>
<path d="M52.3554 18.7899L49.0591 27.1533L51.1818 27.9899L54.478 19.6265L52.3554 18.7899Z" fill="#3192D9"/>
<path d="M27.2134 22.0303C29.7336 22.0303 31.7766 19.9873 31.7766 17.4671C31.7766 14.9468 29.7336 12.9038 27.2134 12.9038C24.6932 12.9038 22.6501 14.9468 22.6501 17.4671C22.6501 19.9873 24.6932 22.0303 27.2134 22.0303Z" fill="#3192D9"/>
<path d="M28.9606 18.7894L26.8379 19.626L30.1342 27.9894L32.2568 27.1528L28.9606 18.7894Z" fill="#3192D9"/>
<path d="M49.9788 62.5142C50.5077 62.552 60.4974 67.0934 60.4314 81.0446" stroke="#3BA8FA" stroke-width="9.09755" stroke-linecap="round" stroke-linejoin="round"/>
<path d="M29.1016 62.5142C28.5727 62.552 18.583 67.0934 18.649 81.0446" stroke="#3BA8FA" stroke-width="9.09755" stroke-linecap="round" stroke-linejoin="round"/>
<path d="M28.5047 65.5874C28.5047 65.5874 24.5944 80.2283 28.4137 93.4143" stroke="#57CBF4" stroke-width="11.2762" stroke-miterlimit="10" stroke-linecap="round"/>
<path d="M51.6367 65.5874C51.6367 65.5874 55.547 80.2283 51.7277 93.4143" stroke="#57CBF4" stroke-width="11.2762" stroke-miterlimit="10" stroke-linecap="round"/>
<path d="M41.6848 91.3964H38.4563C28.7637 91.3964 21.14 83.1144 21.9409 73.4549L22.4458 67.3647C23.1582 58.7725 30.3396 52.1619 38.9613 52.1619H41.1798C49.8014 52.1619 56.9828 58.7725 57.6952 67.3647L58.2002 73.4549C59.0011 83.1144 51.3774 91.3964 41.6848 91.3964Z" fill="#57CBF4"/>
<path d="M46.8471 73.2327H33.2943C32.4753 73.2327 31.8113 73.8966 31.8113 74.7157V82.6557C31.8113 83.4748 32.4753 84.1388 33.2943 84.1388H46.8471C47.6662 84.1388 48.3302 83.4748 48.3302 82.6557V74.7157C48.3302 73.8966 47.6662 73.2327 46.8471 73.2327Z" fill="#3BA8FA"/>
<path d="M65.6695 46.7691C65.6695 60.9069 54.2085 68.8243 40.0706 68.8243C25.9327 68.8243 14.4717 60.907 14.4717 46.7691C14.4717 32.6312 25.9327 21.1702 40.0706 21.1702C54.2085 21.1702 65.6695 32.6312 65.6695 46.7691Z" fill="#57CBF4"/>
<path d="M58.6673 48.9969C58.6673 59.2676 50.3412 62.0016 40.0706 62.0016C29.7999 62.0016 21.4739 59.2676 21.4739 48.9969C21.4739 38.7262 29.7999 35.1741 40.0706 35.1741C50.3412 35.1741 58.6673 38.7263 58.6673 48.9969Z" fill="#CCECFF" stroke="white" stroke-width="2.2606" stroke-miterlimit="10"/>
<path d="M32.3814 53.6077C35.1536 53.6077 37.4009 51.3604 37.4009 48.5882C37.4009 45.8159 35.1536 43.5686 32.3814 43.5686C29.6091 43.5686 27.3618 45.8159 27.3618 48.5882C27.3618 51.3604 29.6091 53.6077 32.3814 53.6077Z" fill="white"/>
<path d="M32.3814 51.8595C34.1881 51.8595 35.6527 50.3949 35.6527 48.5882C35.6527 46.7815 34.1881 45.3169 32.3814 45.3169C30.5747 45.3169 29.1101 46.7815 29.1101 48.5882C29.1101 50.3949 30.5747 51.8595 32.3814 51.8595Z" fill="#003A7F"/>
<path opacity="0.13" d="M32.3816 48.4952C33.1231 48.4952 33.7243 48.0244 33.7243 47.4436C33.7243 46.8629 33.1231 46.3921 32.3816 46.3921C31.64 46.3921 31.0388 46.8629 31.0388 47.4436C31.0388 48.0244 31.64 48.4952 32.3816 48.4952Z" fill="white"/>
<path d="M47.7595 53.6077C50.5318 53.6077 52.7791 51.3604 52.7791 48.5882C52.7791 45.8159 50.5318 43.5686 47.7595 43.5686C44.9873 43.5686 42.74 45.8159 42.74 48.5882C42.74 51.3604 44.9873 53.6077 47.7595 53.6077Z" fill="white"/>
<path d="M47.7596 51.8595C49.5663 51.8595 51.0309 50.3949 51.0309 48.5882C51.0309 46.7815 49.5663 45.3169 47.7596 45.3169C45.9529 45.3169 44.4883 46.7815 44.4883 48.5882C44.4883 50.3949 45.9529 51.8595 47.7596 51.8595Z" fill="#003A7F"/>
<path opacity="0.13" d="M47.7595 48.4952C48.5011 48.4952 49.1022 48.0244 49.1022 47.4436C49.1022 46.8629 48.5011 46.3921 47.7595 46.3921C47.0179 46.3921 46.4167 46.8629 46.4167 47.4436C46.4167 48.0244 47.0179 48.4952 47.7595 48.4952Z" fill="white"/>
<path d="M38.0088 53.1099C39.0585 54.4361 41.0703 54.4372 42.1215 53.1122L42.1234 53.1099L42.1322 53.121" stroke="#232323" stroke-width="1.84405" stroke-linecap="round" stroke-linejoin="round"/>
</g>
<defs>
<clipPath id="clip0_2879_30650">
<rect width="80" height="80" rx="40" fill="white"/>
</clipPath>
</defs>
</svg>
