<svg width="1280" height="160" viewBox="0 0 1280 160" fill="none" xmlns="http://www.w3.org/2000/svg">
<g clip-path="url(#clip0_3464_32755)">
<path d="M160 0H0V160H160V0Z" fill="#62CEF5"/>
<path d="M136.57 83.387C136.57 65.3401 127.862 48.4856 113.467 37.9778C117.087 36.5989 120.085 33.7532 121.579 29.9622C122.962 26.4515 122.896 22.6126 121.392 19.1517C119.888 15.6908 117.126 13.0228 113.616 11.639C106.368 8.78741 98.1492 12.3568 95.2937 19.6029C94.0613 22.7299 94.0154 26.0853 94.9949 29.1166C90.2522 27.8354 85.3606 27.1889 80.3719 27.1889C76.2777 27.1889 72.2357 27.6284 68.283 28.5004C69.0667 25.6342 68.9495 22.519 67.8001 19.6029C64.9441 12.3568 56.7254 8.78551 49.4778 11.639C45.9671 13.0228 43.2053 15.6908 41.7014 19.1517C40.197 22.6126 40.1311 26.4515 41.5144 29.9622C42.8035 33.2317 45.2097 35.7981 48.1697 37.3274C33.197 47.7551 24.1741 64.7747 24.1741 83.387C24.1741 95.7434 28.1751 106.567 35.8006 114.99C29.5101 122.601 23.348 134.529 23.431 152.003C23.4681 159.741 29.7918 166.034 37.5946 166.034C37.848 166.033 38.1009 166.026 38.3529 166.011C39.0179 171.356 40.0458 176.446 41.4242 181.205C43.4286 188.123 49.8554 192.955 57.0526 192.955C58.5834 192.955 60.1092 192.738 61.5863 192.31C68.4369 190.325 72.9896 184.206 73.3168 177.449C74.5858 177.576 75.8627 177.641 77.1435 177.641H83.6005C84.8808 177.641 86.1576 177.576 87.4272 177.45C87.7543 184.205 92.3071 190.326 99.1567 192.31C100.636 192.738 102.161 192.955 103.691 192.955C110.889 192.955 117.315 188.123 119.32 181.204C120.702 176.43 121.734 171.326 122.399 165.974C129.529 165.314 135.156 159.3 135.191 152.003C135.27 135.326 129.613 123.723 123.797 116.212C132.172 107.636 136.57 96.389 136.57 83.387Z" fill="white"/>
<path d="M108.437 33.9085C113.477 33.9085 117.563 29.8224 117.563 24.782C117.563 19.7416 113.477 15.6555 108.437 15.6555C103.396 15.6555 99.3101 19.7416 99.3101 24.782C99.3101 29.8224 103.396 33.9085 108.437 33.9085Z" fill="#3192D9"/>
<path d="M104.942 27.4265L98.3491 44.1533L102.594 45.8265L109.187 29.0997L104.942 27.4265Z" fill="#3192D9"/>
<path d="M54.6573 33.9085C59.6977 33.9085 63.7838 29.8224 63.7838 24.782C63.7838 19.7416 59.6977 15.6555 54.6573 15.6555C49.6168 15.6555 45.5308 19.7416 45.5308 24.782C45.5308 29.8224 49.6168 33.9085 54.6573 33.9085Z" fill="#3192D9"/>
<path d="M58.1521 27.4266L53.9067 29.0999L60.4993 45.8267L64.7446 44.1534L58.1521 27.4266Z" fill="#3192D9"/>
<path d="M121.094 161.034H121.05C116.026 161.01 111.972 156.918 111.995 151.894C112.093 131.317 99.2693 124.419 97.5164 123.575C93.554 122.362 90.8069 118.54 91.1131 114.232C91.4695 109.219 95.8162 105.449 100.833 105.802C106.851 106.229 130.345 119.408 130.191 151.98C130.167 156.99 126.098 161.034 121.094 161.034Z" fill="#3BA8FA"/>
<path d="M37.5276 161.034C32.5232 161.034 28.4548 156.989 28.4309 151.98C28.2766 119.407 51.7707 106.229 57.7888 105.802C62.7995 105.437 67.1516 109.219 67.5085 114.232C67.8147 118.54 65.0676 122.362 61.1052 123.574C59.3523 124.419 46.5285 131.317 46.6262 151.894C46.6496 156.918 42.5959 161.01 37.5715 161.034H37.5276Z" fill="#3BA8FA"/>
<path d="M57.0525 187.955C52.1609 187.955 47.656 184.747 46.2268 179.814C37.8118 150.761 45.9934 119.432 46.3455 118.112C47.9529 112.097 54.1336 108.525 60.1497 110.128C66.1614 111.734 69.7356 117.904 68.1385 123.916C68.0281 124.339 61.2723 150.695 67.889 173.538C69.6214 179.521 66.1771 185.775 60.1952 187.507C59.1478 187.811 58.0911 187.955 57.0525 187.955Z" fill="#57CBF4"/>
<path d="M103.691 187.955C102.652 187.955 101.596 187.811 100.548 187.507C94.5666 185.775 91.1222 179.521 92.8547 173.538C99.4914 150.625 92.6745 124.178 92.6047 123.913C91.0207 117.899 94.6042 111.727 100.616 110.133C106.628 108.534 112.794 112.105 114.399 118.114C114.751 119.433 122.932 150.761 114.517 179.814C113.088 184.747 108.582 187.955 103.691 187.955Z" fill="#57CBF4"/>
<path d="M83.6005 172.641H77.1436C57.7584 172.641 42.5109 156.077 44.1127 136.758L45.1226 124.577C46.5474 107.393 60.9102 94.1719 78.1535 94.1719H82.5905C99.8338 94.1719 114.197 107.393 115.621 124.577L116.631 136.758C118.233 156.077 102.986 172.641 83.6005 172.641Z" fill="#57CBF4"/>
<path d="M93.9247 136.313H66.8191C65.181 136.313 63.853 137.641 63.853 139.279V155.159C63.853 156.797 65.181 158.125 66.8191 158.125H93.9247C95.5629 158.125 96.8908 156.797 96.8908 155.159V139.279C96.8908 137.641 95.5629 136.313 93.9247 136.313Z" fill="#3BA8FA"/>
<path d="M131.569 83.3865C131.569 111.662 108.647 127.497 80.3716 127.497C52.0958 127.497 29.1738 111.662 29.1738 83.3865C29.1738 55.1107 52.0958 32.1887 80.3716 32.1887C108.647 32.1887 131.569 55.1107 131.569 83.3865Z" fill="#57CBF4"/>
<path d="M117.566 87.842C117.566 108.383 100.913 113.851 80.3721 113.851C59.8308 113.851 43.1787 108.383 43.1787 87.842C43.1787 67.3006 59.8308 60.1963 80.3721 60.1963C100.913 60.1963 117.566 67.3007 117.566 87.842Z" fill="#CCECFF"/>
<path d="M80.3721 116.111C53.8238 116.111 40.918 106.864 40.918 87.842C40.918 68.5568 54.9297 57.9358 80.3721 57.9358C105.814 57.9358 119.826 68.5569 119.826 87.842C119.826 106.864 106.92 116.111 80.3721 116.111ZM80.3721 62.4572C64.4361 62.4572 45.4395 66.8615 45.4395 87.842C45.4395 104.044 56.5396 111.59 80.3721 111.59C104.205 111.59 115.305 104.044 115.305 87.842C115.305 66.8615 96.3081 62.4572 80.3721 62.4572Z" fill="white"/>
<path d="M64.9937 97.0628C70.5381 97.0628 75.0328 92.5682 75.0328 87.0237C75.0328 81.4793 70.5381 76.9846 64.9937 76.9846C59.4492 76.9846 54.9546 81.4793 54.9546 87.0237C54.9546 92.5682 59.4492 97.0628 64.9937 97.0628Z" fill="white"/>
<path d="M64.9938 93.5664C68.6071 93.5664 71.5364 90.6372 71.5364 87.0238C71.5364 83.4104 68.6071 80.4812 64.9938 80.4812C61.3804 80.4812 58.4512 83.4104 58.4512 87.0238C58.4512 90.6372 61.3804 93.5664 64.9938 93.5664Z" fill="#003A7F"/>
<path opacity="0.13" d="M64.9936 86.8378C66.4768 86.8378 67.6791 85.8962 67.6791 84.7347C67.6791 83.5732 66.4768 82.6316 64.9936 82.6316C63.5104 82.6316 62.3081 83.5732 62.3081 84.7347C62.3081 85.8962 63.5104 86.8378 64.9936 86.8378Z" fill="white"/>
<path d="M95.7495 97.0628C101.294 97.0628 105.789 92.5682 105.789 87.0237C105.789 81.4793 101.294 76.9846 95.7495 76.9846C90.2051 76.9846 85.7104 81.4793 85.7104 87.0237C85.7104 92.5682 90.2051 97.0628 95.7495 97.0628Z" fill="white"/>
<path d="M95.7496 93.5664C99.363 93.5664 102.292 90.6372 102.292 87.0238C102.292 83.4104 99.363 80.4812 95.7496 80.4812C92.1363 80.4812 89.207 83.4104 89.207 87.0238C89.207 90.6372 92.1363 93.5664 95.7496 93.5664Z" fill="#003A7F"/>
<path opacity="0.13" d="M95.7495 86.8378C97.2326 86.8378 98.435 85.8962 98.435 84.7347C98.435 83.5732 97.2326 82.6316 95.7495 82.6316C94.2663 82.6316 93.064 83.5732 93.064 84.7347C93.064 85.8962 94.2663 86.8378 95.7495 86.8378Z" fill="white"/>
<path d="M80.3632 99.9025H80.3588C78.1801 99.9005 76.1547 98.9201 74.8026 97.2121C74.1703 96.4133 74.3055 95.2541 75.1039 94.6213C75.9027 93.9904 77.0629 94.1242 77.6942 94.9231C78.3431 95.7434 79.3153 96.2131 80.3607 96.2141H80.3631C81.408 96.2141 82.3797 95.7444 83.0296 94.926C83.3792 94.4856 83.9134 94.2258 84.4759 94.2258H84.4822C85.0471 94.2278 85.5818 94.4865 85.93 94.9309C86.5213 95.6868 86.4378 96.7698 85.7552 97.4172C84.4056 98.9992 82.4545 99.9025 80.3632 99.9025Z" fill="#232323"/>
</g>
<g clip-path="url(#clip1_3464_32755)">
<path d="M320 0H160V160H320V0Z" fill="#63C928"/>
<path d="M287.551 103.873C288.476 102.074 289.08 100.079 289.333 97.9731C294.095 93.1528 296.787 86.6606 296.787 79.8432C296.787 73.0258 294.097 66.5375 289.338 61.7182C289.087 59.6342 288.482 57.6254 287.552 55.8139C281.725 44.4721 272.01 35.6508 260.163 30.933C260.034 30.8695 259.901 30.8109 259.765 30.7582C259.61 30.6977 259.453 30.643 259.271 30.5834C258.554 30.3129 257.829 30.0619 257.093 29.8197L256.831 29.7328C256.611 29.6586 256.392 29.5853 256.162 29.514C255.014 29.1634 253.98 28.8773 252.932 28.6263L252.768 28.5882C252.085 28.4271 251.398 28.2816 250.706 28.1468C250.679 28.1419 250.629 28.1322 250.602 28.1273C250.582 28.1224 250.467 28.1 250.447 28.0961C248.981 27.8207 247.455 27.6029 245.883 27.4467L245.327 27.3979C244.758 27.3471 244.185 27.3081 243.585 27.2749L242.97 27.2427C241.461 27.1782 239.921 27.1792 238.434 27.2417L237.783 27.2759C237.208 27.3081 236.636 27.3472 236.096 27.395L235.485 27.4497C233.939 27.603 232.412 27.8208 230.933 28.0991L230.698 28.145C230.003 28.2788 229.312 28.4272 228.626 28.5874C228.616 28.5903 228.535 28.6089 228.525 28.6118L228.394 28.643C227.398 28.8823 226.362 29.1674 225.222 29.518C225 29.5864 224.78 29.6596 224.56 29.7338L224.305 29.8188C223.571 30.059 222.843 30.312 222.096 30.5913C221.939 30.644 221.783 30.6977 221.629 30.7583C221.494 30.811 221.362 30.8687 221.233 30.9321C214.811 33.4887 209.015 37.2514 204.125 41.9692C203.532 37.6059 199.781 34.2319 195.258 34.2319C190.323 34.2319 186.308 38.2465 186.308 43.1821C186.308 45.6469 187.328 47.9311 189.013 49.5737L187.745 65.2602C184.774 69.5727 183.213 74.5815 183.213 79.8432C183.213 87.4184 186.579 94.6127 192.316 99.4985C192.631 101.045 193.142 102.509 193.841 103.871C195.287 106.685 196.986 109.365 198.918 111.88C192.036 118.962 183.66 131.752 183.756 152.003C183.793 159.741 190.117 166.035 197.919 166.035C198.173 166.034 198.426 166.026 198.678 166.011C199.343 171.357 200.371 176.447 201.749 181.206C203.753 188.124 210.18 192.956 217.377 192.956C218.908 192.956 220.434 192.738 221.911 192.31C228.762 190.326 233.314 184.206 233.642 177.45C234.911 177.577 236.188 177.641 237.468 177.641H243.925C245.206 177.641 246.482 177.577 247.752 177.45C248.079 184.206 252.632 190.326 259.482 192.31C260.961 192.738 262.486 192.956 264.016 192.956C271.214 192.956 277.64 188.124 279.645 181.205C281.027 176.43 282.059 171.326 282.724 165.974C289.854 165.314 295.481 159.3 295.516 152.003C295.607 132.692 287.895 120.164 281.506 113.11C283.838 110.251 285.863 107.16 287.551 103.873Z" fill="white"/>
<path d="M243.925 172.641H237.468C218.083 172.641 202.836 156.077 204.437 136.758L205.447 124.578C206.872 107.394 221.235 94.1724 238.478 94.1724H242.915C260.158 94.1724 274.521 107.394 275.946 124.578L276.956 136.758C278.558 156.077 263.31 172.641 243.925 172.641Z" fill="#63C928"/>
<path d="M260.513 114.876C261.571 114.952 281.55 124.035 281.418 151.937" stroke="#49A50E" stroke-width="18.1951" stroke-linecap="round" stroke-linejoin="round"/>
<path d="M218.759 114.876C217.701 114.952 197.722 124.035 197.854 151.937" stroke="#49A50E" stroke-width="18.1951" stroke-linecap="round" stroke-linejoin="round"/>
<path d="M217.565 121.023C217.565 121.023 209.744 150.305 217.383 176.676" stroke="#63C928" stroke-width="22.5525" stroke-miterlimit="10" stroke-linecap="round"/>
<path d="M263.829 121.023C263.829 121.023 271.65 150.305 264.011 176.676" stroke="#63C928" stroke-width="22.5525" stroke-miterlimit="10" stroke-linecap="round"/>
<path d="M196.056 83.2396H191.308L194.546 43.1821H196.056V83.2396Z" fill="#4EAF0E"/>
<path d="M209.034 100.664C220.533 100.664 229.855 91.3423 229.855 79.8432C229.855 68.3441 220.533 59.0222 209.034 59.0222C197.535 59.0222 188.213 68.3441 188.213 79.8432C188.213 91.3423 197.535 100.664 209.034 100.664Z" fill="#4EAF0E"/>
<path d="M270.966 100.664C282.465 100.664 291.787 91.3423 291.787 79.8432C291.787 68.3441 282.465 59.0222 270.966 59.0222C259.467 59.0222 250.145 68.3441 250.145 79.8432C250.145 91.3423 259.467 100.664 270.966 100.664Z" fill="#4EAF0E"/>
<path d="M284.47 63.9251C284.47 61.9041 284.028 59.8969 283.105 58.0993C275.202 42.716 259.181 32.1892 240.697 32.1892C222.213 32.1892 206.192 42.716 198.289 58.0993C197.366 59.8969 196.924 61.904 196.924 63.925V95.7613C196.924 97.7822 197.366 99.7893 198.289 101.587C206.192 116.97 222.213 127.497 240.697 127.497C259.181 127.497 275.202 116.971 283.105 101.587C284.028 99.7894 284.47 97.7822 284.47 95.7613V63.9251Z" fill="#63C928"/>
<path d="M195.258 47.1316C197.439 47.1316 199.207 45.3633 199.207 43.182C199.207 41.0007 197.439 39.2324 195.258 39.2324C193.076 39.2324 191.308 41.0007 191.308 43.182C191.308 45.3633 193.076 47.1316 195.258 47.1316Z" fill="#4EAF0E"/>
<path d="M257.951 35.4175C252.6 33.3369 246.784 32.1892 240.697 32.1892C234.61 32.1892 228.793 33.3369 223.443 35.4175V66.8367H257.951V35.4175Z" fill="#4EAF0E"/>
<path d="M272.782 79.8433C272.782 97.5634 258.417 111.928 240.697 111.928C222.977 111.928 208.612 97.5633 208.612 79.8433C208.612 62.1233 222.977 56.8223 240.697 56.8223C258.417 56.8223 272.782 62.1232 272.782 79.8433Z" fill="#D8F4C6" stroke="white" stroke-width="4.5214" stroke-miterlimit="10"/>
<path d="M225.319 91.2799C230.863 91.2799 235.358 86.7852 235.358 81.2408C235.358 75.6963 230.863 71.2017 225.319 71.2017C219.774 71.2017 215.28 75.6963 215.28 81.2408C215.28 86.7852 219.774 91.2799 225.319 91.2799Z" fill="white"/>
<path d="M225.319 87.7834C228.932 87.7834 231.862 84.8542 231.862 81.2408C231.862 77.6275 228.932 74.6982 225.319 74.6982C221.706 74.6982 218.776 77.6275 218.776 81.2408C218.776 84.8542 221.706 87.7834 225.319 87.7834Z" fill="#133000"/>
<path opacity="0.13" d="M225.319 81.0548C226.802 81.0548 228.004 80.1132 228.004 78.9517C228.004 77.7902 226.802 76.8486 225.319 76.8486C223.836 76.8486 222.633 77.7902 222.633 78.9517C222.633 80.1132 223.836 81.0548 225.319 81.0548Z" fill="white"/>
<path d="M256.075 91.2799C261.62 91.2799 266.114 86.7852 266.114 81.2408C266.114 75.6963 261.62 71.2017 256.075 71.2017C250.531 71.2017 246.036 75.6963 246.036 81.2408C246.036 86.7852 250.531 91.2799 256.075 91.2799Z" fill="white"/>
<path d="M256.075 87.7834C259.689 87.7834 262.618 84.8542 262.618 81.2408C262.618 77.6275 259.689 74.6982 256.075 74.6982C252.462 74.6982 249.533 77.6275 249.533 81.2408C249.533 84.8542 252.462 87.7834 256.075 87.7834Z" fill="#133000"/>
<path opacity="0.13" d="M256.075 81.0548C257.558 81.0548 258.761 80.1132 258.761 78.9517C258.761 77.7902 257.558 76.8486 256.075 76.8486C254.592 76.8486 253.39 77.7902 253.39 78.9517C253.39 80.1132 254.592 81.0548 256.075 81.0548Z" fill="white"/>
<path d="M236.573 90.2844C238.673 92.9368 242.696 92.9391 244.799 90.2891L244.802 90.2844L244.82 90.3067" stroke="#232323" stroke-width="3.6881" stroke-linecap="round" stroke-linejoin="round"/>
<path d="M237.469 102.963H243.924C245.383 102.963 246.638 103.994 246.922 105.425L247.712 109.414C248.086 111.303 246.64 113.063 244.714 113.063H236.679C234.753 113.063 233.308 111.303 233.682 109.414L234.472 105.425C234.755 103.994 236.01 102.963 237.469 102.963Z" fill="white"/>
</g>
<g clip-path="url(#clip2_3464_32755)">
<path d="M480 0H320V160H480V0Z" fill="#A678FF"/>
<path d="M456.812 55.2016C455.356 50.9526 453.433 46.892 451.067 43.0727C452.768 39.9184 452.287 35.8911 449.627 33.2309L440.776 24.3793C439.204 22.807 437.113 21.9408 434.889 21.9408C433.402 21.9408 431.975 22.3275 430.723 23.0541C426.26 20.3861 421.505 18.3285 416.516 16.9066V16.0921C416.516 11.0316 412.4 6.91528 407.34 6.91528H392.66C387.6 6.91528 383.484 11.0315 383.484 16.0921V16.9066C378.495 18.3285 373.739 20.3861 369.277 23.0541C368.025 22.3275 366.598 21.9408 365.111 21.9408C362.887 21.9408 360.796 22.807 359.224 24.3793L350.373 33.2309C347.713 35.8911 347.233 39.9184 348.934 43.0717C346.568 46.8901 344.644 50.9516 343.188 55.2016C336.644 58.3676 332.406 64.9936 332.406 72.433C332.406 75.7934 335.14 78.5277 338.5 78.5277H340.708V101.722C340.708 108.392 346.135 113.819 352.805 113.819C353.314 113.819 353.822 113.786 354.325 113.723C354.684 114.151 355.052 114.573 355.429 114.989C349.139 122.601 342.977 134.529 343.059 152.003C343.096 159.74 349.42 166.034 357.223 166.034C357.477 166.033 357.729 166.026 357.981 166.011C358.646 171.358 359.674 176.447 361.052 181.205C363.057 188.123 369.483 192.955 376.681 192.955C378.211 192.955 379.737 192.737 381.214 192.31C388.065 190.325 392.618 184.206 392.945 177.448C394.214 177.576 395.491 177.641 396.772 177.641H403.229C404.509 177.641 405.786 177.576 407.055 177.449C407.382 184.205 411.935 190.325 418.785 192.31C420.264 192.738 421.789 192.955 423.319 192.955C430.517 192.955 436.943 188.123 438.948 181.204C440.331 176.43 441.362 171.325 442.027 165.974C449.157 165.314 454.784 159.3 454.819 152.003C454.898 135.324 449.241 123.72 443.423 116.21C444.208 115.404 444.96 114.575 445.675 113.723C446.178 113.786 446.686 113.819 447.195 113.819C453.865 113.819 459.292 108.392 459.292 101.722V78.5276H461.5C464.86 78.5276 467.594 75.7932 467.594 72.4329C467.594 64.9934 463.357 58.3676 456.812 55.2016Z" fill="white"/>
<path d="M419.816 114.876C420.874 114.952 440.854 124.035 440.722 151.937" stroke="#8E67EF" stroke-width="18.1951" stroke-linecap="round" stroke-linejoin="round"/>
<path d="M378.062 114.876C377.004 114.952 357.025 124.035 357.157 151.937" stroke="#8E67EF" stroke-width="18.1951" stroke-linecap="round" stroke-linejoin="round"/>
<path d="M376.868 121.023C376.868 121.023 369.047 150.305 376.686 176.676" stroke="#A678FF" stroke-width="22.5525" stroke-miterlimit="10" stroke-linecap="round"/>
<path d="M423.132 121.023C423.132 121.023 430.953 150.305 423.314 176.676" stroke="#A678FF" stroke-width="22.5525" stroke-miterlimit="10" stroke-linecap="round"/>
<path d="M403.228 172.641H396.772C377.386 172.641 362.139 156.077 363.741 136.758L364.751 124.578C366.175 107.393 380.538 94.1721 397.781 94.1721H402.218C419.462 94.1721 433.825 107.393 435.249 124.578L436.259 136.758C437.861 156.077 422.614 172.641 403.228 172.641Z" fill="#A678FF"/>
<path d="M413.553 136.313H386.447C384.809 136.313 383.481 137.641 383.481 139.28V155.16C383.481 156.798 384.809 158.126 386.447 158.126H413.553C415.191 158.126 416.519 156.798 416.519 155.16V139.28C416.519 137.641 415.191 136.313 413.553 136.313Z" fill="#8E67EF"/>
<path d="M451.198 83.3868C451.198 111.662 428.276 127.497 400 127.497C371.724 127.497 348.802 111.663 348.802 83.3868C348.802 55.111 371.724 32.189 400 32.189C428.276 32.189 451.198 55.111 451.198 83.3868Z" fill="#A678FF"/>
<path d="M345.709 69.6199H359.902V101.722C359.902 105.639 356.722 108.819 352.805 108.819C348.888 108.819 345.708 105.639 345.708 101.722L345.709 69.6199Z" fill="#FFC200"/>
<path d="M440.098 69.6199H454.292V101.722C454.292 105.639 451.112 108.819 447.195 108.819C443.278 108.819 440.098 105.639 440.098 101.722L440.098 69.6199Z" fill="#FFC200"/>
<path d="M353.909 36.7658L362.76 27.9149C364.058 26.6172 366.165 26.6172 367.463 27.9149L370.139 30.5915L356.586 44.1451L353.909 41.4686C352.611 40.1708 352.611 38.0635 353.909 36.7658Z" fill="#FFC200"/>
<path d="M443.415 44.1453L429.861 30.5916L432.538 27.915C433.836 26.6173 435.943 26.6173 437.241 27.915L446.092 36.7659C447.389 38.0636 447.389 40.171 446.092 41.4687L443.415 44.1453Z" fill="#FFC200"/>
<path d="M454.962 71.3252C453.197 42.4684 429.301 19.593 400 19.593C370.7 19.593 346.803 42.4685 345.038 71.3252H454.962Z" fill="#FFDC00"/>
<path d="M409.881 67.7966L424.984 25.8471C417.459 21.981 409.05 19.593 400 19.593C390.951 19.593 382.541 21.981 375.015 25.8471L390.116 67.7914L391.844 70.7844H408.157L409.881 67.7966Z" fill="#FFD400"/>
<path d="M392.66 11.9155H407.34C409.645 11.9155 411.516 13.7867 411.516 16.0916V68.234H388.484V16.0916C388.484 13.7868 390.355 11.9155 392.66 11.9155Z" fill="#FFC200"/>
<path d="M351.563 58.2764H448.438C456.251 58.2764 462.594 64.6199 462.594 72.4333C462.594 73.0376 462.104 73.5282 461.5 73.5282H338.501C337.896 73.5282 337.406 73.0376 337.406 72.4333C337.406 64.6199 343.749 58.2764 351.563 58.2764Z" fill="#FFAA00"/>
<path d="M426.351 65.2227H373.649C369.179 65.2227 365.554 68.847 365.554 73.3179V91.5735C365.554 96.0443 369.179 99.6687 373.649 99.6687H426.351C430.822 99.6687 434.446 96.0443 434.446 91.5735V73.3179C434.446 68.847 430.822 65.2227 426.351 65.2227Z" fill="#F1F1FF" stroke="white" stroke-width="4.5214" stroke-miterlimit="10"/>
<path d="M365.426 93.8075L361.673 92.9646C359.653 92.5108 358.217 90.7168 358.217 88.646V77.1273C358.217 75.0565 359.653 73.2625 361.673 72.8087L365.426 71.9658V93.8075Z" fill="white"/>
<path d="M434.575 71.9658L438.327 72.8087C440.348 73.2625 441.783 75.0565 441.783 77.1273V88.646C441.783 90.7168 440.348 92.5108 438.327 92.9646L434.575 93.8075V71.9658Z" fill="white"/>
<path d="M384.622 92.4847C390.167 92.4847 394.661 87.99 394.661 82.4456C394.661 76.9012 390.167 72.4065 384.622 72.4065C379.078 72.4065 374.583 76.9012 374.583 82.4456C374.583 87.99 379.078 92.4847 384.622 92.4847Z" fill="white"/>
<path d="M384.622 88.9883C388.236 88.9883 391.165 86.0591 391.165 82.4457C391.165 78.8323 388.236 75.9031 384.622 75.9031C381.009 75.9031 378.08 78.8323 378.08 82.4457C378.08 86.0591 381.009 88.9883 384.622 88.9883Z" fill="black"/>
<path opacity="0.13" d="M384.622 82.2597C386.105 82.2597 387.308 81.3181 387.308 80.1566C387.308 78.9951 386.105 78.0535 384.622 78.0535C383.139 78.0535 381.937 78.9951 381.937 80.1566C381.937 81.3181 383.139 82.2597 384.622 82.2597Z" fill="white"/>
<path d="M415.378 92.4847C420.923 92.4847 425.418 87.99 425.418 82.4456C425.418 76.9012 420.923 72.4065 415.378 72.4065C409.834 72.4065 405.339 76.9012 405.339 82.4456C405.339 87.99 409.834 92.4847 415.378 92.4847Z" fill="white"/>
<path d="M415.379 88.9883C418.992 88.9883 421.921 86.0591 421.921 82.4457C421.921 78.8323 418.992 75.9031 415.379 75.9031C411.765 75.9031 408.836 78.8323 408.836 82.4457C408.836 86.0591 411.765 88.9883 415.379 88.9883Z" fill="black"/>
<path opacity="0.13" d="M415.378 82.2597C416.862 82.2597 418.064 81.3181 418.064 80.1566C418.064 78.9951 416.862 78.0535 415.378 78.0535C413.895 78.0535 412.693 78.9951 412.693 80.1566C412.693 81.3181 413.895 82.2597 415.378 82.2597Z" fill="white"/>
</g>
<g clip-path="url(#clip3_3464_32755)">
<path d="M640 0H480V160H640V0Z" fill="#30AD67"/>
<path d="M617.898 59.7279C616.331 58.9164 614.663 58.3129 612.922 57.9222C613.876 56.4144 614.629 54.8079 615.162 53.1263C617.733 45.0238 615.599 36.2591 609.592 30.2523C603.585 24.2445 594.819 22.1087 586.716 24.68C585.035 25.2132 583.429 25.9661 581.921 26.9212C581.53 25.179 580.926 23.511 580.114 21.9456C576.202 14.3987 568.495 9.71021 560 9.71021C551.505 9.71021 543.798 14.3987 539.886 21.9456C539.074 23.511 538.471 25.179 538.079 26.9212C536.571 25.9661 534.964 25.2132 533.283 24.68C525.18 22.1107 516.415 24.2454 510.409 30.2523C504.402 36.2591 502.267 45.0238 504.837 53.1263C505.371 54.8079 506.123 56.4144 507.078 57.9222C505.336 58.3128 503.668 58.9163 502.103 59.7279C494.556 63.64 489.868 71.348 489.868 79.8431C489.868 88.3382 494.556 96.0462 502.102 99.9564C503.668 100.769 505.336 101.372 507.078 101.764C506.123 103.272 505.371 104.878 504.837 106.56C502.624 113.537 503.9 121.004 508.132 126.78C504.721 134.357 503.016 142.825 503.059 152.003C503.096 159.741 509.42 166.034 517.223 166.034C517.476 166.033 517.729 166.026 517.981 166.011C518.646 171.357 519.674 176.447 521.052 181.205C523.057 188.123 529.483 192.955 536.681 192.955C538.211 192.955 539.737 192.737 541.214 192.31C548.065 190.325 552.618 184.205 552.945 177.449C554.214 177.576 555.491 177.641 556.772 177.641H563.229C564.509 177.641 565.786 177.576 567.055 177.449C567.382 184.205 571.935 190.325 578.785 192.31C580.264 192.737 581.789 192.955 583.319 192.955C590.517 192.955 596.943 188.123 598.947 181.205C600.33 176.432 601.361 171.327 602.027 165.974C609.158 165.315 614.785 159.3 614.819 152.003C614.859 143.517 613.402 135.625 610.484 128.49C615.805 122.53 617.602 114.246 615.162 106.56C614.629 104.878 613.876 103.272 612.922 101.764C614.663 101.372 616.331 100.769 617.898 99.9573C625.444 96.0462 630.133 88.3391 630.133 79.843C630.133 71.3469 625.444 63.64 617.898 59.7279Z" fill="white"/>
<path d="M579.816 114.876C580.874 114.952 600.854 124.035 600.722 151.937" stroke="#DADFDC" stroke-width="18.1951" stroke-linecap="round" stroke-linejoin="round"/>
<path d="M538.062 114.876C537.004 114.952 517.025 124.035 517.157 151.937" stroke="#DADFDC" stroke-width="18.1951" stroke-linecap="round" stroke-linejoin="round"/>
<path d="M563.228 172.641H556.772C537.386 172.641 522.139 156.077 523.741 136.758L524.751 124.578C526.175 107.393 540.538 94.1721 557.781 94.1721H562.218C579.462 94.1721 593.825 107.393 595.249 124.578L596.259 136.758C597.861 156.077 582.614 172.641 563.228 172.641Z" fill="#30AD67"/>
<path d="M583.132 121.023C583.132 121.023 590.953 150.305 583.314 176.676" stroke="#30AD67" stroke-width="22.5525" stroke-miterlimit="10" stroke-linecap="round"/>
<path d="M536.868 121.023C536.868 121.023 529.048 150.305 536.686 176.676" stroke="#30AD67" stroke-width="22.5525" stroke-miterlimit="10" stroke-linecap="round"/>
<path d="M579.305 136.379C582.584 136.379 584.967 139.484 584.143 142.658C581.36 153.393 571.606 161.32 560 161.32C548.395 161.32 538.64 153.393 535.857 142.658C535.034 139.484 537.416 136.379 540.695 136.379H579.305Z" fill="#279B56"/>
<path d="M555.686 103.08H564.314C569.682 103.08 574.262 106.962 575.142 112.258L577.182 124.541C577.796 128.242 577.402 132.108 575.675 135.44C572.739 141.105 566.822 144.976 560 144.976C553.179 144.976 547.261 141.105 544.325 135.44C542.598 132.108 542.204 128.242 542.819 124.541L544.859 112.258C545.738 106.962 550.318 103.08 555.686 103.08Z" fill="#FF8022"/>
<path d="M546.62 60.3616L540.518 66.463C536.723 70.2586 530.739 70.752 526.373 67.6296L516.245 60.3866C513.193 58.2038 510.738 55.1916 509.603 51.6148C507.674 45.5326 509.121 38.6112 513.944 33.7877C518.768 28.9642 525.689 27.5171 531.772 29.4465C535.348 30.5811 538.361 33.0361 540.543 36.0883L547.786 46.2161C550.909 50.5822 550.415 56.566 546.62 60.3616Z" fill="#FF8022"/>
<path d="M536.763 75.5288V84.1574C536.763 89.5251 532.881 94.1053 527.586 94.9846L515.303 97.0245C511.601 97.6392 507.735 97.2452 504.404 95.5184C498.739 92.5819 494.868 86.6645 494.868 79.8431C494.868 73.0216 498.739 67.1042 504.404 64.1677C507.735 62.4409 511.601 62.0469 515.303 62.6616L527.586 64.7014C532.881 65.5808 536.763 70.1611 536.763 75.5288Z" fill="#FF8022"/>
<path d="M540.518 93.2233L546.62 99.3247C550.415 103.12 550.909 109.104 547.786 113.47L540.543 123.598C538.361 126.65 535.348 129.105 531.772 130.24C525.689 132.169 518.768 130.722 513.944 125.899C509.121 121.075 507.674 114.154 509.603 108.072C510.738 104.495 513.193 101.483 516.245 99.2998L526.373 92.0568C530.739 88.9343 536.723 89.4277 540.518 93.2233Z" fill="#FF8022"/>
<path d="M573.38 99.3248L579.482 93.2234C583.277 89.4278 589.261 88.9344 593.627 92.0568L603.755 99.2998C606.807 101.483 609.262 104.495 610.397 108.072C612.326 114.154 610.879 121.075 606.056 125.899C601.232 130.722 594.311 132.169 588.229 130.24C584.652 129.105 581.64 126.65 579.457 123.598L572.214 113.47C569.091 109.104 569.585 103.12 573.38 99.3248Z" fill="#FF8022"/>
<path d="M583.237 84.1575V75.5289C583.237 70.1612 587.12 65.5809 592.415 64.7016L604.698 62.6618C608.4 62.0471 612.265 62.4411 615.597 64.1679C621.262 67.1044 625.133 73.0218 625.133 79.8432C625.133 86.6647 621.262 92.5821 615.597 95.5186C612.266 97.2454 608.4 97.6394 604.698 97.0247L592.415 94.9849C587.12 94.1055 583.237 89.5252 583.237 84.1575Z" fill="#FF8022"/>
<path d="M579.482 66.4629L573.38 60.3615C569.585 56.5659 569.091 50.582 572.214 46.2159L579.457 36.0881C581.64 33.0359 584.652 30.5809 588.229 29.4463C594.311 27.5169 601.232 28.9639 606.056 33.7875C610.879 38.611 612.326 45.5324 610.397 51.6146C609.262 55.1913 606.807 58.2036 603.755 60.3864L593.627 67.6294C589.261 70.7519 583.277 70.2585 579.482 66.4629Z" fill="#FF8022"/>
<path d="M564.314 56.6063H555.686C550.318 56.6063 545.738 52.724 544.859 47.4288L542.819 35.1458C542.204 31.4441 542.598 27.5782 544.325 24.2467C547.261 18.5816 553.179 14.7107 560 14.7107C566.822 14.7107 572.739 18.5816 575.675 24.2467C577.402 27.5781 577.796 31.4441 577.182 35.1458L575.142 47.4288C574.262 52.724 569.682 56.6063 564.314 56.6063Z" fill="#FF8022"/>
<path d="M564.015 32.6338C564.015 30.4167 562.217 28.6194 560 28.6194C557.783 28.6194 555.986 30.4167 555.986 32.6338V46.7057C555.986 48.9228 557.783 50.7201 560 50.7201C562.217 50.7201 564.015 48.9228 564.015 46.7057V32.6338Z" fill="#FF7415"/>
<path d="M529.458 43.624C527.89 42.0563 525.348 42.0563 523.781 43.624C522.213 45.1918 522.213 47.7335 523.781 49.3013L533.731 59.2516C535.299 60.8193 537.84 60.8193 539.408 59.2516C540.976 57.6839 540.976 55.1421 539.408 53.5744L529.458 43.624Z" fill="#FF7415"/>
<path d="M512.793 75.8311C510.576 75.8311 508.779 77.6284 508.779 79.8455C508.779 82.0626 510.576 83.8599 512.793 83.8599H526.865C529.082 83.8599 530.88 82.0626 530.88 79.8455C530.88 77.6284 529.082 75.8311 526.865 75.8311H512.793Z" fill="#FF7415"/>
<path d="M523.783 110.388C522.216 111.956 522.216 114.497 523.783 116.065C525.351 117.633 527.893 117.633 529.461 116.065L539.411 106.115C540.979 104.547 540.979 102.005 539.411 100.438C537.843 98.8699 535.302 98.8699 533.734 100.438L523.783 110.388Z" fill="#FF7415"/>
<path d="M555.99 127.052C555.99 129.27 557.788 131.067 560.005 131.067C562.222 131.067 564.019 129.27 564.019 127.052V112.981C564.019 110.764 562.222 108.966 560.005 108.966C557.788 108.966 555.99 110.764 555.99 112.981V127.052Z" fill="#FF7415"/>
<path d="M590.548 116.062C592.115 117.63 594.657 117.63 596.225 116.062C597.793 114.494 597.793 111.952 596.225 110.385L586.275 100.434C584.707 98.8667 582.165 98.8667 580.597 100.434C579.03 102.002 579.03 104.544 580.597 106.112L590.548 116.062Z" fill="#FF7415"/>
<path d="M607.212 83.8552C609.429 83.8552 611.226 82.0579 611.226 79.8408C611.226 77.6237 609.429 75.8264 607.212 75.8264H593.14C590.923 75.8264 589.125 77.6237 589.125 79.8408C589.125 82.0579 590.923 83.8552 593.14 83.8552H607.212Z" fill="#FF7415"/>
<path d="M596.221 49.2981C597.789 47.7303 597.789 45.1886 596.221 43.6208C594.654 42.0531 592.112 42.0531 590.544 43.6208L580.594 53.5712C579.026 55.1389 579.026 57.6807 580.594 59.2484C582.162 60.8161 584.703 60.8161 586.271 59.2484L596.221 49.2981Z" fill="#FF7415"/>
<path d="M592.578 84.885C592.219 101.021 577.342 113.777 559.351 113.376C541.36 112.975 527.067 99.5696 527.427 83.4337C527.786 67.2978 542.662 45.9058 560.653 46.3066C578.644 46.7074 592.937 68.7491 592.578 84.885Z" fill="#F8C202" stroke="#FFD345" stroke-width="4.5212" stroke-miterlimit="10"/>
<path d="M544.622 90.7821C550.167 90.7821 554.661 86.2874 554.661 80.743C554.661 75.1985 550.167 70.7039 544.622 70.7039C539.078 70.7039 534.583 75.1985 534.583 80.743C534.583 86.2874 539.078 90.7821 544.622 90.7821Z" fill="white"/>
<path d="M544.622 87.2856C548.236 87.2856 551.165 84.3564 551.165 80.743C551.165 77.1297 548.236 74.2004 544.622 74.2004C541.009 74.2004 538.08 77.1297 538.08 80.743C538.08 84.3564 541.009 87.2856 544.622 87.2856Z" fill="black"/>
<path opacity="0.13" d="M544.622 80.557C546.105 80.557 547.308 79.6154 547.308 78.4539C547.308 77.2924 546.105 76.3508 544.622 76.3508C543.139 76.3508 541.937 77.2924 541.937 78.4539C541.937 79.6154 543.139 80.557 544.622 80.557Z" fill="white"/>
<path d="M575.378 90.7821C580.923 90.7821 585.418 86.2874 585.418 80.743C585.418 75.1985 580.923 70.7039 575.378 70.7039C569.834 70.7039 565.339 75.1985 565.339 80.743C565.339 86.2874 569.834 90.7821 575.378 90.7821Z" fill="white"/>
<path d="M575.379 87.2856C578.992 87.2856 581.921 84.3564 581.921 80.743C581.921 77.1297 578.992 74.2004 575.379 74.2004C571.765 74.2004 568.836 77.1297 568.836 80.743C568.836 84.3564 571.765 87.2856 575.379 87.2856Z" fill="black"/>
<path opacity="0.13" d="M575.378 80.557C576.862 80.557 578.064 79.6154 578.064 78.4539C578.064 77.2924 576.862 76.3508 575.378 76.3508C573.895 76.3508 572.693 77.2924 572.693 78.4539C572.693 79.6154 573.895 80.557 575.378 80.557Z" fill="white"/>
<path d="M555.877 89.7869C557.976 92.4393 562 92.4416 564.102 89.7916L564.106 89.7869L564.124 89.8092" stroke="#602B00" stroke-width="3.6881" stroke-linecap="round" stroke-linejoin="round"/>
</g>
<g clip-path="url(#clip4_3464_32755)">
<path d="M800 0H640V160H800V0Z" fill="#FDC703"/>
<path d="M783.621 80.935C783.522 80.4418 783.395 79.9604 783.245 79.5073L768.948 36.3872C767.328 31.4976 763.197 27.7642 758.165 26.645L753.037 25.5054C733.148 12.1861 706.849 12.188 686.963 25.5054L681.833 26.645C676.804 27.7641 672.673 31.4966 671.051 36.3862L656.761 79.4897C656.605 79.9526 656.48 80.4252 656.379 80.935C655.486 85.1323 656.668 89.4916 659.546 92.6088C660.487 93.6274 661.405 94.6859 662.278 95.7572C662.316 95.807 662.354 95.8568 662.393 95.9056C663.785 97.6224 664.984 99.2943 665.953 100.868L666.067 101.056C666.187 101.253 666.301 101.445 666.409 101.629C665.448 102.463 664.664 103.514 664.137 104.73C662.76 107.903 663.396 111.584 665.76 114.111L669.023 117.601C669.023 117.626 669.022 117.653 669.022 117.678C669.007 119.525 669.325 121.354 669.957 123.086C665.327 131.544 663.008 141.258 663.059 152.003C663.095 159.74 669.419 166.034 677.222 166.034C677.476 166.033 677.728 166.026 677.98 166.011C678.119 167.12 678.27 168.233 678.446 169.349C678.45 169.383 678.455 169.416 678.46 169.443C678.636 170.569 678.846 171.756 679.101 173.066L679.262 173.859C679.454 174.806 679.662 175.754 679.885 176.701L680.105 177.632C680.439 178.993 680.74 180.128 681.051 181.202C681.245 181.874 681.496 182.554 681.817 183.278C684.421 189.157 690.255 192.955 696.68 192.955C697.007 192.955 697.334 192.943 697.674 192.922C698.878 192.847 700.069 192.641 701.214 192.31C708.055 190.328 712.604 184.223 712.931 177.438C713.157 177.46 713.384 177.482 713.611 177.5L714.049 177.535C715.029 177.607 715.92 177.641 716.771 177.641H723.228C724.079 177.641 724.97 177.607 725.939 177.535L726.414 177.498C726.625 177.481 726.836 177.461 727.047 177.441C727.16 179.896 727.836 182.313 729.056 184.529C731.154 188.337 734.609 191.101 738.783 192.309C739.955 192.649 741.177 192.857 742.414 192.926C742.717 192.943 743.019 192.955 743.32 192.955C750.522 192.955 756.949 188.121 758.966 181.143C758.971 181.125 758.976 181.1 758.983 181.075C759.288 180.016 759.59 178.873 759.906 177.582C759.992 177.228 760.075 176.874 760.157 176.521C760.378 175.57 760.585 174.618 760.775 173.67L760.945 172.841C761.173 171.657 761.377 170.471 761.561 169.294L761.688 168.426C761.809 167.606 761.921 166.786 762.021 165.975C769.153 165.316 774.783 159.301 774.818 152.003C774.865 142.199 772.931 133.231 769.062 125.294C770.334 122.979 771.001 120.366 770.977 117.68C770.977 117.653 770.976 117.627 770.976 117.602L774.239 114.112C776.603 111.585 777.239 107.904 775.863 104.73C775.336 103.514 774.552 102.463 773.59 101.629C773.698 101.445 773.811 101.256 773.928 101.062L774.041 100.877C775.014 99.2981 776.213 97.6252 777.606 95.9055C777.646 95.8557 777.685 95.8059 777.723 95.7551C778.586 94.6946 779.505 93.6369 780.454 92.6076C783.331 89.4914 784.513 85.1313 783.621 80.935Z" fill="white"/>
<path d="M698.062 114.876C697.004 114.952 677.024 124.034 677.156 151.937" stroke="#FFE4A1" stroke-width="18.1951" stroke-linecap="round" stroke-linejoin="round"/>
<path d="M682.695 104.506H672.098C668.88 104.506 667.214 108.346 669.412 110.696L677.383 119.22C679.313 121.283 682.753 120.491 683.585 117.79L686.21 109.266C686.939 106.901 685.17 104.506 682.695 104.506Z" fill="#FDC703"/>
<path d="M757.305 104.506H767.902C771.12 104.506 772.786 108.346 770.588 110.696L762.616 119.22C760.686 121.283 757.247 120.491 756.415 117.79L753.79 109.266C753.061 106.901 754.829 104.506 757.305 104.506Z" fill="#FDC703"/>
<path d="M739.816 114.876C740.874 114.952 760.853 124.034 760.721 151.937" stroke="#FFE4A1" stroke-width="18.1951" stroke-linecap="round" stroke-linejoin="round"/>
<path d="M696.868 121.022C696.868 121.022 689.047 150.304 696.686 176.676" stroke="#FFEBB3" stroke-width="22.5525" stroke-miterlimit="10" stroke-linecap="round"/>
<path d="M743.132 121.022C743.132 121.022 750.952 150.304 743.314 176.676" stroke="#FFEBB3" stroke-width="22.5525" stroke-miterlimit="10" stroke-linecap="round"/>
<path d="M723.228 172.641H716.771C697.386 172.641 682.138 156.077 683.74 136.758L684.75 124.577C686.175 107.393 700.538 94.1719 717.781 94.1719H722.218C739.461 94.1719 753.824 107.393 755.249 124.577L756.259 136.758C757.861 156.077 742.613 172.641 723.228 172.641Z" fill="#FFEBB3"/>
<path d="M771.197 83.3865C771.197 111.662 748.275 127.497 720 127.497C691.724 127.497 668.802 111.662 668.802 83.3865C668.802 55.1107 691.724 32.1887 720 32.1887C748.275 32.1887 771.197 55.1107 771.197 83.3865Z" fill="#FDC703"/>
<path d="M675.797 37.9598L661.501 81.0801C660.563 83.9081 661.198 87.0271 663.219 89.2162C667.24 93.5716 673.534 101.405 673.833 108.036C674.011 111.982 674.045 115.24 674.023 117.722C673.99 121.328 675.792 124.663 678.798 126.655L684.996 130.763C686.704 131.895 688.986 130.67 688.986 128.621V30.178L682.919 31.5264C679.578 32.2688 676.874 34.7119 675.797 37.9598Z" fill="#FFB806"/>
<path d="M764.203 37.9598L778.499 81.0801C779.437 83.9081 778.802 87.0271 776.781 89.2162C772.76 93.5716 766.465 101.405 766.167 108.036C765.989 111.982 765.955 115.24 765.977 117.722C766.009 121.328 764.208 124.663 761.202 126.655L755.004 130.763C753.295 131.895 751.014 130.67 751.014 128.621V30.178L757.081 31.5264C760.421 32.2688 763.126 34.7119 764.203 37.9598Z" fill="#FFB806"/>
<path d="M751.014 67.0655H688.985V30.1779C707.632 17.2223 732.367 17.2223 751.014 30.1779L751.014 67.0655Z" fill="#FDC703"/>
<path d="M703.431 23.0845C700.835 23.9156 698.291 24.9441 695.815 26.1758V66.9235H703.431V23.0845Z" fill="#FFB806"/>
<path d="M717.016 20.6846C714.458 20.8253 711.922 21.1361 709.4 21.6378V66.9234H717.016V20.6846Z" fill="#FFB806"/>
<path d="M730.6 21.6378C728.078 21.1361 725.542 20.8253 722.984 20.6846V66.9234H730.6V21.6378Z" fill="#FFB806"/>
<path d="M736.569 23.0845V66.9234H744.184V26.1754C741.709 24.9438 739.165 23.9155 736.569 23.0845Z" fill="#FFB806"/>
<path d="M778.498 81.0798L777.105 76.8784H751.014V84.4942H778.816C778.926 83.3582 778.87 82.2003 778.498 81.0798Z" fill="#FFB000"/>
<path d="M751.014 60.9985V68.6142H774.366L771.841 60.9985H751.014Z" fill="#FFB000"/>
<path d="M751.014 92.7583V100.374H768.568C770.001 97.649 771.885 95.023 773.72 92.7583H751.014Z" fill="#FFB000"/>
<path d="M751.014 116.254H765.983C765.982 114.132 766.022 111.63 766.147 108.639H751.014V116.254Z" fill="#FFB000"/>
<path d="M673.424 45.1182L670.898 52.734H688.986V45.1182H673.424Z" fill="#FFB000"/>
<path d="M751.014 45.1182V52.734H769.1L766.576 45.1182H751.014Z" fill="#FFB000"/>
<path d="M668.158 60.9985L665.633 68.6142H688.986V60.9985H668.158Z" fill="#FFB000"/>
<path d="M674.016 116.254H688.985V108.639H673.852C673.977 111.63 674.016 114.132 674.016 116.254Z" fill="#FFB000"/>
<path d="M662.893 76.8784L661.5 81.0798C661.129 82.2003 661.073 83.3582 661.183 84.4942H688.985V76.8784H662.893Z" fill="#FFB000"/>
<path d="M666.279 92.7583C668.114 95.023 669.998 97.649 671.431 100.374H688.985V92.7583H666.279Z" fill="#FFB000"/>
<path d="M688.766 84.4942C688.766 89.4711 688.699 93.5057 683.722 93.5057C678.746 93.5057 674.711 89.4711 674.711 84.4942C674.711 79.5173 678.746 75.4827 683.722 75.4827C688.699 75.4827 688.766 79.5173 688.766 84.4942Z" fill="#F78C2C"/>
<path d="M751.233 84.4942C751.233 89.4711 751.3 93.5057 756.277 93.5057C761.253 93.5057 765.288 89.4711 765.288 84.4942C765.288 79.5173 761.253 75.4827 756.277 75.4827C751.3 75.4827 751.233 79.5173 751.233 84.4942Z" fill="#F78C2C"/>
<path d="M757.193 87.8417C757.193 108.383 740.541 113.851 720 113.851C699.458 113.851 682.806 108.383 682.806 87.8417C682.806 67.3003 699.458 60.196 720 60.196C740.541 60.196 757.193 67.3004 757.193 87.8417Z" fill="#FFEBB3"/>
<path d="M715.876 96.0674C717.976 98.7198 721.999 98.7221 724.102 96.0721L724.106 96.0674L724.123 96.0897" stroke="#232323" stroke-width="3.6881" stroke-linecap="round" stroke-linejoin="round"/>
<path d="M682.074 150.674C682.059 159.804 682.993 169.933 685.855 179.813C687.281 184.746 691.79 187.956 696.679 187.956C697.72 187.956 698.772 187.807 699.823 187.505C705.803 185.776 709.25 179.521 707.515 173.536C707.284 172.739 707.107 171.931 706.908 171.127C710.02 172.096 713.326 172.641 716.771 172.641H723.228C726.674 172.641 729.979 172.095 733.092 171.126C732.893 171.93 732.716 172.739 732.485 173.536C730.75 179.521 734.197 185.776 740.177 187.505C741.228 187.807 742.28 187.956 743.32 187.956C748.21 187.956 752.719 184.746 754.145 179.813C757.104 169.598 758.007 159.114 757.926 149.746L716.22 157.33L682.074 150.674Z" fill="white"/>
<path d="M757.885 154.008C757.966 150.718 757.916 147.544 757.773 144.52C757.459 144.587 757.142 144.598 756.838 144.734C733.388 155.471 706.623 155.471 683.162 144.734C682.857 144.597 682.541 144.586 682.227 144.519C682.084 147.543 682.033 150.718 682.114 154.008C694.234 159.135 706.945 161.841 719.997 161.841C733.049 161.841 745.765 159.135 757.885 154.008Z" fill="#FFF8E6"/>
<path d="M724.095 59.6947H715.905L710.567 43.1135H729.432L724.095 59.6947Z" fill="#E27123"/>
<path d="M730.615 43.9194C730.615 48.7625 725.862 52.6886 720 52.6886C714.137 52.6886 709.384 48.7625 709.384 43.9194C709.384 39.0763 714.137 37.2297 720 37.2297C725.862 37.2297 730.615 39.0763 730.615 43.9194Z" fill="#F78839"/>
<path d="M720 49.9423C715.927 49.9423 712.303 48.4612 709.773 46.147C710.972 49.9045 715.075 52.6888 720 52.6888C724.924 52.6888 729.028 49.9045 730.227 46.147C727.696 48.4612 724.072 49.9423 720 49.9423Z" fill="#D1651C"/>
<path d="M757.193 87.8417C757.193 108.383 740.541 113.851 720 113.851C699.458 113.851 682.806 108.383 682.806 87.8417C682.806 67.3003 699.458 60.196 720 60.196C740.541 60.196 757.193 67.3004 757.193 87.8417Z" stroke="#F78C2C" stroke-width="4.5212" stroke-miterlimit="10"/>
<path d="M717.793 37.9886C717.793 37.1197 717.089 36.4153 716.22 36.4153C715.351 36.4153 714.647 37.1197 714.647 37.9886V39.8141C714.647 40.683 715.351 41.3874 716.22 41.3874C717.089 41.3874 717.793 40.683 717.793 39.8141V37.9886Z" fill="#D1651C"/>
<path d="M725.353 37.9886C725.353 37.1197 724.648 36.4153 723.779 36.4153C722.91 36.4153 722.206 37.1197 722.206 37.9886V39.8141C722.206 40.683 722.91 41.3874 723.779 41.3874C724.648 41.3874 725.353 40.683 725.353 39.8141V37.9886Z" fill="#D1651C"/>
<path d="M695.459 99.6786C698.859 99.6786 701.616 97.8797 701.616 95.6607C701.616 93.4417 698.859 91.6428 695.459 91.6428C692.059 91.6428 689.303 93.4417 689.303 95.6607C689.303 97.8797 692.059 99.6786 695.459 99.6786Z" fill="#FFCEA9"/>
<path d="M744.541 99.6786C747.941 99.6786 750.697 97.8797 750.697 95.6607C750.697 93.4417 747.941 91.6428 744.541 91.6428C741.141 91.6428 738.384 93.4417 738.384 95.6607C738.384 97.8797 741.141 99.6786 744.541 99.6786Z" fill="#FFCEA9"/>
<path d="M704.622 97.0626C710.166 97.0626 714.661 92.5679 714.661 87.0235C714.661 81.479 710.166 76.9844 704.622 76.9844C699.077 76.9844 694.583 81.479 694.583 87.0235C694.583 92.5679 699.077 97.0626 704.622 97.0626Z" fill="white"/>
<path d="M704.622 93.5662C708.235 93.5662 711.164 90.6369 711.164 87.0236C711.164 83.4102 708.235 80.481 704.622 80.481C701.008 80.481 698.079 83.4102 698.079 87.0236C698.079 90.6369 701.008 93.5662 704.622 93.5662Z" fill="black"/>
<path opacity="0.13" d="M704.622 86.8375C706.105 86.8375 707.307 85.896 707.307 84.7344C707.307 83.5729 706.105 82.6313 704.622 82.6313C703.138 82.6313 701.936 83.5729 701.936 84.7344C701.936 85.896 703.138 86.8375 704.622 86.8375Z" fill="white"/>
<path d="M735.378 97.0626C740.922 97.0626 745.417 92.5679 745.417 87.0235C745.417 81.479 740.922 76.9844 735.378 76.9844C729.834 76.9844 725.339 81.479 725.339 87.0235C725.339 92.5679 729.834 97.0626 735.378 97.0626Z" fill="white"/>
<path d="M735.378 93.5662C738.991 93.5662 741.921 90.6369 741.921 87.0236C741.921 83.4102 738.991 80.481 735.378 80.481C731.765 80.481 728.835 83.4102 728.835 87.0236C728.835 90.6369 731.765 93.5662 735.378 93.5662Z" fill="black"/>
<path opacity="0.13" d="M735.378 86.8375C736.861 86.8375 738.063 85.896 738.063 84.7344C738.063 83.5729 736.861 82.6313 735.378 82.6313C733.895 82.6313 732.692 83.5729 732.692 84.7344C732.692 85.896 733.895 86.8375 735.378 86.8375Z" fill="white"/>
<path d="M687.245 153.358C688.215 153.358 689.002 152.571 689.002 151.601C689.002 150.631 688.215 149.844 687.245 149.844C686.275 149.844 685.488 150.631 685.488 151.601C685.488 152.571 686.275 153.358 687.245 153.358Z" fill="#FFDF8F"/>
<path d="M692.941 154.992C693.911 154.992 694.698 154.206 694.698 153.236C694.698 152.265 693.911 151.479 692.941 151.479C691.971 151.479 691.184 152.265 691.184 153.236C691.184 154.206 691.971 154.992 692.941 154.992Z" fill="#FFDF8F"/>
<path d="M698.918 156.236C699.889 156.236 700.675 155.449 700.675 154.479C700.675 153.509 699.889 152.722 698.918 152.722C697.948 152.722 697.162 153.509 697.162 154.479C697.162 155.449 697.948 156.236 698.918 156.236Z" fill="#FFDF8F"/>
<path d="M752.755 153.358C753.725 153.358 754.512 152.571 754.512 151.601C754.512 150.631 753.725 149.844 752.755 149.844C751.785 149.844 750.998 150.631 750.998 151.601C750.998 152.571 751.785 153.358 752.755 153.358Z" fill="#FFDF8F"/>
<path d="M747.06 154.992C748.03 154.992 748.816 154.206 748.816 153.236C748.816 152.265 748.03 151.479 747.06 151.479C746.089 151.479 745.303 152.265 745.303 153.236C745.303 154.206 746.089 154.992 747.06 154.992Z" fill="#FFDF8F"/>
<path d="M741.082 156.236C742.052 156.236 742.838 155.449 742.838 154.479C742.838 153.509 742.052 152.722 741.082 152.722C740.111 152.722 739.325 153.509 739.325 154.479C739.325 155.449 740.111 156.236 741.082 156.236Z" fill="#FFDF8F"/>
<path d="M720 131.944C717.72 131.944 715.714 130.437 715.081 128.246L710.512 112.447H729.487L724.918 128.246C724.285 130.437 722.28 131.944 720 131.944Z" fill="#F78C2C"/>
<path d="M725.217 127.215L726.14 124.021H713.859L714.783 127.215H725.217Z" fill="#EF7F25"/>
<path d="M711.88 117.176L712.803 120.37H727.196L728.12 117.176H711.88Z" fill="#EF7F25"/>
</g>
<g clip-path="url(#clip5_3464_32755)">
<path d="M960 0H800V160H960V0Z" fill="#121B42"/>
<path d="M930.556 115.278V106.548C930.903 105.915 931.232 105.28 931.543 104.642C939.196 102.306 944.575 95.1741 944.575 87.0247C944.575 82.8362 943.166 78.8627 940.655 75.6684L941.11 75.2181C942.362 73.9798 943.166 72.3333 943.374 70.5843L945.999 48.473C946.413 44.9925 944.525 41.7318 941.3 40.3587C938.081 38.9866 934.423 39.8841 932.202 42.5911C931.508 43.4349 930.792 44.3089 930.069 45.1878C928.654 43.9817 926.906 43.1448 924.962 42.8167L918.767 41.7679C914.85 35.2005 907.904 29.8704 899.092 26.6634V25.6839C899.092 22.971 897.735 20.4651 895.465 18.9818L891.008 16.0677C890.959 15.7513 890.888 15.4339 890.797 15.1116C890.76 14.9554 890.716 14.8001 890.665 14.6477C890.537 14.2678 890.378 13.8938 890.193 13.5344C890.176 13.5032 890.16 13.4709 890.143 13.4397C889.623 12.467 888.924 11.6272 888.062 10.9417C887.985 10.8782 887.897 10.8089 887.814 10.7474C887.619 10.6029 887.414 10.471 887.117 10.2943C886.92 10.18 886.719 10.0707 886.478 9.95645C886.288 9.86755 886.094 9.78555 885.963 9.73675C885.669 9.62245 885.366 9.52875 885.07 9.45355C884.902 9.40765 884.733 9.36765 884.552 9.33345C884.046 9.23965 883.567 9.19385 883.088 9.19385H876.912C876.433 9.19385 875.954 9.23975 875.439 9.33545C875.263 9.36865 875.089 9.40965 874.945 9.44975C874.641 9.52685 874.341 9.61965 874.08 9.72025C873.884 9.79445 873.689 9.87745 873.529 9.95365C873.292 10.064 873.065 10.187 872.81 10.3384C872.608 10.4575 872.409 10.5835 872.277 10.6802C872.145 10.773 872.019 10.8716 871.896 10.9761C871.051 11.6548 870.365 12.4859 869.854 13.4458C869.837 13.4761 869.823 13.5054 869.807 13.5347C869.621 13.898 869.46 14.2759 869.333 14.6577C869.288 14.7905 869.25 14.9272 869.216 15.0659C869.118 15.4038 869.043 15.7368 868.992 16.0679L864.535 18.982C862.264 20.4664 860.909 22.9722 860.909 25.6841V26.6636C852.096 29.8706 845.149 35.2007 841.233 41.7681L835.04 42.8169C833.094 43.145 831.346 43.9819 829.93 45.189C829.208 44.3091 828.492 43.4351 827.799 42.5913C825.577 39.8833 821.919 38.9858 818.7 40.3589C815.475 41.7319 813.587 44.9927 814.001 48.4722L816.625 70.5767C816.831 72.3287 817.635 73.9761 818.891 75.2183L819.345 75.6685C816.834 78.8628 815.425 82.8365 815.425 87.0249C815.425 92.6948 818.027 97.9419 822.32 101.384L819.097 109.487C818.357 111.348 818.799 113.472 820.222 114.884L823.262 117.9V121.769C823.262 123.019 823.648 124.181 824.311 125.141V138.801C823.458 143.045 823.036 147.484 823.059 152.004C823.069 153.979 823.498 155.932 824.311 157.73V186.615C824.311 189.881 826.969 192.54 830.236 192.54H833.192C836.458 192.54 839.117 189.881 839.117 186.615V174.071L839.349 174.314C839.841 176.685 840.412 178.998 841.052 181.207C843.057 188.125 849.484 192.957 856.681 192.957C858.212 192.957 859.738 192.739 861.213 192.311C866.721 190.717 870.882 186.308 872.365 180.982L877.255 184.192C878.921 185.286 881.077 185.287 882.743 184.192L887.633 180.982C889.116 186.309 893.277 190.717 898.783 192.31C900.262 192.739 901.787 192.957 903.319 192.957C909.196 192.957 914.446 189.865 917.319 184.977C936.574 183.984 951.934 168.007 951.934 148.508C951.934 134.088 943.48 121.156 930.556 115.278Z" fill="white"/>
<path d="M886.097 17.2029C886.097 15.5412 884.75 14.1941 883.088 14.1941H876.912C875.25 14.1941 873.903 15.5412 873.903 17.2029C873.903 18.2185 873.391 19.1655 872.541 19.7213L867.272 23.1662C866.421 23.7219 865.909 24.669 865.909 25.6846V50.1855H894.091V25.6846C894.091 24.669 893.579 23.722 892.729 23.1662L887.459 19.7213C886.609 19.1656 886.097 18.2185 886.097 17.2029Z" fill="#C90D16"/>
<path d="M885.928 16.2477C885.527 15.0572 884.414 14.1941 883.088 14.1941H876.912C875.586 14.1941 874.474 15.0573 874.073 16.2478V36.5394C874.073 37.9743 875.236 39.1374 876.671 39.1374H883.329C884.764 39.1374 885.927 37.9742 885.927 36.5394L885.928 16.2477Z" fill="#F11C1E"/>
<path d="M925.18 58.9524C926.939 56.8762 931.942 50.7915 936.067 45.7625C937.85 43.5881 941.366 45.0899 941.034 47.8826L938.409 69.9944C938.334 70.627 938.047 71.2154 937.594 71.6634L928.533 80.6258C926.714 82.4254 923.631 81.0594 923.742 78.5028L924.519 60.6455C924.546 60.021 924.776 59.4294 925.18 58.9524Z" fill="#6B8187"/>
<path d="M834.82 58.9524C833.062 56.8762 828.059 50.7915 823.934 45.7625C822.15 43.5881 818.635 45.0899 818.966 47.8826L821.591 69.9944C821.666 70.627 821.954 71.2154 822.407 71.6634L831.468 80.6258C833.287 82.4254 836.369 81.0594 836.258 78.5028L835.482 60.6455C835.454 60.021 835.224 59.4294 834.82 58.9524Z" fill="#6B8187"/>
<path d="M875.109 90.1169H834.444V146.246H875.109V90.1169Z" fill="#FDC703"/>
<path d="M925.557 90.1169H884.891V146.246H925.557V90.1169Z" fill="#FDC703"/>
<path d="M899.816 114.877C900.874 114.953 920.853 124.035 920.721 151.938" stroke="#FFE6C5" stroke-width="18.1951" stroke-linecap="round" stroke-linejoin="round"/>
<path d="M858.062 114.877C857.004 114.953 837.025 124.035 837.157 151.938" stroke="#FFE6C5" stroke-width="18.1951" stroke-linecap="round" stroke-linejoin="round"/>
<path d="M856.868 121.023C856.868 121.023 849.048 150.305 856.686 176.677" stroke="#FFE6C5" stroke-width="22.5525" stroke-miterlimit="10" stroke-linecap="round"/>
<path d="M903.132 121.023C903.132 121.023 910.953 150.305 903.314 176.677" stroke="#FFE6C5" stroke-width="22.5525" stroke-miterlimit="10" stroke-linecap="round"/>
<path d="M883.229 172.642H876.772C857.387 172.642 842.139 156.078 843.741 136.759L844.751 124.578C846.176 107.394 860.538 94.1729 877.782 94.1729H882.219C899.462 94.1729 913.825 107.394 915.25 124.578L916.259 136.759C917.861 156.078 902.614 172.642 883.229 172.642Z" fill="#E1ECF2" stroke="#BCD5DD" stroke-width="3" stroke-miterlimit="10"/>
<path d="M931.198 83.3875C931.198 111.663 908.276 127.498 880 127.498C851.724 127.498 828.802 111.663 828.802 83.3875C828.802 55.1117 851.724 32.1897 880 32.1897C908.276 32.1897 931.198 55.1117 931.198 83.3875Z" fill="#AFC1C9"/>
<path d="M917.194 92.6167C917.194 113.158 900.542 118.626 880 118.626C859.459 118.626 842.807 113.158 842.807 92.6167C842.807 72.0753 859.459 55.4233 880 55.4233C900.542 55.4233 917.194 72.0754 917.194 92.6167Z" fill="#FFE6C5"/>
<path d="M864.622 97.0638C870.167 97.0638 874.661 92.5691 874.661 87.0247C874.661 81.4802 870.167 76.9856 864.622 76.9856C859.078 76.9856 854.583 81.4802 854.583 87.0247C854.583 92.5691 859.078 97.0638 864.622 97.0638Z" fill="white"/>
<path d="M864.622 93.5674C868.236 93.5674 871.165 90.6382 871.165 87.0248C871.165 83.4114 868.236 80.4822 864.622 80.4822C861.009 80.4822 858.08 83.4114 858.08 87.0248C858.08 90.6382 861.009 93.5674 864.622 93.5674Z" fill="#0D3442"/>
<path opacity="0.13" d="M864.622 86.8388C866.105 86.8388 867.308 85.8972 867.308 84.7357C867.308 83.5742 866.105 82.6326 864.622 82.6326C863.139 82.6326 861.937 83.5742 861.937 84.7357C861.937 85.8972 863.139 86.8388 864.622 86.8388Z" fill="white"/>
<path d="M895.378 97.0638C900.923 97.0638 905.417 92.5691 905.417 87.0247C905.417 81.4802 900.923 76.9856 895.378 76.9856C889.834 76.9856 885.339 81.4802 885.339 87.0247C885.339 92.5691 889.834 97.0638 895.378 97.0638Z" fill="white"/>
<path d="M895.378 93.5674C898.992 93.5674 901.921 90.6382 901.921 87.0248C901.921 83.4114 898.992 80.4822 895.378 80.4822C891.765 80.4822 888.836 83.4114 888.836 87.0248C888.836 90.6382 891.765 93.5674 895.378 93.5674Z" fill="#0D3442"/>
<path opacity="0.13" d="M895.378 86.8388C896.862 86.8388 898.064 85.8972 898.064 84.7357C898.064 83.5742 896.862 82.6326 895.378 82.6326C893.895 82.6326 892.693 83.5742 892.693 84.7357C892.693 85.8972 893.895 86.8388 895.378 86.8388Z" fill="white"/>
<path d="M875.877 96.0684C877.976 98.7208 882 98.7231 884.102 96.0731L884.106 96.0684L884.124 96.0907" stroke="#232323" stroke-width="3.6881" stroke-linecap="round" stroke-linejoin="round"/>
<path d="M917.272 54.1191C917.272 68.3265 900.585 65.7301 880 65.7301C859.415 65.7301 842.728 68.3266 842.728 54.1191C842.728 39.9116 859.415 28.3943 880 28.3943C900.585 28.3943 917.272 39.9117 917.272 54.1191Z" fill="#6B8187"/>
<path d="M924.875 71.9186H835.125C831.771 71.9186 829.179 68.9739 829.604 65.6469L831.281 52.5284C831.592 50.097 833.457 48.1552 835.874 47.7461L879.072 40.4354C879.686 40.3314 880.314 40.3314 880.929 40.4354L924.127 47.7461C926.544 48.1551 928.409 50.097 928.72 52.5284L930.396 65.6469C930.822 68.974 928.23 71.9186 924.875 71.9186Z" fill="#7A9199"/>
<path d="M870.467 175.023L859.587 179.037L851.578 170.65L856.723 148.432L875.612 152.805L870.467 175.023Z" fill="#678991"/>
<path d="M853.734 169.801L845.022 173.015L838.609 166.299L842.729 148.509L857.854 152.011L853.734 169.801Z" fill="#7C9BA5"/>
<path d="M889.533 175.023L900.414 179.037L908.422 170.65L903.278 148.432L884.389 152.805L889.533 175.023Z" fill="#678991"/>
<path d="M906.266 169.801L914.978 173.015L921.392 166.299L917.272 148.509L902.147 152.011L906.266 169.801Z" fill="#7C9BA5"/>
<path d="M889.695 173.648L880 180.012L870.306 173.648V150.843H889.695V173.648Z" fill="#7C9BA5"/>
<path d="M916.972 144.34H843.028C841.95 144.34 841.075 145.214 841.075 146.293V151.035C841.075 152.113 841.95 152.988 843.028 152.988H916.972C918.051 152.988 918.925 152.113 918.925 151.035V146.293C918.925 145.214 918.051 144.34 916.972 144.34Z" fill="#AAC6D1"/>
<path d="M889.719 116.343H870.281C869.219 116.343 868.358 117.204 868.358 118.265V127.098C868.358 128.16 869.219 129.021 870.281 129.021H889.719C890.781 129.021 891.642 128.16 891.642 127.098V118.265C891.642 117.204 890.781 116.343 889.719 116.343Z" fill="#B87D5F"/>
<path d="M926.156 76.0517C926.156 74.6748 927.402 73.5915 928.753 73.8565C934.921 75.0661 939.575 80.5019 939.575 87.0247C939.575 93.5475 934.921 98.9833 928.753 100.193C927.402 100.458 926.156 99.3745 926.156 97.9977V76.0517Z" fill="#9AACB2"/>
<path d="M833.845 76.0517C833.845 74.6748 832.599 73.5915 831.247 73.8565C825.079 75.0661 820.425 80.5019 820.425 87.0247C820.425 93.5475 825.079 98.9833 831.247 100.193C832.599 100.458 833.845 99.3745 833.845 97.9977V76.0517Z" fill="#9AACB2"/>
<path d="M903.178 51.4026H856.823C855.059 51.4026 853.629 52.8324 853.629 54.5961C853.629 56.3598 855.059 57.7896 856.823 57.7896H876.528V71.9186H883.473V57.7896H903.178C904.941 57.7896 906.371 56.3598 906.371 54.5961C906.371 52.8324 904.941 51.4026 903.178 51.4026Z" fill="#6B8187"/>
<path d="M915.418 180.025C932.824 180.025 946.935 165.915 946.935 148.508C946.935 131.102 932.824 116.991 915.418 116.991C898.011 116.991 883.901 131.102 883.901 148.508C883.901 165.915 898.011 180.025 915.418 180.025Z" fill="#F9B32A"/>
<path d="M915.418 171.973C928.377 171.973 938.883 161.468 938.883 148.508C938.883 135.549 928.377 125.043 915.418 125.043C902.458 125.043 891.953 135.549 891.953 148.508C891.953 161.468 902.458 171.973 915.418 171.973Z" fill="#E59A17"/>
<path d="M916.095 171.956V125.061C915.869 125.054 915.645 125.043 915.418 125.043C915.191 125.043 914.966 125.054 914.74 125.061V171.956C914.966 171.963 915.191 171.973 915.418 171.973C915.645 171.973 915.869 171.963 916.095 171.956Z" fill="#F9B32A"/>
<path d="M900.426 166.558C900.864 166.922 901.317 167.266 901.781 167.598V129.419C901.317 129.751 900.864 130.095 900.426 130.459V166.558Z" fill="#F9B32A"/>
<path d="M930.409 130.459C929.972 130.095 929.518 129.751 929.055 129.419V167.598C929.518 167.266 929.972 166.922 930.409 166.558V130.459Z" fill="#F9B32A"/>
<path d="M829.311 114.145H834.117V186.614C834.117 187.125 833.703 187.539 833.192 187.539H830.236C829.726 187.539 829.311 187.125 829.311 186.614V114.145Z" fill="#7C3200"/>
<path d="M839.685 111.335L831.714 91.2927L823.744 111.335L831.714 119.241L839.685 111.335Z" fill="#BBF1FF"/>
<path d="M831.714 91.2927V108.301L839.685 111.335L831.714 91.2927Z" fill="#DEF9FF"/>
<path d="M823.744 111.335L831.714 108.301L839.685 111.335L831.714 119.241L823.744 111.335Z" fill="#94EBFF"/>
<path d="M834.191 116.343H829.237C828.699 116.343 828.263 116.779 828.263 117.318V121.769C828.263 122.308 828.699 122.744 829.237 122.744H834.191C834.729 122.744 835.166 122.308 835.166 121.769V117.318C835.166 116.779 834.729 116.343 834.191 116.343Z" fill="#6B6B6B"/>
</g>
<g clip-path="url(#clip6_3464_32755)">
<path d="M1120 0H960V160H1120V0Z" fill="#1C4C5E"/>
<path d="M1096.2 83.387C1096.2 69.1966 1090.89 55.6438 1081.24 45.2239C1080.61 44.5452 1079.94 43.8548 1079.24 43.1721C1079.22 43.1555 1079.2 43.1389 1079.19 43.1223C1068.63 32.8479 1054.72 27.1887 1040 27.1887C1024.4 27.1887 1009.37 33.7629 998.758 45.2248C989.114 55.6437 983.802 69.1965 983.802 83.3869C983.802 95.7433 987.803 106.568 995.429 114.989C989.139 122.601 982.977 134.529 983.059 152.003C983.095 159.74 989.419 166.034 997.222 166.034C997.476 166.033 997.729 166.026 997.981 166.011C998.646 171.358 999.674 176.447 1001.05 181.205C1003.06 188.123 1009.48 192.955 1016.68 192.955C1018.21 192.955 1019.74 192.737 1021.21 192.31C1028.06 190.325 1032.62 184.206 1032.94 177.448C1034.21 177.576 1035.49 177.641 1036.77 177.641H1043.23C1044.51 177.641 1045.79 177.576 1047.05 177.449C1047.38 184.205 1051.93 190.325 1058.78 192.309C1060.26 192.738 1061.79 192.955 1063.32 192.955C1070.52 192.955 1076.94 188.123 1078.95 181.204C1080.33 176.429 1081.36 171.324 1082.03 165.974C1089.16 165.314 1094.78 159.3 1094.82 152.003C1094.9 135.326 1089.24 123.724 1083.42 116.213C1091.8 107.636 1096.2 96.389 1096.2 83.387Z" fill="white"/>
<path d="M1018.06 114.876C1017 114.952 997.024 124.034 997.156 151.937" stroke="#73868E" stroke-width="18.1951" stroke-linecap="round" stroke-linejoin="round"/>
<path d="M1059.82 114.876C1060.87 114.952 1080.85 124.034 1080.72 151.937" stroke="#73868E" stroke-width="18.1951" stroke-linecap="round" stroke-linejoin="round"/>
<path d="M1016.87 121.022C1016.87 121.022 1009.05 150.304 1016.69 176.676" stroke="#91A9B6" stroke-width="22.5525" stroke-miterlimit="10" stroke-linecap="round"/>
<path d="M1063.13 121.022C1063.13 121.022 1070.95 150.304 1063.31 176.676" stroke="#91A9B6" stroke-width="22.5525" stroke-miterlimit="10" stroke-linecap="round"/>
<path d="M1043.23 172.641H1036.77C1017.39 172.641 1002.14 156.077 1003.74 136.758L1004.75 124.577C1006.18 107.393 1020.54 94.1719 1037.78 94.1719H1042.22C1059.46 94.1719 1073.82 107.393 1075.25 124.577L1076.26 136.758C1077.86 156.077 1062.61 172.641 1043.23 172.641Z" fill="#91A9B6"/>
<path d="M1053.45 129.375H1026.35C1024.71 129.375 1023.38 130.702 1023.38 132.341V148.221C1023.38 149.859 1024.71 151.187 1026.35 151.187H1053.45C1055.09 151.187 1056.42 149.859 1056.42 148.221V132.341C1056.42 130.702 1055.09 129.375 1053.45 129.375Z" stroke="#6E8896" stroke-width="1.1276" stroke-miterlimit="10"/>
<path d="M1002.38 139.625H1023.38" stroke="#6E8896" stroke-width="1.1276" stroke-miterlimit="10"/>
<path d="M1056.16 139.625H1077.16" stroke="#6E8896" stroke-width="1.1276" stroke-miterlimit="10"/>
<path d="M1050.17 139.129C1051.68 139.129 1052.91 137.904 1052.91 136.391C1052.91 134.879 1051.68 133.654 1050.17 133.654C1048.66 133.654 1047.43 134.879 1047.43 136.391C1047.43 137.904 1048.66 139.129 1050.17 139.129Z" fill="#32E11F"/>
<path d="M1050.17 147.298C1051.68 147.298 1052.91 146.072 1052.91 144.56C1052.91 143.048 1051.68 141.822 1050.17 141.822C1048.66 141.822 1047.43 143.048 1047.43 144.56C1047.43 146.072 1048.66 147.298 1050.17 147.298Z" fill="#E52C15"/>
<path d="M1091.2 83.3865C1091.2 111.662 1068.28 127.497 1040 127.497C1011.72 127.497 988.802 111.662 988.802 83.3865C988.802 55.1107 1011.72 32.1887 1040 32.1887C1068.28 32.1887 1091.2 55.1107 1091.2 83.3865Z" fill="#91A9B6"/>
<path d="M1077.19 92.6158C1077.19 113.157 1060.54 118.625 1040 118.625C1019.46 118.625 1002.81 113.157 1002.81 92.6158C1002.81 72.0744 1019.46 55.4224 1040 55.4224C1060.54 55.4224 1077.19 72.0745 1077.19 92.6158Z" fill="#D9E7EF"/>
<path opacity="0.08" d="M1005.5 74.0103C1005.5 58.1979 1018.31 45.3794 1034.13 45.3794" stroke="white" stroke-width="13.1114" stroke-miterlimit="10" stroke-linecap="round"/>
<path opacity="0.08" d="M1050.69 52.1717C1054.2 52.1717 1057.04 49.3293 1057.04 45.8229C1057.04 42.3166 1054.2 39.4741 1050.69 39.4741C1047.19 39.4741 1044.34 42.3166 1044.34 45.8229C1044.34 49.3293 1047.19 52.1717 1050.69 52.1717Z" fill="white"/>
<path d="M1035.88 96.0674C1037.98 98.7198 1042 98.7221 1044.1 96.0721L1044.11 96.0674L1044.12 96.0897" stroke="#232323" stroke-width="3.6881" stroke-linecap="round" stroke-linejoin="round"/>
<path d="M1024.25 58.9121V117.782" stroke="#C0D4DD" stroke-width="1.1276" stroke-miterlimit="10"/>
<path d="M1055.38 58.9121V117.782" stroke="#C0D4DD" stroke-width="1.1276" stroke-miterlimit="10"/>
<path d="M1024.62 97.0628C1030.17 97.0628 1034.66 92.5682 1034.66 87.0237C1034.66 81.4793 1030.17 76.9846 1024.62 76.9846C1019.08 76.9846 1014.58 81.4793 1014.58 87.0237C1014.58 92.5682 1019.08 97.0628 1024.62 97.0628Z" fill="white"/>
<path d="M1024.62 93.5664C1028.24 93.5664 1031.16 90.6372 1031.16 87.0238C1031.16 83.4104 1028.24 80.4812 1024.62 80.4812C1021.01 80.4812 1018.08 83.4104 1018.08 87.0238C1018.08 90.6372 1021.01 93.5664 1024.62 93.5664Z" fill="black"/>
<path opacity="0.13" d="M1024.62 86.8378C1026.1 86.8378 1027.31 85.8962 1027.31 84.7347C1027.31 83.5732 1026.1 82.6316 1024.62 82.6316C1023.14 82.6316 1021.94 83.5732 1021.94 84.7347C1021.94 85.8962 1023.14 86.8378 1024.62 86.8378Z" fill="white"/>
<path d="M1055.38 97.0628C1060.92 97.0628 1065.42 92.5682 1065.42 87.0237C1065.42 81.4793 1060.92 76.9846 1055.38 76.9846C1049.83 76.9846 1045.34 81.4793 1045.34 87.0237C1045.34 92.5682 1049.83 97.0628 1055.38 97.0628Z" fill="white"/>
<path d="M1055.38 93.5664C1058.99 93.5664 1061.92 90.6372 1061.92 87.0238C1061.92 83.4104 1058.99 80.4812 1055.38 80.4812C1051.76 80.4812 1048.84 83.4104 1048.84 87.0238C1048.84 90.6372 1051.76 93.5664 1055.38 93.5664Z" fill="black"/>
<path opacity="0.13" d="M1055.38 86.8378C1056.86 86.8378 1058.06 85.8962 1058.06 84.7347C1058.06 83.5732 1056.86 82.6316 1055.38 82.6316C1053.89 82.6316 1052.69 83.5732 1052.69 84.7347C1052.69 85.8962 1053.89 86.8378 1055.38 86.8378Z" fill="white"/>
<path d="M1077.19 92.6158C1077.19 113.157 1060.54 118.625 1040 118.625C1019.46 118.625 1002.81 113.157 1002.81 92.6158C1002.81 72.0744 1019.46 55.4224 1040 55.4224C1060.54 55.4224 1077.19 72.0745 1077.19 92.6158Z" stroke="#BACFD8" stroke-width="4.5212" stroke-miterlimit="10"/>
<path d="M1002.43 48.6219H1077.57C1076.97 47.973 1076.35 47.3416 1075.72 46.7244H1004.28C1003.65 47.3416 1003.03 47.9729 1002.43 48.6219Z" fill="#738D9A"/>
<path d="M1019.26 44.0486C1020.07 44.0486 1020.72 43.3964 1020.72 42.5918C1020.72 41.7872 1020.07 41.135 1019.26 41.135C1018.46 41.135 1017.81 41.7872 1017.81 42.5918C1017.81 43.3964 1018.46 44.0486 1019.26 44.0486Z" fill="#738D9A"/>
<path d="M1029.63 44.0486C1030.44 44.0486 1031.09 43.3964 1031.09 42.5918C1031.09 41.7872 1030.44 41.135 1029.63 41.135C1028.83 41.135 1028.18 41.7872 1028.18 42.5918C1028.18 43.3964 1028.83 44.0486 1029.63 44.0486Z" fill="#738D9A"/>
<path d="M1040 44.0486C1040.8 44.0486 1041.46 43.3964 1041.46 42.5918C1041.46 41.7872 1040.8 41.135 1040 41.135C1039.2 41.135 1038.54 41.7872 1038.54 42.5918C1038.54 43.3964 1039.2 44.0486 1040 44.0486Z" fill="#738D9A"/>
<path d="M1050.37 44.0486C1051.17 44.0486 1051.82 43.3964 1051.82 42.5918C1051.82 41.7872 1051.17 41.135 1050.37 41.135C1049.56 41.135 1048.91 41.7872 1048.91 42.5918C1048.91 43.3964 1049.56 44.0486 1050.37 44.0486Z" fill="#738D9A"/>
<path d="M1060.73 44.0486C1061.54 44.0486 1062.19 43.3964 1062.19 42.5918C1062.19 41.7872 1061.54 41.135 1060.73 41.135C1059.93 41.135 1059.28 41.7872 1059.28 42.5918C1059.28 43.3964 1059.93 44.0486 1060.73 44.0486Z" fill="#738D9A"/>
</g>
<g clip-path="url(#clip7_3464_32755)">
<path d="M1280 0H1120V160H1280V0Z" fill="#FF6700"/>
<path d="M1256.2 83.3872C1256.2 75.3247 1254.45 67.314 1251.11 60.0161C1253.47 56.7075 1254.77 52.7134 1254.77 48.6216C1254.77 37.7798 1245.95 28.9595 1235.11 28.9595C1231.02 28.9595 1227.13 30.1968 1223.86 32.4966C1216.43 29.0161 1208.25 27.189 1200 27.189C1191.75 27.189 1183.57 29.0161 1176.14 32.4966C1172.87 30.1968 1168.98 28.9595 1164.89 28.9595C1154.05 28.9595 1145.23 37.7798 1145.23 48.6216C1145.23 52.7124 1146.53 56.7075 1148.89 60.0161C1145.55 67.3149 1143.8 75.3257 1143.8 83.3872C1143.8 95.7427 1147.8 106.566 1155.43 114.99C1149.14 122.6 1142.98 134.529 1143.06 152.004C1143.1 159.741 1149.42 166.035 1157.22 166.035C1157.48 166.034 1157.73 166.026 1157.98 166.011C1158.65 171.358 1159.67 176.448 1161.05 181.205C1163.06 188.123 1169.48 192.955 1176.68 192.955C1178.21 192.955 1179.74 192.738 1181.21 192.31C1188.07 190.326 1192.62 184.206 1192.94 177.45C1194.21 177.577 1195.49 177.641 1196.77 177.641H1203.23C1204.51 177.641 1205.79 177.576 1207.06 177.45C1207.38 184.205 1211.94 190.326 1218.78 192.309C1220.26 192.738 1221.79 192.955 1223.32 192.955C1230.52 192.955 1236.94 188.123 1238.95 181.204C1240.33 176.429 1241.36 171.325 1242.03 165.974C1249.16 165.314 1254.78 159.3 1254.82 152.003C1254.9 135.326 1249.24 123.724 1243.42 116.213C1251.8 107.636 1256.2 96.3892 1256.2 83.3872Z" fill="white"/>
<path d="M1164.89 63.2854C1172.99 63.2854 1179.56 56.7204 1179.56 48.6222C1179.56 40.5239 1172.99 33.959 1164.89 33.959C1156.8 33.959 1150.23 40.5239 1150.23 48.6222C1150.23 56.7204 1156.8 63.2854 1164.89 63.2854Z" fill="#FF8022"/>
<path d="M1235.11 63.2854C1243.2 63.2854 1249.77 56.7204 1249.77 48.6222C1249.77 40.5239 1243.2 33.959 1235.11 33.959C1227.01 33.959 1220.44 40.5239 1220.44 48.6222C1220.44 56.7204 1227.01 63.2854 1235.11 63.2854Z" fill="#FF8022"/>
<path d="M1178.06 114.876C1177 114.952 1157.02 124.035 1157.16 151.937" stroke="#FF7415" stroke-width="18.1951" stroke-linecap="round" stroke-linejoin="round"/>
<path d="M1219.82 114.876C1220.87 114.952 1240.85 124.035 1240.72 151.937" stroke="#FF7415" stroke-width="18.1951" stroke-linecap="round" stroke-linejoin="round"/>
<path d="M1176.87 121.023C1176.87 121.023 1169.05 150.305 1176.69 176.676" stroke="#FF8022" stroke-width="22.5525" stroke-miterlimit="10" stroke-linecap="round"/>
<path d="M1223.13 121.023C1223.13 121.023 1230.95 150.305 1223.31 176.676" stroke="#FF8022" stroke-width="22.5525" stroke-miterlimit="10" stroke-linecap="round"/>
<path d="M1203.23 172.641H1196.77C1177.39 172.641 1162.14 156.077 1163.74 136.758L1164.75 124.578C1166.18 107.393 1180.54 94.1721 1197.78 94.1721H1202.22C1219.46 94.1721 1233.82 107.393 1235.25 124.578L1236.26 136.758C1237.86 156.077 1222.61 172.641 1203.23 172.641Z" fill="#FF8022"/>
<path d="M1251.2 83.3868C1251.2 111.662 1228.28 127.497 1200 127.497C1171.72 127.497 1148.8 111.663 1148.8 83.3868C1148.8 55.111 1171.72 32.189 1200 32.189C1228.28 32.189 1251.2 55.111 1251.2 83.3868Z" fill="#FF8022"/>
<path d="M1237.19 92.616C1237.19 113.157 1220.54 118.625 1200 118.625C1179.46 118.625 1162.81 113.157 1162.81 92.616C1162.81 72.0746 1179.46 55.4226 1200 55.4226C1220.54 55.4226 1237.19 72.0747 1237.19 92.616Z" fill="#FFEBB3"/>
<path opacity="0.12" d="M1165.5 74.0105C1165.5 58.1981 1178.32 45.3796 1194.13 45.3796" stroke="white" stroke-width="13.1114" stroke-miterlimit="10" stroke-linecap="round"/>
<path opacity="0.12" d="M1210.69 52.172C1214.2 52.172 1217.04 49.3295 1217.04 45.8232C1217.04 42.3168 1214.2 39.4744 1210.69 39.4744C1207.19 39.4744 1204.34 42.3168 1204.34 45.8232C1204.34 49.3295 1207.19 52.172 1210.69 52.172Z" fill="white"/>
<path d="M1184.62 97.0631C1190.17 97.0631 1194.66 92.5684 1194.66 87.024C1194.66 81.4795 1190.17 76.9849 1184.62 76.9849C1179.08 76.9849 1174.58 81.4795 1174.58 87.024C1174.58 92.5684 1179.08 97.0631 1184.62 97.0631Z" fill="white"/>
<path d="M1184.62 93.5666C1188.24 93.5666 1191.16 90.6374 1191.16 87.024C1191.16 83.4107 1188.24 80.4814 1184.62 80.4814C1181.01 80.4814 1178.08 83.4107 1178.08 87.024C1178.08 90.6374 1181.01 93.5666 1184.62 93.5666Z" fill="black"/>
<path opacity="0.13" d="M1184.62 86.838C1186.11 86.838 1187.31 85.8964 1187.31 84.7349C1187.31 83.5734 1186.11 82.6318 1184.62 82.6318C1183.14 82.6318 1181.94 83.5734 1181.94 84.7349C1181.94 85.8964 1183.14 86.838 1184.62 86.838Z" fill="white"/>
<path d="M1215.38 97.0631C1220.92 97.0631 1225.42 92.5684 1225.42 87.024C1225.42 81.4795 1220.92 76.9849 1215.38 76.9849C1209.83 76.9849 1205.34 81.4795 1205.34 87.024C1205.34 92.5684 1209.83 97.0631 1215.38 97.0631Z" fill="white"/>
<path d="M1215.38 93.5666C1218.99 93.5666 1221.92 90.6374 1221.92 87.024C1221.92 83.4107 1218.99 80.4814 1215.38 80.4814C1211.76 80.4814 1208.84 83.4107 1208.84 87.024C1208.84 90.6374 1211.76 93.5666 1215.38 93.5666Z" fill="black"/>
<path opacity="0.13" d="M1215.38 86.838C1216.86 86.838 1218.06 85.8964 1218.06 84.7349C1218.06 83.5734 1216.86 82.6318 1215.38 82.6318C1213.89 82.6318 1212.69 83.5734 1212.69 84.7349C1212.69 85.8964 1213.89 86.838 1215.38 86.838Z" fill="white"/>
<path d="M1195.88 96.0676C1197.98 98.72 1202 98.7223 1204.1 96.0723L1204.11 96.0676L1204.12 96.0899" stroke="#232323" stroke-width="3.6881" stroke-linecap="round" stroke-linejoin="round"/>
<path d="M1200 141.13C1202.91 141.13 1205.27 138.771 1205.27 135.86C1205.27 132.949 1202.91 130.589 1200 130.589C1197.09 130.589 1194.73 132.949 1194.73 135.86C1194.73 138.771 1197.09 141.13 1200 141.13Z" fill="#FF6700"/>
<path d="M1200 159.383C1202.91 159.383 1205.27 157.024 1205.27 154.113C1205.27 151.202 1202.91 148.842 1200 148.842C1197.09 148.842 1194.73 151.202 1194.73 154.113C1194.73 157.024 1197.09 159.383 1200 159.383Z" fill="#FF6700"/>
</g>
<defs>
<clipPath id="clip0_3464_32755">
<rect width="160" height="160" rx="80" fill="white"/>
</clipPath>
<clipPath id="clip1_3464_32755">
<rect x="160" width="160" height="160" rx="80" fill="white"/>
</clipPath>
<clipPath id="clip2_3464_32755">
<rect x="320" width="160" height="160" rx="80" fill="white"/>
</clipPath>
<clipPath id="clip3_3464_32755">
<rect x="480" width="160" height="160" rx="80" fill="white"/>
</clipPath>
<clipPath id="clip4_3464_32755">
<rect x="640" width="160" height="160" rx="80" fill="white"/>
</clipPath>
<clipPath id="clip5_3464_32755">
<rect x="800" width="160" height="160" rx="80" fill="white"/>
</clipPath>
<clipPath id="clip6_3464_32755">
<rect x="960" width="160" height="160" rx="80" fill="white"/>
</clipPath>
<clipPath id="clip7_3464_32755">
<rect x="1120" width="160" height="160" rx="80" fill="white"/>
</clipPath>
</defs>
</svg>
