<svg width="150" height="200" viewBox="0 0 150 200" fill="none" xmlns="http://www.w3.org/2000/svg">
<g clip-path="url(#clip0_2203_26067)">
<path d="M122.553 110.916C123.477 109.117 124.079 107.122 124.333 105.017C129.095 100.198 131.787 93.7052 131.787 86.8878C131.787 80.0704 129.097 73.5821 124.338 68.7633C124.087 66.6788 123.482 64.6695 122.553 62.859C117.189 52.42 108.532 44.1158 97.9507 39.1813V39.0363L94.7559 37.7995C94.6075 37.7419 94.4571 37.6896 94.2735 37.6291C93.5567 37.3586 92.8311 37.1066 92.1016 36.8679L91.8457 36.7825C91.6182 36.7058 91.3906 36.6297 91.1626 36.5598C90.0186 36.2087 88.9829 35.9231 87.9971 35.6872L87.772 35.634C87.086 35.4724 86.3946 35.3249 85.6431 35.1794L85.4468 35.1413C83.9756 34.864 82.4483 34.6467 80.8965 34.4929L80.3184 34.4416C79.7505 34.3918 79.1797 34.3522 78.5977 34.32L77.9668 34.2863C76.4619 34.2228 74.9385 34.2223 73.4219 34.2868L72.7881 34.3205C72.2149 34.3522 71.6441 34.3918 71.0693 34.4421L70.4873 34.4943C68.9463 34.6466 67.4185 34.8639 65.957 35.1393L65.6948 35.1906C64.999 35.3249 64.3086 35.4723 63.5752 35.6447L63.3975 35.6867C62.4053 35.924 61.3687 36.2101 60.2271 36.5607C60.0059 36.6286 59.7872 36.7013 59.5689 36.7751L59.3013 36.8645C58.5674 37.1052 57.8399 37.3572 57.0918 37.6374C56.9365 37.6896 56.7813 37.7434 56.6289 37.8024L53.4429 39.0612V39.1813C48.1275 41.6603 43.2964 44.9904 39.126 49.0133C38.5322 44.65 34.7813 41.2765 30.2578 41.2765C25.3232 41.2765 21.3081 45.2911 21.3081 50.2262C21.3081 52.692 22.3276 54.9762 24.0127 56.6188L22.7451 72.3048C19.7744 76.6168 18.2129 81.6266 18.2129 86.8878C18.2129 94.4635 21.5801 101.658 27.3169 106.543C27.6318 108.089 28.1416 109.553 28.8418 110.917C30.2881 113.731 31.9878 116.412 33.9189 118.926C27.0361 126.008 18.6601 138.8 18.7563 159.048C18.7924 166.786 25.1162 173.08 32.9209 173.079C33.1738 173.078 33.4268 173.07 33.6777 173.055C34.3427 178.402 35.3711 183.491 36.7495 188.249C38.7529 195.169 45.1797 200.001 52.3774 200C53.9067 200 55.4316 199.783 56.9111 199.355C61.0869 198.145 64.542 195.382 66.6396 191.574C67.8593 189.36 68.5351 186.947 68.6494 184.495C69.916 184.622 71.1904 184.686 72.4687 184.686H78.9252C80.203 184.686 81.4779 184.622 82.745 184.495C82.8593 186.947 83.535 189.36 84.7543 191.573C86.8515 195.381 90.3065 198.145 94.4814 199.354C95.9599 199.783 97.4858 200 99.0161 200C106.213 200 112.64 195.168 114.645 188.249C116.028 183.474 117.059 178.37 117.724 173.019C124.854 172.359 130.48 166.345 130.516 159.048C130.606 139.737 122.894 127.21 116.505 120.155C118.838 117.297 120.863 114.204 122.553 110.916Z" fill="white"/>
<path d="M78.9252 179.686H72.4683C53.0831 179.686 37.8356 163.122 39.4374 143.803L40.4473 131.622C41.8721 114.438 56.2349 101.217 73.4782 101.217H77.9152C95.1585 101.217 109.521 114.438 110.946 131.622L111.956 143.803C113.558 163.122 98.3104 179.686 78.9252 179.686Z" fill="#63C928"/>
<path d="M95.5132 121.921C96.5711 121.996 116.55 131.079 116.418 158.982" stroke="#49A50E" stroke-width="18.1951" stroke-linecap="round" stroke-linejoin="round"/>
<path d="M53.7589 121.921C52.701 121.996 32.7216 131.079 32.8537 158.982" stroke="#49A50E" stroke-width="18.1951" stroke-linecap="round" stroke-linejoin="round"/>
<path d="M52.565 128.067C52.565 128.067 44.7444 157.349 52.3831 183.721" stroke="#63C928" stroke-width="22.5525" stroke-miterlimit="10" stroke-linecap="round"/>
<path d="M98.8291 128.067C98.8291 128.067 106.65 157.349 99.011 183.721" stroke="#63C928" stroke-width="22.5525" stroke-miterlimit="10" stroke-linecap="round"/>
<path d="M31.0563 90.2839H26.3081L29.5455 50.2263H31.0563V90.2839Z" fill="#4EAF0E"/>
<path d="M44.0339 107.709C55.533 107.709 64.8549 98.3868 64.8549 86.8877C64.8549 75.3885 55.533 66.0667 44.0339 66.0667C32.5348 66.0667 23.2129 75.3885 23.2129 86.8877C23.2129 98.3868 32.5348 107.709 44.0339 107.709Z" fill="#4EAF0E"/>
<path d="M105.966 107.709C117.465 107.709 126.787 98.3868 126.787 86.8877C126.787 75.3885 117.465 66.0667 105.966 66.0667C94.4669 66.0667 85.145 75.3885 85.145 86.8877C85.145 98.3868 94.4669 107.709 105.966 107.709Z" fill="#4EAF0E"/>
<path d="M119.47 70.9695C119.47 68.9485 119.028 66.9413 118.105 65.1437C110.202 49.7604 94.1814 39.2336 75.697 39.2336C57.2126 39.2336 41.1917 49.7604 33.2892 65.1437C32.3658 66.9413 31.9238 68.9484 31.9238 70.9694V102.806C31.9238 104.827 32.3657 106.834 33.2892 108.631C41.1917 124.015 57.2127 134.542 75.697 134.542C94.1813 134.542 110.202 124.015 118.105 108.631C119.028 106.834 119.47 104.827 119.47 102.806V70.9695Z" fill="#63C928"/>
<path d="M30.2577 54.1761C32.439 54.1761 34.2073 52.4078 34.2073 50.2265C34.2073 48.0452 32.439 46.2769 30.2577 46.2769C28.0764 46.2769 26.3081 48.0452 26.3081 50.2265C26.3081 52.4078 28.0764 54.1761 30.2577 54.1761Z" fill="#4EAF0E"/>
<path d="M92.9507 42.4619C87.6001 40.3813 81.7837 39.2336 75.6968 39.2336C69.6099 39.2336 63.7935 40.3813 58.4429 42.4619V73.8811H92.9507V42.4619Z" fill="#4EAF0E"/>
<path d="M107.782 86.8877C107.782 104.608 93.4168 118.973 75.6968 118.973C57.9768 118.973 43.6118 104.608 43.6118 86.8877C43.6118 69.1677 57.9768 63.8667 75.6968 63.8667C93.4168 63.8667 107.782 69.1676 107.782 86.8877Z" fill="#D8F4C6" stroke="white" stroke-width="4.5214" stroke-miterlimit="10"/>
<path d="M60.3189 98.3243C65.8633 98.3243 70.358 93.8296 70.358 88.2852C70.358 82.7408 65.8633 78.2461 60.3189 78.2461C54.7744 78.2461 50.2798 82.7408 50.2798 88.2852C50.2798 93.8296 54.7744 98.3243 60.3189 98.3243Z" fill="white"/>
<path d="M60.319 94.8279C63.9323 94.8279 66.8616 91.8987 66.8616 88.2853C66.8616 84.6719 63.9323 81.7427 60.319 81.7427C56.7056 81.7427 53.7764 84.6719 53.7764 88.2853C53.7764 91.8987 56.7056 94.8279 60.319 94.8279Z" fill="#133000"/>
<path opacity="0.13" d="M60.3188 88.0993C61.802 88.0993 63.0043 87.1577 63.0043 85.9962C63.0043 84.8347 61.802 83.8931 60.3188 83.8931C58.8356 83.8931 57.6333 84.8347 57.6333 85.9962C57.6333 87.1577 58.8356 88.0993 60.3188 88.0993Z" fill="white"/>
<path d="M91.0752 98.3243C96.6197 98.3243 101.114 93.8296 101.114 88.2852C101.114 82.7408 96.6197 78.2461 91.0752 78.2461C85.5308 78.2461 81.0361 82.7408 81.0361 88.2852C81.0361 93.8296 85.5308 98.3243 91.0752 98.3243Z" fill="white"/>
<path d="M91.0753 94.8279C94.6887 94.8279 97.6179 91.8987 97.6179 88.2853C97.6179 84.6719 94.6887 81.7427 91.0753 81.7427C87.4619 81.7427 84.5327 84.6719 84.5327 88.2853C84.5327 91.8987 87.4619 94.8279 91.0753 94.8279Z" fill="#133000"/>
<path opacity="0.13" d="M91.0751 88.0993C92.5583 88.0993 93.7606 87.1577 93.7606 85.9962C93.7606 84.8347 92.5583 83.8931 91.0751 83.8931C89.592 83.8931 88.3896 84.8347 88.3896 85.9962C88.3896 87.1577 89.592 88.0993 91.0751 88.0993Z" fill="white"/>
<path d="M71.5732 97.3289C73.6726 99.9813 77.6962 99.9836 79.7987 97.3336L79.8024 97.3289L79.8201 97.3512" stroke="#232323" stroke-width="3.6881" stroke-linecap="round" stroke-linejoin="round"/>
<path d="M72.4691 110.007H78.9243C80.383 110.007 81.6383 111.038 81.9216 112.469L82.7116 116.459C83.0857 118.348 81.6401 120.108 79.7143 120.108H71.6791C69.7533 120.108 68.3077 118.348 68.6818 116.459L69.4718 112.469C69.7551 111.038 71.0104 110.007 72.4691 110.007Z" fill="white"/>
</g>
<defs>
<clipPath id="clip0_2203_26067">
<rect width="150" height="200" fill="white"/>
</clipPath>
</defs>
</svg>
