<svg width="449" height="57" viewBox="0 0 449 57" fill="none" xmlns="http://www.w3.org/2000/svg">
<path d="M43.6075 13.7015C45.005 12.9746 46.1413 11.7597 46.7506 10.2137C48.1064 6.7735 46.4108 2.87142 42.9702 1.51544C39.5319 0.160742 35.6285 1.85574 34.2726 5.29547C33.7875 6.52634 33.6896 7.83165 33.9351 9.06208C30.4789 8.23947 26.7935 8.15768 23.2879 8.83132C23.478 7.6693 23.3635 6.44969 22.9085 5.29547C21.5527 1.85574 17.6513 0.1599 14.2102 1.51544C10.7705 2.87186 9.07486 6.77355 10.4306 10.2137C10.951 11.5346 11.8563 12.6139 12.9804 13.3534C6.55947 18.0872 2.71191 25.5719 2.71191 33.7359C2.71191 40.521 5.35223 46.2427 10.3473 50.2825C14.8672 53.9383 21.1611 55.9514 28.0696 55.9514C34.9781 55.9514 41.2722 53.9383 45.7921 50.2825C50.787 46.2427 53.4273 40.5209 53.4273 33.7359C53.4273 25.849 49.7408 18.4656 43.6075 13.7015Z" fill="white"/>
<path d="M40.5129 11.8007C42.7475 11.8007 44.559 9.98917 44.559 7.75458C44.559 5.51999 42.7475 3.7085 40.5129 3.7085C38.2783 3.7085 36.4668 5.51999 36.4668 7.75458C36.4668 9.98917 38.2783 11.8007 40.5129 11.8007Z" fill="#3192D9"/>
<path d="M38.9632 8.92697L36.0405 16.3425L37.9226 17.0843L40.8453 9.66877L38.9632 8.92697Z" fill="#3192D9"/>
<path d="M16.6701 11.8007C18.9047 11.8007 20.7162 9.98917 20.7162 7.75458C20.7162 5.51999 18.9047 3.7085 16.6701 3.7085C14.4355 3.7085 12.624 5.51999 12.624 7.75458C12.624 9.98917 14.4355 11.8007 16.6701 11.8007Z" fill="#3192D9"/>
<path d="M18.2195 8.92715L16.3374 9.66895L19.2601 17.0845L21.1422 16.3427L18.2195 8.92715Z" fill="#3192D9"/>
<path d="M50.7674 33.736C50.7674 46.2716 40.6053 53.2916 28.0697 53.2916C15.5341 53.2916 5.37207 46.2716 5.37207 33.736C5.37207 21.2005 15.5342 11.0383 28.0697 11.0383C40.6053 11.0383 50.7674 21.2004 50.7674 33.736Z" fill="#57CBF4"/>
<path d="M44.5587 35.7111C44.5587 44.8177 37.1763 47.2419 28.0696 47.2419C18.963 47.2419 11.5806 44.8178 11.5806 35.7111C11.5806 26.6044 18.963 23.4548 28.0696 23.4548C37.1763 23.4548 44.5587 26.6045 44.5587 35.7111Z" fill="#CCECFF" stroke="white" stroke-width="2.0044" stroke-miterlimit="10"/>
<path d="M21.2524 39.799C23.7105 39.799 25.7031 37.8064 25.7031 35.3484C25.7031 32.8903 23.7105 30.8977 21.2524 30.8977C18.7944 30.8977 16.8018 32.8903 16.8018 35.3484C16.8018 37.8064 18.7944 39.799 21.2524 39.799Z" fill="white"/>
<path d="M21.2531 38.2489C22.855 38.2489 24.1536 36.9502 24.1536 35.3483C24.1536 33.7464 22.855 32.4478 21.2531 32.4478C19.6512 32.4478 18.3525 33.7464 18.3525 35.3483C18.3525 36.9502 19.6512 38.2489 21.2531 38.2489Z" fill="#003A7F"/>
<path opacity="0.13" d="M21.2531 35.2659C21.9106 35.2659 22.4436 34.8484 22.4436 34.3335C22.4436 33.8186 21.9106 33.4011 21.2531 33.4011C20.5955 33.4011 20.0625 33.8186 20.0625 34.3335C20.0625 34.8484 20.5955 35.2659 21.2531 35.2659Z" fill="white"/>
<path d="M34.8872 39.799C37.3452 39.799 39.3379 37.8064 39.3379 35.3484C39.3379 32.8903 37.3452 30.8977 34.8872 30.8977C32.4292 30.8977 30.4365 32.8903 30.4365 35.3484C30.4365 37.8064 32.4292 39.799 34.8872 39.799Z" fill="white"/>
<path d="M34.8864 38.2489C36.4883 38.2489 37.7869 36.9502 37.7869 35.3483C37.7869 33.7464 36.4883 32.4478 34.8864 32.4478C33.2845 32.4478 31.9858 33.7464 31.9858 35.3483C31.9858 36.9502 33.2845 38.2489 34.8864 38.2489Z" fill="#003A7F"/>
<path opacity="0.13" d="M34.8864 35.2659C35.5439 35.2659 36.0769 34.8484 36.0769 34.3335C36.0769 33.8186 35.5439 33.4011 34.8864 33.4011C34.2288 33.4011 33.6958 33.8186 33.6958 34.3335C33.6958 34.8484 34.2288 35.2659 34.8864 35.2659Z" fill="white"/>
<path d="M26.2417 39.3577C27.1724 40.5336 28.9562 40.5346 29.8883 39.3597L29.89 39.3577L29.8978 39.3676" stroke="#232323" stroke-width="1.63506" stroke-linecap="round" stroke-linejoin="round"/>
<path d="M105.761 17.5348C103.104 12.3636 98.6753 8.34068 93.2749 6.18665C93.2113 6.15602 93.1461 6.12763 93.0795 6.1018C93.0067 6.07337 92.9326 6.04757 92.8554 6.02223C92.5285 5.89936 92.1977 5.78438 91.8695 5.67678L91.7585 5.63961C91.6546 5.60464 91.5508 5.57008 91.4377 5.53511C90.9128 5.37418 90.4405 5.24388 89.9941 5.13718L89.8896 5.11268C89.5785 5.03965 89.2647 4.97276 88.9057 4.90277L88.8305 4.88835C88.156 4.76154 87.459 4.66227 86.7609 4.59318C86.6679 4.584 86.5746 4.57612 86.4952 4.56959C86.2337 4.54639 85.9707 4.52803 85.7116 4.51406L85.4193 4.49875C84.7306 4.46902 84.0268 4.46947 83.3503 4.4983L83.0572 4.51362C82.7935 4.52803 82.5304 4.54639 82.2819 4.56869C82.1888 4.57612 82.0956 4.584 82.006 4.59318C81.3057 4.66183 80.6085 4.76154 79.9226 4.89055L79.8164 4.9111C79.4989 4.97276 79.1838 5.0401 78.8865 5.11004L78.7715 5.13673C78.3209 5.24473 77.8473 5.37503 77.3224 5.5364C77.2186 5.56833 77.1158 5.60285 77.013 5.63742L76.9035 5.67414C76.5683 5.78344 76.2358 5.89932 75.9111 6.02089C75.8328 6.04713 75.7552 6.07422 75.6791 6.10395C75.6146 6.12889 75.5519 6.15643 75.4904 6.18616C72.8106 7.25484 70.37 8.78356 68.2665 10.6848C67.6788 8.91082 66.0045 7.62788 64.0359 7.62788C61.5793 7.62788 59.5807 9.62622 59.5807 12.0828C59.5807 13.235 60.0281 14.3081 60.7769 15.1122L60.2353 21.8147C58.8975 23.7982 58.1948 26.0917 58.1948 28.4989C58.1948 31.9717 59.7152 35.2713 62.3126 37.5403C62.4632 38.2172 62.6943 38.8601 63.0035 39.4622C67.1421 47.5189 75.3339 52.5235 84.3822 52.5235C93.4304 52.5235 101.622 47.5189 105.761 39.4622C106.176 38.6532 106.455 37.7616 106.584 36.8224C108.733 34.5923 109.945 31.6188 109.945 28.4989C109.945 25.3789 108.734 22.4068 106.587 20.1776C106.458 19.2462 106.178 18.3485 105.761 17.5348Z" fill="white"/>
<path d="M64.3927 30.0194H62.2666L63.7162 12.083H64.3927V30.0194Z" fill="#4EAF0E"/>
<path d="M70.2038 37.8217C75.3527 37.8217 79.5268 33.6477 79.5268 28.4987C79.5268 23.3498 75.3527 19.1758 70.2038 19.1758C65.0549 19.1758 60.8809 23.3498 60.8809 28.4987C60.8809 33.6477 65.0549 37.8217 70.2038 37.8217Z" fill="#4EAF0E"/>
<path d="M97.9348 37.8217C103.084 37.8217 107.258 33.6477 107.258 28.4987C107.258 23.3498 103.084 19.1758 97.9348 19.1758C92.7858 19.1758 88.6118 23.3498 88.6118 28.4987C88.6118 33.6477 92.7858 37.8217 97.9348 37.8217Z" fill="#4EAF0E"/>
<path d="M103.982 21.3712C103.982 20.4662 103.784 19.5675 103.37 18.7626C99.8317 11.8744 92.6581 7.16089 84.3814 7.16089C76.1047 7.16089 68.9311 11.8744 65.3926 18.7626C64.9792 19.5675 64.7812 20.4662 64.7812 21.3711V35.6264C64.7812 36.5312 64.9791 37.43 65.3926 38.2349C68.9311 45.1231 76.1048 49.8367 84.3814 49.8367C92.6581 49.8367 99.8317 45.1231 103.37 38.2349C103.784 37.43 103.982 36.5312 103.982 35.6264V21.3712Z" fill="#63C928"/>
<path d="M64.0351 13.8515C65.0118 13.8515 65.8036 13.0597 65.8036 12.083C65.8036 11.1062 65.0118 10.3145 64.0351 10.3145C63.0584 10.3145 62.2666 11.1062 62.2666 12.083C62.2666 13.0597 63.0584 13.8515 64.0351 13.8515Z" fill="#4EAF0E"/>
<path d="M92.1072 8.60641C89.7114 7.67479 87.107 7.16089 84.3815 7.16089C81.656 7.16089 79.0516 7.67479 76.6558 8.60641V22.6749H92.1072V8.60641Z" fill="#4EAF0E"/>
<path d="M98.7483 28.4987C98.7483 36.4332 92.3162 42.8653 84.3817 42.8653C76.4473 42.8653 70.0151 36.4331 70.0151 28.4987C70.0151 20.5643 76.4473 18.1907 84.3817 18.1907C92.3162 18.1907 98.7483 20.5642 98.7483 28.4987Z" fill="#D8F4C6" stroke="white" stroke-width="2.02453" stroke-miterlimit="10"/>
<path d="M77.4957 33.6195C79.9783 33.6195 81.9908 31.6069 81.9908 29.1243C81.9908 26.6417 79.9783 24.6292 77.4957 24.6292C75.013 24.6292 73.0005 26.6417 73.0005 29.1243C73.0005 31.6069 75.013 33.6195 77.4957 33.6195Z" fill="white"/>
<path d="M77.4955 32.0539C79.1134 32.0539 80.425 30.7423 80.425 29.1244C80.425 27.5064 79.1134 26.1948 77.4955 26.1948C75.8775 26.1948 74.5659 27.5064 74.5659 29.1244C74.5659 30.7423 75.8775 32.0539 77.4955 32.0539Z" fill="#133000"/>
<path opacity="0.13" d="M77.4954 29.0411C78.1595 29.0411 78.6979 28.6195 78.6979 28.0994C78.6979 27.5793 78.1595 27.1577 77.4954 27.1577C76.8313 27.1577 76.293 27.5793 76.293 28.0994C76.293 28.6195 76.8313 29.0411 77.4954 29.0411Z" fill="white"/>
<path d="M91.2671 33.6195C93.7498 33.6195 95.7623 31.6069 95.7623 29.1243C95.7623 26.6417 93.7498 24.6292 91.2671 24.6292C88.7845 24.6292 86.772 26.6417 86.772 29.1243C86.772 31.6069 88.7845 33.6195 91.2671 33.6195Z" fill="white"/>
<path d="M91.267 32.0539C92.8849 32.0539 94.1965 30.7423 94.1965 29.1244C94.1965 27.5064 92.8849 26.1948 91.267 26.1948C89.649 26.1948 88.3374 27.5064 88.3374 29.1244C88.3374 30.7423 89.649 32.0539 91.267 32.0539Z" fill="#133000"/>
<path opacity="0.13" d="M91.2674 29.0411C91.9315 29.0411 92.4699 28.6195 92.4699 28.0994C92.4699 27.5793 91.9315 27.1577 91.2674 27.1577C90.6033 27.1577 90.0649 27.5793 90.0649 28.0994C90.0649 28.6195 90.6033 29.0411 91.2674 29.0411Z" fill="white"/>
<path d="M82.5347 33.1738C83.4747 34.3615 85.2763 34.3625 86.2178 33.1759L86.2194 33.1738L86.2274 33.1838" stroke="#232323" stroke-width="1.65141" stroke-linecap="round" stroke-linejoin="round"/>
<path d="M82.9362 38.8508H85.8266C86.4798 38.8508 87.0419 39.3125 87.1687 39.9532L87.5225 41.7397C87.69 42.5856 87.0427 43.3736 86.1804 43.3736H82.5825C81.7202 43.3736 81.0729 42.5856 81.2404 41.7397L81.5941 39.9532C81.721 39.3125 82.2831 38.8508 82.9362 38.8508Z" fill="white"/>
<g clip-path="url(#clip0_4526_91541)">
<path d="M163.424 22.2091C162.874 20.6583 162.173 19.1703 161.327 17.7597C161.936 16.3068 161.651 14.5646 160.47 13.3836L156.913 9.82652C155.705 8.61861 153.909 8.34716 152.437 9.013C150.827 8.08218 149.127 7.34097 147.353 6.79722C147.269 4.47881 145.356 2.6189 143.018 2.6189H137.119C134.781 2.6189 132.868 4.47881 132.784 6.79722C131.01 7.34102 129.31 8.08178 127.701 9.013C126.228 8.34712 124.432 8.61901 123.224 9.82692L119.668 13.3836C118.487 14.5646 118.201 16.3068 118.81 17.7597C117.964 19.1703 117.263 20.6583 116.713 22.2091C113.999 23.6326 112.257 26.4467 112.257 29.5955C112.257 31.3048 113.648 32.6954 115.357 32.6954H115.594V41.3642C115.594 44.4035 118.066 46.876 121.105 46.876C121.216 46.876 121.327 46.8725 121.439 46.866C125.611 51.6643 132.287 54.381 140.069 54.381C147.85 54.381 154.526 51.6643 158.699 46.866C158.81 46.8725 158.921 46.876 159.032 46.876C162.071 46.876 164.544 44.4035 164.544 41.3642V32.6954H164.78C166.489 32.6954 167.88 31.3048 167.88 29.5955C167.88 26.4467 166.138 23.6326 163.424 22.2091Z" fill="white"/>
<path d="M160.64 33.997C160.64 45.3585 151.43 51.7211 140.068 51.7211C128.707 51.7211 119.497 45.3585 119.497 33.997C119.497 22.6354 128.707 13.425 140.068 13.425C151.43 13.425 160.64 22.6354 160.64 33.997Z" fill="#A678FF"/>
<path d="M118.254 28.4651H123.958V41.3641C123.958 42.9379 122.68 44.2157 121.106 44.2157C119.532 44.2157 118.254 42.9379 118.254 41.3641V28.4651Z" fill="#FFC200"/>
<path d="M156.182 28.4651H161.885V41.3641C161.885 42.9379 160.607 44.2157 159.033 44.2157C157.459 44.2157 156.182 42.9379 156.182 41.3641V28.4651Z" fill="#FFC200"/>
<path d="M121.547 15.2639L125.103 11.7075C125.625 11.1861 126.471 11.1861 126.993 11.7075L128.068 12.783L122.622 18.2291L121.547 17.1536C121.025 16.6321 121.025 15.7854 121.547 15.2639Z" fill="#FFC200"/>
<path d="M157.511 18.229L152.065 12.7829L153.141 11.7075C153.662 11.186 154.509 11.186 155.03 11.7075L158.587 15.2639C159.108 15.7853 159.108 16.6321 158.587 17.1535L157.511 18.229Z" fill="#FFC200"/>
<path d="M162.153 29.1504C161.443 17.5554 151.842 8.36377 140.068 8.36377C128.295 8.36377 118.693 17.5554 117.984 29.1504H162.153Z" fill="#FFDC00"/>
<path d="M144.039 27.7326L150.107 10.8767C147.084 9.32328 143.704 8.36377 140.068 8.36377C136.432 8.36377 133.053 9.32328 130.029 10.8767L136.097 27.7304L136.791 28.9331H143.346L144.039 27.7326Z" fill="#FFD400"/>
<path d="M137.119 5.27881H143.018C143.944 5.27881 144.696 6.0307 144.696 6.95678V27.9083H135.441V6.95678C135.441 6.03066 136.193 5.27881 137.119 5.27881Z" fill="#FFC200"/>
<path d="M120.605 23.9072H159.531C162.67 23.9072 165.219 26.4561 165.219 29.5956C165.219 29.8385 165.022 30.0356 164.779 30.0356H115.357C115.114 30.0356 114.917 29.8385 114.917 29.5956C114.917 26.4561 117.466 23.9072 120.605 23.9072Z" fill="#FFAA00"/>
<path d="M150.657 26.6982H129.481C127.684 26.6982 126.228 28.1545 126.228 29.951V37.2863C126.228 39.0828 127.684 40.5391 129.481 40.5391H150.657C152.453 40.5391 153.91 39.0828 153.91 37.2863V29.951C153.91 28.1545 152.453 26.6982 150.657 26.6982Z" fill="#F1F1FF" stroke="white" stroke-width="1.81674" stroke-miterlimit="10"/>
<path d="M126.176 38.184L124.669 37.8453C123.857 37.663 123.28 36.9421 123.28 36.11V31.4817C123.28 30.6496 123.857 29.9288 124.669 29.7464L126.176 29.4077V38.184Z" fill="white"/>
<path d="M153.961 29.4077L155.469 29.7464C156.281 29.9287 156.858 30.6496 156.858 31.4817V36.11C156.858 36.9421 156.281 37.6629 155.469 37.8453L153.961 38.184V29.4077Z" fill="white"/>
<path d="M133.888 37.6524C136.116 37.6524 137.922 35.8464 137.922 33.6186C137.922 31.3907 136.116 29.5847 133.888 29.5847C131.66 29.5847 129.854 31.3907 129.854 33.6186C129.854 35.8464 131.66 37.6524 133.888 37.6524Z" fill="white"/>
<path d="M133.89 36.2475C135.341 36.2475 136.518 35.0705 136.518 33.6186C136.518 32.1667 135.341 30.9897 133.89 30.9897C132.438 30.9897 131.261 32.1667 131.261 33.6186C131.261 35.0705 132.438 36.2475 133.89 36.2475Z" fill="black"/>
<path opacity="0.13" d="M133.89 33.5439C134.486 33.5439 134.969 33.1656 134.969 32.6988C134.969 32.2321 134.486 31.8538 133.89 31.8538C133.294 31.8538 132.811 32.2321 132.811 32.6988C132.811 33.1656 133.294 33.5439 133.89 33.5439Z" fill="white"/>
<path d="M146.247 37.6524C148.475 37.6524 150.281 35.8464 150.281 33.6186C150.281 31.3907 148.475 29.5847 146.247 29.5847C144.019 29.5847 142.213 31.3907 142.213 33.6186C142.213 35.8464 144.019 37.6524 146.247 37.6524Z" fill="white"/>
<path d="M146.247 36.2475C147.698 36.2475 148.875 35.0705 148.875 33.6186C148.875 32.1667 147.698 30.9897 146.247 30.9897C144.795 30.9897 143.618 32.1667 143.618 33.6186C143.618 35.0705 144.795 36.2475 146.247 36.2475Z" fill="black"/>
<path opacity="0.13" d="M146.247 33.5439C146.842 33.5439 147.326 33.1656 147.326 32.6988C147.326 32.2321 146.842 31.8538 146.247 31.8538C145.651 31.8538 145.167 32.2321 145.167 32.6988C145.167 33.1656 145.651 33.5439 146.247 33.5439Z" fill="white"/>
</g>
<g clip-path="url(#clip1_4526_91541)">
<path d="M218.387 20.1911H218.386C218.029 20.0062 217.66 19.8469 217.279 19.7144C217.454 19.3516 217.603 18.9775 217.725 18.594C218.787 15.2469 217.904 11.6266 215.423 9.14541C212.942 6.66337 209.322 5.781 205.974 6.84389C205.591 6.9651 205.217 7.11406 204.854 7.28896C204.722 6.90884 204.562 6.53955 204.377 6.18235C202.762 3.06474 199.578 1.12817 196.068 1.12817C192.559 1.12817 189.375 3.06474 187.759 6.18191C187.574 6.5391 187.415 6.9088 187.282 7.28896C186.92 7.11406 186.546 6.9651 186.163 6.84389C182.815 5.78144 179.195 6.66381 176.713 9.14541C174.232 11.6266 173.35 15.2473 174.412 18.5944C174.533 18.9776 174.682 19.3516 174.857 19.7144C174.477 19.8469 174.107 20.0062 173.75 20.1916C170.633 21.8077 168.696 24.9912 168.696 28.5001C168.696 32.0091 170.633 35.1935 173.75 36.8088C174.107 36.9941 174.477 37.1534 174.857 37.2863C174.682 37.6491 174.533 38.0227 174.412 38.4063C173.35 41.7529 174.232 45.3736 176.713 47.8548C179.195 50.3369 182.815 51.2193 186.163 50.1568C186.546 50.0352 186.92 49.8862 187.282 49.7117C187.415 50.0919 187.574 50.4612 187.759 50.8184C189.375 53.9355 192.559 55.8721 196.068 55.8721C199.578 55.8721 202.762 53.9355 204.377 50.8184C204.562 50.4612 204.721 50.0915 204.854 49.7113C205.217 49.8862 205.591 50.0352 205.974 50.1568C209.321 51.2188 212.942 50.3369 215.423 47.8548C217.904 45.3741 218.786 41.7534 217.725 38.4059C217.603 38.0227 217.454 37.6486 217.279 37.2863C217.66 37.1534 218.029 36.9945 218.386 36.8092C221.504 35.1934 223.44 32.0095 223.44 28.5001C223.44 24.9907 221.504 21.8072 218.387 20.1911Z" fill="white"/>
<path d="M194.432 37.3164H197.706C199.742 37.3164 201.48 38.7894 201.814 40.7985L202.588 45.4588C202.821 46.8633 202.672 48.33 202.016 49.594C200.902 51.7434 198.657 53.2121 196.069 53.2121C193.481 53.2121 191.236 51.7434 190.122 49.594C189.466 48.33 189.317 46.8633 189.55 45.4588L190.324 40.7985C190.658 38.7894 192.396 37.3164 194.432 37.3164Z" fill="#FF8022"/>
<path d="M190.992 21.1085L188.678 23.4234C187.238 24.8635 184.967 25.0507 183.311 23.8661L179.468 21.118C178.31 20.2898 177.378 19.1469 176.948 17.7899C176.216 15.4822 176.765 12.8562 178.595 11.026C180.425 9.19591 183.051 8.64688 185.359 9.37891C186.716 9.80939 187.859 10.7409 188.687 11.8989L191.435 15.7415C192.62 17.3981 192.433 19.6685 190.992 21.1085Z" fill="#FF8022"/>
<path d="M187.253 26.8633V30.1371C187.253 32.1737 185.78 33.9115 183.771 34.2451L179.11 35.0191C177.706 35.2523 176.239 35.1028 174.975 34.4476C172.826 33.3335 171.357 31.0883 171.357 28.5002C171.357 25.912 172.826 23.6669 174.975 22.5527C176.239 21.8975 177.706 21.748 179.11 21.9813L183.771 22.7552C185.78 23.0889 187.253 24.8267 187.253 26.8633Z" fill="#FF8022"/>
<path d="M188.678 33.5769L190.992 35.8918C192.433 37.3319 192.62 39.6023 191.435 41.2588L188.687 45.1014C187.859 46.2595 186.716 47.1909 185.359 47.6214C183.051 48.3535 180.425 47.8044 178.595 45.9743C176.765 44.1442 176.216 41.5182 176.948 39.2105C177.379 37.8535 178.31 36.7105 179.468 35.8824L183.311 33.1343C184.967 31.9496 187.238 32.1369 188.678 33.5769Z" fill="#FF8022"/>
<path d="M201.146 35.8918L203.46 33.5769C204.901 32.1368 207.171 31.9496 208.827 33.1343L212.67 35.8824C213.828 36.7106 214.76 37.8534 215.19 39.2105C215.922 41.5182 215.373 44.1442 213.543 45.9743C211.713 47.8045 209.087 48.3535 206.779 47.6214C205.422 47.191 204.279 46.2595 203.451 45.1015L200.703 41.2589C199.518 39.6023 199.705 37.3319 201.146 35.8918Z" fill="#FF8022"/>
<path d="M204.885 30.137V26.8632C204.885 24.8266 206.358 23.0889 208.367 22.7552L213.028 21.9813C214.432 21.748 215.899 21.8975 217.163 22.5527C219.312 23.6669 220.781 25.912 220.781 28.5001C220.781 31.0883 219.312 33.3335 217.163 34.4476C215.899 35.1028 214.432 35.2523 213.028 35.0191L208.367 34.2451C206.358 33.9115 204.885 32.1736 204.885 30.137Z" fill="#FF8022"/>
<path d="M203.461 23.4236L201.146 21.1087C199.706 19.6687 199.519 17.3983 200.703 15.7417L203.451 11.8992C204.28 10.7411 205.423 9.80963 206.78 9.37916C209.087 8.64713 211.713 9.19615 213.543 11.0262C215.374 12.8564 215.923 15.4824 215.191 17.7901C214.76 19.1471 213.829 20.29 212.671 21.1182L208.828 23.8663C207.171 25.051 204.901 24.8637 203.461 23.4236Z" fill="#FF8022"/>
<path d="M197.706 19.6838H194.432C192.395 19.6838 190.658 18.2108 190.324 16.2017L189.55 11.5414C189.317 10.1369 189.466 8.67016 190.122 7.40617C191.236 5.25676 193.481 3.78809 196.069 3.78809C198.657 3.78809 200.902 5.25676 202.016 7.40617C202.672 8.67016 202.821 10.1369 202.588 11.5414L201.814 16.2017C201.48 18.2108 199.742 19.6838 197.706 19.6838Z" fill="#FF8022"/>
<path d="M197.592 10.5883C197.592 9.74711 196.91 9.06519 196.069 9.06519C195.228 9.06519 194.546 9.74711 194.546 10.5883V15.9274C194.546 16.7686 195.228 17.4505 196.069 17.4505C196.91 17.4505 197.592 16.7686 197.592 15.9274V10.5883Z" fill="#FF7415"/>
<path d="M184.481 14.7582C183.886 14.1634 182.922 14.1634 182.327 14.7582C181.732 15.353 181.732 16.3174 182.327 16.9122L186.102 20.6875C186.697 21.2823 187.661 21.2823 188.256 20.6875C188.851 20.0927 188.851 19.1283 188.256 18.5335L184.481 14.7582Z" fill="#FF7415"/>
<path d="M178.159 26.9779C177.318 26.9779 176.636 27.6599 176.636 28.5011C176.636 29.3422 177.318 30.0242 178.159 30.0242H183.498C184.339 30.0242 185.021 29.3422 185.021 28.5011C185.021 27.6599 184.339 26.9779 183.498 26.9779H178.159Z" fill="#FF7415"/>
<path d="M182.328 40.0893C181.733 40.6841 181.733 41.6485 182.328 42.2433C182.923 42.8381 183.887 42.8381 184.482 42.2433L188.257 38.468C188.852 37.8732 188.852 36.9088 188.257 36.314C187.662 35.7192 186.698 35.7192 186.103 36.314L182.328 40.0893Z" fill="#FF7415"/>
<path d="M194.548 46.4119C194.548 47.2531 195.229 47.9351 196.071 47.9351C196.912 47.9351 197.594 47.2531 197.594 46.4119V41.0729C197.594 40.2317 196.912 39.5498 196.071 39.5498C195.229 39.5498 194.548 40.2317 194.548 41.0729V46.4119Z" fill="#FF7415"/>
<path d="M207.66 42.242C208.254 42.8369 209.219 42.8369 209.814 42.242C210.408 41.6472 210.408 40.6828 209.814 40.088L206.038 36.3127C205.444 35.7179 204.479 35.7179 203.884 36.3127C203.29 36.9075 203.29 37.8719 203.884 38.4667L207.66 42.242Z" fill="#FF7415"/>
<path d="M213.982 30.0225C214.823 30.0225 215.505 29.3406 215.505 28.4994C215.505 27.6582 214.823 26.9763 213.982 26.9763H208.643C207.802 26.9763 207.12 27.6582 207.12 28.4994C207.12 29.3406 207.802 30.0225 208.643 30.0225H213.982Z" fill="#FF7415"/>
<path d="M209.812 16.9109C210.407 16.3161 210.407 15.3517 209.812 14.7569C209.217 14.1621 208.253 14.1621 207.658 14.7569L203.883 18.5322C203.288 19.127 203.288 20.0914 203.883 20.6862C204.477 21.281 205.442 21.281 206.037 20.6862L209.812 16.9109Z" fill="#FF7415"/>
<path d="M208.43 30.4131C208.294 36.5353 202.65 41.375 195.824 41.223C188.998 41.0709 183.575 35.9847 183.711 29.8625C183.847 23.7403 189.492 15.624 196.318 15.776C203.144 15.9281 208.567 24.291 208.43 30.4131Z" fill="#F8C202" stroke="#FFD345" stroke-width="1.71539" stroke-miterlimit="10"/>
<path d="M190.232 32.6504C192.336 32.6504 194.041 30.945 194.041 28.8414C194.041 26.7378 192.336 25.0325 190.232 25.0325C188.129 25.0325 186.423 26.7378 186.423 28.8414C186.423 30.945 188.129 32.6504 190.232 32.6504Z" fill="white"/>
<path d="M190.231 31.3238C191.602 31.3238 192.713 30.2124 192.713 28.8414C192.713 27.4705 191.602 26.3591 190.231 26.3591C188.86 26.3591 187.749 27.4705 187.749 28.8414C187.749 30.2124 188.86 31.3238 190.231 31.3238Z" fill="black"/>
<path opacity="0.13" d="M190.231 28.771C190.794 28.771 191.25 28.4137 191.25 27.973C191.25 27.5323 190.794 27.175 190.231 27.175C189.668 27.175 189.212 27.5323 189.212 27.973C189.212 28.4137 189.668 28.771 190.231 28.771Z" fill="white"/>
<path d="M201.902 32.6504C204.005 32.6504 205.711 30.945 205.711 28.8414C205.711 26.7378 204.005 25.0325 201.902 25.0325C199.798 25.0325 198.093 26.7378 198.093 28.8414C198.093 30.945 199.798 32.6504 201.902 32.6504Z" fill="white"/>
<path d="M201.902 31.3238C203.273 31.3238 204.385 30.2124 204.385 28.8414C204.385 27.4705 203.273 26.3591 201.902 26.3591C200.531 26.3591 199.42 27.4705 199.42 28.8414C199.42 30.2124 200.531 31.3238 201.902 31.3238Z" fill="black"/>
<path opacity="0.13" d="M201.902 28.771C202.465 28.771 202.921 28.4137 202.921 27.973C202.921 27.5323 202.465 27.175 201.902 27.175C201.34 27.175 200.883 27.5323 200.883 27.973C200.883 28.4137 201.34 28.771 201.902 28.771Z" fill="white"/>
<path d="M194.504 32.2727C195.301 33.2791 196.828 33.2799 197.625 32.2745L197.627 32.2727L197.633 32.2812" stroke="#602B00" stroke-width="1.39934" stroke-linecap="round" stroke-linejoin="round"/>
</g>
<path d="M278.404 30.2408C278.367 30.0736 278.325 29.8918 278.259 29.6849C278.253 29.6641 278.247 29.6437 278.24 29.6238L277.678 27.9275C277.674 27.9154 277.67 27.9033 277.666 27.8912L272.461 12.194C271.735 10.0055 269.886 8.33475 267.635 7.83471L265.679 7.40002C257.471 1.96139 246.67 1.96139 238.462 7.40002L236.505 7.83471C234.254 8.33519 232.405 10.0059 231.679 12.1945L225.902 29.6191C225.832 29.8295 225.774 30.0499 225.729 30.2754C225.328 32.1717 225.864 34.1429 227.165 35.5526C227.536 35.9543 227.895 36.3682 228.235 36.7843C228.253 36.8081 228.271 36.8319 228.29 36.8553C228.835 37.5272 229.303 38.1806 229.698 38.8217L229.724 38.8637C229.852 39.0745 229.975 39.2876 230.086 39.4962C230.608 40.4903 230.737 41.1215 230.753 41.4804L230.758 41.5939C230.758 41.6328 230.759 41.6718 230.76 41.7108C230.804 42.749 230.825 43.7192 230.824 44.6765C230.824 44.7293 230.826 44.7821 230.829 44.8345C230.829 44.9773 230.828 45.1159 230.827 45.2471C230.806 47.6023 231.973 49.7895 233.948 51.0983L236.453 52.759C237.59 53.5124 239.042 53.5808 240.245 52.9348C241.287 52.3755 241.987 51.3628 242.156 50.2147C244.042 50.9005 246.071 51.3832 248.188 51.646C249.057 52.8894 250.5 53.6791 252.071 53.6791C253.641 53.6791 255.084 52.8889 255.953 51.646C258.07 51.3832 260.099 50.9005 261.985 50.2147C262.153 51.3628 262.853 52.3755 263.895 52.9348C265.097 53.5808 266.551 53.5124 267.688 52.759L270.194 51.0983C272.168 49.7895 273.335 47.6018 273.314 45.2462C273.312 45.1159 273.312 44.9777 273.312 44.8353C273.315 44.7829 273.316 44.7305 273.316 44.6777C273.316 43.7062 273.338 42.7359 273.381 41.7116C273.382 41.6709 273.383 41.6298 273.383 41.5887L273.388 41.4757C273.404 41.1211 273.532 40.4903 274.057 39.495C274.168 39.2824 274.29 39.072 274.411 38.8728L274.457 38.7975C274.837 38.1806 275.306 37.5268 275.85 36.8553C275.867 36.8341 275.884 36.8124 275.901 36.7912C276.241 36.3734 276.602 35.9574 276.975 35.5535C278.283 34.1364 278.818 32.1531 278.406 30.2473L278.404 30.2408Z" fill="white"/>
<path d="M272.766 31.3929C272.766 42.8216 263.501 49.2218 252.072 49.2218C240.644 49.2218 231.379 42.8216 231.379 31.3929C231.379 19.9642 240.644 10.6995 252.072 10.6995C263.501 10.6995 272.766 19.9642 272.766 31.3929Z" fill="#FDC703"/>
<path d="M234.205 13.032L228.426 30.4607C228.047 31.6037 228.304 32.8644 229.121 33.7492C230.746 35.5096 233.29 38.6756 233.411 41.3558C233.483 42.9509 233.497 44.2677 233.488 45.2709C233.475 46.7285 234.203 48.0763 235.418 48.8816L237.923 50.5419C238.613 50.9995 239.535 50.5045 239.535 49.6762V9.88672L237.083 10.4317C235.733 10.7318 234.64 11.7192 234.205 13.032Z" fill="#FFB806"/>
<path d="M269.938 13.032L275.716 30.4607C276.095 31.6037 275.838 32.8644 275.022 33.7492C273.396 35.5096 270.852 38.6756 270.731 41.3558C270.66 42.9509 270.646 44.2677 270.655 45.2709C270.668 46.7285 269.94 48.0763 268.725 48.8816L266.219 50.5419C265.529 50.9995 264.607 50.5045 264.607 49.6762V9.88672L267.059 10.4317C268.409 10.7318 269.502 11.7192 269.938 13.032Z" fill="#FFB806"/>
<path d="M264.608 24.7961H239.537V9.88662C247.073 4.6501 257.071 4.6501 264.608 9.88662V24.7961Z" fill="#FDC703"/>
<path d="M245.375 7.01953C244.326 7.35544 243.298 7.77116 242.297 8.26898V24.7387H245.375V7.01953Z" fill="#FFB806"/>
<path d="M250.866 6.04956C249.832 6.10644 248.807 6.23204 247.788 6.43486V24.7387H250.866V6.04956Z" fill="#FFB806"/>
<path d="M256.356 6.43486C255.337 6.23208 254.312 6.10648 253.278 6.04956V24.7387H256.356V6.43486Z" fill="#FFB806"/>
<path d="M258.77 7.01958V24.7387H261.848V8.26884C260.847 7.77103 259.819 7.35549 258.77 7.01958Z" fill="#FFB806"/>
<path d="M275.717 30.4606L275.154 28.7625H264.608V31.8406H275.846C275.89 31.3815 275.868 30.9135 275.717 30.4606Z" fill="#FFB000"/>
<path d="M264.608 22.344V25.4222H274.047L273.026 22.344H264.608Z" fill="#FFB000"/>
<path d="M264.608 35.1809V38.2591H271.704C272.283 37.1576 273.044 36.0963 273.786 35.1809H264.608Z" fill="#FFB000"/>
<path d="M264.608 44.6776H270.659C270.659 43.8198 270.674 42.8085 270.725 41.5994H264.608L264.608 44.6776Z" fill="#FFB000"/>
<path d="M233.247 15.9253L232.226 19.0035H239.537V15.9253H233.247Z" fill="#FFB000"/>
<path d="M264.608 15.9253V19.0035H271.919L270.898 15.9253H264.608Z" fill="#FFB000"/>
<path d="M231.119 22.344L230.098 25.4222H239.537V22.344H231.119Z" fill="#FFB000"/>
<path d="M233.486 44.6776H239.536V41.5994H233.419C233.47 42.8085 233.486 43.8198 233.486 44.6776Z" fill="#FFB000"/>
<path d="M228.99 28.7625L228.427 30.4606C228.277 30.9135 228.255 31.3815 228.299 31.8406H239.536V28.7625H228.99Z" fill="#FFB000"/>
<path d="M230.359 35.1809C231.1 36.0963 231.862 37.1576 232.441 38.2591H239.537V35.1809H230.359Z" fill="#FFB000"/>
<path d="M239.448 31.8406C239.448 33.8522 239.421 35.4829 237.409 35.4829C235.398 35.4829 233.767 33.8522 233.767 31.8406C233.767 29.829 235.398 28.1982 237.409 28.1982C239.421 28.1982 239.448 29.829 239.448 31.8406Z" fill="#F78C2C"/>
<path d="M264.697 31.8406C264.697 33.8522 264.724 35.4829 266.735 35.4829C268.747 35.4829 270.378 33.8522 270.378 31.8406C270.378 29.829 268.747 28.1982 266.735 28.1982C264.724 28.1982 264.697 29.829 264.697 31.8406Z" fill="#F78C2C"/>
<path d="M267.105 33.1936C267.105 41.4961 260.375 43.7062 252.072 43.7062C243.77 43.7062 237.039 41.4961 237.039 33.1936C237.039 24.891 243.77 22.0195 252.072 22.0195C260.375 22.0195 267.105 24.891 267.105 33.1936Z" fill="#FFEBB3"/>
<path d="M250.405 36.5183C251.254 37.5904 252.88 37.5913 253.73 36.5202L253.731 36.5183L253.739 36.5273" stroke="#232323" stroke-width="1.49071" stroke-linecap="round" stroke-linejoin="round"/>
<path d="M253.727 21.8169H250.417L248.26 15.115H255.885L253.727 21.8169Z" fill="#E27123"/>
<path d="M256.362 15.4409C256.362 17.3985 254.442 18.9854 252.072 18.9854C249.702 18.9854 247.781 17.3985 247.781 15.4409C247.781 13.4834 249.702 12.7371 252.072 12.7371C254.442 12.7371 256.362 13.4834 256.362 15.4409Z" fill="#F78839"/>
<path d="M252.072 17.8751C250.426 17.8751 248.961 17.2765 247.938 16.3411C248.423 17.8598 250.081 18.9852 252.072 18.9852C254.063 18.9852 255.721 17.8598 256.206 16.3411C255.183 17.2765 253.718 17.8751 252.072 17.8751Z" fill="#D1651C"/>
<path d="M267.105 33.1936C267.105 41.4961 260.375 43.7062 252.072 43.7062C243.77 43.7062 237.039 41.4961 237.039 33.1936C237.039 24.891 243.77 22.0195 252.072 22.0195C260.375 22.0195 267.105 24.891 267.105 33.1936Z" stroke="#F78C2C" stroke-width="1.82742" stroke-miterlimit="10"/>
<path d="M251.18 13.0436C251.18 12.6924 250.896 12.4077 250.545 12.4077C250.193 12.4077 249.909 12.6924 249.909 13.0436V13.7815C249.909 14.1327 250.193 14.4173 250.545 14.4173C250.896 14.4173 251.18 14.1327 251.18 13.7815V13.0436Z" fill="#D1651C"/>
<path d="M253.6 12.4077H253.6C253.249 12.4077 252.964 12.6924 252.964 13.0436V13.7815C252.964 14.1327 253.249 14.4173 253.6 14.4173H253.6C253.951 14.4173 254.236 14.1327 254.236 13.7815V13.0436C254.236 12.6924 253.951 12.4077 253.6 12.4077Z" fill="#D1651C"/>
<path d="M242.152 37.9779C243.527 37.9779 244.641 37.2509 244.641 36.354C244.641 35.4571 243.527 34.73 242.152 34.73C240.778 34.73 239.664 35.4571 239.664 36.354C239.664 37.2509 240.778 37.9779 242.152 37.9779Z" fill="#FFCEA9"/>
<path d="M261.99 37.9779C263.365 37.9779 264.479 37.2509 264.479 36.354C264.479 35.4571 263.365 34.73 261.99 34.73C260.616 34.73 259.502 35.4571 259.502 36.354C259.502 37.2509 260.616 37.9779 261.99 37.9779Z" fill="#FFCEA9"/>
<path d="M245.857 36.9206C248.098 36.9206 249.914 35.1039 249.914 32.8629C249.914 30.6219 248.098 28.8052 245.857 28.8052C243.616 28.8052 241.799 30.6219 241.799 32.8629C241.799 35.1039 243.616 36.9206 245.857 36.9206Z" fill="white"/>
<path d="M245.856 35.5071C247.317 35.5071 248.501 34.3232 248.501 32.8627C248.501 31.4022 247.317 30.2183 245.856 30.2183C244.396 30.2183 243.212 31.4022 243.212 32.8627C243.212 34.3232 244.396 35.5071 245.856 35.5071Z" fill="black"/>
<path opacity="0.13" d="M245.856 32.7875C246.456 32.7875 246.942 32.4069 246.942 31.9375C246.942 31.468 246.456 31.0874 245.856 31.0874C245.257 31.0874 244.771 31.468 244.771 31.9375C244.771 32.4069 245.257 32.7875 245.856 32.7875Z" fill="white"/>
<path d="M258.287 36.9206C260.528 36.9206 262.345 35.1039 262.345 32.8629C262.345 30.6219 260.528 28.8052 258.287 28.8052C256.046 28.8052 254.229 30.6219 254.229 32.8629C254.229 35.1039 256.046 36.9206 258.287 36.9206Z" fill="white"/>
<path d="M258.287 35.5071C259.748 35.5071 260.932 34.3232 260.932 32.8627C260.932 31.4022 259.748 30.2183 258.287 30.2183C256.827 30.2183 255.643 31.4022 255.643 32.8627C255.643 34.3232 256.827 35.5071 258.287 35.5071Z" fill="black"/>
<path opacity="0.13" d="M258.288 32.7875C258.887 32.7875 259.373 32.4069 259.373 31.9375C259.373 31.468 258.887 31.0874 258.288 31.0874C257.688 31.0874 257.202 31.468 257.202 31.9375C257.202 32.4069 257.688 32.7875 258.288 32.7875Z" fill="white"/>
<path d="M252.072 51.0194C251.151 51.0194 250.34 50.41 250.084 49.5248L248.238 43.1387H255.907L254.06 49.5248C253.805 50.41 252.994 51.0194 252.072 51.0194Z" fill="#F78C2C"/>
<path d="M254.181 49.1077L254.554 47.8167H249.59L249.964 49.1077H254.181Z" fill="#EF7F25"/>
<path d="M248.79 45.05L249.163 46.3411H254.981L255.354 45.05H248.79Z" fill="#EF7F25"/>
<path d="M332.746 15.5386C331.242 14.897 329.533 15.3161 328.495 16.5816C328.323 16.7918 328.147 17.0065 327.968 17.2237C327.421 16.8568 326.79 16.6001 326.105 16.4841L323.871 16.1061C322.279 13.5643 319.596 11.491 316.221 10.1921V10.1699C316.221 8.90683 315.59 7.73999 314.533 7.04982L312.943 6.00967C312.928 5.94468 312.912 5.8797 312.893 5.81429C312.876 5.74189 312.855 5.66991 312.831 5.59878C312.771 5.4178 312.695 5.23931 312.606 5.06903C312.599 5.05383 312.591 5.039 312.583 5.02422C312.34 4.57138 312.013 4.18189 311.636 3.88328C311.593 3.84748 311.546 3.81008 311.508 3.7817C311.496 3.77306 311.484 3.76485 311.473 3.75659C311.385 3.69325 311.292 3.63484 311.198 3.57975C311.097 3.51969 310.993 3.46296 310.889 3.4144C310.812 3.3786 310.733 3.34448 310.653 3.31281C310.636 3.30624 310.618 3.29967 310.601 3.29306C310.48 3.24863 310.356 3.20996 310.22 3.17463C310.151 3.15652 310.081 3.14009 309.979 3.11992C309.746 3.07713 309.524 3.05615 309.302 3.05615H306.837C306.615 3.05615 306.393 3.07713 306.121 3.12729C306.055 3.14085 305.989 3.15647 305.909 3.17745C305.783 3.20992 305.659 3.24858 305.538 3.29302C305.521 3.29959 305.503 3.30616 305.486 3.31277C305.411 3.34238 305.336 3.37447 305.263 3.40821C305.249 3.4152 305.234 3.42177 305.22 3.42918C305.124 3.47568 305.032 3.52584 304.942 3.5797C304.843 3.6377 304.745 3.6994 304.622 3.78945C304.58 3.82028 304.541 3.85237 304.501 3.88526C304.102 4.20691 303.779 4.60049 303.54 5.05497C303.536 5.06318 303.532 5.07181 303.528 5.08007C303.442 5.24664 303.368 5.42105 303.308 5.59869C303.286 5.66448 303.267 5.73237 303.25 5.80106C303.23 5.87098 303.213 5.94009 303.197 6.00958L301.608 7.04852C300.55 7.73906 299.918 8.90595 299.918 10.1698V10.192C296.544 11.4909 293.86 13.5642 292.269 16.106L290.035 16.484C289.349 16.6 288.718 16.8567 288.171 17.2236C287.992 17.0064 287.816 16.7917 287.644 16.5815C286.607 15.3164 284.899 14.8965 283.393 15.5381C281.887 16.1793 281.005 17.7023 281.198 19.3278L282.246 28.1546C282.335 28.9027 282.658 29.6105 283.162 30.1703C282.262 31.4676 281.763 33.0227 281.763 34.6543C281.763 38.0606 283.959 41.0512 287.116 42.1213C289.762 47.4114 294.918 51.1657 301.567 52.6407C302.169 53.4324 303.121 53.944 304.19 53.944H311.949C313.018 53.944 313.97 53.4324 314.572 52.6407C321.221 51.1661 326.377 47.4114 329.023 42.1222C332.179 41.0536 334.376 38.0619 334.376 34.6543C334.376 33.0227 333.877 31.4676 332.978 30.1708C333.481 29.6118 333.805 28.9032 333.894 28.1546L334.941 19.3282C335.134 17.7027 334.252 16.1797 332.746 15.5386Z" fill="white"/>
<path d="M310.503 6.78421C310.503 6.12091 309.966 5.58325 309.302 5.58325H306.837C306.174 5.58325 305.636 6.12096 305.636 6.78421C305.636 7.18958 305.432 7.56762 305.092 7.78945L302.989 9.16452C302.65 9.38635 302.445 9.76434 302.445 10.1698V19.9495H313.694V10.1698C313.694 9.76438 313.49 9.38635 313.151 9.16452L311.047 7.78945C310.708 7.56762 310.503 7.18962 310.503 6.78421Z" fill="#C90D16"/>
<path d="M310.436 6.40297C310.276 5.92777 309.832 5.58325 309.303 5.58325H306.837C306.308 5.58325 305.864 5.92781 305.704 6.40301V14.5026C305.704 15.0753 306.168 15.5396 306.741 15.5396H309.399C309.972 15.5396 310.436 15.0753 310.436 14.5026L310.436 6.40297Z" fill="#F11C1E"/>
<path d="M326.103 23.449C326.805 22.6203 328.802 20.1915 330.449 18.1841C331.161 17.3162 332.564 17.9156 332.432 19.0304L331.384 27.8565C331.354 28.1089 331.239 28.3438 331.058 28.5227L327.442 32.1C326.715 32.8183 325.485 32.2731 325.529 31.2527L325.839 24.1248C325.85 23.8755 325.942 23.6394 326.103 23.449Z" fill="#6B8187"/>
<path d="M290.036 23.449C289.334 22.6203 287.337 20.1915 285.69 18.1841C284.978 17.3162 283.575 17.9156 283.707 19.0304L284.755 27.8565C284.785 28.1089 284.9 28.3438 285.081 28.5227L288.697 32.1C289.424 32.8183 290.654 32.2731 290.61 31.2527L290.3 24.1248C290.289 23.8755 290.197 23.6394 290.036 23.449Z" fill="#6B8187"/>
<path d="M328.506 33.2023C328.506 44.4888 319.356 50.8093 308.07 50.8093C296.783 50.8093 287.634 44.4888 287.634 33.2023C287.634 21.9159 296.783 12.7664 308.07 12.7664C319.356 12.7664 328.506 21.9159 328.506 33.2023Z" fill="#AFC1C9"/>
<path d="M322.916 36.8863C322.916 45.0856 316.269 47.2681 308.07 47.2681C299.871 47.2681 293.224 45.0856 293.224 36.8863C293.224 28.6871 299.871 22.0403 308.07 22.0403C316.269 22.0403 322.916 28.6871 322.916 36.8863Z" fill="#FFE6C5"/>
<path d="M301.931 38.6614C304.145 38.6614 305.939 36.8673 305.939 34.6542C305.939 32.4411 304.145 30.647 301.931 30.647C299.718 30.647 297.924 32.4411 297.924 34.6542C297.924 36.8673 299.718 38.6614 301.931 38.6614Z" fill="white"/>
<path d="M301.931 37.2658C303.374 37.2658 304.543 36.0966 304.543 34.6543C304.543 33.2119 303.374 32.0427 301.931 32.0427C300.489 32.0427 299.32 33.2119 299.32 34.6543C299.32 36.0966 300.489 37.2658 301.931 37.2658Z" fill="#0D3442"/>
<path opacity="0.13" d="M301.931 34.5801C302.523 34.5801 303.003 34.2042 303.003 33.7406C303.003 33.277 302.523 32.9011 301.931 32.9011C301.339 32.9011 300.859 33.277 300.859 33.7406C300.859 34.2042 301.339 34.5801 301.931 34.5801Z" fill="white"/>
<path d="M314.206 38.6614C316.42 38.6614 318.214 36.8673 318.214 34.6542C318.214 32.4411 316.42 30.647 314.206 30.647C311.993 30.647 310.199 32.4411 310.199 34.6542C310.199 36.8673 311.993 38.6614 314.206 38.6614Z" fill="white"/>
<path d="M314.206 37.2658C315.649 37.2658 316.818 36.0966 316.818 34.6543C316.818 33.2119 315.649 32.0427 314.206 32.0427C312.764 32.0427 311.595 33.2119 311.595 34.6543C311.595 36.0966 312.764 37.2658 314.206 37.2658Z" fill="#0D3442"/>
<path opacity="0.13" d="M314.205 34.5801C314.797 34.5801 315.277 34.2042 315.277 33.7406C315.277 33.277 314.797 32.9011 314.205 32.9011C313.613 32.9011 313.133 33.277 313.133 33.7406C313.133 34.2042 313.613 34.5801 314.205 34.5801Z" fill="white"/>
<path d="M306.424 38.2639C307.262 39.3226 308.868 39.3235 309.708 38.2658L309.709 38.2639L309.716 38.2728" stroke="#232323" stroke-width="1.47215" stroke-linecap="round" stroke-linejoin="round"/>
<path d="M322.947 21.5195C322.947 27.1905 316.286 26.1541 308.07 26.1541C299.853 26.1541 293.192 27.1905 293.192 21.5195C293.192 15.8485 299.853 11.2512 308.07 11.2512C316.286 11.2512 322.947 15.8485 322.947 21.5195Z" fill="#6B8187"/>
<path d="M325.982 28.6245H290.158C288.819 28.6245 287.784 27.4491 287.954 26.1211L288.623 20.8847C288.747 19.9142 289.492 19.1391 290.456 18.9759L307.699 16.0578C307.944 16.0162 308.195 16.0162 308.44 16.0578L325.683 18.9759C326.648 19.1391 327.392 19.9142 327.516 20.8847L328.186 26.1211C328.355 27.4491 327.321 28.6245 325.982 28.6245Z" fill="#7A9199"/>
<path d="M311.95 46.3567H304.191C303.767 46.3567 303.423 46.7003 303.423 47.1242V50.6498C303.423 51.0736 303.767 51.4173 304.191 51.4173H311.95C312.374 51.4173 312.717 51.0736 312.717 50.6498V47.1242C312.717 46.7003 312.374 46.3567 311.95 46.3567Z" fill="#B87D5F"/>
<path d="M326.492 30.2741C326.492 29.7245 326.989 29.2921 327.528 29.3978C329.991 29.8807 331.848 32.0504 331.848 34.654C331.848 37.2577 329.991 39.4274 327.528 39.9103C326.989 40.016 326.492 39.5836 326.492 39.034V30.2741Z" fill="#9AACB2"/>
<path d="M289.646 30.2741C289.646 29.7245 289.148 29.2921 288.609 29.3978C286.147 29.8807 284.289 32.0504 284.289 34.654C284.289 37.2577 286.147 39.4274 288.609 39.9103C289.148 40.016 289.646 39.5836 289.646 39.034V30.2741Z" fill="#9AACB2"/>
<path d="M317.321 20.4353H298.818C298.114 20.4353 297.543 21.006 297.543 21.71C297.543 22.4141 298.114 22.9848 298.818 22.9848H306.684V28.6245H309.456V22.9848H317.321C318.025 22.9848 318.596 22.4141 318.596 21.71C318.596 21.006 318.025 20.4353 317.321 20.4353Z" fill="#6B8187"/>
<path d="M381.791 11.9422C381.781 11.9323 381.771 11.9223 381.761 11.9124C376.997 7.2699 370.713 4.71338 364.068 4.71338C357.03 4.71338 350.247 7.67946 345.459 12.8514C341.108 17.5527 338.711 23.668 338.711 30.0708C338.711 36.8559 341.351 42.5776 346.346 46.6174C350.866 50.2732 357.16 52.2864 364.068 52.2864C370.977 52.2864 377.271 50.2732 381.791 46.6174C386.786 42.5776 389.426 36.8558 389.426 30.0708C389.426 23.6685 387.03 17.5536 382.679 12.8527C382.4 12.5505 382.109 12.2527 381.791 11.9422Z" fill="white"/>
<path d="M386.766 30.071C386.766 42.6065 376.604 49.6266 364.069 49.6266C351.533 49.6266 341.371 42.6066 341.371 30.071C341.371 17.5354 351.533 7.37329 364.069 7.37329C376.604 7.37329 386.766 17.5354 386.766 30.071Z" fill="#91A9B6"/>
<path d="M380.558 34.1627C380.558 43.2693 373.176 45.6934 364.069 45.6934C354.962 45.6934 347.58 43.2693 347.58 34.1627C347.58 25.056 354.962 17.6736 364.069 17.6736C373.176 17.6736 380.558 25.056 380.558 34.1627Z" fill="#D9E7EF"/>
<path opacity="0.08" d="M348.772 25.9142C348.772 18.9041 354.455 13.2212 361.465 13.2212" stroke="white" stroke-width="5.81272" stroke-miterlimit="10" stroke-linecap="round"/>
<path opacity="0.08" d="M368.809 16.2323C370.364 16.2323 371.624 14.9721 371.624 13.4177C371.624 11.8632 370.364 10.603 368.809 10.603C367.255 10.603 365.995 11.8632 365.995 13.4177C365.995 14.9721 367.255 16.2323 368.809 16.2323Z" fill="white"/>
<path d="M362.241 35.6929C363.171 36.8688 364.955 36.8698 365.887 35.695L365.889 35.6929L365.897 35.7028" stroke="#232323" stroke-width="1.63506" stroke-linecap="round" stroke-linejoin="round"/>
<path d="M357.087 19.2207V45.3196" stroke="#C0D4DD" stroke-width="0.499903" stroke-miterlimit="10"/>
<path d="M370.886 19.2205V45.3194" stroke="#C0D4DD" stroke-width="0.499903" stroke-miterlimit="10"/>
<path d="M357.251 36.134C359.709 36.134 361.702 34.1414 361.702 31.6833C361.702 29.2253 359.709 27.2327 357.251 27.2327C354.793 27.2327 352.801 29.2253 352.801 31.6833C352.801 34.1414 354.793 36.134 357.251 36.134Z" fill="white"/>
<path d="M357.251 34.5838C358.853 34.5838 360.152 33.2852 360.152 31.6833C360.152 30.0813 358.853 28.7827 357.251 28.7827C355.649 28.7827 354.351 30.0813 354.351 31.6833C354.351 33.2852 355.649 34.5838 357.251 34.5838Z" fill="black"/>
<path opacity="0.13" d="M357.252 31.6008C357.909 31.6008 358.442 31.1834 358.442 30.6685C358.442 30.1535 357.909 29.7361 357.252 29.7361C356.594 29.7361 356.061 30.1535 356.061 30.6685C356.061 31.1834 356.594 31.6008 357.252 31.6008Z" fill="white"/>
<path d="M370.886 36.134C373.344 36.134 375.337 34.1414 375.337 31.6833C375.337 29.2253 373.344 27.2327 370.886 27.2327C368.428 27.2327 366.436 29.2253 366.436 31.6833C366.436 34.1414 368.428 36.134 370.886 36.134Z" fill="white"/>
<path d="M370.886 34.5838C372.488 34.5838 373.786 33.2852 373.786 31.6833C373.786 30.0813 372.488 28.7827 370.886 28.7827C369.284 28.7827 367.985 30.0813 367.985 31.6833C367.985 33.2852 369.284 34.5838 370.886 34.5838Z" fill="black"/>
<path opacity="0.13" d="M370.886 31.6008C371.544 31.6008 372.077 31.1834 372.077 30.6685C372.077 30.1535 371.544 29.7361 370.886 29.7361C370.229 29.7361 369.696 30.1535 369.696 30.6685C369.696 31.1834 370.229 31.6008 370.886 31.6008Z" fill="white"/>
<path d="M380.558 34.1627C380.558 43.2693 373.176 45.6934 364.069 45.6934C354.962 45.6934 347.58 43.2693 347.58 34.1627C347.58 25.056 354.962 17.6736 364.069 17.6736C373.176 17.6736 380.558 25.056 380.558 34.1627Z" stroke="#BACFD8" stroke-width="2.0044" stroke-miterlimit="10"/>
<path d="M347.411 14.6586H380.726C380.459 14.3709 380.185 14.091 379.904 13.8174H348.233C347.952 14.091 347.677 14.3709 347.411 14.6586Z" fill="#738D9A"/>
<path d="M354.877 12.6311C355.234 12.6311 355.523 12.3419 355.523 11.9852C355.523 11.6285 355.234 11.3394 354.877 11.3394C354.521 11.3394 354.231 11.6285 354.231 11.9852C354.231 12.3419 354.521 12.6311 354.877 12.6311Z" fill="#738D9A"/>
<path d="M359.473 12.6311C359.83 12.6311 360.119 12.3419 360.119 11.9852C360.119 11.6285 359.83 11.3394 359.473 11.3394C359.117 11.3394 358.828 11.6285 358.828 11.9852C358.828 12.3419 359.117 12.6311 359.473 12.6311Z" fill="#738D9A"/>
<path d="M364.07 12.6311C364.426 12.6311 364.716 12.3419 364.716 11.9852C364.716 11.6285 364.426 11.3394 364.07 11.3394C363.713 11.3394 363.424 11.6285 363.424 11.9852C363.424 12.3419 363.713 12.6311 364.07 12.6311Z" fill="#738D9A"/>
<path d="M368.666 12.6311C369.023 12.6311 369.312 12.3419 369.312 11.9852C369.312 11.6285 369.023 11.3394 368.666 11.3394C368.31 11.3394 368.021 11.6285 368.021 11.9852C368.021 12.3419 368.31 12.6311 368.666 12.6311Z" fill="#738D9A"/>
<path d="M373.262 12.6311C373.619 12.6311 373.908 12.3419 373.908 11.9852C373.908 11.6285 373.619 11.3394 373.262 11.3394C372.905 11.3394 372.616 11.6285 372.616 11.9852C372.616 12.3419 372.905 12.6311 373.262 12.6311Z" fill="#738D9A"/>
<path d="M443.235 19.7559C444.239 18.2571 444.792 16.4781 444.792 14.6585C444.792 9.60734 440.683 5.49786 435.632 5.49786C433.813 5.49786 432.082 6.02259 430.602 7.00147C427.312 5.50047 423.705 4.71338 420.068 4.71338C416.43 4.71338 412.824 5.50047 409.534 7.00147C408.054 6.02259 406.323 5.49786 404.504 5.49786C399.453 5.49786 395.343 9.60734 395.343 14.6585C395.343 16.4782 395.897 18.2567 396.901 19.7555C395.464 22.987 394.71 26.5181 394.71 30.0708C394.71 36.8559 397.351 42.5777 402.346 46.6175C406.866 50.2732 413.159 52.2864 420.068 52.2864C426.976 52.2864 433.27 50.2732 437.79 46.6175C442.786 42.5777 445.426 36.8559 445.426 30.0708C445.426 26.5177 444.672 22.9866 443.235 19.7559Z" fill="white"/>
<path d="M404.504 21.1591C408.094 21.1591 411.004 18.2486 411.004 14.6584C411.004 11.0682 408.094 8.15771 404.504 8.15771C400.913 8.15771 398.003 11.0682 398.003 14.6584C398.003 18.2486 400.913 21.1591 404.504 21.1591Z" fill="#FF8022"/>
<path d="M435.632 21.1591C439.222 21.1591 442.132 18.2486 442.132 14.6584C442.132 11.0682 439.222 8.15771 435.632 8.15771C432.041 8.15771 429.131 11.0682 429.131 14.6584C429.131 18.2486 432.041 21.1591 435.632 21.1591Z" fill="#FF8022"/>
<path d="M442.766 30.0707C442.766 42.6063 432.604 49.6263 420.068 49.6263C407.533 49.6263 397.371 42.6063 397.371 30.0707C397.371 17.5351 407.533 7.37305 420.068 7.37305C432.604 7.37305 442.766 17.5351 442.766 30.0707Z" fill="#FF8022"/>
<path d="M436.558 34.1624C436.558 43.2691 429.175 45.6932 420.069 45.6932C410.962 45.6932 403.58 43.2691 403.58 34.1624C403.58 25.0557 410.962 17.6733 420.069 17.6733C429.175 17.6733 436.558 25.0558 436.558 34.1624Z" fill="#FFEBB3"/>
<path opacity="0.12" d="M404.771 25.914C404.771 18.9038 410.454 13.2209 417.465 13.2209" stroke="white" stroke-width="5.81272" stroke-miterlimit="10" stroke-linecap="round"/>
<path opacity="0.12" d="M424.809 16.2323C426.363 16.2323 427.623 14.9721 427.623 13.4177C427.623 11.8632 426.363 10.603 424.809 10.603C423.254 10.603 421.994 11.8632 421.994 13.4177C421.994 14.9721 423.254 16.2323 424.809 16.2323Z" fill="white"/>
<path d="M413.251 36.134C415.709 36.134 417.702 34.1414 417.702 31.6833C417.702 29.2253 415.709 27.2327 413.251 27.2327C410.793 27.2327 408.8 29.2253 408.8 31.6833C408.8 34.1414 410.793 36.134 413.251 36.134Z" fill="white"/>
<path d="M413.251 34.5838C414.853 34.5838 416.151 33.2852 416.151 31.6833C416.151 30.0813 414.853 28.7827 413.251 28.7827C411.649 28.7827 410.35 30.0813 410.35 31.6833C410.35 33.2852 411.649 34.5838 413.251 34.5838Z" fill="black"/>
<path opacity="0.13" d="M413.251 31.6008C413.908 31.6008 414.441 31.1834 414.441 30.6685C414.441 30.1535 413.908 29.7361 413.251 29.7361C412.593 29.7361 412.06 30.1535 412.06 30.6685C412.06 31.1834 412.593 31.6008 413.251 31.6008Z" fill="white"/>
<path d="M426.885 36.134C429.343 36.134 431.336 34.1414 431.336 31.6833C431.336 29.2253 429.343 27.2327 426.885 27.2327C424.427 27.2327 422.435 29.2253 422.435 31.6833C422.435 34.1414 424.427 36.134 426.885 36.134Z" fill="white"/>
<path d="M426.885 34.5838C428.487 34.5838 429.785 33.2852 429.785 31.6833C429.785 30.0813 428.487 28.7827 426.885 28.7827C425.283 28.7827 423.984 30.0813 423.984 31.6833C423.984 33.2852 425.283 34.5838 426.885 34.5838Z" fill="black"/>
<path opacity="0.13" d="M426.885 31.6008C427.543 31.6008 428.076 31.1834 428.076 30.6685C428.076 30.1535 427.543 29.7361 426.885 29.7361C426.228 29.7361 425.695 30.1535 425.695 30.6685C425.695 31.1834 426.228 31.6008 426.885 31.6008Z" fill="white"/>
<path d="M418.24 35.6926C419.171 36.8685 420.955 36.8695 421.887 35.6947L421.889 35.6926L421.896 35.7025" stroke="#232323" stroke-width="1.63506" stroke-linecap="round" stroke-linejoin="round"/>
<defs>
<clipPath id="clip0_4526_91541">
<rect width="56" height="56" fill="white" transform="translate(112.069 0.5)"/>
</clipPath>
<clipPath id="clip1_4526_91541">
<rect width="56" height="56" fill="white" transform="translate(168.069 0.5)"/>
</clipPath>
</defs>
</svg>
