<svg width="224" height="224" viewBox="0 0 224 224" fill="none" xmlns="http://www.w3.org/2000/svg">
<path d="M112 224C173.856 224 224 173.856 224 112C224 50.1441 173.856 0 112 0C50.1441 0 0 50.1441 0 112C0 173.856 50.1441 224 112 224Z" fill="#4BC8DC"/>
<path d="M93.8771 150.577C92.0988 150.577 90.8675 150.245 90.1832 149.578C89.4966 148.912 89.155 147.708 89.155 145.967V121.246C89.155 120.209 89.5156 119.45 90.2383 118.969C90.9608 118.487 91.7848 118.246 92.7103 118.246C93.6729 118.246 94.5161 118.487 95.2374 118.969C95.96 119.45 96.3219 120.209 96.3219 121.246V143.244C96.3219 144.097 96.7471 144.522 97.5986 144.522C100.673 144.522 103.636 144.438 106.487 144.274C109.338 144.106 112.116 143.839 114.82 143.466C115.671 143.356 116.347 143.559 116.848 144.078C117.348 144.598 117.633 145.265 117.709 146.079C117.783 146.929 117.672 147.679 117.375 148.327C117.078 148.976 116.523 149.356 115.708 149.466C114.56 149.614 113.292 149.755 111.903 149.884C110.515 150.013 108.94 150.132 107.181 150.245C105.422 150.355 103.441 150.438 101.238 150.495C99.0342 150.55 96.58 150.577 93.8774 150.577L93.8771 150.577ZM132.652 131.356C133.541 131.356 134.188 131.655 134.597 132.245C135.003 132.84 135.207 133.561 135.207 134.411C135.207 135.264 135.003 135.995 134.597 136.606C134.188 137.218 133.541 137.524 132.652 137.524H127.43V160.523C127.43 161.557 127.069 162.316 126.346 162.799C125.624 163.279 124.8 163.52 123.874 163.52C122.949 163.52 122.125 163.279 121.402 162.799C120.681 162.316 120.319 161.557 120.319 160.523V117.969C120.319 116.932 120.681 116.173 121.402 115.693C122.125 115.21 122.949 114.969 123.874 114.969C124.8 114.969 125.624 115.21 126.346 115.693C127.069 116.173 127.43 116.932 127.43 117.969V131.356H132.652ZM35 86.9783C34.1474 86.9783 33.518 86.6822 33.1119 86.0898C32.7036 85.4974 32.5005 84.7927 32.5005 83.9783C32.5005 83.128 32.7036 82.4043 33.1119 81.8119C33.518 81.2195 34.1474 80.9234 35 80.9234H51.6098C53.3881 80.9234 54.6182 81.2579 55.3048 81.9242C55.9891 82.5907 56.3319 83.7944 56.3319 85.5333V91.5881C56.3319 93.9216 56.1096 95.9496 55.6654 97.6717C55.2211 99.3938 54.3123 101.071 52.9437 102.699C51.5727 104.329 49.6188 106.06 47.0823 107.894C44.5457 109.726 41.185 111.941 37.0004 114.532C36.2217 115.015 35.4168 115.096 34.5832 114.783C33.7508 114.468 33.1119 113.976 32.6665 113.309C32.2223 112.643 32.0001 111.866 32.0001 110.976C32.0001 110.087 32.4073 109.385 33.223 108.867C35.7406 107.348 37.8889 106.005 39.6661 104.837C41.4444 103.672 42.9251 102.625 44.1111 101.699C45.2958 100.774 46.2308 99.9217 46.9164 99.1455C47.6008 98.3668 48.1191 97.5809 48.4714 96.7832C48.8226 95.9878 49.0458 95.1638 49.1379 94.3111C49.2298 93.4608 49.2776 92.4791 49.2776 91.3661V88.2561C49.2776 87.4058 48.8512 86.9783 47.9997 86.9783H35.0002H35ZM76.3309 93.4774C77.2194 93.4774 77.8667 93.776 78.2752 94.3659C78.6813 94.9606 78.8855 95.6819 78.8855 96.5322C78.8855 97.3848 78.6813 98.1158 78.2752 98.7272C77.8669 99.3386 77.2196 99.6445 76.3309 99.6445H71.1084V122.644C71.1084 123.678 70.7478 124.437 70.0251 124.92C69.3026 125.4 68.4786 125.641 67.553 125.641C66.6275 125.641 65.8035 125.4 65.081 124.92C64.3596 124.437 63.9977 123.678 63.9977 122.644V80.0898C63.9977 79.0532 64.3596 78.2936 65.081 77.8135C65.8035 77.3311 66.6275 77.0898 67.553 77.0898C68.4786 77.0898 69.3026 77.3311 70.0251 77.8135C70.7476 78.2936 71.1084 79.0532 71.1084 80.0898V93.4774H76.3309ZM154.226 86.8683C153.373 86.8683 152.948 87.2936 152.948 88.1439V105.587C152.948 106.44 153.373 106.865 154.226 106.865C157.373 106.865 160.382 106.781 163.253 106.617C166.122 106.45 168.909 106.182 171.613 105.809C172.465 105.699 173.141 105.902 173.641 106.421C174.141 106.941 174.427 107.608 174.502 108.422C174.576 109.273 174.465 110.023 174.169 110.67C173.871 111.319 173.316 111.699 172.502 111.809C171.354 111.957 170.086 112.098 168.697 112.227C167.308 112.356 165.725 112.475 163.947 112.588C162.17 112.698 160.178 112.781 157.976 112.839C155.771 112.893 153.299 112.92 150.56 112.92C148.781 112.92 147.55 112.588 146.866 111.921C146.179 111.255 145.837 110.051 145.837 108.31V85.4231C145.837 83.6819 146.179 82.4781 146.866 81.8118C147.55 81.1453 148.781 80.811 150.56 80.811H168.114C168.965 80.811 169.595 81.1096 170.002 81.702C170.409 82.2944 170.613 83.0157 170.613 83.8683C170.613 84.6828 170.409 85.3874 170.002 85.9773C169.595 86.572 168.965 86.8683 168.114 86.8683H154.226ZM189.446 93.4774C190.334 93.4774 190.982 93.776 191.39 94.3659C191.796 94.9606 192 95.6819 192 96.5322C192 97.3848 191.796 98.1158 191.39 98.7272C190.982 99.3386 190.334 99.6445 189.446 99.6445H184.223V122.644C184.223 123.678 183.863 124.437 183.14 124.92C182.417 125.4 181.593 125.641 180.668 125.641C179.742 125.641 178.918 125.4 178.196 124.92C177.474 124.437 177.113 123.678 177.113 122.644V80.0898C177.113 79.0532 177.474 78.2936 178.196 77.8135C178.918 77.3311 179.742 77.0898 180.668 77.0898C181.593 77.0898 182.417 77.3311 183.14 77.8135C183.862 78.2936 184.223 79.0532 184.223 80.0898V93.4774H189.446Z" fill="white"/>
</svg>
