<svg width="224" height="224" viewBox="0 0 224 224" fill="none" xmlns="http://www.w3.org/2000/svg">
<path d="M112 224C173.856 224 224 173.856 224 112C224 50.1441 173.856 0 112 0C50.1441 0 0 50.1441 0 112C0 173.856 50.1441 224 112 224Z" fill="#4BC8DC"/>
<path d="M62.4435 120.513C47.3754 120.513 35.1168 108.254 35.1168 93.1866C35.1168 78.1193 47.3756 65.8582 62.4435 65.8582C77.5115 65.8582 89.7712 78.1176 89.7712 93.1866C89.7712 108.256 77.5124 120.513 62.4435 120.513ZM62.4435 74.1248C51.9335 74.1248 43.3834 82.6757 43.3834 93.1866C43.3834 103.698 51.9335 112.247 62.4435 112.247C72.9536 112.247 81.5045 103.696 81.5045 93.1866C81.5045 82.6774 72.9536 74.1248 62.4435 74.1248Z" fill="white"/>
<path d="M183.193 117.391H143.042C139.904 117.391 137.351 114.838 137.351 111.701V71.5496C137.351 68.4109 139.904 65.8582 143.042 65.8582H183.193C186.331 65.8582 188.883 68.4107 188.883 71.5496V111.701C188.883 114.838 186.331 117.391 183.193 117.391ZM145.618 109.124H180.617V74.125H145.618V109.124Z" fill="white"/>
<path d="M137.933 168.286H92.1405C89.3667 168.286 86.8826 166.853 85.4958 164.45C84.1096 162.049 84.1096 159.18 85.4966 156.778L108.393 117.12C109.779 114.72 112.263 113.284 115.036 113.284C117.809 113.284 120.294 114.718 121.681 117.119L144.578 156.778C145.965 159.182 145.964 162.049 144.577 164.452C143.19 166.853 140.707 168.286 137.933 168.286H137.933ZM93.1699 160.02H136.905L115.038 122.145L93.1697 160.02H93.1699Z" fill="white"/>
</svg>
