<svg width="184" height="143" viewBox="0 0 184 143" fill="none" xmlns="http://www.w3.org/2000/svg">
<path opacity="0.3" d="M115.179 0C106.685 0 99.7754 6.91502 99.7754 15.4143V17.3615L98.1072 18.6645C85.5375 28.4832 69.833 33.8906 53.8877 33.8906H25.9113C19.1431 33.8906 13.6368 39.4011 13.6368 46.1739V47.2647C5.79911 49.3235 0 56.4723 0 64.9527C0 73.433 5.79911 80.5818 13.6368 82.6406V83.7028C13.6368 90.4757 19.143 95.9855 25.9113 95.9855H35.0063V130.257C35.0063 137.283 40.719 143 47.7408 143H53.2623C60.2841 143 65.9968 137.283 65.9968 130.257V100.344C65.9968 99.1717 65.8326 98.04 65.5533 96.9538C77.36 98.9127 88.6259 103.805 98.1076 111.212L100.123 112.787C101.619 119.73 107.8 124.95 115.179 124.95C123.672 124.95 130.582 118.035 130.582 109.535V15.4143C130.582 6.91502 123.672 0 115.179 0ZM9.27184 64.9527C9.27184 61.6839 11.0264 58.825 13.6368 57.2464V72.6589C11.0264 71.0802 9.27184 68.2214 9.27184 64.9527ZM25.9113 86.7069C24.2557 86.7069 22.9087 85.3596 22.9087 83.7028V46.1739C22.9087 44.5171 24.2557 43.169 25.9113 43.169H53.8877C60.1206 43.169 66.3192 42.4323 72.351 41.0155V88.8606C66.3192 87.4439 60.1206 86.7069 53.8877 86.7069H25.9113ZM56.7249 130.257C56.7249 132.167 55.1717 133.721 53.2622 133.721H47.7407C45.8313 133.721 44.278 132.167 44.278 130.257V95.9855H52.3696C54.7712 95.9855 56.7248 97.9406 56.7248 100.344V130.257H56.7249ZM81.6228 91.6331V38.2431C88.021 35.9143 94.1346 32.7978 99.7754 28.9335V100.943C94.1345 97.0787 88.021 93.962 81.6228 91.6331ZM121.31 109.535C121.31 112.918 118.559 115.671 115.179 115.671C112.045 115.671 109.457 113.305 109.095 110.266L109.066 109.843C109.058 109.741 109.047 109.639 109.047 109.535V15.4143C109.047 12.0311 111.798 9.27855 115.179 9.27855C118.559 9.27855 121.31 12.031 121.31 15.4143V109.535V109.535ZM184 62.4748C184 65.0369 181.924 67.1141 179.364 67.1141H157.278C154.717 67.1141 152.642 65.0369 152.642 62.4748C152.642 59.9126 154.717 57.8355 157.278 57.8355H179.364C181.924 57.8355 184 59.9126 184 62.4748ZM145.133 42.1396C143.96 39.8618 144.855 37.064 147.132 35.8909L166.767 25.7704C169.043 24.598 171.839 25.493 173.011 27.7701C174.184 30.048 173.289 32.8457 171.012 34.0188L151.377 44.1394C150.698 44.4892 149.973 44.6552 149.258 44.6552C147.577 44.6552 145.956 43.7379 145.133 42.1397V42.1396ZM173.011 97.1794C172.188 98.7777 170.567 99.6949 168.886 99.6949C168.171 99.6949 167.446 99.529 166.767 99.1791L147.132 89.0585C144.855 87.8855 143.96 85.0877 145.133 82.8099C146.306 80.5321 149.1 79.6371 151.377 80.8101L171.012 90.9307C173.289 92.1038 174.184 94.9015 173.011 97.1794V97.1794Z" fill="white"/>
</svg>
