<svg width="926" height="264" viewBox="0 0 926 264" fill="none" xmlns="http://www.w3.org/2000/svg">
<g opacity="0.5">
<path opacity="0.3" d="M463 160C507.183 160 543 124.183 543 80C543 35.8172 507.183 0 463 0C418.817 0 383 35.8172 383 80C383 124.183 418.817 160 463 160Z" fill="#7F6CF8"/>
<path opacity="0.1" d="M404.362 79.9999C404.362 55.3333 419.592 34.2238 441.162 25.5624" stroke="white" stroke-width="16.8" stroke-linecap="round" stroke-linejoin="round"/>
<path opacity="0.1" d="M411.117 107.348C410.34 105.876 409.623 104.367 408.971 102.825" stroke="white" stroke-width="16.8" stroke-linecap="round" stroke-linejoin="round"/>
<path opacity="0.72" d="M484.354 39.2889H415.633C411.953 39.2889 408.969 42.2723 408.969 45.9524V97.5535C408.969 101.234 411.953 104.217 415.633 104.217H484.354C488.034 104.217 491.018 101.234 491.018 97.5535V45.9524C491.018 42.2723 488.034 39.2889 484.354 39.2889Z" fill="#F5F3FF"/>
<g opacity="0.5">
<path d="M416.662 48.8994H483.326" stroke="white" stroke-width="1.3532" stroke-miterlimit="10" stroke-linecap="round"/>
</g>
<g opacity="0.5">
<path d="M416.662 58.0408H483.326" stroke="white" stroke-width="1.3532" stroke-miterlimit="10" stroke-linecap="round"/>
</g>
<g opacity="0.5">
<path d="M416.662 67.1825H483.326" stroke="white" stroke-width="1.3532" stroke-miterlimit="10" stroke-linecap="round"/>
</g>
<g opacity="0.5">
<path d="M416.662 76.3235H483.326" stroke="white" stroke-width="1.3532" stroke-miterlimit="10" stroke-linecap="round"/>
</g>
<g opacity="0.5">
<path d="M416.662 85.465H483.326" stroke="white" stroke-width="1.3532" stroke-miterlimit="10" stroke-linecap="round"/>
</g>
<g opacity="0.5">
<path d="M416.662 94.6065H483.326" stroke="white" stroke-width="1.3532" stroke-miterlimit="10" stroke-linecap="round"/>
</g>
<path d="M424.442 85.4652L429.582 76.9455L441.785 85.4652L453.148 67.1824L465.172 76.3238L478.734 50.8442" stroke="#7F6CF8" stroke-width="3.60856" stroke-linecap="round" stroke-linejoin="round"/>
<path d="M473.711 50.5126L479.831 48.7498L481.594 54.8698" stroke="#7F6CF8" stroke-width="3.60856" stroke-linecap="round" stroke-linejoin="round"/>
<path d="M481.71 124.85H513.094C514.868 124.85 516.306 123.411 516.306 121.637V90.2538C516.306 88.4797 514.868 87.0415 513.094 87.0415H481.71C479.936 87.0415 478.498 88.4797 478.498 90.2538V121.637C478.498 123.411 479.936 124.85 481.71 124.85Z" fill="white"/>
<path d="M489.869 107.466C492.148 109.745 495.843 109.745 498.122 107.466C500.401 105.187 500.401 101.492 498.122 99.213C495.843 96.934 492.148 96.934 489.869 99.213C487.59 101.492 487.59 105.187 489.869 107.466Z" stroke="#4A8BFF" stroke-width="2.4" stroke-miterlimit="10"/>
<path d="M496.692 101.383C495.202 99.8936 492.786 99.8936 491.297 101.383" stroke="#4A8BFF" stroke-width="0.8" stroke-miterlimit="10" stroke-linecap="round"/>
<path d="M506.644 115.987L498.123 107.466" stroke="#4A8BFF" stroke-width="2.4" stroke-miterlimit="10" stroke-linecap="round"/>
<path d="M516.305 82.0751V91.5561H499.968L512.777 80.4633C514.158 79.2673 516.305 80.2483 516.305 82.0751Z" fill="white"/>
<path d="M488.546 123.758C488.546 128.995 484.3 133.241 479.062 133.241C473.824 133.241 469.579 128.995 469.579 123.758C469.579 118.52 473.825 114.274 479.062 114.274C484.3 114.274 488.546 118.52 488.546 123.758Z" fill="#7F6CF8"/>
<path d="M477.509 128.114C477.188 128.114 476.868 127.991 476.624 127.747L473.519 124.643C473.03 124.154 473.029 123.361 473.518 122.872C474.008 122.382 474.801 122.383 475.289 122.872L477.509 125.091L482.831 119.768C483.321 119.279 484.113 119.279 484.603 119.768C485.091 120.257 485.091 121.05 484.603 121.539L478.395 127.747C478.15 127.991 477.83 128.114 477.509 128.114Z" fill="white"/>
<path opacity="0.3" d="M441.161 130.536C441.161 130.848 440.972 131.13 440.68 131.242L436.17 132.972C434.583 133.582 433.339 134.851 432.755 136.454L431.04 141.179C431.028 141.214 431.001 141.239 430.983 141.271C430.968 141.297 430.954 141.323 430.936 141.347C430.909 141.383 430.881 141.416 430.847 141.446C430.794 141.493 430.736 141.534 430.671 141.563C430.63 141.578 430.589 141.593 430.548 141.598C430.508 141.609 430.467 141.614 430.426 141.614L430.293 141.598C430.252 141.593 430.211 141.578 430.17 141.563C430.102 141.533 430.043 141.491 429.989 141.443C429.956 141.414 429.93 141.382 429.903 141.347C429.887 141.327 429.875 141.305 429.862 141.283C429.841 141.247 429.811 141.219 429.796 141.179L428.081 136.454C427.503 134.851 426.258 133.582 424.672 132.972L420.161 131.242C419.87 131.13 419.675 130.848 419.675 130.536C419.675 130.208 419.89 129.916 420.202 129.819L424.329 128.519C426.115 127.956 427.523 126.573 428.127 124.802L429.806 119.841C429.827 119.785 429.852 119.734 429.883 119.688C429.904 119.657 429.924 119.626 429.955 119.601C430.016 119.534 430.093 119.483 430.185 119.447C430.211 119.437 430.241 119.427 430.272 119.422C430.318 119.406 430.369 119.401 430.421 119.401C430.472 119.401 430.523 119.406 430.569 119.422C430.6 119.427 430.63 119.437 430.656 119.447C430.738 119.478 430.81 119.529 430.871 119.585C430.897 119.611 430.917 119.637 430.938 119.662C430.979 119.718 431.014 119.775 431.035 119.841L432.714 124.802C433.313 126.573 434.726 127.956 436.507 128.519L440.634 129.819C440.951 129.916 441.161 130.208 441.161 130.536Z" fill="#7F6CF8"/>
<path opacity="0.3" d="M521.456 42.2073C521.456 42.5196 521.266 42.8012 520.974 42.9138L516.464 44.6441C514.877 45.2533 513.633 46.5229 513.05 48.1252L511.335 52.8504C511.323 52.8857 511.296 52.9108 511.278 52.9428C511.263 52.969 511.249 52.9948 511.231 53.0187C511.203 53.0551 511.176 53.0878 511.142 53.1172C511.089 53.1644 511.031 53.2055 510.966 53.2343C510.925 53.2497 510.884 53.265 510.843 53.2701C510.802 53.2804 510.761 53.2855 510.72 53.2855L510.587 53.2701C510.546 53.265 510.505 53.2497 510.464 53.2343C510.397 53.205 510.338 53.1628 510.284 53.1144C510.251 53.0859 510.225 53.0539 510.197 53.0188C510.182 52.9984 510.17 52.9767 510.157 52.9544C510.135 52.919 510.105 52.8902 510.091 52.8504L508.376 48.1252C507.797 46.5229 506.553 45.2533 504.966 44.6441L500.456 42.9138C500.164 42.8012 499.97 42.5196 499.97 42.2073C499.97 41.8796 500.185 41.5879 500.497 41.4906L504.623 40.1903C506.41 39.6272 507.818 38.2449 508.422 36.4736L510.101 31.513C510.121 31.4567 510.147 31.4055 510.178 31.3595C510.198 31.3288 510.219 31.298 510.249 31.2724C510.311 31.2059 510.388 31.1547 510.48 31.1188C510.505 31.1086 510.536 31.0984 510.567 31.0932C510.613 31.0779 510.664 31.0728 510.715 31.0728C510.766 31.0728 510.818 31.0779 510.864 31.0932C510.894 31.0984 510.925 31.1086 510.951 31.1188C511.033 31.1496 511.104 31.2008 511.166 31.2571C511.191 31.2827 511.212 31.3082 511.232 31.3339C511.273 31.3901 511.309 31.4464 511.33 31.513L513.009 36.4736C513.608 38.2449 515.021 39.6272 516.802 40.1903L520.928 41.4906C521.246 41.5879 521.456 41.8796 521.456 42.2073Z" fill="#7F6CF8"/>
<path opacity="0.3" d="M263 212C307.183 212 343 176.183 343 132C343 87.8172 307.183 52 263 52C218.817 52 183 87.8172 183 132C183 176.183 218.817 212 263 212Z" fill="#FF9700"/>
<path opacity="0.1" d="M204.361 132C204.361 107.333 219.592 86.2239 241.161 77.5625" stroke="white" stroke-width="16.8" stroke-linecap="round" stroke-linejoin="round"/>
<path opacity="0.1" d="M211.115 159.348C210.338 157.876 209.621 156.367 208.969 154.825" stroke="white" stroke-width="16.8" stroke-linecap="round" stroke-linejoin="round"/>
<path d="M267.701 90.1282H258.311V98.23H267.701V90.1282Z" fill="#FFB95C"/>
<path d="M271.108 91.1409H254.905C252.998 91.1409 251.452 89.5951 251.452 87.6884C251.452 85.7817 252.998 84.2359 254.905 84.2359H271.108C273.015 84.2359 274.561 85.7817 274.561 87.6884C274.561 89.5951 273.015 91.1409 271.108 91.1409Z" fill="#FF9700"/>
<path d="M295.451 106.919L292.087 103.555L289.185 106.457L292.549 109.821L295.451 106.919Z" fill="#FFB95C"/>
<path d="M296.309 108.502L290.505 102.698C289.822 102.015 289.822 100.907 290.505 100.224C291.188 99.5413 292.295 99.5413 292.978 100.224L298.782 106.028C299.465 106.711 299.465 107.819 298.782 108.502C298.099 109.185 296.992 109.185 296.309 108.502Z" fill="#FF9700"/>
<path d="M233.46 109.821L236.823 106.457L233.921 103.555L230.558 106.919L233.46 109.821Z" fill="#FFB95C"/>
<path d="M229.701 108.502L235.505 102.698C236.188 102.015 236.188 100.907 235.505 100.224C234.822 99.5414 233.714 99.5414 233.032 100.224L227.227 106.029C226.544 106.712 226.544 107.819 227.227 108.502C227.91 109.185 229.018 109.185 229.701 108.502Z" fill="#FF9700"/>
<path d="M263.008 171.883C283.143 171.883 299.466 155.56 299.466 135.425C299.466 115.289 283.143 98.9666 263.008 98.9666C242.873 98.9666 226.55 115.289 226.55 135.425C226.55 155.56 242.873 171.883 263.008 171.883Z" fill="white"/>
<path d="M263.008 98.9665V135.425L295.39 116.737C295.39 116.737 280.342 97.4916 263.008 98.9665Z" fill="#FFEACF"/>
<path d="M281.825 168.355L263.008 135.424H226.55C226.55 135.424 224.253 182.014 281.825 168.355Z" fill="#FFEACF"/>
<path d="M263.008 171.882C283.143 171.882 299.466 155.56 299.466 135.424C299.466 115.289 283.143 98.9665 263.008 98.9665C242.873 98.9665 226.55 115.289 226.55 135.424C226.55 155.56 242.873 171.882 263.008 171.882Z" stroke="#FF9700" stroke-width="6.31672" stroke-miterlimit="10"/>
<path d="M263.006 105.963V112.04" stroke="#FF9700" stroke-width="1.45768" stroke-miterlimit="10" stroke-linecap="round"/>
<path d="M248.275 109.91L251.313 115.173" stroke="#FF9700" stroke-width="1.45768" stroke-miterlimit="10" stroke-linecap="round"/>
<path d="M237.493 120.694L242.755 123.732" stroke="#FF9700" stroke-width="1.45768" stroke-miterlimit="10" stroke-linecap="round"/>
<path d="M233.545 135.424H239.621" stroke="#FF9700" stroke-width="1.45768" stroke-miterlimit="10" stroke-linecap="round"/>
<path d="M237.493 150.155L242.755 147.117" stroke="#FF9700" stroke-width="1.45768" stroke-miterlimit="10" stroke-linecap="round"/>
<path d="M248.275 160.938L251.313 155.676" stroke="#FF9700" stroke-width="1.45768" stroke-miterlimit="10" stroke-linecap="round"/>
<path d="M263.006 164.885V158.809" stroke="#FF9700" stroke-width="1.45768" stroke-miterlimit="10" stroke-linecap="round"/>
<path d="M277.737 160.938L274.698 155.676" stroke="#FF9700" stroke-width="1.45768" stroke-miterlimit="10" stroke-linecap="round"/>
<path d="M288.52 150.155L283.258 147.117" stroke="#FF9700" stroke-width="1.45768" stroke-miterlimit="10" stroke-linecap="round"/>
<path d="M292.466 135.424H286.39" stroke="#FF9700" stroke-width="1.45768" stroke-miterlimit="10" stroke-linecap="round"/>
<path d="M288.52 120.694L283.258 123.732" stroke="#FF9700" stroke-width="1.45768" stroke-miterlimit="10" stroke-linecap="round"/>
<path d="M277.737 109.91L274.698 115.173" stroke="#FF9700" stroke-width="1.45768" stroke-miterlimit="10" stroke-linecap="round"/>
<path d="M261.549 135.424L262.802 115.287C262.809 115.174 262.906 115.089 263.019 115.096C263.123 115.102 263.204 115.185 263.211 115.287L264.464 135.424C264.514 136.229 263.902 136.923 263.097 136.973C262.292 137.023 261.599 136.411 261.549 135.606C261.545 135.547 261.546 135.481 261.549 135.424Z" fill="#FFA617"/>
<path d="M265.787 135.424C265.787 136.96 264.542 138.205 263.006 138.205C261.471 138.205 260.226 136.96 260.226 135.424C260.226 133.889 261.471 132.644 263.006 132.644C264.542 132.644 265.787 133.889 265.787 135.424Z" fill="#FF9700"/>
<path opacity="0.3" d="M234.536 180.138C234.536 180.41 234.371 180.655 234.117 180.753L230.189 182.26C228.806 182.791 227.723 183.897 227.215 185.292L225.721 189.408C225.71 189.439 225.687 189.461 225.671 189.488C225.659 189.511 225.646 189.534 225.631 189.554C225.607 189.586 225.583 189.615 225.553 189.64C225.507 189.681 225.456 189.717 225.4 189.742C225.364 189.756 225.328 189.769 225.293 189.774C225.257 189.782 225.221 189.787 225.186 189.787L225.07 189.774C225.034 189.769 224.998 189.756 224.963 189.742C224.904 189.717 224.852 189.68 224.806 189.638C224.777 189.613 224.754 189.585 224.73 189.555C224.717 189.537 224.706 189.518 224.695 189.499C224.676 189.468 224.65 189.443 224.637 189.408L223.144 185.292C222.64 183.897 221.556 182.791 220.174 182.26L216.246 180.753C215.992 180.655 215.822 180.41 215.822 180.138C215.822 179.853 216.01 179.598 216.282 179.514L219.875 178.381C221.431 177.891 222.658 176.687 223.184 175.144L224.646 170.823C224.664 170.774 224.686 170.73 224.713 170.69C224.731 170.663 224.749 170.636 224.775 170.614C224.829 170.556 224.896 170.511 224.976 170.48C224.998 170.471 225.025 170.462 225.052 170.458C225.092 170.444 225.137 170.44 225.181 170.44C225.226 170.44 225.27 170.444 225.31 170.458C225.337 170.462 225.364 170.471 225.386 170.48C225.458 170.507 225.52 170.551 225.574 170.6C225.596 170.623 225.614 170.645 225.632 170.667C225.667 170.716 225.698 170.765 225.716 170.823L227.179 175.144C227.7 176.687 228.931 177.891 230.483 178.381L234.077 179.514C234.353 179.598 234.536 179.853 234.536 180.138Z" fill="#FF9700"/>
<path opacity="0.3" d="M319.336 173.513C319.336 173.94 319.077 174.324 318.679 174.478L312.519 176.841C310.352 177.673 308.653 179.407 307.856 181.595L305.514 188.048C305.498 188.096 305.461 188.13 305.437 188.174C305.417 188.21 305.398 188.245 305.373 188.278C305.335 188.327 305.298 188.372 305.251 188.412C305.179 188.477 305.1 188.533 305.011 188.572C304.955 188.593 304.899 188.614 304.843 188.621C304.787 188.635 304.731 188.642 304.675 188.642L304.494 188.621C304.438 188.614 304.382 188.593 304.326 188.572C304.234 188.532 304.153 188.474 304.08 188.408C304.035 188.369 303.998 188.326 303.961 188.278C303.941 188.25 303.923 188.22 303.906 188.19C303.877 188.141 303.836 188.102 303.816 188.048L301.474 181.595C300.684 179.407 298.985 177.673 296.817 176.841L290.658 174.478C290.26 174.324 289.994 173.94 289.994 173.513C289.994 173.066 290.288 172.667 290.714 172.534L296.349 170.759C298.789 169.99 300.712 168.102 301.536 165.683L303.83 158.909C303.858 158.832 303.893 158.762 303.934 158.699C303.962 158.657 303.99 158.615 304.032 158.58C304.116 158.489 304.221 158.419 304.347 158.37C304.382 158.356 304.424 158.342 304.466 158.335C304.529 158.314 304.599 158.307 304.668 158.307C304.738 158.307 304.808 158.314 304.871 158.335C304.913 158.342 304.955 158.356 304.99 158.37C305.102 158.412 305.2 158.482 305.284 158.559C305.319 158.594 305.347 158.629 305.375 158.664C305.43 158.741 305.479 158.818 305.507 158.909L307.8 165.683C308.618 168.102 310.548 169.989 312.981 170.758L318.616 172.534C319.049 172.667 319.336 173.066 319.336 173.513Z" fill="#FF9700"/>
<path opacity="0.3" d="M292.566 73.158C292.566 73.4702 292.377 73.7518 292.085 73.8645L287.575 75.5948C285.988 76.204 284.744 77.4736 284.16 79.0759L282.445 83.801C282.433 83.8364 282.406 83.8615 282.388 83.8934C282.374 83.9197 282.36 83.9454 282.342 83.9694C282.314 84.0058 282.286 84.0385 282.252 84.0679C282.199 84.1151 282.141 84.1562 282.076 84.185C282.035 84.2004 281.994 84.2157 281.954 84.2208C281.913 84.231 281.872 84.2362 281.831 84.2362L281.698 84.2208C281.657 84.2157 281.616 84.2004 281.575 84.185C281.507 84.1557 281.448 84.1134 281.394 84.0651C281.361 84.0366 281.335 84.0046 281.308 83.9695C281.292 83.949 281.28 83.9274 281.267 83.9051C281.246 83.8697 281.216 83.8409 281.201 83.801L279.486 79.0759C278.908 77.4736 277.664 76.204 276.077 75.5948L271.566 73.8645C271.275 73.7518 271.08 73.4702 271.08 73.158C271.08 72.8303 271.295 72.5386 271.607 72.4413L275.734 71.141C277.52 70.5778 278.928 69.1956 279.532 67.4243L281.211 62.4637C281.232 62.4074 281.257 62.3562 281.288 62.3102C281.309 62.2794 281.329 62.2487 281.36 62.223C281.421 62.1566 281.498 62.1054 281.59 62.0695C281.616 62.0593 281.646 62.049 281.677 62.0439C281.723 62.0286 281.774 62.0234 281.826 62.0234C281.877 62.0234 281.928 62.0286 281.974 62.0439C282.005 62.049 282.035 62.0593 282.061 62.0695C282.143 62.1002 282.215 62.1514 282.276 62.2078C282.302 62.2334 282.322 62.2589 282.343 62.2846C282.384 62.3408 282.419 62.3971 282.44 62.4637L284.119 67.4243C284.718 69.1956 286.131 70.5778 287.912 71.141L292.039 72.4413C292.356 72.5386 292.566 72.8303 292.566 73.158Z" fill="#FF9700"/>
<path opacity="0.3" d="M663 212C707.183 212 743 176.183 743 132C743 87.8172 707.183 52 663 52C618.817 52 583 87.8172 583 132C583 176.183 618.817 212 663 212Z" fill="#05B64D"/>
<path d="M672.781 123.443C684.359 123.443 693.745 114.057 693.745 102.479C693.745 90.9003 684.359 81.5142 672.781 81.5142C661.202 81.5142 651.816 90.9003 651.816 102.479C651.816 114.057 661.202 123.443 672.781 123.443Z" fill="#05B64D"/>
<path d="M625.912 119.49L610.005 153.148C608.65 156.013 610.906 159.27 614.065 159.01L651.166 155.958C654.325 155.698 656.018 152.116 654.214 149.51L633.019 118.906C631.215 116.3 627.266 116.625 625.912 119.49Z" fill="#05B64D"/>
<path d="M703.953 139.81L673.849 136.306C671.097 135.986 668.606 137.957 668.286 140.71L664.783 170.813C664.462 173.565 666.434 176.056 669.186 176.377L699.29 179.88C702.042 180.2 704.533 178.229 704.853 175.477L708.356 145.373C708.677 142.621 706.705 140.13 703.953 139.81Z" fill="#05B64D"/>
<path opacity="0.1" d="M604.361 132C604.361 107.333 619.592 86.2239 641.161 77.5625" stroke="white" stroke-width="16.8" stroke-linecap="round" stroke-linejoin="round"/>
<path opacity="0.1" d="M611.117 159.348C610.34 157.876 609.623 156.368 608.971 154.825" stroke="white" stroke-width="16.8" stroke-linecap="round" stroke-linejoin="round"/>
<path opacity="0.3" d="M728.7 112.426C728.7 112.851 728.442 113.235 728.045 113.388L721.901 115.745C719.74 116.575 718.045 118.304 717.25 120.487L714.915 126.923C714.898 126.971 714.861 127.005 714.837 127.048C714.817 127.084 714.798 127.119 714.774 127.152C714.736 127.201 714.699 127.246 714.652 127.286C714.58 127.35 714.501 127.406 714.413 127.445C714.357 127.466 714.301 127.487 714.245 127.494C714.189 127.508 714.134 127.515 714.078 127.515L713.897 127.494C713.841 127.487 713.785 127.466 713.729 127.445C713.637 127.406 713.557 127.348 713.484 127.282C713.439 127.243 713.403 127.2 713.366 127.152C713.345 127.124 713.328 127.095 713.31 127.064C713.281 127.016 713.24 126.977 713.22 126.923L710.884 120.487C710.096 118.304 708.402 116.575 706.24 115.745L700.097 113.388C699.7 113.235 699.435 112.851 699.435 112.426C699.435 111.98 699.728 111.582 700.153 111.45L705.773 109.679C708.207 108.912 710.124 107.029 710.947 104.616L713.234 97.8596C713.262 97.7829 713.297 97.7131 713.339 97.6504C713.367 97.6086 713.395 97.5667 713.436 97.5318C713.52 97.4413 713.625 97.3715 713.75 97.3226C713.785 97.3087 713.827 97.2948 713.869 97.2878C713.932 97.2669 714.001 97.2599 714.071 97.2599C714.141 97.2599 714.21 97.2669 714.273 97.2878C714.315 97.2947 714.357 97.3087 714.392 97.3226C714.503 97.3645 714.601 97.4342 714.685 97.511C714.719 97.5458 714.747 97.5806 714.775 97.6156C714.831 97.6923 714.88 97.7689 714.908 97.8596L717.195 104.616C718.011 107.029 719.935 108.912 722.362 109.679L727.982 111.45C728.414 111.582 728.7 111.98 728.7 112.426Z" fill="#05B64D"/>
<path opacity="0.3" d="M659.574 189.841C659.574 190.154 659.384 190.435 659.093 190.548L654.582 192.278C652.995 192.887 651.751 194.157 651.168 195.759L649.453 200.484C649.441 200.52 649.414 200.545 649.396 200.577C649.381 200.603 649.367 200.629 649.349 200.653C649.322 200.689 649.294 200.722 649.26 200.751C649.207 200.798 649.149 200.84 649.084 200.868C649.043 200.884 649.002 200.899 648.961 200.904C648.92 200.914 648.879 200.92 648.839 200.92L648.705 200.904C648.664 200.899 648.623 200.884 648.583 200.868C648.515 200.839 648.456 200.797 648.402 200.748C648.369 200.72 648.343 200.688 648.316 200.653C648.3 200.632 648.288 200.611 648.275 200.588C648.253 200.553 648.224 200.524 648.209 200.484L646.494 195.759C645.915 194.157 644.671 192.887 643.084 192.278L638.574 190.548C638.282 190.435 638.088 190.154 638.088 189.841C638.088 189.514 638.303 189.222 638.615 189.125L642.741 187.824C644.528 187.261 645.936 185.879 646.54 184.108L648.219 179.147C648.24 179.091 648.265 179.04 648.296 178.994C648.316 178.963 648.337 178.932 648.368 178.906C648.429 178.84 648.506 178.789 648.598 178.753C648.623 178.743 648.654 178.732 648.685 178.727C648.731 178.712 648.782 178.707 648.833 178.707C648.885 178.707 648.936 178.712 648.982 178.727C649.013 178.732 649.043 178.743 649.069 178.753C649.151 178.784 649.222 178.835 649.284 178.891C649.309 178.917 649.33 178.942 649.35 178.968C649.391 179.024 649.427 179.08 649.448 179.147L651.127 184.108C651.726 185.879 653.139 187.261 654.92 187.824L659.046 189.125C659.364 189.222 659.574 189.514 659.574 189.841Z" fill="#05B64D"/>
<path opacity="0.3" d="M631.478 98.8277C631.478 99.0811 631.324 99.3095 631.087 99.4009L627.428 100.805C626.14 101.299 625.131 102.329 624.657 103.629L623.266 107.463C623.256 107.492 623.234 107.512 623.219 107.538C623.208 107.56 623.196 107.58 623.182 107.6C623.159 107.629 623.137 107.656 623.109 107.68C623.066 107.718 623.019 107.752 622.967 107.775C622.933 107.787 622.9 107.8 622.867 107.804C622.834 107.812 622.8 107.816 622.767 107.816L622.659 107.804C622.626 107.8 622.593 107.787 622.559 107.775C622.505 107.751 622.457 107.717 622.413 107.678C622.386 107.654 622.365 107.629 622.343 107.6C622.33 107.583 622.32 107.566 622.31 107.548C622.292 107.519 622.268 107.496 622.256 107.463L620.865 103.629C620.395 102.329 619.386 101.299 618.098 100.805L614.439 99.4009C614.202 99.3095 614.044 99.081 614.044 98.8277C614.044 98.5619 614.219 98.325 614.472 98.2462L617.82 97.1911C619.27 96.7343 620.412 95.6126 620.902 94.1754L622.265 90.1504C622.281 90.1047 622.302 90.0631 622.327 90.0258C622.344 90.0009 622.36 89.976 622.385 89.9551C622.435 89.9012 622.497 89.8596 622.572 89.8306C622.593 89.8223 622.618 89.8139 622.643 89.8098C622.68 89.7973 622.722 89.7931 622.763 89.7931C622.805 89.7931 622.846 89.7973 622.884 89.8098C622.909 89.8139 622.933 89.8223 622.954 89.8306C623.021 89.8555 623.079 89.8971 623.129 89.9427C623.149 89.9635 623.166 89.9842 623.183 90.005C623.216 90.0506 623.245 90.0964 623.262 90.1504L624.624 94.1754C625.11 95.6126 626.256 96.7342 627.702 97.1911L631.05 98.2462C631.307 98.3251 631.478 98.5619 631.478 98.8277Z" fill="#05B64D"/>
<path opacity="0.3" d="M80 264C124.183 264 160 228.183 160 184C160 139.817 124.183 104 80 104C35.8172 104 0 139.817 0 184C0 228.183 35.8172 264 80 264Z" fill="#FF525D"/>
<path d="M117.471 215.235C114.302 216.363 111.336 216.8 108.578 216.543C105.823 216.294 103.514 215.332 101.662 213.661C100.998 213.043 100.56 212.454 100.348 211.893C99.8948 210.694 100.037 209.56 100.786 208.487C101.531 207.415 102.437 206.677 103.509 206.272C104.2 206.01 104.877 205.895 105.537 205.935C106.202 205.974 106.774 206.257 107.266 206.792C109.329 208.822 111.927 209.236 115.077 208.044C116.713 207.426 117.886 206.394 118.596 204.94C119.3 203.479 119.359 201.964 118.766 200.397C117.386 196.748 114.183 195.974 109.154 198.095C108.044 198.585 107.021 198.63 106.079 198.231C105.134 197.833 104.46 197.096 104.056 196.028C103.653 194.96 103.66 193.982 104.083 193.102C104.508 192.23 105.22 191.592 106.23 191.21C108.493 190.355 109.967 189.446 110.643 188.47C111.315 187.496 111.354 186.217 110.758 184.642C110.285 183.39 109.522 182.616 108.481 182.324C107.436 182.034 106.378 182.092 105.306 182.497C104.3 182.878 103.409 183.47 102.629 184.265C101.857 185.066 101.338 185.982 101.081 187.01C100.878 187.807 100.534 188.42 100.05 188.858C99.5696 189.294 99.011 189.628 98.3849 189.865C97.3131 190.271 96.2279 190.303 95.1291 189.964C94.0303 189.624 93.2757 188.917 92.8718 187.849C92.7062 187.411 92.6337 186.929 92.6564 186.42C92.9017 184.027 93.9388 181.87 95.7706 179.956C97.5986 178.044 99.8653 176.573 102.573 175.549C106.284 174.145 109.64 173.974 112.629 175.039C115.621 176.103 117.71 178.202 118.901 181.352C120.02 184.31 119.797 187.239 118.23 190.132C120.175 190.328 121.967 191.073 123.604 192.359C125.241 193.646 126.403 195.2 127.095 197.028C128.547 200.869 128.381 204.471 126.599 207.84C124.817 211.219 121.773 213.679 117.471 215.235Z" fill="#FF525D"/>
<path d="M79.2986 169.753C78.135 170.075 76.9977 169.939 75.8844 169.335C74.7774 168.738 74.0723 167.885 73.7654 166.777L66.6265 141.004C66.3766 140.102 65.9211 139.981 65.2704 140.647L63.7868 142.106C63.5668 142.312 63.3275 142.463 63.0791 142.566C62.8266 142.67 62.5698 142.758 62.3125 142.829C61.0816 143.17 59.9645 143.045 58.9591 142.446C57.9597 141.853 57.2851 140.941 56.943 139.706C56.4759 138.02 57.0464 136.541 58.642 135.255L65.2987 130.164C66.0479 129.607 66.7521 129.242 67.4011 129.062C68.8932 128.649 70.2332 128.763 71.4273 129.413C72.6175 130.063 73.4195 131.128 73.8339 132.624L82.5708 164.551C82.8953 165.722 82.7547 166.784 82.1517 167.761C81.5464 168.73 80.5967 169.393 79.2986 169.753Z" fill="#FF525D"/>
<path d="M56.7272 225.52C55.6175 226.161 54.4538 226.33 53.2324 226.03C52.007 225.723 51.0742 225.019 50.4336 223.909C49.6615 222.572 49.5384 221.012 50.0643 219.229L53.2838 208.862C54.4682 204.992 55.113 202.002 55.2106 199.888C55.3117 197.771 54.9067 195.928 53.995 194.349C53.2229 193.012 52.2116 192.163 50.9497 191.801C49.6914 191.437 48.394 191.645 47.0531 192.419C45.7727 193.159 44.9412 194.141 44.562 195.366C44.1835 196.599 44.2195 197.935 44.667 199.383C44.9979 200.359 44.9894 201.322 44.6376 202.265C44.2892 203.205 43.6131 203.956 42.6244 204.527C41.5752 205.133 40.499 205.289 39.3995 204.995C38.2964 204.702 37.4876 204.041 36.9695 203.012C35.3045 199.857 35.0884 196.624 36.3247 193.312C37.5533 189.994 39.9498 187.311 43.5028 185.26C47.1164 183.174 50.582 182.548 53.904 183.39C57.2259 184.232 59.8293 186.286 61.7103 189.543C62.8889 191.585 63.498 193.822 63.5403 196.245C63.5791 198.669 63.1668 201.487 62.3076 204.705L60.2392 212.425C59.8418 213.897 60.3156 214.249 61.66 213.473L69.5098 208.704C70.6435 207.973 71.752 207.741 72.8351 208.007C73.9218 208.271 74.7836 208.959 75.4244 210.069C76.028 211.114 76.1967 212.146 75.9261 213.156C75.6556 214.165 74.9939 214.974 73.9447 215.58L56.7272 225.52Z" fill="#FF525D"/>
<path opacity="0.1" d="M29.2175 213.32C16.8842 191.958 19.5193 166.061 33.8685 147.776" stroke="white" stroke-width="16.8" stroke-linecap="round" stroke-linejoin="round"/>
<path opacity="0.1" d="M48.741 233.626C47.3321 232.741 45.9573 231.792 44.6211 230.783" stroke="white" stroke-width="16.8" stroke-linecap="round" stroke-linejoin="round"/>
<path opacity="0.3" d="M118.865 144.462C119.067 144.812 119.037 145.249 118.783 145.564L114.855 150.413C113.473 152.12 112.901 154.344 113.283 156.513L114.417 162.908C114.426 162.955 114.412 163.001 114.413 163.048C114.413 163.087 114.414 163.124 114.41 163.163C114.402 163.221 114.393 163.276 114.373 163.331C114.345 163.418 114.306 163.501 114.252 163.575C114.216 163.619 114.18 163.662 114.138 163.695C114.099 163.733 114.056 163.765 114.01 163.791L113.852 163.86C113.802 163.881 113.747 163.89 113.691 163.899C113.597 163.91 113.503 163.901 113.412 163.882C113.356 163.871 113.306 163.852 113.253 163.831C113.223 163.818 113.195 163.802 113.166 163.785C113.119 163.759 113.067 163.746 113.025 163.711L108.054 159.532C106.372 158.113 104.16 157.497 101.991 157.84L95.8271 158.817C95.4278 158.88 95.0283 158.691 94.8266 158.341C94.6149 157.975 94.6671 157.509 94.9536 157.199L98.7301 153.079C100.365 151.295 101.048 148.839 100.579 146.467L99.2536 139.832C99.2401 139.756 99.2356 139.682 99.2403 139.611C99.2433 139.563 99.2464 139.515 99.2643 139.467C99.29 139.353 99.3428 139.246 99.4228 139.146C99.4448 139.118 99.4725 139.087 99.5036 139.062C99.5453 139.015 99.5992 138.976 99.6564 138.943C99.7137 138.91 99.7743 138.882 99.8358 138.87C99.8735 138.856 99.9144 138.847 99.9497 138.842C100.061 138.824 100.174 138.835 100.28 138.858C100.325 138.87 100.364 138.885 100.404 138.901C100.486 138.937 100.562 138.977 100.628 139.038L105.711 143.504C107.525 145.099 109.999 145.732 112.356 145.212L117.812 144.001C118.23 143.905 118.653 144.096 118.865 144.462Z" fill="#FF525D"/>
<path opacity="0.3" d="M93.049 228.794C93.2051 229.065 93.182 229.403 92.9855 229.647L89.9448 233.4C88.875 234.722 88.4325 236.443 88.7282 238.122L89.6056 243.072C89.6127 243.109 89.602 243.144 89.6026 243.18C89.603 243.21 89.6038 243.24 89.6002 243.27C89.5944 243.315 89.587 243.357 89.572 243.4C89.5499 243.467 89.5202 243.531 89.4785 243.589C89.4506 243.623 89.4228 243.656 89.3899 243.681C89.3596 243.71 89.3267 243.735 89.2913 243.756L89.1683 243.809C89.1303 243.825 89.0872 243.832 89.044 243.84C88.9709 243.848 88.8986 243.841 88.828 243.826C88.7851 243.818 88.7462 243.803 88.7052 243.786C88.6817 243.776 88.6599 243.764 88.6377 243.751C88.6014 243.731 88.5612 243.721 88.5285 243.694L84.6807 240.459C83.3786 239.361 81.6664 238.884 79.9874 239.149L75.2164 239.906C74.9074 239.954 74.5981 239.808 74.4419 239.537C74.2781 239.254 74.3184 238.893 74.5402 238.653L77.4634 235.464C78.7291 234.083 79.2573 232.182 78.8948 230.346L77.8686 225.21C77.8582 225.151 77.8548 225.094 77.8584 225.039C77.8608 225.002 77.8631 224.965 77.8769 224.927C77.8968 224.839 77.9377 224.757 77.9996 224.679C78.0166 224.658 78.0382 224.634 78.0622 224.614C78.0944 224.577 78.1362 224.547 78.1805 224.522C78.2248 224.496 78.2718 224.475 78.3193 224.465C78.3485 224.454 78.3801 224.448 78.4074 224.444C78.4937 224.43 78.5814 224.438 78.6627 224.456C78.6977 224.466 78.7282 224.477 78.7588 224.489C78.8224 224.518 78.8816 224.548 78.9326 224.596L82.8671 228.052C84.2714 229.287 86.1862 229.777 88.0106 229.374L92.2342 228.437C92.5576 228.363 92.8852 228.511 93.049 228.794Z" fill="#FF525D"/>
<path opacity="0.3" d="M51.298 166.886C51.4163 167.091 51.3987 167.348 51.2499 167.532L48.9456 170.377C48.135 171.378 47.7995 172.683 48.0237 173.955L48.6886 177.706C48.694 177.734 48.6858 177.761 48.6863 177.788C48.6866 177.811 48.6872 177.834 48.6844 177.856C48.68 177.89 48.6745 177.922 48.663 177.955C48.6463 178.006 48.6238 178.054 48.5922 178.098C48.571 178.124 48.55 178.149 48.525 178.168C48.5021 178.19 48.4771 178.209 48.4502 178.225L48.357 178.265C48.3282 178.277 48.2955 178.283 48.2628 178.288C48.2074 178.294 48.1526 178.289 48.0991 178.278C48.0666 178.272 48.0371 178.261 48.006 178.248C47.9882 178.24 47.9717 178.231 47.9548 178.221C47.9273 178.206 47.8969 178.198 47.8721 178.178L44.9562 175.727C43.9694 174.894 42.6718 174.532 41.3994 174.734L37.7838 175.307C37.5496 175.344 37.3152 175.233 37.197 175.028C37.0728 174.813 37.1034 174.54 37.2715 174.358L39.4868 171.941C40.446 170.894 40.8462 169.454 40.5715 168.062L39.7938 164.17C39.7859 164.126 39.7834 164.082 39.7861 164.04C39.7879 164.012 39.7897 163.985 39.8001 163.956C39.8152 163.889 39.8462 163.827 39.893 163.768C39.906 163.752 39.9222 163.733 39.9405 163.718C39.9649 163.691 39.9966 163.668 40.0302 163.649C40.0638 163.629 40.0993 163.613 40.1354 163.606C40.1574 163.598 40.1814 163.593 40.2022 163.59C40.2676 163.579 40.334 163.585 40.3957 163.599C40.4222 163.606 40.4453 163.615 40.4685 163.624C40.5166 163.646 40.5615 163.669 40.6002 163.705L43.5818 166.324C44.6461 167.26 46.0971 167.632 47.4798 167.326L50.6805 166.616C50.9256 166.56 51.1738 166.671 51.298 166.886Z" fill="#FF525D"/>
<path opacity="0.3" d="M846 264C890.183 264 926 228.183 926 184C926 139.817 890.183 104 846 104C801.817 104 766 139.817 766 184C766 228.183 801.817 264 846 264Z" fill="#008CFF"/>
<path opacity="0.1" d="M795.218 154.68C807.551 133.318 831.295 122.652 854.306 125.936" stroke="white" stroke-width="16.8" stroke-linecap="round" stroke-linejoin="round"/>
<path opacity="0.1" d="M787.392 181.741C787.455 180.078 787.589 178.413 787.795 176.752" stroke="white" stroke-width="16.8" stroke-linecap="round" stroke-linejoin="round"/>
<path d="M909.99 167.963L898.51 145.91C897.972 144.875 896.696 144.473 895.661 145.011L787.359 201.387C786.324 201.926 785.922 203.201 786.461 204.236L797.941 226.29C798.479 227.324 799.755 227.727 800.79 227.188L909.092 170.812C910.126 170.274 910.529 168.998 909.99 167.963Z" fill="#008CFF"/>
<path d="M900.013 148.797L898.51 145.91C897.971 144.875 896.696 144.473 895.661 145.011L787.359 201.387C786.324 201.926 785.922 203.201 786.461 204.236L787.963 207.123L900.013 148.797Z" fill="#0068FF"/>
<path d="M891.762 179.832L885.047 166.932L882.642 168.184L889.357 181.084L891.762 179.832Z" fill="#0068FF"/>
<path d="M881.621 185.112L874.906 172.211L872.501 173.463L879.216 186.363L881.621 185.112Z" fill="#0068FF"/>
<path d="M886.692 182.472L881.329 172.169L878.924 173.421L884.287 183.724L886.692 182.472Z" fill="#0068FF"/>
<path d="M871.48 190.391L864.765 177.49L862.36 178.742L869.075 191.642L871.48 190.391Z" fill="#0068FF"/>
<path d="M876.55 187.751L871.187 177.448L868.783 178.7L874.146 189.003L876.55 187.751Z" fill="#0068FF"/>
<path d="M861.338 195.67L854.623 182.769L852.218 184.021L858.934 196.922L861.338 195.67Z" fill="#0068FF"/>
<path d="M866.409 193.03L861.046 182.727L858.641 183.979L864.004 194.282L866.409 193.03Z" fill="#0068FF"/>
<path d="M851.196 200.949L844.481 188.048L842.076 189.3L848.792 202.201L851.196 200.949Z" fill="#0068FF"/>
<path d="M856.268 198.309L850.905 188.006L848.501 189.258L853.864 199.561L856.268 198.309Z" fill="#0068FF"/>
<path d="M841.055 206.228L834.34 193.328L831.935 194.579L838.65 207.48L841.055 206.228Z" fill="#0068FF"/>
<path d="M846.126 203.588L840.762 193.286L838.358 194.537L843.721 204.84L846.126 203.588Z" fill="#0068FF"/>
<path d="M830.913 211.507L824.198 198.607L821.793 199.858L828.509 212.759L830.913 211.507Z" fill="#0068FF"/>
<path d="M835.984 208.868L830.621 198.565L828.216 199.816L833.579 210.119L835.984 208.868Z" fill="#0068FF"/>
<path d="M820.771 216.786L814.055 203.886L811.651 205.138L818.366 218.038L820.771 216.786Z" fill="#0068FF"/>
<path d="M825.843 214.147L820.48 203.844L818.075 205.096L823.439 215.398L825.843 214.147Z" fill="#0068FF"/>
<path d="M810.63 222.065L803.915 209.165L801.51 210.417L808.225 223.317L810.63 222.065Z" fill="#0068FF"/>
<path d="M815.7 219.426L810.337 209.123L807.932 210.375L813.295 220.677L815.7 219.426Z" fill="#0068FF"/>
<path d="M805.559 224.705L800.196 214.402L797.791 215.654L803.154 225.957L805.559 224.705Z" fill="#0068FF"/>
<path d="M897.862 168.402C900.284 168.402 902.248 166.438 902.248 164.016C902.248 161.594 900.284 159.63 897.862 159.63C895.439 159.63 893.476 161.594 893.476 164.016C893.476 166.438 895.439 168.402 897.862 168.402Z" fill="#0068FF"/>
<path opacity="0.3" d="M839.125 151.972C838.86 152.432 838.341 152.685 837.816 152.603L829.701 151.316C826.845 150.864 823.933 151.676 821.711 153.54L815.167 159.042C815.119 159.083 815.058 159.097 815.005 159.129C814.961 159.156 814.918 159.181 814.871 159.201C814.8 159.232 814.731 159.256 814.656 159.271C814.538 159.295 814.418 159.306 814.297 159.294C814.224 159.281 814.151 159.269 814.086 159.242C814.017 159.222 813.952 159.195 813.892 159.16L813.709 159.024C813.653 158.982 813.606 158.924 813.558 158.867C813.484 158.766 813.433 158.654 813.395 158.537C813.371 158.467 813.359 158.397 813.349 158.323C813.343 158.279 813.343 158.237 813.343 158.193C813.342 158.123 813.322 158.055 813.335 157.984L814.827 149.565C815.337 146.713 814.585 143.785 812.765 141.538L807.593 135.154C807.259 134.74 807.212 134.16 807.478 133.7C807.756 133.217 808.321 132.97 808.864 133.093L816.047 134.686C819.158 135.376 822.407 134.538 824.803 132.442L831.495 126.563C831.573 126.498 831.654 126.444 831.739 126.403C831.795 126.375 831.851 126.347 831.918 126.335C832.065 126.29 832.222 126.279 832.388 126.305C832.435 126.312 832.489 126.323 832.538 126.341C832.619 126.358 832.699 126.394 832.774 126.437C832.85 126.481 832.921 126.532 832.976 126.594C833.016 126.627 833.053 126.669 833.082 126.705C833.176 126.82 833.238 126.957 833.281 127.092C833.297 127.151 833.305 127.207 833.314 127.262C833.326 127.379 833.331 127.493 833.305 127.608L831.559 136.343C830.935 139.461 831.841 142.699 833.986 145.043L838.958 150.468C839.343 150.881 839.404 151.489 839.125 151.972Z" fill="#008CFF"/>
<path opacity="0.3" d="M866.411 239.977C866.255 240.247 865.95 240.396 865.641 240.348L860.87 239.591C859.191 239.326 857.479 239.803 856.172 240.899L852.324 244.133C852.296 244.158 852.26 244.166 852.229 244.185C852.203 244.2 852.178 244.216 852.151 244.227C852.108 244.245 852.068 244.26 852.024 244.268C851.955 244.283 851.884 244.289 851.813 244.282C851.77 244.274 851.727 244.267 851.689 244.251C851.648 244.239 851.61 244.223 851.575 244.203L851.467 244.123C851.434 244.098 851.407 244.065 851.379 244.031C851.335 243.972 851.305 243.905 851.283 243.837C851.268 243.796 851.261 243.755 851.255 243.711C851.252 243.685 851.252 243.66 851.252 243.635C851.252 243.593 851.24 243.553 851.247 243.511L852.125 238.562C852.425 236.885 851.982 235.163 850.912 233.842L847.872 230.089C847.675 229.845 847.648 229.504 847.804 229.234C847.968 228.95 848.3 228.805 848.619 228.877L852.842 229.814C854.671 230.219 856.581 229.726 857.99 228.494L861.925 225.038C861.971 224.999 862.018 224.968 862.068 224.943C862.101 224.927 862.134 224.911 862.174 224.904C862.26 224.877 862.352 224.871 862.45 224.886C862.477 224.89 862.509 224.896 862.538 224.907C862.586 224.917 862.633 224.938 862.677 224.964C862.721 224.989 862.763 225.019 862.795 225.056C862.819 225.075 862.841 225.1 862.858 225.121C862.913 225.189 862.95 225.269 862.975 225.349C862.984 225.384 862.989 225.416 862.994 225.448C863.001 225.518 863.004 225.584 862.989 225.652L861.963 230.788C861.596 232.621 862.128 234.525 863.39 235.903L866.313 239.092C866.539 239.335 866.575 239.693 866.411 239.977Z" fill="#008CFF"/>
</g>
</svg>
