<svg width="1200" height="300" viewBox="0 0 1200 300" fill="none" xmlns="http://www.w3.org/2000/svg">
<g clip-path="url(#clip0_4746_7628)">
<path opacity="0.1" d="M10.3143 343.198C3.80438 332.937 -6.10352e-05 320.721 -6.10352e-05 307.572C-6.10352e-05 271.184 28.9279 241.666 64.6193 241.666C72.7918 241.666 80.5698 243.275 87.756 246.092C85.2197 239.984 83.8247 233.273 83.8247 226.231C83.8247 198.035 106.243 175.17 133.888 175.17C139.835 175.17 145.513 176.277 150.811 178.231C150.431 175.874 150.191 173.489 150.191 171.017C150.191 146.428 169.735 126.495 193.844 126.495C198.733 126.495 203.411 127.358 207.808 128.866C206.723 124.498 206.075 119.942 206.075 115.214C206.075 84.7184 230.31 60 260.21 60C290.111 60 314.346 84.7184 314.346 115.214C314.346 115.271 314.346 115.329 314.346 115.372C318.813 114.15 323.477 113.432 328.324 113.432C357.9 113.432 381.883 137.892 381.883 168.057C381.883 175.055 380.544 181.738 378.191 187.889C394.508 199.975 405.16 219.534 405.16 241.68C405.16 245.301 404.794 248.837 404.258 252.3C415.911 245.546 429.382 241.68 443.754 241.68C488.027 241.68 523.916 278.283 523.916 323.437C523.916 330.249 523.084 336.874 521.548 343.198H10.3282H10.3143Z" fill="white"/>
<g opacity="0.1">
<path d="M210.855 11.6744C210.794 11.6744 210.732 11.6795 210.671 11.6897L96.8553 30.2651C96.5623 30.3121 96.2965 30.4649 96.1069 30.6941L61.3614 72.733C61.3465 72.7508 61.3322 72.7699 61.3182 72.789L7.08922 146.602C6.68745 147.149 6.80445 147.92 7.35021 148.323C7.64062 148.538 8.01077 148.614 8.36146 148.53L65.6133 134.858L140.805 125.065L159.629 193.041C159.659 193.151 159.704 193.256 159.763 193.353L174.919 218.24C175.272 218.82 176.027 219.003 176.606 218.648C177.184 218.293 177.366 217.535 177.013 216.955L161.947 192.215L143.028 123.9L211.908 13.5596C212.268 12.983 212.093 12.223 211.519 11.8615C211.32 11.7368 211.09 11.6719 210.855 11.6744ZM208.388 14.5578L140.97 122.559L65.2327 132.423C65.1904 132.429 65.1486 132.437 65.1071 132.447L11.0544 145.355L63.2729 74.2785L97.7027 32.6227L208.388 14.5578Z" fill="white"/>
<path d="M14.8235 147.667C14.8235 151.775 11.5052 155.105 7.41188 155.105C3.31858 155.105 0 151.775 0 147.667C0 143.559 3.31829 140.229 7.41188 140.229C11.5052 140.229 14.8235 143.559 14.8235 147.667Z" fill="white"/>
<path d="M73.8344 134.302C73.8344 138.41 70.5162 141.74 66.4229 141.74C62.3296 141.74 59.011 138.41 59.011 134.302C59.011 130.194 62.3293 126.864 66.4229 126.864C70.5162 126.864 73.8344 130.194 73.8344 134.302Z" fill="white"/>
<path d="M148.067 122.179C148.067 126.287 144.749 129.617 140.655 129.617C136.561 129.617 133.244 126.287 133.244 122.179C133.244 118.071 136.562 114.741 140.655 114.741C144.749 114.741 148.067 118.071 148.067 122.179Z" fill="white"/>
<path d="M168.962 193.153C168.962 197.261 165.644 200.591 161.55 200.591C157.457 200.591 154.139 197.261 154.139 193.153C154.139 189.045 157.457 185.715 161.55 185.715C165.644 185.715 168.962 189.045 168.962 193.153Z" fill="white"/>
<path d="M184.578 217.848C184.578 221.956 181.26 225.286 177.166 225.286C173.073 225.286 169.754 221.956 169.754 217.848C169.754 213.74 173.072 210.41 177.166 210.41C181.26 210.41 184.578 213.74 184.578 217.848Z" fill="white"/>
<path d="M220.286 12.4387C220.286 16.5466 216.967 19.8767 212.874 19.8767C208.781 19.8767 205.462 16.5466 205.462 12.4387C205.462 8.33013 208.781 5 212.874 5C216.967 5 220.286 8.33078 220.286 12.4387Z" fill="white"/>
<path d="M103.07 32.6709C103.07 36.7788 99.7514 40.109 95.6581 40.109C91.5648 40.1096 88.2458 36.7788 88.2458 32.6709C88.2458 28.563 91.5641 25.2329 95.6581 25.2329C99.7514 25.2329 103.07 28.563 103.07 32.6709Z" fill="white"/>
<path d="M70.1035 73.9901C70.1035 78.098 66.7852 81.4281 62.6919 81.4281C58.5986 81.4281 55.2803 78.098 55.2803 73.9901C55.2803 69.8822 58.5986 66.552 62.6919 66.552C66.7852 66.552 70.1035 69.8822 70.1035 73.9901Z" fill="white"/>
</g>
<path opacity="0.1" d="M1189.69 343.198C1196.2 332.937 1200 320.721 1200 307.572C1200 271.184 1171.07 241.666 1135.38 241.666C1127.21 241.666 1119.43 243.275 1112.24 246.092C1114.78 239.984 1116.18 233.273 1116.18 226.231C1116.18 198.035 1093.76 175.17 1066.11 175.17C1060.17 175.17 1054.49 176.277 1049.19 178.231C1049.57 175.874 1049.81 173.489 1049.81 171.017C1049.81 146.428 1030.27 126.495 1006.16 126.495C1001.27 126.495 996.589 127.358 992.192 128.866C993.277 124.498 993.925 119.942 993.925 115.214C993.925 84.7184 969.69 60 939.79 60C909.889 60 885.654 84.7184 885.654 115.214C885.654 115.271 885.654 115.329 885.654 115.372C881.187 114.15 876.523 113.432 871.676 113.432C842.1 113.432 818.117 137.892 818.117 168.057C818.117 175.055 819.456 181.738 821.809 187.889C805.492 199.975 794.84 219.534 794.84 241.68C794.84 245.301 795.206 248.837 795.742 252.3C784.089 245.546 770.618 241.68 756.246 241.68C711.973 241.68 676.084 278.283 676.084 323.437C676.084 330.249 676.916 336.874 678.452 343.198H1189.67H1189.69Z" fill="white"/>
<g opacity="0.1">
<path d="M1009.34 12.034C1008.98 11.9448 1008.6 12.0135 1008.29 12.2235L977.828 33.2337C977.243 33.6386 977.097 34.4395 977.5 35.0252C977.903 35.6096 978.704 35.7575 979.289 35.3548L1009.22 14.7146L1052.72 29.68L1086.45 71.3305L1071.52 139.595L1055.58 116.528C1055.39 116.25 1055.1 116.058 1054.76 115.995C1054.7 115.983 1054.64 115.976 1054.58 115.973L1016.19 114.237C1015.96 114.227 1015.72 114.28 1015.52 114.391L1007.35 118.827C1007.12 118.951 1006.93 119.142 1006.81 119.374L993.886 144.755C993.562 145.389 993.814 146.165 994.447 146.489L994.448 146.489C995.081 146.812 995.857 146.561 996.181 145.927L996.181 145.926L1008.93 120.901L1016.43 116.827L1053.83 118.52L1070.38 142.48L1044 162.259C1043.93 162.311 1043.86 162.371 1043.8 162.437L1022.62 186.465C1022.15 186.998 1022.2 187.812 1022.73 188.284C1022.73 188.284 1022.74 188.284 1022.74 188.285C1023.27 188.756 1024.08 188.706 1024.55 188.173C1024.55 188.172 1024.56 188.172 1024.56 188.171L1045.65 164.24L1072.45 144.15L1177.39 166.351C1178.08 166.498 1178.76 166.059 1178.92 165.367L1193.61 98.4965C1193.76 97.8201 1193.34 97.1467 1192.67 96.9731L1088.57 69.8613L1054.49 27.7714C1054.34 27.5839 1054.13 27.4421 1053.91 27.3633L1009.45 12.0669C1009.41 12.0525 1009.37 12.0399 1009.34 12.0286L1009.34 12.034ZM1088.81 72.5866L1190.83 99.1557L1176.67 163.565L1073.68 141.774L1088.81 72.5866Z" fill="white"/>
<path d="M1095.68 74.5224C1094.78 78.47 1090.86 80.943 1086.91 80.0461C1082.96 79.1492 1080.49 75.2219 1081.39 71.2744C1082.29 67.3262 1086.21 64.8533 1090.16 65.7502C1094.1 66.6471 1096.57 70.5743 1095.68 74.5224Z" fill="white"/>
<path d="M1199.82 100.642C1198.92 104.59 1194.99 107.063 1191.05 106.166C1187.1 105.269 1184.63 101.342 1185.53 97.3945C1186.43 93.4469 1190.35 90.9739 1194.3 91.8708C1198.24 92.7677 1200.71 96.6949 1199.82 100.642Z" fill="white"/>
<path d="M1183.9 167.647C1183.01 171.595 1179.08 174.068 1175.14 173.171C1171.19 172.274 1168.72 168.347 1169.61 164.399C1170.51 160.452 1174.44 157.979 1178.38 158.876C1182.33 159.773 1184.8 163.7 1183.9 167.647Z" fill="white"/>
<path d="M1079.34 144.927C1078.44 148.875 1074.52 151.348 1070.57 150.451C1066.63 149.554 1064.16 145.627 1065.05 141.679C1065.95 137.732 1069.87 135.259 1073.82 136.155C1077.76 137.052 1080.24 140.979 1079.34 144.927Z" fill="white"/>
<path d="M1052.71 163.697C1051.82 167.644 1047.89 170.118 1043.95 169.221C1040 168.324 1037.53 164.397 1038.43 160.449C1039.32 156.501 1043.25 154.028 1047.19 154.925C1051.14 155.822 1053.61 159.749 1052.71 163.697Z" fill="white"/>
<path d="M1060.02 119.209C1059.12 123.156 1055.2 125.629 1051.25 124.732C1047.31 123.835 1044.84 119.908 1045.73 115.961C1046.63 112.013 1050.56 109.539 1054.5 110.436C1058.45 111.333 1060.92 115.26 1060.02 119.209Z" fill="white"/>
<path d="M1018.44 119.196C1017.55 123.143 1013.62 125.616 1009.67 124.72C1005.73 123.823 1003.26 119.896 1004.15 115.948C1005.05 112 1008.98 109.527 1012.92 110.424C1016.87 111.321 1019.34 115.248 1018.44 119.196Z" fill="white"/>
<path d="M1001.27 147.108C1000.38 151.056 996.449 153.529 992.504 152.632C988.558 151.735 986.087 147.808 986.983 143.86C987.88 139.913 991.805 137.44 995.75 138.337C999.696 139.233 1002.17 143.161 1001.27 147.108Z" fill="white"/>
<path d="M984.273 37.3101C983.376 41.2577 979.451 43.7307 975.506 42.8339C971.56 41.937 969.089 38.0097 969.985 34.0622C970.881 30.1146 974.806 27.6416 978.752 28.5385C982.697 29.4354 985.169 33.3626 984.273 37.3101Z" fill="white"/>
<path d="M1016.16 16.938C1015.26 20.8855 1011.33 23.3585 1007.39 22.4615C1003.44 21.5646 1000.97 17.6374 1001.87 13.6899C1002.76 9.7423 1006.69 7.2693 1010.63 8.16619C1014.58 9.06307 1017.05 12.9904 1016.16 16.938Z" fill="white"/>
<path d="M1060.18 30.7923C1059.29 34.7399 1055.36 37.2128 1051.41 36.316C1047.47 35.4191 1045 31.4919 1045.89 27.5444C1046.79 23.5969 1050.72 21.1238 1054.66 22.0207C1058.61 22.9176 1061.08 26.8448 1060.18 30.7923Z" fill="white"/>
<path d="M1029.89 190.325C1029 194.272 1025.07 196.745 1021.13 195.848C1017.18 194.951 1014.71 191.024 1015.61 187.077C1016.5 183.129 1020.43 180.656 1024.37 181.553C1028.32 182.45 1030.79 186.377 1029.89 190.325Z" fill="white"/>
</g>
<g clip-path="url(#clip1_4746_7628)">
<g clip-path="url(#clip2_4746_7628)">
<path d="M900.124 350.732C900.124 304.283 889.175 260.412 869.805 221.467L875.656 217.39C882.657 212.513 884.379 202.884 879.501 195.883L838.29 136.731C833.413 129.73 823.784 128.009 816.784 132.886L808.302 138.795C756.294 89.9643 686.361 60 609.392 60C484.255 60 377.601 139.068 336.619 249.964L332.811 249.199C324.446 247.52 316.303 252.939 314.623 261.304L300.43 331.986C298.75 340.351 304.169 348.494 312.534 350.174L318.677 351.407C319.037 508.314 443.697 635.943 599.404 641.211C600.518 649.442 607.936 655.372 616.258 654.514L687.97 647.118C696.457 646.242 702.627 638.653 701.752 630.166L701.376 626.522C816.843 588.024 900.124 479.139 900.124 350.732Z" fill="#2E72D6"/>
<path d="M550.246 260.116C550.246 208.791 508.639 167.184 457.314 167.184C405.989 167.184 364.381 208.791 364.381 260.116C364.381 293.195 381.678 322.216 407.706 338.685C407.269 341.128 407.002 343.632 407.002 346.201C407.002 369.646 426.008 388.651 449.452 388.651C472.837 388.651 491.799 369.738 491.893 346.374C526.087 332.652 550.246 299.216 550.246 260.116Z" fill="#296CD5"/>
<path d="M833.507 132.316C828.456 129.312 821.919 129.308 816.783 132.886L808.302 138.795C782.656 114.716 752.638 95.2527 719.581 81.6792C684.355 94.1236 659.108 127.697 659.108 167.184C659.108 217.264 699.706 257.862 749.786 257.862C799.867 257.862 840.464 217.264 840.464 167.184C840.464 154.827 837.983 143.051 833.507 132.316Z" fill="#296CD5"/>
<path d="M532.519 244.694C556.375 244.694 575.715 225.355 575.715 201.499C575.715 177.642 556.375 158.303 532.519 158.303C508.663 158.303 489.323 177.642 489.323 201.499C489.323 225.355 508.663 244.694 532.519 244.694Z" fill="#296CD5"/>
</g>
</g>
<g clip-path="url(#clip3_4746_7628)">
<path d="M199.614 210.917C192.909 222.785 154.44 240.703 154.44 240.703C154.44 240.703 149.931 198.507 156.635 186.638C163.34 174.77 178.396 170.584 190.264 177.289C202.132 183.993 206.318 199.049 199.614 210.917Z" fill="#FFFF00"/>
<path d="M175.084 204.161C180.565 207.257 187.519 205.324 190.615 199.843C193.712 194.361 191.779 187.408 186.297 184.311C180.816 181.215 173.862 183.148 170.766 188.629C167.669 194.111 169.602 201.064 175.084 204.161Z" fill="white"/>
<path d="M210.401 206.091L155.201 174.908L177.444 152.621L218.009 175.537L210.401 206.091Z" fill="#5A5157"/>
<path d="M210.873 171.505L208.281 170.042L198.356 199.286L200.947 200.75L210.873 171.505Z" fill="#51494F"/>
<path d="M164.656 180.248L167.247 181.712L187.171 158.116L184.58 156.652L164.656 180.248Z" fill="#51494F"/>
<path d="M188.368 99.0639C188.368 99.0639 134.961 90.7925 131.532 142.429C131.195 147.506 136.639 150.965 141.106 148.53C152.63 142.249 172.422 134.252 187.874 142.497L188.368 99.0639Z" fill="#5A5157"/>
<path d="M258.242 138.536C258.242 138.536 292.893 180.01 250.436 209.6C246.262 212.509 240.49 209.631 240.269 204.548C239.701 191.437 236.334 170.357 221.297 161.378L258.242 138.536Z" fill="#5A5157"/>
<path d="M258.057 36.2858C173.179 31.391 157.482 144.957 157.482 144.957L234.878 188.678C234.878 188.678 324.044 116.616 276.041 46.4451C271.984 40.5148 265.23 36.6995 258.057 36.2858Z" fill="#00D2FF"/>
<path d="M226.197 113.681C237.73 120.196 252.361 116.128 258.876 104.595C265.391 93.0621 261.323 78.4311 249.79 71.9159C238.257 65.4007 223.626 69.4686 217.111 81.0017C210.596 92.5348 214.664 107.166 226.197 113.681Z" fill="#436198" stroke="#FDFFFC" stroke-width="14.4722" stroke-miterlimit="10"/>
<path d="M258.057 36.2858C246.923 35.6437 236.99 37.0554 228.116 39.9666L288.343 73.9898C286.256 64.8865 282.338 55.6502 276.041 46.445C271.984 40.5148 265.23 36.6995 258.057 36.2858Z" fill="#FDFFFC"/>
<path d="M161.832 125.175L249.574 174.742C253.385 170.725 257.62 165.936 261.877 160.512L167.67 107.294C165.222 113.739 163.305 119.838 161.832 125.175Z" fill="#FDFFFC"/>
<path d="M205.312 159.55L197.691 155.244L175.217 195.028L182.838 199.333L205.312 159.55Z" fill="#51494F"/>
</g>
<g clip-path="url(#clip4_4746_7628)">
<path d="M1038.12 189.995C1040.85 208.596 1014.06 260.634 1014.06 260.634C1014.06 260.634 973.487 218.455 970.764 199.854C968.042 181.253 980.914 163.967 999.515 161.244C1018.12 158.522 1035.4 171.394 1038.12 189.995Z" fill="#FFFF00"/>
<path d="M1005.68 203.361C1014.27 202.103 1020.22 194.12 1018.96 185.529C1017.7 176.938 1009.72 170.993 1001.13 172.25C992.535 173.508 986.59 181.491 987.847 190.082C989.104 198.673 997.088 204.618 1005.68 203.361Z" fill="white"/>
<path d="M1003.43 187.964C1049.57 181.21 1083.7 153.391 1079.67 125.828C1075.64 98.2658 1034.96 81.3966 988.816 88.1502C942.674 94.9038 908.538 122.723 912.572 150.285C916.606 177.848 957.282 194.717 1003.43 187.964Z" fill="#6F1D8C"/>
<path d="M1001.64 175.776C1050.97 168.556 1087.47 138.814 1083.16 109.345C1078.84 79.8772 1035.36 61.8418 986.023 69.0623C936.69 76.2829 900.194 106.025 904.507 135.493C908.82 164.962 952.309 182.997 1001.64 175.776Z" fill="#A956D8"/>
<path d="M994.046 123.878C1014.72 120.852 1030.01 108.389 1028.2 96.0408C1026.4 83.6923 1008.17 76.1347 987.501 79.1604C966.828 82.1861 951.535 94.6493 953.342 106.998C955.149 119.346 973.373 126.904 994.046 123.878Z" fill="#6F1D8C"/>
<path opacity="0.8" d="M1041.67 88.1553C1045.85 116.73 1023.93 128.663 995.359 132.846C966.784 137.028 942.369 131.876 938.186 103.301C934.004 74.7257 953.778 48.1706 982.353 43.9883C1010.93 39.806 1037.48 59.5802 1041.67 88.1553Z" fill="#31A8F8"/>
<path d="M976.417 26.0005L982.886 25.0538L986.229 47.8947C986.49 49.6797 985.253 51.341 983.468 51.6022C981.683 51.8635 980.022 50.6264 979.76 48.8414L976.417 26.0005Z" fill="#31A8F8"/>
<path d="M980.815 33.4816C984.713 32.9111 987.411 29.2888 986.84 25.3909C986.27 21.493 982.647 18.7957 978.749 19.3662C974.851 19.9367 972.154 23.559 972.725 27.4569C973.295 31.3547 976.917 34.0521 980.815 33.4816Z" fill="#FFFF00"/>
<path opacity="0.1" d="M1000.29 166.548C1006.91 165.578 1011.5 159.423 1010.53 152.799C1009.56 146.176 1003.4 141.592 996.78 142.562C990.157 143.531 985.573 149.686 986.543 156.31C987.512 162.934 993.668 167.517 1000.29 166.548Z" fill="#E1FADA"/>
<g opacity="0.1">
<path d="M950.027 161.654C956.651 160.685 961.234 154.529 960.265 147.906C959.295 141.282 953.14 136.699 946.516 137.668C939.893 138.637 935.309 144.793 936.279 151.416C937.248 158.04 943.403 162.624 950.027 161.654Z" fill="#E1FADA"/>
<path d="M1047.04 147.455C1053.67 146.485 1058.25 140.33 1057.28 133.706C1056.31 127.083 1050.16 122.499 1043.53 123.469C1036.91 124.438 1032.33 130.593 1033.3 137.217C1034.27 143.841 1040.42 148.424 1047.04 147.455Z" fill="#E1FADA"/>
</g>
</g>
</g>
<defs>
<clipPath id="clip0_4746_7628">
<rect width="1200" height="300" fill="white"/>
</clipPath>
<clipPath id="clip1_4746_7628">
<rect width="600" height="240" fill="white" transform="translate(300 60)"/>
</clipPath>
<clipPath id="clip2_4746_7628">
<rect width="600" height="594.597" fill="white" transform="translate(300.124 60)"/>
</clipPath>
<clipPath id="clip3_4746_7628">
<rect width="148.024" height="231.322" fill="white" transform="translate(203.777 2.89331) rotate(29.4626)"/>
</clipPath>
<clipPath id="clip4_4746_7628">
<rect width="180.554" height="243.838" fill="white" transform="translate(889.424 32.4399) rotate(-8.32682)"/>
</clipPath>
</defs>
</svg>
