<svg width="900" height="600" viewBox="0 0 900 600" fill="none" xmlns="http://www.w3.org/2000/svg">
<g opacity="0.3">
<g opacity="0.7" filter="url(#filter0_d_4327_43586)">
<path d="M76.6367 46.7706C78.1195 46.7706 79.3217 45.5685 79.3217 44.0856C79.3217 42.6028 78.1195 41.4006 76.6367 41.4006C75.1538 41.4006 73.9517 42.6028 73.9517 44.0856C73.9517 45.5685 75.1538 46.7706 76.6367 46.7706Z" fill="white"/>
<path d="M164.831 422.195C166.314 422.195 167.516 420.993 167.516 419.51C167.516 418.028 166.314 416.825 164.831 416.825C163.349 416.825 162.146 418.028 162.146 419.51C162.146 420.993 163.349 422.195 164.831 422.195Z" fill="white"/>
<path d="M200.901 519.169C200.901 520.652 199.699 521.854 198.216 521.854C196.733 521.854 195.531 520.652 195.531 519.169C195.531 517.686 196.733 516.484 198.216 516.484C199.699 516.484 200.901 517.686 200.901 519.169Z" fill="white"/>
<path d="M424.327 115.465C425.81 115.465 427.012 114.263 427.012 112.78C427.012 111.297 425.81 110.095 424.327 110.095C422.844 110.095 421.642 111.297 421.642 112.78C421.642 114.263 422.844 115.465 424.327 115.465Z" fill="white"/>
<path d="M788.718 304.526C788.718 306.009 787.516 307.211 786.033 307.211C784.55 307.211 783.348 306.009 783.348 304.526C783.348 303.043 784.55 301.841 786.033 301.841C787.516 301.841 788.718 303.043 788.718 304.526Z" fill="white"/>
<path d="M461.66 363.995C461.66 365.478 460.458 366.68 458.975 366.68C457.492 366.68 456.29 365.478 456.29 363.995C456.29 362.512 457.492 361.31 458.975 361.31C460.458 361.31 461.66 362.512 461.66 363.995Z" fill="white"/>
<path d="M61.2397 452.374C62.7226 452.374 63.9247 451.172 63.9247 449.689C63.9247 448.206 62.7226 447.004 61.2397 447.004C59.7568 447.004 58.5547 448.206 58.5547 449.689C58.5547 451.172 59.7568 452.374 61.2397 452.374Z" fill="white"/>
<path d="M104.053 215.117C105.536 215.117 106.738 213.915 106.738 212.432C106.738 210.949 105.536 209.747 104.053 209.747C102.57 209.747 101.368 210.949 101.368 212.432C101.368 213.915 102.57 215.117 104.053 215.117Z" fill="white"/>
<path d="M45.9808 250.743C46.4864 250.743 46.8962 250.334 46.8962 249.828C46.8962 249.322 46.4864 248.913 45.9808 248.913C45.4753 248.913 45.0654 249.322 45.0654 249.828C45.0654 250.334 45.4753 250.743 45.9808 250.743Z" fill="white"/>
<path d="M59.4698 140.708C59.4698 141.213 59.0601 141.623 58.5546 141.623C58.0491 141.623 57.6392 141.213 57.6392 140.708C57.6392 140.202 58.0491 139.792 58.5546 139.792C59.0601 139.792 59.4698 140.202 59.4698 140.708Z" fill="white"/>
<path d="M232.829 242.492C232.829 242.997 232.419 243.407 231.914 243.407C231.408 243.407 230.999 242.997 230.999 242.492C230.999 241.986 231.408 241.576 231.914 241.576C232.419 241.576 232.829 241.986 232.829 242.492Z" fill="white"/>
<path d="M184.422 24.266C184.422 24.7715 184.012 25.1814 183.507 25.1814C183.001 25.1814 182.591 24.7715 182.591 24.266C182.591 23.7605 183.001 23.3508 183.507 23.3508C184.012 23.3508 184.422 23.7605 184.422 24.266Z" fill="white"/>
<path d="M337.687 141.623C337.687 142.128 337.277 142.538 336.772 142.538C336.266 142.538 335.856 142.128 335.856 141.623C335.856 141.118 336.266 140.708 336.772 140.708C337.277 140.708 337.687 141.117 337.687 141.623Z" fill="white"/>
<path d="M28.5904 510.264C28.5904 510.77 28.1805 511.179 27.675 511.179C27.1695 511.179 26.7598 510.77 26.7598 510.264C26.7598 509.759 27.1695 509.349 27.675 509.349C28.1805 509.349 28.5904 509.759 28.5904 510.264Z" fill="white"/>
<path d="M507.335 46.7707C507.335 47.2762 506.926 47.6861 506.42 47.6861C505.915 47.6861 505.505 47.2762 505.505 46.7707C505.505 46.2652 505.915 45.8555 506.42 45.8555C506.926 45.8555 507.335 46.2652 507.335 46.7707Z" fill="white"/>
<path d="M366.312 225.771C366.312 226.277 365.902 226.687 365.397 226.687C364.891 226.687 364.481 226.277 364.481 225.771C364.481 225.266 364.891 224.856 365.397 224.856C365.902 224.856 366.312 225.266 366.312 225.771Z" fill="white"/>
<path d="M690.263 200.855C690.263 201.36 689.854 201.77 689.348 201.77C688.843 201.77 688.433 201.36 688.433 200.855C688.433 200.349 688.843 199.939 689.348 199.939C689.854 199.939 690.263 200.349 690.263 200.855Z" fill="white"/>
<path d="M476.286 225.771C476.286 226.277 475.876 226.687 475.371 226.687C474.865 226.687 474.455 226.277 474.455 225.771C474.455 225.266 474.865 224.856 475.371 224.856C475.876 224.856 476.286 225.266 476.286 225.771Z" fill="white"/>
<path d="M789.633 224.856C789.633 225.361 789.223 225.771 788.718 225.771C788.212 225.771 787.802 225.361 787.802 224.856C787.802 224.35 788.212 223.94 788.718 223.94C789.223 223.94 789.633 224.35 789.633 224.856Z" fill="white"/>
<path d="M805.685 155.699C805.685 156.205 805.275 156.615 804.769 156.615C804.264 156.615 803.854 156.205 803.854 155.699C803.854 155.194 804.264 154.784 804.769 154.784C805.275 154.784 805.685 155.194 805.685 155.699Z" fill="white"/>
<path d="M321.581 419.51C321.581 420.016 321.171 420.426 320.666 420.426C320.16 420.426 319.75 420.016 319.75 419.51C319.75 419.005 320.16 418.595 320.666 418.595C321.171 418.595 321.581 419.005 321.581 419.51Z" fill="white"/>
<path d="M646.796 313.007C646.796 313.513 646.386 313.922 645.88 313.922C645.375 313.922 644.965 313.513 644.965 313.007C644.965 312.502 645.375 312.092 645.88 312.092C646.386 312.092 646.796 312.502 646.796 313.007Z" fill="white"/>
<path d="M515.078 465.71C515.078 466.216 514.669 466.626 514.163 466.626C513.658 466.626 513.248 466.216 513.248 465.71C513.248 465.205 513.658 464.795 514.163 464.795C514.669 464.795 515.078 465.205 515.078 465.71Z" fill="white"/>
<path d="M823.999 361.31C823.999 361.815 823.589 362.225 823.084 362.225C822.578 362.225 822.169 361.815 822.169 361.31C822.169 360.804 822.578 360.395 823.084 360.395C823.589 360.395 823.999 360.804 823.999 361.31Z" fill="white"/>
<path d="M599.823 416.825C599.823 417.331 599.413 417.741 598.908 417.741C598.402 417.741 597.992 417.331 597.992 416.825C597.992 416.32 598.402 415.91 598.908 415.91C599.413 415.91 599.823 416.32 599.823 416.825Z" fill="white"/>
<path d="M546.688 443.317C546.688 443.822 546.279 444.232 545.773 444.232C545.268 444.232 544.858 443.822 544.858 443.317C544.858 442.811 545.268 442.401 545.773 442.401C546.279 442.401 546.688 442.811 546.688 443.317Z" fill="white"/>
<path d="M684.75 431.326C684.75 431.832 684.34 432.241 683.835 432.241C683.329 432.241 682.919 431.832 682.919 431.326C682.919 430.821 683.329 430.411 683.835 430.411C684.34 430.411 684.75 430.821 684.75 431.326Z" fill="white"/>
<path d="M608.552 507.081C608.552 507.587 608.142 507.996 607.636 507.996C607.131 507.996 606.721 507.587 606.721 507.081C606.721 506.576 607.131 506.166 607.636 506.166C608.142 506.166 608.552 506.576 608.552 507.081Z" fill="white"/>
<path d="M665.845 556.893C665.845 557.398 665.435 557.808 664.93 557.808C664.424 557.808 664.014 557.398 664.014 556.893C664.014 556.387 664.424 555.978 664.93 555.978C665.435 555.978 665.845 556.387 665.845 556.893Z" fill="white"/>
<path d="M800.115 410.919C800.115 411.425 799.705 411.835 799.2 411.835C798.694 411.835 798.284 411.425 798.284 410.919C798.284 410.414 798.694 410.004 799.2 410.004C799.705 410.004 800.115 410.414 800.115 410.919Z" fill="white"/>
<path d="M876.965 485.439C876.965 485.944 876.555 486.354 876.05 486.354C875.544 486.354 875.134 485.944 875.134 485.439C875.134 484.933 875.544 484.523 876.05 484.523C876.555 484.523 876.965 484.933 876.965 485.439Z" fill="white"/>
<path d="M855.256 233.069C855.256 233.575 854.846 233.984 854.341 233.984C853.835 233.984 853.426 233.575 853.426 233.069C853.426 232.564 853.835 232.154 854.341 232.154C854.846 232.154 855.256 232.564 855.256 233.069Z" fill="white"/>
<path d="M853.187 41.4006C853.187 41.9061 852.777 42.316 852.272 42.316C851.766 42.316 851.356 41.9061 851.356 41.4006C851.356 40.8951 851.766 40.4854 852.272 40.4854C852.777 40.4854 853.187 40.8951 853.187 41.4006Z" fill="white"/>
<path d="M522.185 130.942C522.185 131.448 521.775 131.858 521.27 131.858C520.764 131.858 520.354 131.448 520.354 130.942C520.354 130.437 520.764 130.027 521.27 130.027C521.775 130.027 522.185 130.437 522.185 130.942Z" fill="white"/>
<path d="M320.666 215.117C320.666 215.623 320.256 216.032 319.751 216.032C319.245 216.032 318.835 215.623 318.835 215.117C318.835 214.612 319.245 214.202 319.751 214.202C320.256 214.202 320.666 214.612 320.666 215.117Z" fill="white"/>
<path d="M690.263 259.513C690.263 260.018 689.854 260.428 689.348 260.428C688.843 260.428 688.433 260.018 688.433 259.513C688.433 259.007 688.843 258.597 689.348 258.597C689.854 258.597 690.263 259.007 690.263 259.513Z" fill="white"/>
<path d="M231.914 461.294C231.914 461.799 231.504 462.209 230.999 462.209C230.493 462.209 230.083 461.799 230.083 461.294C230.083 460.789 230.493 460.379 230.999 460.379C231.504 460.379 231.914 460.789 231.914 461.294Z" fill="white"/>
<path d="M246.994 533.453C246.994 533.958 246.584 534.368 246.079 534.368C245.573 534.368 245.164 533.958 245.164 533.453C245.164 532.947 245.573 532.537 246.079 532.537C246.584 532.537 246.994 532.947 246.994 533.453Z" fill="white"/>
<path d="M600.739 23.3509C600.739 23.8564 600.329 24.2661 599.823 24.2661C599.318 24.2661 598.908 23.8564 598.908 23.3509C598.908 22.8454 599.318 22.4355 599.823 22.4355C600.329 22.4355 600.739 22.8454 600.739 23.3509Z" fill="white"/>
<path d="M138.299 482.957C138.299 483.463 137.889 483.873 137.383 483.873C136.878 483.873 136.468 483.463 136.468 482.957C136.468 482.452 136.878 482.042 137.383 482.042C137.889 482.042 138.299 482.452 138.299 482.957Z" fill="white"/>
<path d="M301.745 467.293C301.745 467.798 301.335 468.208 300.829 468.208C300.324 468.208 299.914 467.798 299.914 467.293C299.914 466.787 300.324 466.377 300.829 466.377C301.335 466.377 301.745 466.787 301.745 467.293Z" fill="white"/>
<path d="M596.223 212.432C597.705 212.432 598.908 211.23 598.908 209.747C598.908 208.264 597.705 207.062 596.223 207.062C594.74 207.062 593.538 208.264 593.538 209.747C593.538 211.23 594.74 212.432 596.223 212.432Z" fill="white"/>
<path d="M286.512 52.1408C287.995 52.1408 289.197 50.9386 289.197 49.4558C289.197 47.9729 287.995 46.7708 286.512 46.7708C285.029 46.7708 283.827 47.9729 283.827 49.4558C283.827 50.9386 285.029 52.1408 286.512 52.1408Z" fill="white"/>
<path d="M749.259 522.152C750.742 522.152 751.944 520.95 751.944 519.467C751.944 517.985 750.742 516.782 749.259 516.782C747.776 516.782 746.574 517.985 746.574 519.467C746.574 520.95 747.776 522.152 749.259 522.152Z" fill="white"/>
<path d="M709.848 49.4557C711.331 49.4557 712.533 48.2536 712.533 46.7707C712.533 45.2878 711.331 44.0857 709.848 44.0857C708.365 44.0857 707.163 45.2878 707.163 46.7707C707.163 48.2536 708.365 49.4557 709.848 49.4557Z" fill="white"/>
<path d="M98.4634 280.056L98.0997 278.963L97.7362 280.056C96.909 282.541 95.4497 284.768 93.5015 286.519C95.4496 288.27 96.909 290.497 97.7362 292.982L98.0997 294.075L98.4634 292.982C99.2906 290.497 100.75 288.27 102.698 286.519C100.75 284.768 99.2906 282.541 98.4634 280.056Z" fill="white"/>
<path d="M688.796 477.409L688.433 476.317L688.069 477.409C687.242 479.894 685.783 482.122 683.834 483.872C685.783 485.623 687.242 487.851 688.069 490.336L688.433 491.428L688.796 490.336C689.623 487.851 691.083 485.623 693.031 483.873C691.083 482.122 689.623 479.894 688.796 477.409Z" fill="white"/>
<path d="M398.423 25.3587L398.06 24.2661L397.696 25.3587C396.869 27.8439 395.41 30.0713 393.461 31.822C395.41 33.5729 396.869 35.8002 397.696 38.2854L398.06 39.3779L398.423 38.2854C399.25 35.8002 400.71 33.5728 402.658 31.822C400.71 30.0713 399.25 27.8438 398.423 25.3587Z" fill="white"/>
<path d="M27.1233 381.836L26.7598 380.743L26.3961 381.836C25.5689 384.321 24.1097 386.548 22.1616 388.299C24.1097 390.05 25.5689 392.277 26.3961 394.762L26.7598 395.855L27.1233 394.762C27.9505 392.277 29.4098 390.05 31.3578 388.299C29.4099 386.548 27.9505 384.321 27.1233 381.836Z" fill="white"/>
<path d="M773.373 25.3587L773.01 24.2661L772.646 25.3587C771.819 27.8439 770.359 30.0713 768.411 31.822C770.359 33.5729 771.819 35.8002 772.646 38.2854L773.01 39.3779L773.373 38.2854C774.2 35.8002 775.66 33.5728 777.608 31.822C775.66 30.0713 774.2 27.8438 773.373 25.3587Z" fill="white"/>
<path d="M870.9 375.329L870.536 374.236L870.172 375.329C869.345 377.814 867.886 380.041 865.938 381.792C867.886 383.543 869.345 385.77 870.172 388.255L870.536 389.348L870.9 388.255C871.727 385.77 873.186 383.543 875.134 381.792C873.186 380.041 871.727 377.814 870.9 375.329Z" fill="white"/>
<path d="M572.993 360.217L572.629 359.124L572.265 360.217C571.438 362.702 569.979 364.929 568.031 366.68C569.979 368.431 571.438 370.658 572.265 373.144L572.629 374.236L572.993 373.144C573.82 370.658 575.279 368.431 577.227 366.68C575.279 364.929 573.82 362.702 572.993 360.217Z" fill="white"/>
<path d="M503.476 170.808L503.112 169.716L502.748 170.808C501.921 173.294 500.462 175.521 498.514 177.272C500.462 179.023 501.921 181.25 502.748 183.735L503.112 184.828L503.476 183.735C504.303 181.25 505.762 179.023 507.71 177.272C505.762 175.521 504.303 173.294 503.476 170.808Z" fill="white"/>
</g>
</g>
<defs>
<filter id="filter0_d_4327_43586" x="7.72302" y="7.99695" width="883.68" height="564.25" filterUnits="userSpaceOnUse" color-interpolation-filters="sRGB">
<feFlood flood-opacity="0" result="BackgroundImageFix"/>
<feColorMatrix in="SourceAlpha" type="matrix" values="0 0 0 0 0 0 0 0 0 0 0 0 0 0 0 0 0 0 127 0" result="hardAlpha"/>
<feOffset/>
<feGaussianBlur stdDeviation="7.2193"/>
<feColorMatrix type="matrix" values="0 0 0 0 1 0 0 0 0 1 0 0 0 0 1 0 0 0 0.9 0"/>
<feBlend mode="normal" in2="BackgroundImageFix" result="effect1_dropShadow_4327_43586"/>
<feBlend mode="normal" in="SourceGraphic" in2="effect1_dropShadow_4327_43586" result="shape"/>
</filter>
</defs>
</svg>
