<?xml version="1.0" encoding="UTF-8"?>
<svg xmlns="http://www.w3.org/2000/svg" xmlns:xlink="http://www.w3.org/1999/xlink" viewBox="0 0 1024 600">
  <defs>
    <style>
      .cls-1 {
        fill: #97c8f7;
      }

      .cls-1, .cls-2, .cls-3, .cls-4, .cls-5, .cls-6, .cls-7, .cls-8 {
        stroke-width: 0px;
      }

      .cls-2 {
        fill: #cce6ff;
      }

      .cls-3 {
        fill: url(#linear-gradient);
        mix-blend-mode: overlay;
        opacity: .5;
      }

      .cls-9 {
        filter: url(#drop-shadow-11);
        opacity: .7;
      }

      .cls-10 {
        isolation: isolate;
      }

      .cls-4 {
        fill: #8ac0ed;
      }

      .cls-5 {
        fill: #9dd0f9;
      }

      .cls-6 {
        fill: #bbdaff;
      }

      .cls-7 {
        opacity: .15;
      }

      .cls-7, .cls-8 {
        fill: #fff;
      }
    </style>
    <filter id="drop-shadow-11" filterUnits="userSpaceOnUse">
      <feOffset dx="0" dy="0"/>
      <feGaussianBlur result="blur" stdDeviation="7.2193"/>
      <feFlood flood-color="#fff" flood-opacity=".9"/>
      <feComposite in2="blur" operator="in"/>
      <feComposite in="SourceGraphic"/>
    </filter>
    <linearGradient id="linear-gradient" x1="512" y1="332.7419" x2="512" y2="37.6832" gradientUnits="userSpaceOnUse">
      <stop offset="0" stop-color="#000" stop-opacity="0"/>
      <stop offset="1" stop-color="#000"/>
    </linearGradient>
  </defs>
  <g class="cls-10">
    <g id="bg_6-1_v2" data-name="bg_6-1 v2">
      <rect class="cls-6" width="1024" height="600"/>
      <g class="cls-9">
        <circle class="cls-8" cx="138.6694" cy="62.824" r="2.685"/>
        <circle class="cls-8" cx="226.8645" cy="438.2487" r="2.685"/>
        <path class="cls-8" d="M262.9335,537.9072c0,1.4828-1.202,2.685-2.6849,2.685s-2.685-1.2022-2.685-2.685,1.202-2.685,2.685-2.685,2.6849,1.2022,2.6849,2.685Z"/>
        <circle class="cls-8" cx="486.3599" cy="131.5184" r="2.685"/>
        <path class="cls-8" d="M850.7504,323.2642c0,1.4828-1.202,2.685-2.6849,2.685s-2.685-1.2022-2.685-2.685,1.202-2.685,2.685-2.685,2.6849,1.2022,2.6849,2.685Z"/>
        <path class="cls-8" d="M523.6926,382.7335c0,1.4828-1.202,2.685-2.685,2.685s-2.6849-1.2022-2.6849-2.685,1.202-2.685,2.6849-2.685,2.685,1.2022,2.685,2.685Z"/>
        <circle class="cls-8" cx="123.2724" cy="468.427" r="2.685"/>
        <circle class="cls-8" cx="166.0856" cy="231.1703" r="2.685"/>
        <circle class="cls-8" cx="108.0138" cy="268.5663" r=".9154"/>
        <path class="cls-8" d="M121.5026,159.4459c0,.5055-.4097.9154-.9152.9154s-.9154-.4099-.9154-.9154.4099-.9154.9154-.9154.9152.4099.9152.9154Z"/>
        <path class="cls-8" d="M294.8623,261.2302c0,.5055-.4099.9152-.9154.9152s-.9154-.4097-.9154-.9152.4099-.9154.9154-.9154.9154.4099.9154.9154Z"/>
        <path class="cls-8" d="M246.4547,43.0045c0,.5055-.4097.9154-.9152.9154s-.9154-.4099-.9154-.9154.4099-.9152.9154-.9152.9152.4097.9152.9152Z"/>
        <path class="cls-8" d="M399.7198,160.3613c0,.5054-.4099.9152-.9154.9152s-.9152-.4099-.9152-.9152.4097-.9154.9152-.9154.9154.4099.9154.9154Z"/>
        <path class="cls-8" d="M90.6233,529.0024c0,.5055-.4099.9154-.9154.9154s-.9152-.4099-.9152-.9154.4097-.9154.9152-.9154.9154.4099.9154.9154Z"/>
        <path class="cls-8" d="M569.3681,65.5091c0,.5055-.4097.9154-.9152.9154s-.9154-.4099-.9154-.9154.4099-.9152.9154-.9152.9152.4097.9152.9152Z"/>
        <path class="cls-8" d="M428.3449,244.5097c0,.5055-.4099.9152-.9154.9152s-.9154-.4097-.9154-.9152.4099-.9154.9154-.9154.9154.4099.9154.9154Z"/>
        <path class="cls-8" d="M752.2962,219.5932c0,.5055-.4099.9152-.9154.9152s-.9154-.4097-.9154-.9152.4099-.9154.9154-.9154.9154.4099.9154.9154Z"/>
        <path class="cls-8" d="M538.3187,244.5097c0,.5055-.4097.9152-.9152.9152s-.9154-.4097-.9154-.9152.4099-.9154.9154-.9154.9152.4099.9152.9154Z"/>
        <path class="cls-8" d="M851.6658,243.5943c0,.5055-.4099.9154-.9154.9154s-.9152-.4099-.9152-.9154.4099-.9154.9152-.9154.9154.4099.9154.9154Z"/>
        <path class="cls-8" d="M867.7178,174.4377c0,.5055-.4099.9154-.9154.9154s-.9152-.4099-.9152-.9154.4097-.9154.9152-.9154.9154.4099.9154.9154Z"/>
        <path class="cls-8" d="M383.6142,438.2487c0,.5055-.4099.9154-.9154.9154s-.9154-.4099-.9154-.9154.4099-.9152.9154-.9152.9154.4097.9154.9152Z"/>
        <path class="cls-8" d="M708.8284,331.7455c0,.5055-.4097.9152-.9152.9152s-.9154-.4097-.9154-.9152.4099-.9154.9154-.9154.9152.4099.9152.9154Z"/>
        <path class="cls-8" d="M577.1111,484.4486c0,.5055-.4099.9152-.9154.9152s-.9152-.4097-.9152-.9152.4097-.9154.9152-.9154.9154.4099.9154.9154Z"/>
        <path class="cls-8" d="M886.0321,380.0484c0,.5055-.4099.9154-.9154.9154s-.9152-.4099-.9152-.9154.4097-.9152.9152-.9152.9154.4097.9154.9152Z"/>
        <path class="cls-8" d="M661.8558,435.5636c0,.5055-.4097.9154-.9152.9154s-.9154-.4099-.9154-.9154.4099-.9152.9154-.9152.9152.4097.9152.9152Z"/>
        <path class="cls-8" d="M608.721,462.0552c0,.5055-.4097.9152-.9152.9152s-.9154-.4097-.9154-.9152.4099-.9154.9154-.9154.9152.4099.9152.9154Z"/>
        <path class="cls-8" d="M746.7825,450.0647c0,.5055-.4097.9152-.9152.9152s-.9154-.4097-.9154-.9152.4099-.9154.9154-.9154.9152.4099.9152.9154Z"/>
        <path class="cls-8" d="M670.5847,525.8195c0,.5055-.4099.9152-.9154.9152s-.9152-.4097-.9152-.9152.4099-.9154.9152-.9154.9154.4099.9154.9154Z"/>
        <path class="cls-8" d="M727.8778,575.6311c0,.5055-.4099.9154-.9154.9154s-.9152-.4099-.9152-.9154.4097-.9152.9152-.9152.9154.4097.9154.9152Z"/>
        <path class="cls-8" d="M862.1477,429.6575c0,.5055-.4097.9154-.9152.9154s-.9154-.4099-.9154-.9154.4099-.9152.9154-.9152.9152.4097.9152.9152Z"/>
        <path class="cls-8" d="M938.9976,504.177c0,.5055-.4097.9154-.9152.9154s-.9154-.4099-.9154-.9154.4099-.9152.9154-.9152.9152.4097.9152.9152Z"/>
        <path class="cls-8" d="M917.2889,251.8076c0,.5055-.4097.9152-.9152.9152s-.9154-.4097-.9154-.9152.4099-.9154.9154-.9154.9152.4099.9152.9154Z"/>
        <path class="cls-8" d="M915.2197,60.139c0,.5055-.4097.9154-.9152.9154s-.9154-.4099-.9154-.9154.4099-.9152.9154-.9152.9152.4097.9152.9152Z"/>
        <path class="cls-8" d="M584.218,149.6807c0,.5055-.4099.9154-.9154.9154s-.9152-.4099-.9152-.9154.4097-.9152.9152-.9152.9154.4097.9154.9152Z"/>
        <path class="cls-8" d="M382.6988,233.8553c0,.5055-.4099.9154-.9154.9154s-.9152-.4099-.9152-.9154.4097-.9154.9152-.9154.9154.4099.9154.9154Z"/>
        <path class="cls-8" d="M752.296,278.2512c0,.5055-.4097.9152-.9152.9152s-.9154-.4097-.9154-.9152.4099-.9154.9154-.9154.9152.4099.9152.9154Z"/>
        <path class="cls-8" d="M293.9469,480.0324c0,.5054-.4099.9152-.9154.9152s-.9152-.4099-.9152-.9152.4097-.9154.9152-.9154.9154.4099.9154.9154Z"/>
        <path class="cls-8" d="M309.0273,552.1911c0,.5055-.4099.9152-.9154.9152s-.9154-.4097-.9154-.9152.4099-.9154.9154-.9154.9154.4099.9154.9154Z"/>
        <path class="cls-8" d="M662.7712,42.0893c0,.5055-.4099.9152-.9154.9152s-.9154-.4097-.9154-.9152.4099-.9154.9154-.9154.9154.4099.9154.9154Z"/>
        <path class="cls-8" d="M200.3318,501.6955c0,.5055-.4099.9154-.9154.9154s-.9152-.4099-.9152-.9154.4097-.9154.9152-.9154.9154.4099.9154.9154Z"/>
        <path class="cls-8" d="M363.7774,486.0309c0,.5055-.4099.9152-.9154.9152s-.9154-.4097-.9154-.9152.4099-.9154.9154-.9154.9154.4099.9154.9154Z"/>
        <circle class="cls-8" cx="658.2556" cy="228.4852" r="2.685"/>
        <circle class="cls-8" cx="348.5449" cy="68.1941" r="2.685"/>
        <circle class="cls-8" cx="811.2918" cy="538.2059" r="2.685"/>
        <circle class="cls-8" cx="771.8811" cy="65.5091" r="2.685"/>
        <path class="cls-8" d="M160.4962,298.794l-.3637-1.0926-.3635,1.0926c-.8272,2.4852-2.2865,4.7126-4.2347,6.4633h0c1.9481,1.7509,3.4075,3.9782,4.2347,6.4634l.3635,1.0925.3637-1.0925c.8272-2.4852,2.2864-4.7126,4.2345-6.4634h0c-1.9481-1.7507-3.4073-3.978-4.2345-6.4633Z"/>
        <path class="cls-8" d="M750.8289,496.1475l-.3635-1.0925-.3637,1.0925c-.8271,2.4852-2.2864,4.7126-4.2345,6.4633v.0002h0c1.9481,1.7507,3.4073,3.978,4.2345,6.4633l.3637,1.0925.3635-1.0925c.8272-2.4852,2.2865-4.7126,4.2347-6.4633h0c-1.9481-1.7509-3.4075-3.9782-4.2347-6.4634Z"/>
        <path class="cls-8" d="M460.456,44.0971l-.3635-1.0926-.3637,1.0926c-.8272,2.4852-2.2864,4.7126-4.2345,6.4633h0c1.9481,1.7509,3.4073,3.9782,4.2345,6.4634l.3637,1.0925.3635-1.0925c.8272-2.4852,2.2865-4.7126,4.2347-6.4634h0c-1.9481-1.7507-3.4075-3.9782-4.2347-6.4633Z"/>
        <path class="cls-8" d="M89.1561,400.574l-.3635-1.0925-.3637,1.0925c-.8272,2.4852-2.2864,4.7126-4.2345,6.4634h0c1.9481,1.7509,3.4073,3.9782,4.2345,6.4634l.3637,1.0925.3635-1.0925c.8272-2.4852,2.2865-4.7126,4.2345-6.4634h0c-1.9479-1.7509-3.4073-3.9782-4.2345-6.4634Z"/>
        <path class="cls-8" d="M835.4061,44.0971l-.3637-1.0926-.3635,1.0926c-.8272,2.4852-2.2866,4.7126-4.2347,6.4633h0c1.9481,1.7509,3.4075,3.9782,4.2347,6.4634l.3635,1.0925.3637-1.0925c.8272-2.4852,2.2864-4.7126,4.2345-6.4634h0c-1.9481-1.7507-3.4073-3.9782-4.2345-6.4633Z"/>
        <path class="cls-8" d="M932.9325,394.0669l-.3637-1.0925-.3637,1.0925c-.8271,2.4852-2.2864,4.7126-4.2345,6.4634h0c1.9481,1.7509,3.4074,3.9782,4.2345,6.4633l.3637,1.0926.3637-1.0925c.8272-2.4852,2.2864-4.7126,4.2345-6.4634h0c-1.9481-1.7509-3.4073-3.9782-4.2345-6.4634Z"/>
        <path class="cls-8" d="M635.0253,378.9551l-.3637-1.0925-.3637,1.0925c-.8272,2.4852-2.2864,4.7126-4.2345,6.4634h0c1.9481,1.7509,3.4073,3.9782,4.2345,6.4634l.3637,1.0925.3637-1.0925c.8272-2.4852,2.2864-4.7126,4.2345-6.4634h0c-1.9481-1.7509-3.4073-3.9782-4.2345-6.4634Z"/>
        <path class="cls-8" d="M565.5086,189.5468l-.3637-1.0926-.3637,1.0926c-.8272,2.4851-2.2863,4.7124-4.2345,6.4633h0c1.9481,1.7509,3.4073,3.9782,4.2345,6.4634l.3637,1.0925.3637-1.0925c.8272-2.4852,2.2864-4.7126,4.2345-6.4634h0c-1.9481-1.7507-3.4073-3.9782-4.2345-6.4633Z"/>
      </g>
      <path class="cls-7" d="M1012.5732,483.9476c4.6211-7.1433,7.3249-15.6399,7.3249-24.7875,0-25.3249-20.5295-45.8569-45.8569-45.8569-5.7951,0-11.3165,1.1209-16.4217,3.0816,1.7961-4.2483,2.7886-8.9178,2.7886-13.8195,0-19.6243-15.9061-35.5304-35.5279-35.5304-4.2215,0-8.2544.7746-12.0113,2.1253.2687-1.6362.443-3.3042.443-5.0155,0-17.1116-13.8728-30.9844-30.9844-30.9844-3.4688,0-6.7923.5954-9.9078,1.6459.7746-3.0427,1.2322-6.2113,1.2322-9.4961,0-21.2196-17.2013-38.4206-38.4206-38.4206s-38.4206,17.201-38.4206,38.4206c0,.0387.0047.0751.0047.1138-3.1686-.8544-6.4825-1.3531-9.9222-1.3531-20.9896,0-38.0067,17.0171-38.0067,38.0067,0,4.8727.9513,9.5157,2.6215,13.7977-11.5827,8.4094-19.1449,22.0207-19.1449,37.4281,0,2.5224.2566,4.9793.644,7.3904-8.2738-4.6962-17.8331-7.3904-28.029-7.3904-31.4224,0-56.8925,25.4726-56.8925,56.8928,0,4.7443.5882,9.3461,1.6823,13.7516h362.8053Z"/>
      <path class="cls-7" d="M368.5896,483.9476c4.6211-7.1433,7.3249-15.6399,7.3249-24.7875,0-25.3249-20.5295-45.8569-45.8569-45.8569-5.7951,0-11.3165,1.1209-16.4217,3.0816,1.7961-4.2483,2.7886-8.9178,2.7886-13.8195,0-19.6243-15.9061-35.5304-35.5279-35.5304-4.2215,0-8.2544.7746-12.0113,2.1253.2687-1.6362.443-3.3042.443-5.0155,0-17.1116-13.8728-30.9844-30.9844-30.9844-3.4688,0-6.7923.5954-9.9078,1.6459.7746-3.0427,1.2322-6.2113,1.2322-9.4961,0-21.2196-17.2013-38.4206-38.4206-38.4206s-38.4206,17.201-38.4206,38.4206c0,.0387.0047.0751.0047.1138-3.1686-.8544-6.4825-1.3531-9.9222-1.3531-20.9896,0-38.0067,17.0171-38.0067,38.0067,0,4.8727.9513,9.5157,2.6215,13.7977-11.5827,8.4094-19.1449,22.0207-19.1449,37.4281,0,2.5224.2566,4.9793.644,7.3904-8.2738-4.6962-17.8331-7.3904-28.029-7.3904-31.4224,0-56.8925,25.4726-56.8925,56.8928,0,4.7443.5882,9.3461,1.6823,13.7516h362.8053Z"/>
      <rect class="cls-3" width="1024" height="600"/>
      <rect class="cls-1" y="440" width="1024" height="40"/>
      <g>
        <path class="cls-1" d="M159.86,439.3128l-15.3411-63.3746c-1.6445-6.7939-8.2244-6.6869-9.7658.1587l-14.2341,63.2159h39.3409Z"/>
        <path class="cls-1" d="M257.7117,460.1741c-10.2084-11.0667-25.9543-17.5457-42.641-17.5457h0c-8.1891,0-16.1187-2.4086-22.4075-6.8062h0c-11.7876-8.2428-26.6507-12.7575-42.0003-12.7575h-10.7477c-8.5418,0-16.4565-3.7598-20.8467-9.9029l-26.7704-37.4596c-6.7029-9.3792-21.3116-12.2783-32.3182-6.4135h0l-7.087-16.5521c-2.1276-4.9691-7.7469-8.2835-14.0441-8.2835H0s0,135.547,0,135.547h276s-18.2883-19.8259-18.2883-19.8259Z"/>
        <path class="cls-4" d="M93.8778,406.9352h-23.448c-1.3495,0-2.4435.9172-2.4435,2.0486h0c0,1.1314,1.094,2.0486,2.4435,2.0486h23.448c1.3495,0,2.4434-.9172,2.4434-2.0486h0c0-1.1315-1.094-2.0486-2.4434-2.0486Z"/>
        <path class="cls-4" d="M107.0711,406.9352h-2.6105c-1.3495,0-2.4435.9172-2.4435,2.0486h0c0,1.1314,1.094,2.0486,2.4435,2.0486h2.6105c1.3495,0,2.4434-.9172,2.4434-2.0486h0c0-1.1315-1.094-2.0486-2.4434-2.0486Z"/>
        <path class="cls-4" d="M18.3238,346.4683l2.1976,14.7525c.3947,2.6498,3.0813,4.6384,6.2664,4.6384h0c6.1304,0,11.4397,3.567,12.7757,8.5832l6.6968,25.1458H0v-53.1199h18.3238Z"/>
        <path class="cls-4" d="M71.6152,382.6351h5.7785c1.3495,0,2.4434-.9172,2.4434-2.0486h0c0-1.1314-1.094-2.0486-2.4434-2.0486h-5.7785c-1.3495,0-2.4435.9172-2.4435,2.0486h0c0,1.1315,1.094,2.0486,2.4435,2.0486Z"/>
        <path class="cls-2" d="M0,350.9367h48.9066c2.2823,0,3.3495-2.3688,1.6372-3.6338h0c-4.6258-3.4174-10.5796-5.3028-16.7451-5.3028H0s0,8.9367,0,8.9367Z"/>
        <path class="cls-5" d="M67.7319,397.8342l20.0432,44.7941h-27.7955s-6.3872-15.5303-6.3872-15.5303c-.9927-2.4136-3.7026-4.0334-6.7478-4.0334h0c-4.2774,0-8.4229-1.2411-11.7329-3.5125l-9.6807-6.6434c-2.6703-1.8325-4.2188-4.5729-4.2188-7.466v-7.6085h46.5196Z"/>
        <path class="cls-2" d="M0,394.6822h51.3639c5.6701,0,11.2663,1.0777,16.368,3.1521h0c3.9948,1.6243,2.6152,6.66-1.8246,6.66H0v-9.8121Z"/>
        <path class="cls-4" d="M24.382,434.7481h7.4958c1.7505,0,3.1696-1.1898,3.1696-2.6574h0c0-1.4676-1.4191-2.6574-3.1696-2.6574h-7.4958c-1.7505,0-3.1696,1.1898-3.1696,2.6574h0c0,1.4676,1.4191,2.6574,3.1696,2.6574Z"/>
        <path class="cls-4" d="M0,425.1389h12.3703c3.2328,0,5.8535-2.1972,5.8535-4.9076h0c0-2.7104-2.6207-4.9076-5.8535-4.9076H0s0,9.8152,0,9.8152Z"/>
        <path class="cls-5" d="M70.0948,420.2313l-12.0656,39.8648h134.9872s-18.4845-18.2594-18.4845-18.2594c-2.3908-2.3617-5.8989-3.7231-9.5935-3.7231h0c-6.1786,0-11.9768-2.5022-15.5673-6.718l-9.5068-11.1627-69.7694-.0016Z"/>
        <path class="cls-1" d="M58.0291,460.0961l12.0656-39.8648,11.3411.0016v.575c0,6.2313,6.0252,11.2829,13.4576,11.2829h0c3.1414,0,6.0466,1.3983,7.6307,3.6727l16.9476,24.3327h-61.4426Z"/>
        <path class="cls-2" d="M73.5631,415.3268h47.8957c5.67,0,11.2662,1.0777,16.3679,3.1521h0c3.9948,1.6243,2.6152,6.66-1.8246,6.66h-57.6722c-4.5481,0-8.2351-3.0912-8.2351-6.9043h0c0-1.6059,1.5528-2.9078,3.4683-2.9078Z"/>
        <path class="cls-4" d="M131.1359,433.5305h5.7785c1.3495,0,2.4435-.9172,2.4435-2.0486h0c0-1.1314-1.094-2.0486-2.4435-2.0486h-5.7785c-1.3495,0-2.4434.9172-2.4434,2.0486h0c0,1.1315,1.094,2.0486,2.4434,2.0486Z"/>
        <path class="cls-4" d="M140.3671,444.677h17.4021c1.3495,0,2.4435-.9172,2.4435-2.0486h0c0-1.1314-1.094-2.0486-2.4435-2.0486h-17.4021c-1.3495,0-2.4434.9172-2.4434,2.0486h0c0,1.1315,1.094,2.0486,2.4434,2.0486Z"/>
      </g>
      <g>
        <path class="cls-1" d="M864.14,439.3128l15.3411-63.3746c1.6445-6.7939,8.2244-6.6869,9.7658.1587l14.2341,63.2159h-39.3409Z"/>
        <path class="cls-1" d="M766.2883,460.1741c10.2084-11.0667,25.9543-17.5457,42.641-17.5457h0c8.1891,0,16.1187-2.4086,22.4075-6.8062h0c11.7876-8.2428,26.6507-12.7575,42.0003-12.7575h10.7477c8.5418,0,16.4565-3.7598,20.8467-9.9029l26.7704-37.4596c6.7029-9.3792,21.3116-12.2783,32.3182-6.4135h0l7.087-16.5521c2.1276-4.9691,7.7469-8.2835,14.0441-8.2835h38.8487v135.547s-276,0-276,0l18.2883-19.8259Z"/>
        <path class="cls-4" d="M930.1222,406.9352h23.448c1.3495,0,2.4435.9172,2.4435,2.0486h0c0,1.1314-1.094,2.0486-2.4435,2.0486h-23.448c-1.3495,0-2.4434-.9172-2.4434-2.0486h0c0-1.1315,1.094-2.0486,2.4434-2.0486Z"/>
        <path class="cls-4" d="M916.9289,406.9352h2.6105c1.3495,0,2.4435.9172,2.4435,2.0486h0c0,1.1314-1.094,2.0486-2.4435,2.0486h-2.6105c-1.3495,0-2.4434-.9172-2.4434-2.0486h0c0-1.1315,1.094-2.0486,2.4434-2.0486Z"/>
        <path class="cls-4" d="M1005.6762,346.4683l-2.1976,14.7525c-.3947,2.6498-3.0813,4.6384-6.2664,4.6384h0c-6.1304,0-11.4397,3.567-12.7757,8.5832l-6.6968,25.1458h46.2603s0-53.1199,0-53.1199h-18.3238Z"/>
        <path class="cls-4" d="M952.3848,382.6351h-5.7785c-1.3495,0-2.4434-.9172-2.4434-2.0486h0c0-1.1314,1.094-2.0486,2.4434-2.0486h5.7785c1.3495,0,2.4435.9172,2.4435,2.0486h0c0,1.1315-1.094,2.0486-2.4435,2.0486Z"/>
        <path class="cls-2" d="M1024,350.9367h-48.9066c-2.2823,0-3.3495-2.3688-1.6372-3.6338h0c4.6258-3.4174,10.5796-5.3028,16.7451-5.3028h33.7987v8.9367Z"/>
        <path class="cls-5" d="M956.2681,397.8342l-20.0432,44.7941h27.7955s6.3872-15.5303,6.3872-15.5303c.9927-2.4136,3.7026-4.0334,6.7478-4.0334h0c4.2774,0,8.4229-1.2411,11.7329-3.5125l9.6807-6.6434c2.6703-1.8325,4.2188-4.5729,4.2188-7.466v-7.6085h-46.5196Z"/>
        <path class="cls-2" d="M1024,394.6822h-51.3639c-5.6701,0-11.2663,1.0777-16.368,3.1521h0c-3.9948,1.6243-2.6152,6.66,1.8246,6.66h65.9073s0-9.8121,0-9.8121Z"/>
        <path class="cls-4" d="M999.618,434.7481h-7.4958c-1.7505,0-3.1696-1.1898-3.1696-2.6574h0c0-1.4676,1.4191-2.6574,3.1696-2.6574h7.4958c1.7505,0,3.1696,1.1898,3.1696,2.6574h0c0,1.4676-1.4191,2.6574-3.1696,2.6574Z"/>
        <path class="cls-4" d="M1024,425.1389h-12.3703c-3.2328,0-5.8535-2.1972-5.8535-4.9076h0c0-2.7104,2.6207-4.9076,5.8535-4.9076h12.3703v9.8152Z"/>
        <path class="cls-5" d="M953.9052,420.2313l12.0656,39.8648h-134.9872s18.4845-18.2594,18.4845-18.2594c2.3908-2.3617,5.8989-3.7231,9.5935-3.7231h0c6.1786,0,11.9768-2.5022,15.5673-6.718l9.5068-11.1627,69.7694-.0016Z"/>
        <path class="cls-1" d="M965.9709,460.0961l-12.0656-39.8648-11.3411.0016v.575c0,6.2313-6.0252,11.2829-13.4576,11.2829h0c-3.1414,0-6.0466,1.3983-7.6307,3.6727l-16.9476,24.3327h61.4426Z"/>
        <path class="cls-2" d="M950.4369,415.3268h-47.8957c-5.67,0-11.2662,1.0777-16.3679,3.1521h0c-3.9948,1.6243-2.6152,6.66,1.8246,6.66h57.6722c4.5481,0,8.2351-3.0912,8.2351-6.9043h0c0-1.6059-1.5528-2.9078-3.4683-2.9078Z"/>
        <path class="cls-4" d="M892.8641,433.5305h-5.7785c-1.3495,0-2.4435-.9172-2.4435-2.0486h0c0-1.1314,1.094-2.0486,2.4435-2.0486h5.7785c1.3495,0,2.4434.9172,2.4434,2.0486h0c0,1.1315-1.094,2.0486-2.4434,2.0486Z"/>
        <path class="cls-4" d="M883.6329,444.677h-17.4021c-1.3495,0-2.4435-.9172-2.4435-2.0486h0c0-1.1314,1.094-2.0486,2.4435-2.0486h17.4021c1.3495,0,2.4434.9172,2.4434,2.0486h0c0,1.1315-1.094,2.0486-2.4434,2.0486Z"/>
      </g>
      <rect class="cls-1" y="480" width="1024" height="120"/>
    </g>
  </g>
</svg>